<svg id="b6117b06-2b45-45bc-b789-4a82ab6612dd" data-name="Layer 1" xmlns="http://www.w3.org/2000/svg" width="1139.171" height="654.543"><circle cx="246.827" cy="521.765" r="59.243" fill="#f2f2f2"/><circle cx="256.46" cy="513.095" r="59.243" fill="#892cdc"/><path fill="#3f3d56" d="M304.171 447.543h733v2h-733z"/><path d="M714.207 141.38h-260.17v-5.362h-117.97v5.363H74.825a17.599 17.599 0 00-17.599 17.598v356.252a17.599 17.599 0 0017.599 17.599h639.382a17.599 17.599 0 0017.599-17.599V158.98a17.599 17.599 0 00-17.599-17.598z" transform="translate(-30.415 -122.728)" fill="#3f3d56"/><path fill="#892cdc" d="M50.406 49.754h627.391v353.913H50.406z"/><circle cx="363.565" cy="33.667" r="6.435" fill="#892cdc"/><path opacity=".1" d="M498.374 403.667H50.406V49.754l447.968 353.913z"/><circle cx="148.574" cy="316.876" r="60.307" fill="#f2f2f2"/><path fill="#3f3d56" d="M509.953 240.622h58.605v12.246h-58.605zm-70.851-95.343h200.307v5.248H439.102zm0 16.619h200.307v5.248H439.102zm0 16.62h200.307v5.248H439.102zm0 16.619h200.307v5.248H439.102zm0 16.619h200.307v5.248H439.102z"/><path fill="#f2f2f2" d="M614.917 56.934h24.492v24.492h-24.492z"/><path d="M681.195 215.525h-29.74v-29.74h29.74zm-28.447-1.293h27.154v-27.154h-27.154zm96.674 305.728h-61.23v-4.411a.875.875 0 00-.874-.875h-20.993a.875.875 0 00-.875.875v4.411h-13.12v-4.411a.875.875 0 00-.875-.875h-20.993a.875.875 0 00-.875.875v4.411h-13.12v-4.411a.875.875 0 00-.875-.875h-20.993a.875.875 0 00-.875.875v4.411h-13.12v-4.411a.875.875 0 00-.875-.875h-20.993a.875.875 0 00-.875.875v4.411h-13.12v-4.411a.875.875 0 00-.875-.875h-20.993a.875.875 0 00-.875.875v4.411h-13.12v-4.411a.875.875 0 00-.875-.875H487.01a.875.875 0 00-.874.875v4.411h-13.121v-4.411a.875.875 0 00-.875-.875H307.696a.875.875 0 00-.875.875v4.411h-13.12v-4.411a.875.875 0 00-.875-.875h-20.993a.875.875 0 00-.875.875v4.411h-13.12v-4.411a.875.875 0 00-.875-.875H235.97a.875.875 0 00-.875.875v4.411h-13.12v-4.411a.875.875 0 00-.875-.875h-20.993a.875.875 0 00-.874.875v4.411h-13.121v-4.411a.875.875 0 00-.875-.875h-20.993a.875.875 0 00-.874.875v4.411h-13.12v-4.411a.875.875 0 00-.876-.875h-20.993a.875.875 0 00-.874.875v4.411h-13.12v-4.411a.875.875 0 00-.876-.875H92.52a.875.875 0 00-.875.875v4.411H51.407a20.993 20.993 0 00-20.992 20.993v9.493a20.993 20.993 0 0020.992 20.992h698.015a20.993 20.993 0 0020.993-20.992v-9.493a20.993 20.993 0 00-20.993-20.993zm-555.836-42.688a76 76 0 1176-76 76.086 76.086 0 01-76 76zm0-150a74 74 0 1074 74 74.084 74.084 0 00-74-74z" transform="translate(-30.415 -122.728)" fill="#3f3d56"/><path fill="#3f3d56" d="M586.171 32.543h255v2h-255zm-180 528h733v2h-733zm-213.499 92h255v2h-255z"/><path fill="#892cdc" d="M471 550h28v28h-28z"/><path d="M546.415 684.728h-34v-34h34zm-32.522-1.478h31.043v-31.043h-31.043z" transform="translate(-30.415 -122.728)" fill="#3f3d56"/><path fill="#892cdc" d="M796 22h28v28h-28z"/><path d="M871.415 156.728h-34v-34h34zm-32.522-1.478h31.043v-31.043h-31.043z" transform="translate(-30.415 -122.728)" fill="#3f3d56"/><path fill="#892cdc" d="M1078 550h28v28h-28z"/><path d="M1153.415 684.728h-34v-34h34zm-32.522-1.478h31.043v-31.043h-31.043zm-33.307-328.563h-2.379v-65.162a37.714 37.714 0 00-37.714-37.714H909.44a37.714 37.714 0 00-37.714 37.714v357.481a37.714 37.714 0 0037.714 37.714h138.053a37.714 37.714 0 0037.714-37.714V401.07h2.379z" transform="translate(-30.415 -122.728)" fill="#3f3d56"/><path d="M1077.176 291.742v356.96a28.165 28.165 0 01-28.16 28.17h-138.72a28.165 28.165 0 01-28.16-28.17v-356.96a28.163 28.163 0 0128.16-28.16h16.83a13.38 13.38 0 0012.39 18.43h79.09a13.38 13.38 0 0012.39-18.43h18.02a28.163 28.163 0 0128.16 28.16z" transform="translate(-30.415 -122.728)" fill="#892cdc"/><path fill="#3f3d56" d="M928.58 376.218h41.324v12.246H928.58zm-49.959-95.343h141.24v5.248h-141.24zm0 16.619h141.24v5.248h-141.24zm0 16.62h141.24v5.248h-141.24zm0 16.619h141.24v5.248h-141.24zm0 16.619h141.24v5.248h-141.24z"/><path fill="#f2f2f2" d="M929.684 211.179h24.492v24.492h-24.492z"/><path d="M969.474 340.032v29.74h29.74v-29.74zm28.45 28.45h-27.16v-27.16h27.16z" transform="translate(-30.415 -122.728)" fill="#3f3d56"/><path d="M1077.176 610.582v38.12a28.165 28.165 0 01-28.16 28.17h-138.72a28.165 28.165 0 01-28.16-28.17v-192.21l116.87 92.33 2 1.58 21.74 17.17 2.03 1.61z" transform="translate(-30.415 -122.728)" opacity=".1"/><circle cx="937.241" cy="498.707" r="43.868" fill="#f2f2f2"/><path d="M350.586 777.272a87 87 0 1187-87 87.099 87.099 0 01-87 87zm0-172a85 85 0 1085 85 85.096 85.096 0 00-85-85zm630 50a55 55 0 1155-55 55.062 55.062 0 01-55 55zm0-108a53 53 0 1053 53 53.06 53.06 0 00-53-53z" transform="translate(-30.415 -122.728)" fill="#3f3d56"/></svg>