<svg id="ad97e2e6-c06f-4161-a008-15821dcd6927" data-name="Layer 1" xmlns="http://www.w3.org/2000/svg" width="1070.067" height="619.351"><path d="M614.786 666.325c-2.774 0-5.577-.044-8.328-.13l.063-1.998c3.95.123 7.981.157 11.95.102l.027 2q-1.853.025-3.712.026zm15.745-.464l-.117-1.996c3.956-.234 7.963-.562 11.91-.975l.208 1.988c-3.976.417-8.013.748-12 .983zm-36.095-.312c-3.99-.305-8.02-.706-11.983-1.192l.244-1.984c3.932.481 7.932.88 11.89 1.182zm60.039-2.199l-.3-1.976c3.93-.597 7.891-1.29 11.77-2.06l.389 1.96a265.166 265.166 0 01-11.86 2.076zm-83.935-.731a263.661 263.661 0 01-11.824-2.284l.425-1.955c3.874.842 7.821 1.604 11.733 2.266zm107.548-3.962l-.48-1.942a261.868 261.868 0 0011.532-3.133l.568 1.918a263.185 263.185 0 01-11.62 3.157zm-131.076-1.147a260.899 260.899 0 01-11.563-3.363l.603-1.906a258.77 258.77 0 0011.473 3.336zm154.158-5.7l-.656-1.89a260.518 260.518 0 0011.194-4.183l.742 1.857a262.258 262.258 0 01-11.28 4.215zm-177.146-1.567a260.887 260.887 0 01-11.227-4.426l.776-1.844a259.467 259.467 0 0011.142 4.393zm199.475-7.368l-.828-1.82a260.025 260.025 0 0010.742-5.184l.91 1.78a262.832 262.832 0 01-10.824 5.224zm-221.71-1.995a262.849 262.849 0 01-10.766-5.437l.942-1.764a262.017 262.017 0 0010.684 5.397zm243.109-8.944l-.99-1.736a263.482 263.482 0 0010.229-6.149l1.068 1.69a262.45 262.45 0 01-10.308 6.195zm-264.376-2.418a264.374 264.374 0 01-10.217-6.4l1.1-1.67a261.522 261.522 0 0010.139 6.351zm284.699-10.44l-1.145-1.638a263.936 263.936 0 009.631-7.06l1.219 1.585a264.015 264.015 0 01-9.705 7.114zm-304.826-2.816a265.59 265.59 0 01-9.585-7.302l1.248-1.562a263.426 263.426 0 009.512 7.245zm323.903-11.846l-1.29-1.529a264.588 264.588 0 008.954-7.91l1.357 1.469a265.635 265.635 0 01-9.021 7.97zm-342.728-3.185a264.456 264.456 0 01-8.877-8.14l1.385-1.443a262.91 262.91 0 008.81 8.079zm360.4-13.161l-1.423-1.404c2.79-2.828 5.55-5.753 8.201-8.696l1.486 1.338a265.719 265.719 0 01-8.263 8.762zm-377.772-3.512a266.276 266.276 0 01-8.097-8.91l1.51-1.31a262.749 262.749 0 008.036 8.841zm393.893-14.38l-1.545-1.27a262.955 262.955 0 007.378-9.408l1.601 1.197a263.038 263.038 0 01-7.434 9.481zm-409.671-3.797a264.06 264.06 0 01-7.25-9.604l1.623-1.168a263.76 263.76 0 007.195 9.532zm424.1-15.497l-1.655-1.123a260.986 260.986 0 006.493-10.048l1.705 1.047a265.42 265.42 0 01-6.543 10.124zm-438.151-4.029a265.47 265.47 0 01-6.34-10.22l1.723-1.015a263.225 263.225 0 006.292 10.141zm450.766-16.51l-1.75-.968a262.08 262.08 0 005.546-10.606l1.793.887a263.599 263.599 0 01-5.59 10.686zm-462.97-4.206a263.165 263.165 0 01-5.376-10.75l1.808-.853a262.51 262.51 0 005.335 10.668zm473.65-17.416l-1.832-.803a260.779 260.779 0 004.55-11.078l1.866.717a263.039 263.039 0 01-4.584 11.164zm-483.902-4.315a262.322 262.322 0 01-4.364-11.19l1.88-.684a260.255 260.255 0 004.33 11.104zm492.55-18.216l-1.898-.629a258.81 258.81 0 003.5-11.426l1.926.541a262.392 262.392 0 01-3.527 11.514zm-500.766-4.383a262.855 262.855 0 01-3.323-11.574l1.934-.508a260.86 260.86 0 003.298 11.486zm507.285-18.795l-1.948-.453a260.32 260.32 0 002.434-11.698l1.967.361a261.688 261.688 0 01-2.453 11.79zm-513.394-4.494a263.187 263.187 0 01-2.243-11.83l1.973-.328c.65 3.915 1.399 7.864 2.226 11.74zm517.753-19.184l-1.983-.271c.539-3.917.993-7.911 1.351-11.872l1.992.18c-.361 3.992-.82 8.016-1.36 11.963zm-521.694-4.566a266.03 266.03 0 01-1.151-11.984l1.995-.147c.29 3.964.674 7.965 1.142 11.895zm523.869-19.41l-1.998-.089c.177-3.963.268-7.982.268-11.946h2c0 3.994-.09 8.044-.27 12.036zm-525.626-4.6a270.065 270.065 0 01-.104-7.435q0-2.309.04-4.609l2 .035q-.04 2.283-.04 4.574c0 2.462.035 4.945.103 7.38zm523.881-10.225a266.462 266.462 0 00-.393-11.947l1.996-.111c.222 3.992.355 8.042.397 12.036zm-521.47-13.723l-1.997-.125c.25-3.997.594-8.033 1.024-11.997l1.988.215c-.426 3.935-.768 7.94-1.016 11.907zm520.141-10.135a261.967 261.967 0 00-1.476-11.858l1.978-.292a266.347 266.347 0 011.489 11.948zm-517.569-13.618l-1.976-.306a262.457 262.457 0 012.116-11.854l1.96.396a260.686 260.686 0 00-2.1 11.764zm514.074-10.016a262.757 262.757 0 00-2.558-11.672l1.943-.473c.942 3.873 1.81 7.83 2.578 11.761zM361.61 339.642l-1.94-.487a263.142 263.142 0 013.198-11.61l1.915.576a261.244 261.244 0 00-3.173 11.52zm503.685-9.814a260.237 260.237 0 00-3.622-11.387l1.89-.65a261.598 261.598 0 013.652 11.475zm-496.8-13.1l-1.887-.663c1.33-3.78 2.765-7.58 4.266-11.291l1.854.75a259.64 259.64 0 00-4.233 11.204zm489.033-9.495a262.386 262.386 0 00-4.644-10.98l1.824-.82a263.726 263.726 0 014.68 11.063zm-480.056-12.702l-1.818-.835a263.142 263.142 0 015.285-10.843l1.777.917a260.744 260.744 0 00-5.244 10.76zm470.268-9.036a261.684 261.684 0 00-5.636-10.515l1.74-.985a262.916 262.916 0 015.68 10.596zm-459.291-12.23l-1.734-.997a264.58 264.58 0 016.254-10.307l1.686 1.077a262.151 262.151 0 00-6.206 10.228zm447.541-8.535a263.887 263.887 0 00-6.577-9.961l1.643-1.14a264.806 264.806 0 016.628 10.038zm-434.668-11.623l-1.635-1.152a264.3 264.3 0 017.167-9.688l1.58 1.226a263.263 263.263 0 00-7.112 9.614zm421.064-7.992a263.192 263.192 0 00-7.462-9.327l1.533-1.285c2.56 3.056 5.09 6.217 7.519 9.398zm-406.41-10.9l-1.523-1.296a265.863 265.863 0 018.015-8.99l1.462 1.363a264.998 264.998 0 00-7.955 8.924zm391.069-7.407a263.913 263.913 0 00-8.282-8.614l1.41-1.42a266.89 266.89 0 018.345 8.68zM432.28 216.744l-1.399-1.43c2.86-2.798 5.82-5.564 8.796-8.221l1.332 1.492a262.92 262.92 0 00-8.73 8.159zm357.818-6.78a264.081 264.081 0 00-9.035-7.828l1.275-1.541a266.497 266.497 0 019.103 7.887zm-340-9.132l-1.263-1.55a265.356 265.356 0 019.502-7.385l1.192 1.606a263.515 263.515 0 00-9.43 7.33zm321.582-6.107a264.576 264.576 0 00-9.715-6.976l1.129-1.65a265.433 265.433 0 019.789 7.028zm-302.4-8.11l-1.116-1.66a264.426 264.426 0 0110.13-6.484l1.04 1.71a263.392 263.392 0 00-10.054 6.434zm282.66-5.391a262.43 262.43 0 00-10.316-6.062l.973-1.747c3.492 1.945 6.989 4 10.395 6.107zm-262.272-7.01l-.96-1.755a264.28 264.28 0 0110.674-5.528l.879 1.797a261.59 261.59 0 00-10.593 5.485zm241.37-4.634a261.335 261.335 0 00-10.835-5.091l.809-1.83a262.995 262.995 0 0110.919 5.13zm-219.948-5.845l-.795-1.835a262.663 262.663 0 0111.128-4.522l.71 1.87a260.221 260.221 0 00-11.043 4.487zm198.052-3.834a260.268 260.268 0 00-11.266-4.072l.637-1.896c3.8 1.276 7.62 2.656 11.351 4.104zm-175.744-4.637l-.623-1.9c3.801-1.246 7.68-2.42 11.526-3.487l.535 1.927a259.54 259.54 0 00-11.438 3.46zm153.064-2.973a259.985 259.985 0 00-11.563-3.01l.459-1.947c3.888.917 7.808 1.937 11.653 3.033zm-130.042-3.416l-.445-1.95c3.897-.89 7.866-1.7 11.797-2.41l.355 1.968c-3.901.704-7.84 1.509-11.707 2.392zm106.788-2.067a260.7 260.7 0 00-11.791-1.933l.277-1.98c3.96.556 7.958 1.211 11.883 1.947zm-83.275-2.176l-.265-1.983c3.959-.528 7.985-.972 11.967-1.319l.174 1.992c-3.952.345-7.947.785-11.876 1.31zm59.616-1.148c-3.94-.37-7.95-.657-11.92-.849l.099-1.998c3.999.194 8.039.482 12.008.856zm-35.815-.929l-.084-1.998a270.13 270.13 0 0111.136-.232l.905.001-.005 2-.9-.001c-3.685 0-7.404.078-11.052.23z" transform="translate(-64.967 -140.325)" fill="#3f3d56"/><path d="M870.967 621.596a12 12 0 1112-12 12.014 12.014 0 01-12 12zm0-22a10 10 0 1010 10 10.011 10.011 0 00-10-10z" transform="translate(-64.967 -140.325)" fill="#2f2e41"/><path d="M551.77 313.734v65.68a2.296 2.296 0 01-2.29 2.29h-1.63v342.15a35.702 35.702 0 01-35.7 35.7H298.36a35.693 35.693 0 01-35.69-35.7v-330.15h-1.18a1.618 1.618 0 01-1.62-1.61v-37.38a1.62 1.62 0 011.62-1.62h1.18v-14.08h-1.19a1.696 1.696 0 01-1.69-1.7v-36.87a1.694 1.694 0 011.69-1.69h1.19v-19.22h-1.21a1.498 1.498 0 01-1.5-1.5v-20.12a1.507 1.507 0 011.5-1.51h1.21v-40.74a35.691 35.691 0 0135.69-35.69h213.79a35.7 35.7 0 0135.7 35.69v95.78h1.63a2.296 2.296 0 012.29 2.29z" transform="translate(-64.967 -140.325)" fill="#3f3d56"/><rect x="313.306" y="57.956" width="39.823" height="8.086" rx="2.542" fill="#e6e8ec"/><circle cx="363.738" cy="61.999" r="4.587" fill="#e6e8ec"/><path d="M530.754 222.724v504.09a22.65 22.65 0 01-22.65 22.64h-204.65a22.61 22.61 0 01-22.65-22.64v-504.09a22.65 22.65 0 0122.65-22.65h30.63v3.93a18.65 18.65 0 0018.65 18.65h104.08a18.65 18.65 0 0018.65-18.65v-3.93h32.64a22.643 22.643 0 0122.65 22.65z" transform="translate(-64.967 -140.325)" fill="#892cdc"/><path opacity=".2" d="M225.828 225h232v113h-232z"/><path fill="#f2f2f2" d="M589.828 96h232v113h-232z"/><path fill="#3f3d56" d="M225.828 396.279h232v113h-232z"/><circle cx="433.828" cy="121.279" r="20" fill="#fff"/><path fill="#3f3d56" d="M442.828 120.636h-8.358v-8.357h-1.285v8.357h-8.357v1.286h8.357v8.357h1.285v-8.357h8.358v-1.286zm121-39.636h232v113h-232z"/><path d="M732.36 297.195c6.074 22.45 26.876 36.354 26.876 36.354s10.955-22.495 4.882-44.945-26.875-36.354-26.875-36.354-10.955 22.495-4.882 44.945z" transform="translate(-64.967 -140.325)" fill="#fff"/><path d="M741.285 292.37c16.665 16.223 18.7 41.16 18.7 41.16s-24.983-1.364-41.648-17.586-18.7-41.16-18.7-41.16 24.983 1.364 41.648 17.586z" transform="translate(-64.967 -140.325)" fill="#892cdc"/><path d="M384.203 614.195c6.073 22.45 26.875 36.354 26.875 36.354s10.955-22.495 4.882-44.945-26.875-36.354-26.875-36.354-10.955 22.495-4.882 44.945z" transform="translate(-64.967 -140.325)" fill="#fff"/><path d="M393.127 609.37c16.665 16.223 18.7 41.16 18.7 41.16s-24.983-1.364-41.648-17.586-18.7-41.16-18.7-41.16 24.983 1.364 41.648 17.586z" transform="translate(-64.967 -140.325)" fill="#892cdc"/><path d="M439.452 614.195c-6.073 22.45-26.875 36.354-26.875 36.354s-10.956-22.495-4.883-44.945 26.875-36.354 26.875-36.354 10.956 22.495 4.883 44.945z" transform="translate(-64.967 -140.325)" fill="#fff"/><path d="M430.528 609.37c-16.665 16.223-18.7 41.16-18.7 41.16s24.983-1.364 41.648-17.586 18.7-41.16 18.7-41.16-24.984 1.364-41.648 17.586z" transform="translate(-64.967 -140.325)" fill="#892cdc"/><path d="M680.794 476.886h-19.74v-19.741h19.74zm-18.222-1.519h16.704v-16.704h-16.704z" transform="translate(-64.967 -140.325)" fill="#3f3d56"/><path d="M162.438 598.966l-13.465-14.436 14.436-13.465 13.465 14.436zm-11.319-14.361l11.394 12.215 12.215-11.394-11.394-12.215z" transform="translate(-64.967 -140.325)" fill="#2f2e41"/><circle cx="108.138" cy="137.956" r="10.079" fill="#3f3d56"/><path d="M173.104 307.397a29.116 29.116 0 1129.116-29.116 29.149 29.149 0 01-29.116 29.116zm0-55.992a26.876 26.876 0 1026.877 26.876 26.907 26.907 0 00-26.877-26.876z" transform="translate(-64.967 -140.325)" fill="#2f2e41"/><path fill="#3f3d56" d="M0 617.311h1039.828v2H0zM275.828 207h232v113h-232z"/><path fill="#fff" d="M390.975 245.744h2v74.411h-2z"/><circle cx="391.975" cy="246.744" r="10.523" fill="#892cdc"/><path d="M456.942 431.93s-1.503-32.332-32.32-28.574" transform="translate(-64.967 -140.325)" fill="#fff"/><path d="M779 654.72l-128.691 40.261-160.088-101.02-.007-.006-.525-.324-.086-.057-1.273-.798-15.242-9.591c.03-.259.065-.51.115-.755a6.905 6.905 0 011.568-3.2 7.695 7.695 0 01.906-.905h.007a7.67 7.67 0 01.453-.36q.237-.183.496-.345c2.948-1.977 7.39-2.818 12.02-3.07a57.215 57.215 0 0128.852 6.255c17.995 9.102 56.674 27.01 62.706 16.04 7.909-14.38-81.96-174.704-81.96-174.704-7.397-19.016-1.984-25.228 1.41-27.183.1-.058.2-.116.295-.166a8.366 8.366 0 011.114-.474 5.15 5.15 0 01.61-.18 1.391 1.391 0 01.166-.036l11.92 15.846.18.237.64.855.194.26 72.261 96.036c110.718-59.673 148.822 99.934 148.822 99.934z" transform="translate(-64.967 -140.325)" fill="#fbbebe"/><path d="M514.78 411.3a3.125 3.125 0 01-2.897 1.76 4.592 4.592 0 01-1.18-.158c-2.674-.719-5.772-3.652-8.087-7.656-2.258-3.911-3.185-7.844-2.66-10.454a8.366 8.366 0 011.114-.474 5.15 5.15 0 01.61-.18c-.927 1.819-.373 5.953 2.187 10.389 2.092 3.63 4.924 6.377 7.203 6.98a1.957 1.957 0 002.696-1.56l.18.238.64.855zm-25.091 182.331l-.086-.057-1.273-.798c.007-2.05-1.546-5.407-4.975-8.779-2.897-2.825-6.262-4.68-8.584-4.766a7.695 7.695 0 01.906-.906h.007a7.67 7.67 0 01.453-.36 18.745 18.745 0 018.224 5.004c3.768 3.703 5.838 7.923 5.328 10.662z" transform="translate(-64.967 -140.325)" fill="#3f3d56"/><path d="M1012.706 593.514c28.252 85.025 18.33 164.858 18.33 164.858s-55.727-58.02-83.979-143.045-18.33-164.858-18.33-164.858 55.728 58.02 83.98 143.045z" transform="translate(-64.967 -140.325)" fill="#892cdc"/><path d="M1049.366 593.514c-28.252 85.025-18.33 164.858-18.33 164.858s55.727-58.02 83.979-143.045 18.33-164.858 18.33-164.858-55.728 58.02-83.98 143.045z" transform="translate(-64.967 -140.325)" fill="#892cdc"/><path d="M1060.744 594.433c1.894 89.576-31.152 162.923-31.152 162.923s-36.117-71.885-38.01-161.46 31.152-162.923 31.152-162.923 36.117 71.884 38.01 161.46z" transform="translate(-64.967 -140.325)" fill="#3f3d56"/><circle cx="961.197" cy="374.944" r="8.769" fill="#892cdc"/><circle cx="944.146" cy="445.096" r="4.872" fill="#892cdc"/><circle cx="884.711" cy="396.866" r="4.872" fill="#3f3d56"/><circle cx="1056.682" cy="349.611" r="4.872" fill="#3f3d56"/><circle cx="910.044" cy="442.66" r="4.872" fill="#3f3d56"/><circle cx="1012.349" cy="414.405" r="4.872" fill="#3f3d56"/><circle cx="912.967" cy="514.274" r="4.872" fill="#3f3d56"/><circle cx="1017.221" cy="486.506" r="4.872" fill="#3f3d56"/><circle cx="969.966" cy="491.377" r="4.872" fill="#892cdc"/></svg>