<svg xmlns="http://www.w3.org/2000/svg" viewBox="0 0 32.45 31.47"><defs><style>.cls-1{fill:#4b21ff}</style></defs><g id="Слой_2" data-name="Слой 2"><g id="Слой_1-2" data-name="Слой 1"><path class="cls-1" d="M31.45 31.47l-22.39-.12a1 1 0 01-1-1v-4.57a9.6 9.6 0 019.59-9.59h5.19a9.57 9.57 0 019.53 8.52 1 1 0 11-2 .22 7.57 7.57 0 00-7.54-6.74h-5.18a7.6 7.6 0 00-7.59 7.59v3.58l20.39.11V29a1 1 0 112 0v1.49a1 1 0 01-1 1z"/><path class="cls-1" d="M22.5 16.89h-3.37a5 5 0 01-4.95-4.95v-7A5 5 0 0119.13 0h7.32a1 1 0 011 1v10.94a5 5 0 01-4.95 4.95zM19.13 2a3 3 0 00-2.95 2.95v7a3 3 0 002.95 2.95h3.37a3 3 0 002.95-2.95V2z"/><path class="cls-1" d="M22.26 8.24h-7.08a1 1 0 010-2h7.08a3.19 3.19 0 003.19-3.19V1.52a1 1 0 012 0v1.53a5.19 5.19 0 01-5.19 5.19zM20.5 23.37a1 1 0 01-.74-.32l-4-4.34a1 1 0 011.47-1.36l3.21 3.48 1.1-1.39a1 1 0 111.57 1.24L21.28 23a1 1 0 01-.75.38zm-10.37-8.08H1a1 1 0 010-2h9.13a1 1 0 010 2z"/><path class="cls-1" d="M5.56 19.85a1 1 0 01-1-1V9.72a1 1 0 012 0v9.13a1 1 0 01-1 1z"/></g></g></svg>