<svg xmlns="http://www.w3.org/2000/svg" viewBox="0 0 23.46 32.58"><defs><style>.cls-1{fill:#4b21ff}</style></defs><g id="Слой_2" data-name="Слой 2"><g id="Слой_1-2" data-name="Слой 1"><path class="cls-1" d="M22.61 32.58H.85a.85.85 0 01-.85-.85V31a9.22 9.22 0 019.21-9.21h5A9.22 9.22 0 0123 28a.85.85 0 01-1.61.56 7.51 7.51 0 00-7.09-5.05h-5a7.51 7.51 0 00-7.5 7.35h20.81a.85.85 0 010 1.7z"/><path class="cls-1" d="M13.82 22.76h-3.07A4.8 4.8 0 016 18v-6.63a4.8 4.8 0 014.8-4.8h7a.85.85 0 01.85.85V18a4.8 4.8 0 01-4.83 4.76zM10.75 8.27a3.1 3.1 0 00-3.1 3.1V18a3.1 3.1 0 003.1 3.1h3.07a3.1 3.1 0 003.1-3.1V8.27z"/><path class="cls-1" d="M13.69 14.34H6.8a.85.85 0 110-1.7h6.89a3.23 3.23 0 003.22-3.22V7.93a.85.85 0 111.7 0v1.49a4.93 4.93 0 01-4.92 4.92zM12 28.63a.85.85 0 01-.62-.27l-4-4.29a.85.85 0 011.25-1.15L12 26.51l1.51-1.72a.85.85 0 011.28 1.12l-2.13 2.44a.85.85 0 01-.63.29zm.73-23.69c-2.94 0-5.9-.76-5.9-2.47S9.79 0 12.73 0s5.9.76 5.9 2.47-2.96 2.47-5.9 2.47zM8.64 2.47a8.47 8.47 0 004.09.77 8.47 8.47 0 004.09-.77 8.47 8.47 0 00-4.09-.77 8.47 8.47 0 00-4.09.77zM17 2.6z"/></g></g></svg>