<svg xmlns="http://www.w3.org/2000/svg" viewBox="0 0 25.87 36.11"><defs><style>.cls-1{fill:#4b21ff}</style></defs><g id="Слой_2" data-name="Слой 2"><g id="Слой_1-2" data-name="Слой 1"><path class="cls-1" d="M9.13 28a1 1 0 01-.71-1.71L16 18.66a1 1 0 011.41 1.41l-7.57 7.62a1 1 0 01-.71.31z"/><path class="cls-1" d="M16.74 28a1 1 0 01-.71-.29l-7.61-7.63a1 1 0 011.41-1.41l7.61 7.61a1 1 0 01-.7 1.72z"/><path class="cls-1" d="M12.94 36.11a12.94 12.94 0 113.85-25.29 1 1 0 11-.59 1.91 10.95 10.95 0 103.22 1.63 1 1 0 111.18-1.61 12.94 12.94 0 01-7.65 23.37z"/><path class="cls-1" d="M16 12.24a1 1 0 01-1-1V8.91h-4.14v2.33a1 1 0 01-2 0V7.91a1 1 0 011-1H16a1 1 0 011 1v3.33a1 1 0 01-1 1z"/><path class="cls-1" d="M13.27 8.27h-.09a1 1 0 01-.91-1.09c0-.26 0-.36-.36-.75A3.37 3.37 0 0111 3.89C11.12 1 12.83.17 13 .08a1 1 0 11.8 1.83s-.75.44-.8 2.09a1.42 1.42 0 00.48 1.16 2.79 2.79 0 01.82 2.21 1 1 0 01-1.03.9z"/></g></g></svg>