<svg xmlns="http://www.w3.org/2000/svg"><symbol id="wallet" viewBox="0 0 469.341 469.341"><path d="M448.004 236.639v-65.965c0-22.368-17.35-40.559-39.271-42.323l-61.26-107c-5.677-9.896-14.844-16.969-25.813-19.906-10.917-2.917-22.333-1.385-32.104 4.302L79.553 128.007H42.67c-23.531 0-42.667 19.135-42.667 42.667v256c0 23.531 19.135 42.667 42.667 42.667h362.667c23.531 0 42.667-19.135 42.667-42.667v-65.965c12.389-4.418 21.333-16.147 21.333-30.035v-64c0-13.888-8.944-25.617-21.333-30.035zm-64.06-108.632h-92.971l69.729-40.596 23.242 40.596zm-33.841-59.109l-101.529 59.109h-42.113l133.112-77.5 10.53 18.391zm-49.808-44.714c4.823-2.823 10.458-3.573 15.844-2.135 5.448 1.458 9.99 4.979 12.813 9.906l.022.039-164.91 96.013h-42.111L300.295 24.184zm126.375 402.49c0 11.76-9.573 21.333-21.333 21.333H42.67c-11.76 0-21.333-9.573-21.333-21.333v-256c0-11.76 9.573-21.333 21.333-21.333h362.667c11.76 0 21.333 9.573 21.333 21.333v64h-64c-35.292 0-64 28.708-64 64s28.708 64 64 64h64v64zm21.334-96c0 5.885-4.781 10.667-10.667 10.667H362.67c-23.531 0-42.667-19.135-42.667-42.667 0-23.531 19.135-42.667 42.667-42.667h74.667c5.885 0 10.667 4.781 10.667 10.667v64z"/><path d="M362.67 277.341c-11.76 0-21.333 9.573-21.333 21.333 0 11.76 9.573 21.333 21.333 21.333 11.76 0 21.333-9.573 21.333-21.333.001-11.76-9.572-21.333-21.333-21.333z"/></symbol><symbol id="add-people" viewBox="0 0 512 512"><path d="M383.537 181.5a80 80 0 10-79.139-.037c-26.07 7.432-49.479 22.306-68.325 43.68a140.15 140.15 0 00-28.516-11.655 80 80 0 10-79.094.012A143.766 143.766 0 0060.187 257C31.692 289.19 16 334.292 16 384a8 8 0 004.115 6.993C23.129 392.668 94.769 432 168 432a269.863 269.863 0 0057.458-6.466 95.993 95.993 0 00182.2-33.422c48.906-11.75 83.034-32.379 84.517-33.286A8 8 0 00496 352c0-49.708-15.692-94.81-44.187-127a143.766 143.766 0 00-68.276-43.5zM280 112a64 64 0 1164 64 64.072 64.072 0 01-64-64zm-176 32a64 64 0 1164 64 64.072 64.072 0 01-64-64zm115.7 266.408A252.5 252.5 0 01168 416c-59.383 0-119.8-28.588-135.947-36.81.964-43.875 15.122-83.351 40.114-111.581C97.062 239.487 131.1 224 168 224c47.507 0 89.391 25.567 113.745 68.889A96.039 96.039 0 00219.7 410.408zM312 464a80 80 0 1180-80 80.091 80.091 0 01-80 80zm95.631-88.365a96.018 96.018 0 00-109.765-86.592c-12.1-22.946-28.535-41.682-47.973-55.335C274.629 206.747 307.719 192 344 192c36.9 0 70.938 15.487 95.833 43.609 25.029 28.273 39.192 67.82 40.119 111.776a319.106 319.106 0 01-72.321 28.25z"/><path d="M352 376h-32v-32a8 8 0 00-16 0v32h-32a8 8 0 000 16h32v32a8 8 0 0016 0v-32h32a8 8 0 000-16z"/></symbol><symbol id="no-risk" viewBox="0 0 471.7 471.7"><path d="M360.8 200.6v-74.7c.2-33.8-13.3-66.3-37.4-90C300.1 12.7 269.6 0 237.3 0h-1.6c-68.9.1-124.9 56.5-124.9 125.9v74.7c-26 3.1-45 24.9-45 51.3v167.8c0 28.5 22.8 52 51.3 52h237.5c28.5 0 51.3-23.5 51.3-52V251.9c-.1-26.3-19.1-48.2-45.1-51.3zm-230.1-74.7h.1c0-58.4 47.1-106.2 105-106.2h.1c27.5-.1 53.9 10.8 73.4 30.2 20.3 20.1 31.6 47.5 31.4 76v74.8h-22v-74.8c.2-22.7-8.8-44.5-24.9-60.5-15.2-15.2-35.8-23.8-57.3-23.8h-.6c-46 0-83.2 37.8-83.2 84.2v74.9h-22v-74.8zm168.1 0v74.8h-126v-74.8c0-35.4 28.2-64.2 63.2-64.2h.6c16.2 0 31.8 6.5 43.3 18 12.2 12.2 19.1 28.9 18.9 46.2zm88 294.1c0 17.5-14.2 31.7-31.7 31.7H117.5c-17.5 0-31.7-14.2-31.7-31.7V252.4c0-17.5 14.2-31.7 31.7-31.7h237.6c17.5 0 31.7 14.2 31.7 31.7V420z"/><path d="M270.4 330c-4.4-15.5-18.5-26.1-34.6-26.1-19.9 0-36.1 16.1-36.1 36.1 0 16.1 10.6 30.2 26.1 34.6v28c0 5.5 4.5 10 10 10s10-4.5 10-10v-28c19.1-5.5 30.2-25.5 24.6-44.6zm-34.6 26c-8.9 0-16.1-7.2-16.1-16.1 0-8.9 7.2-16.1 16.1-16.1 8.9 0 16.1 7.2 16.1 16.1 0 8.9-7.2 16.1-16.1 16.1z"/></symbol><symbol id="like" viewBox="0 0 512 512"><path d="M503.153 288.622c0-12.709-5.48-24.237-14.253-32.253 13.736-7.368 23.1-21.872 23.1-38.521 0-24.085-19.595-43.68-43.68-43.68H343.914V93.996c0-32.341-9.31-55.665-27.67-69.327-29.196-21.722-69.76-9.905-71.473-9.39a8.293 8.293 0 00-5.911 7.943V135.36l-81.323 103.501c-2.541-11.683-12.957-20.46-25.39-20.46H25.987C11.658 218.402 0 230.059 0 244.389v26.54a8.294 8.294 0 008.294 8.294 8.294 8.294 0 008.294-8.294v-26.54c0-5.183 4.217-9.4 9.4-9.4h106.16c5.183 0 9.4 4.217 9.4 9.4v230.013c0 5.183-4.217 9.4-9.4 9.4H25.987c-5.183 0-9.4-4.216-9.4-9.4V306.315a8.294 8.294 0 00-8.294-8.294 8.294 8.294 0 00-8.294 8.294v168.086c0 14.329 11.658 25.987 25.987 25.987h106.16c14.329 0 25.987-11.658 25.987-25.987v-21.967l41.077 20.539a8.294 8.294 0 003.709.876h159.24a8.294 8.294 0 008.294-8.294 8.294 8.294 0 00-8.294-8.294H204.878l-46.745-23.372V264.951l95.541-121.597a8.295 8.295 0 001.773-5.124V29.812c10.761-2.035 33.993-4.409 50.894 8.164 13.925 10.361 20.985 29.208 20.985 56.019v88.467a8.294 8.294 0 008.294 8.294h132.7c14.94 0 27.093 12.154 27.093 27.093s-12.153 27.093-27.093 27.093h-70.773a8.294 8.294 0 00-8.294 8.294 8.294 8.294 0 008.294 8.294s63.33.041 63.622.06c14.242.876 25.398 12.751 25.398 27.033 0 14.939-12.153 27.093-27.093 27.093h-61.927a8.294 8.294 0 00-8.294 8.294 8.294 8.294 0 008.294 8.294h55.366c.355.093.717.172 1.09.219 13.521 1.678 23.717 13.23 23.717 26.874 0 14.939-12.153 27.093-27.093 27.093h-53.08a8.294 8.294 0 00-8.294 8.294 8.294 8.294 0 008.294 8.294h47.671c.51.208 1.045.372 1.606.477 12.776 2.403 22.049 13.596 22.049 26.616 0 14.939-12.153 27.093-27.093 27.093h-44.233a8.294 8.294 0 00-8.294 8.294 8.294 8.294 0 008.294 8.294h44.233c24.085 0 43.68-19.595 43.68-43.68 0-12.637-5.422-24.209-14.233-32.263 13.726-7.371 23.08-21.869 23.08-38.511 0-12.67-5.454-24.219-14.246-32.256 13.734-7.372 23.092-21.873 23.092-38.52z"/><path d="M96.76 413.028c-14.329 0-25.987 11.658-25.987 25.987 0 14.329 11.658 25.987 25.987 25.987s25.987-11.658 25.987-25.987c0-14.329-11.657-25.987-25.987-25.987zm0 35.387c-5.183 0-9.4-4.216-9.4-9.4s4.216-9.4 9.4-9.4 9.4 4.217 9.4 9.4-4.217 9.4-9.4 9.4z"/></symbol><symbol id="group-add" viewBox="0 0 69.28 68.73"><path class="cls-1" d="M21.55 64.54V53.15l.26-.11 2.48 2.48a2.24 2.24 0 01.66 1.58v8.34a1 1 0 001 1H26a1 1 0 001-1V57.1a4.27 4.27 0 00-1.25-3l-3.24-3.24a3.31 3.31 0 011-.73l5.8-2.58 4.3 4.3v15.92a1 1 0 001 1h.1a1 1 0 001-1V51.83l4.3-4.3 5.8 2.58a3.31 3.31 0 011 .73l-3.24 3.24a4.27 4.27 0 00-1.25 3v8.34a1 1 0 001 1h.1a1 1 0 001-1V57.1a2.24 2.24 0 01.58-1.59l2.7-2.71v11.74a1 1 0 001 1h.1a1 1 0 001-1V53.15a5.35 5.35 0 00-3.18-4.89l-5.9-2.62a1.15 1.15 0 01-.72-1.06V43a8.59 8.59 0 003.25-6.73v-2.32a2.1 2.1 0 001.08-1.84v-.22a8.61 8.61 0 00-8.61-8.61h-2.17a8.61 8.61 0 00-8.61 8.61v2a2.13 2.13 0 00.81 1.71 2 2 0 00.28.18v.45A8.59 8.59 0 0029.28 43v1.62a1.15 1.15 0 01-.69 1.06l-5.9 2.62a5.35 5.35 0 00-3.18 4.89v11.4a1 1 0 001 1h.1a1 1 0 00.94-1.05zM34.64 50l-3.77-3.8a3.18 3.18 0 00.45-1.63v-.41a8.6 8.6 0 006.65 0v.41a3.18 3.18 0 00.45 1.63zm-6.58-13.77v-.46a6 6 0 001.84-1.2 1 1 0 00-1.38-1.49A3.64 3.64 0 0127 34a.2.2 0 010-.09v-2a6.58 6.58 0 016.58-6.58h2.17a6.58 6.58 0 016.58 6.58v.22a.07.07 0 010 .07c-6.08 1.2-9.12-1.06-10.15-2.09a1 1 0 10-1.43 1.43c3.15 3.15 7.75 3.21 10.55 2.87v1.83a6.58 6.58 0 01-13.16 0zm-9.76 6.5v-2.17a7.52 7.52 0 00-3.45-6.32 4.22 4.22 0 00-2.91-5.32 3.42 3.42 0 00-1.18-.22 4.27 4.27 0 00-4.06 5.55 7.52 7.52 0 00-3.45 6.32v2.17a7.52 7.52 0 003.25 6.19v2.23a1.16 1.16 0 01-.64 1l-3.5 1.78A4.27 4.27 0 000 57.76v2.3a1 1 0 001 1 1 1 0 001-1V58.2l1.65 1.65a2.24 2.24 0 01.66 1.58v.75a1 1 0 001 1h.1a1 1 0 001-1v-.75a4.27 4.27 0 00-1.25-3l-2.3-2.3a2.27 2.27 0 01.48-.33L6.78 54a3.25 3.25 0 00.5-.31l2.48 2.48v7a1 1 0 001 1h.1a1 1 0 001-1v-7l2.48-2.48a3.18 3.18 0 00.5.31l1 .48a1 1 0 00.91-1.82l-1-.48a1.16 1.16 0 01-.64-1v-2.26a7.52 7.52 0 003.19-6.19zm-7.52-12A2.24 2.24 0 0113 33a2.31 2.31 0 010 .4 7.53 7.53 0 00-4.4 0 2.3 2.3 0 010-.4 2.24 2.24 0 012.18-2.27zm0 4.34a5.5 5.5 0 015.49 5.49v.37a6.37 6.37 0 01-6.85-2.06 1 1 0 00-1.53-.11 6.64 6.64 0 01-2.6 1.66 5.5 5.5 0 015.49-5.35zm0 19.24L8.43 52a3.24 3.24 0 00.11-.81v-1.27a7.53 7.53 0 004.48 0v1.24a3.22 3.22 0 00.11.81zm0-6.09a5.5 5.5 0 01-5.49-5.49v-.21a8.13 8.13 0 003.25-1.62 9.17 9.17 0 001.88 1.37 8.07 8.07 0 003.88 1 8.51 8.51 0 002-.23 5.5 5.5 0 01-5.52 5.19zm56.47 7.37v4.1a1 1 0 001 1 1 1 0 001-1v-4.1a4.27 4.27 0 00-2.36-3.82l-5.68-2.84a1.15 1.15 0 01-.64-1v-1.47a6.42 6.42 0 002.17-4.81v-1.16h.07a1 1 0 001-1v-2.18a6.44 6.44 0 00-6.44-6.44h-2.12a6.44 6.44 0 00-6.44 6.44v2.17a1 1 0 001 1h.07v1.16a6.42 6.42 0 002.17 4.81v1.45a1.22 1.22 0 01-.66 1.1 1 1 0 00.94 1.8 3.2 3.2 0 00.5-.31l2.48 2.48v10.19a1 1 0 001 1h.1a1 1 0 001-1V52.92l2.48-2.48a3.25 3.25 0 00.5.31l5.5 2.75-1.67 1.67a4.27 4.27 0 00-1.25 3v4a1 1 0 001 1H64a1 1 0 001-1v-4a2.24 2.24 0 01.66-1.58L67.17 55a2.26 2.26 0 01.08.59zM50.84 38.26v-.95a4.41 4.41 0 014.41-4.41h2.17a4.41 4.41 0 014.41 4.41v1.13a15.52 15.52 0 01-7.1-2 1 1 0 00-1.28.13 6.65 6.65 0 01-2.61 1.69zm5.49 12.8L54 48.71a3.22 3.22 0 00.11-.81v-.22a6.43 6.43 0 004.48 0v.22a3.2 3.2 0 00.11.81zm0-5a4.41 4.41 0 01-4.41-4.41V40a8.59 8.59 0 002.38-1.45 18 18 0 006.44 1.83v1.26a4.41 4.41 0 01-4.41 4.42zM43.59 10.42H26.74a1 1 0 010-2h16.85a1 1 0 010 2z"/><path class="cls-1" d="M35.16 18.85a1 1 0 01-1-1V1a1 1 0 012 0v16.85a1 1 0 01-1 1z"/></symbol><symbol id="startup" viewBox="0 0 65.88 63.39"><path class="cls-1" d="M37.56 43.87V38.1L39 36.67C55.16 20.5 53.53 11.25 53.45 10.86a1.17 1.17 0 00-.92-.92c-.39-.08-9.64-1.71-25.81 14.47l-1.43 1.43h-5.76A7.37 7.37 0 0014.28 28L2.85 39.44a1.17 1.17 0 00.83 2h11.89l2.37 2.37-5.36 5.36a1.17 1.17 0 101.65 1.65l5.36-5.36L22 47.83v11.89a1.17 1.17 0 002 .83l11.38-11.44a7.37 7.37 0 002.18-5.24zm13.63-31.66a14.92 14.92 0 01-.83 4.13L47.06 13a15 15 0 014.13-.79zM31.91 31.48a1.17 1.17 0 00-1.65 0L19.59 42.15l-2.71-2.71a1.33 1.33 0 010-1.88l2.65-2.65a1.17 1.17 0 10-1.65-1.65l-2.65 2.64a3.67 3.67 0 00-1 3.19H6.5l9.43-9.43a5 5 0 013.59-1.49H23l-1.54 1.54a1.17 1.17 0 101.65 1.65l5.3-5.3a73.64 73.64 0 019.59-8.2l3.79 3.79A1.17 1.17 0 0043.41 20l-3.46-3.46A37.07 37.07 0 0144.67 14l4.76 4.76a37.17 37.17 0 01-2.58 4.73 1.17 1.17 0 00-1.57 1.73l.25.25a73.64 73.64 0 01-8.2 9.53L25.84 46.51a1.33 1.33 0 01-1.88 0l-2.72-2.71 10.67-10.66a1.17 1.17 0 000-1.66zM24.3 56.89v-7.7a3.67 3.67 0 003.19-1l7.73-7.73v3.43a5 5 0 01-1.49 3.59z"/><path class="cls-1" d="M19.53 52.7a1.07 1.07 0 00-1.53-.17c0 .08-6.78 6.73-15.62 8.47 1.75-8.84 8.41-15.6 8.48-15.67a1.07 1.07 0 00-.17-1.49 1.07 1.07 0 00-1.49-.17C8.88 44 1.25 51.75 0 62a1.26 1.26 0 00.4 1 1.26 1.26 0 001 .39c10.23-1.24 18-8.87 18.29-9.2a1.07 1.07 0 00-.16-1.49zm19.78-23.93a3.67 3.67 0 10-5.19 0 3.67 3.67 0 005.19 0zm-3.54-1.65a1.33 1.33 0 111.88 0 1.33 1.33 0 01-1.87 0zM55.18 53a1 1 0 01-1-1c0-3.57-2-5.54-5.54-5.54a1 1 0 010-2c3.57 0 5.54-2 5.54-5.54a1 1 0 012 0c0 3.57 2 5.54 5.54 5.54a1 1 0 110 2c-3.57 0-5.54 2-5.54 5.54a1 1 0 01-1 1zm-2.38-7.56a6.27 6.27 0 012.37 2.37 6.28 6.28 0 012.37-2.37 6.27 6.27 0 01-2.37-2.37 6.26 6.26 0 01-2.37 2.37zM14.86 9.25a1 1 0 01-1-1 1.75 1.75 0 00-2-2 1 1 0 010-2 1.75 1.75 0 002-2 1 1 0 012 0 1.75 1.75 0 002 2 1 1 0 010 2 1.75 1.75 0 00-2 2 1 1 0 01-1 1zm-.18-4l.18.18.14-.17-.18-.18zm18.07-1.16A2 2 0 1134.48.95a2 2 0 01-1.72 3.15zm-.39-1.8a.46.46 0 00.28.2.48.48 0 00.36-.06.45.45 0 00-.14-.83.44.44 0 00-.34.06.46.46 0 00-.2.29.45.45 0 00.05.34zm0 0zM8 22.17a2 2 0 01-1.1-3.77A2 2 0 118 22.17zm0-2.5a.45.45 0 00-.44.35.45.45 0 00.34.54.45.45 0 00.34-.06.45.45 0 00-.24-.83zm55.84-7.76a2.07 2.07 0 01-.45 0 2 2 0 112.17-3.1 2 2 0 01-1.72 3.15zm-.39-1.8a.46.46 0 00.29.2.44.44 0 00.34-.06.45.45 0 10-.63-.14zm0 0z"/></symbol><symbol id="support" viewBox="0 0 68.91 68.91"><path class="cls-2" d="M19 33.38a1.25 1.25 0 01-.88-.37L13 27.89a1.25 1.25 0 010-1.77l5.39-5.39a1.25 1.25 0 011.77 1.77L15.61 27l4.25 4.25a1.25 1.25 0 01-.86 2.13zm17.17.5a1.25 1.25 0 01-.88-2.13l4.42-4.42-4.17-4.17a1.25 1.25 0 111.77-1.77l5.06 5.06a1.25 1.25 0 010 1.77l-5.31 5.31a1.25 1.25 0 01-.89.35zm-11.61.88A1.25 1.25 0 0123.44 33l7.28-15.2A1.25 1.25 0 1133 18.88l-7.31 15.17a1.25 1.25 0 01-1.13.71z"/><path class="cls-2" d="M5.51 53.55a1.25 1.25 0 01-1.25-1.25V16.1a6.45 6.45 0 016.44-6.44h35.51a6.45 6.45 0 016.45 6.45v20.2a6.45 6.45 0 01-6.45 6.45h-25a3.94 3.94 0 00-1.92.5l-13 10a1.24 1.24 0 01-.78.29zm5.2-41.39a4 4 0 00-3.95 3.94v33.66l11.06-8.54.13-.09a6.45 6.45 0 013.25-.88h25a4 4 0 003.95-3.95V16.1a4 4 0 00-3.95-3.95zm46.51 40.73a1.25 1.25 0 01-.88-2.13L58 49.12l-1.77-1.77A1.25 1.25 0 1158 45.58l2.65 2.65a1.25 1.25 0 010 1.77l-2.55 2.53a1.25 1.25 0 01-.88.36zm-12.4 0a1.25 1.25 0 01-.88-.37l-2.65-2.65a1.25 1.25 0 010-1.77l2.53-2.53a1.25 1.25 0 011.77 1.77L43.93 49l1.77 1.77a1.25 1.25 0 01-.88 2.13zm4.85.68a1.25 1.25 0 01-1.16-1.72l2.57-6.41a1.25 1.25 0 012.32.93l-2.57 6.41a1.25 1.25 0 01-1.16.79z"/><path class="cls-2" d="M64.43 67.36a1.25 1.25 0 01-.78-.28l-8.18-6.58a2 2 0 00-1-.24H38.71a4.54 4.54 0 01-4.53-4.53v-9.79a1.25 1.25 0 012.5 0v9.79a2 2 0 002 2h15.84a4.54 4.54 0 012.29.62l.15.11 6.22 5V39.41a2 2 0 00-2-2h-5.46a1.25 1.25 0 010-2.5h5.43a4.54 4.54 0 014.53 4.53v26.7a1.25 1.25 0 01-1.25 1.25zm-47.11-6.48a1 1 0 01-1-1 1.75 1.75 0 00-2-2 1 1 0 010-2 1.75 1.75 0 002-2 1 1 0 012 0 1.75 1.75 0 002 2 1 1 0 110 2 1.75 1.75 0 00-2 2 1 1 0 01-1 1zm-.18-4l.18.18.18-.18-.18-.18z"/></symbol><symbol id="file" viewBox="0 0 477.389 477.389"><path d="M451.209 68.647a89.462 89.462 0 00-63.312-26.226 88.987 88.987 0 00-63.266 26.197L209.056 184.194a89.615 89.615 0 00-22.869 87.518c2.559 9.072 11.988 14.352 21.06 11.793 9.072-2.559 14.352-11.988 11.793-21.06a55.481 55.481 0 0114.148-54.118L348.763 92.768c21.608-21.613 56.646-21.617 78.259-.008 21.613 21.608 21.617 56.646.009 78.259L311.456 286.594a55.16 55.16 0 01-27.682 15.002c-9.228 1.921-15.151 10.959-13.23 20.187a17.067 17.067 0 0016.762 13.588 16.88 16.88 0 003.55-.375 89.205 89.205 0 0044.732-24.269l115.576-115.558c34.95-34.926 34.97-91.571.045-126.522z"/><path d="M290.702 206.142c-2.559-9.072-11.988-14.352-21.06-11.793s-14.352 11.988-11.793 21.06a55.481 55.481 0 01-14.148 54.118L128.125 385.103c-21.608 21.613-56.646 21.617-78.259.008-21.613-21.608-21.617-56.646-.009-78.259l115.576-115.593a55.083 55.083 0 0127.648-15.002c9.243-1.849 15.237-10.84 13.388-20.082s-10.84-15.237-20.082-13.388a89.342 89.342 0 00-45.086 24.34L25.725 282.703c-34.676 35.211-34.242 91.865.969 126.541 34.827 34.297 90.731 34.301 125.563.008l115.575-115.593a89.612 89.612 0 0022.87-87.517z"/></symbol></svg>