<svg xmlns="http://www.w3.org/2000/svg">
    <symbol id="wallet" viewBox="0 0 469.341 469.341">
        <g>
            <path d="M448.004,236.639v-65.965c0-22.368-17.35-40.559-39.271-42.323l-61.26-107c-5.677-9.896-14.844-16.969-25.813-19.906
				c-10.917-2.917-22.333-1.385-32.104,4.302L79.553,128.007H42.67c-23.531,0-42.667,19.135-42.667,42.667v256
				c0,23.531,19.135,42.667,42.667,42.667h362.667c23.531,0,42.667-19.135,42.667-42.667v-65.965
				c12.389-4.418,21.333-16.147,21.333-30.035v-64C469.337,252.786,460.393,241.057,448.004,236.639z M383.944,128.007h-92.971
				l69.729-40.596L383.944,128.007z M350.103,68.898l-101.529,59.109h-42.113l133.112-77.5L350.103,68.898z M300.295,24.184
				c4.823-2.823,10.458-3.573,15.844-2.135c5.448,1.458,9.99,4.979,12.813,9.906l0.022,0.039l-164.91,96.013h-42.111L300.295,24.184
				z M426.67,426.674c0,11.76-9.573,21.333-21.333,21.333H42.67c-11.76,0-21.333-9.573-21.333-21.333v-256
				c0-11.76,9.573-21.333,21.333-21.333h362.667c11.76,0,21.333,9.573,21.333,21.333v64h-64c-35.292,0-64,28.708-64,64
				c0,35.292,28.708,64,64,64h64V426.674z M448.004,330.674c0,5.885-4.781,10.667-10.667,10.667H362.67
				c-23.531,0-42.667-19.135-42.667-42.667c0-23.531,19.135-42.667,42.667-42.667h74.667c5.885,0,10.667,4.781,10.667,10.667
				V330.674z" />
            <path d="M362.67,277.341c-11.76,0-21.333,9.573-21.333,21.333c0,11.76,9.573,21.333,21.333,21.333
				c11.76,0,21.333-9.573,21.333-21.333C384.004,286.914,374.431,277.341,362.67,277.341z" />
        </g>
    </symbol>
    <symbol id="add-people" viewBox="0 0 512 512">
        <g>
            <path d="M383.537,181.5a80,80,0,1,0-79.139-.037c-26.07,7.432-49.479,22.306-68.325,43.68a140.15,140.15,0,0,0-28.516-11.655,80,80,0,1,0-79.094.012A143.766,143.766,0,0,0,60.187,257C31.692,289.19,16,334.292,16,384a8,8,0,0,0,4.115,6.993C23.129,392.668,94.769,432,168,432a269.863,269.863,0,0,0,57.458-6.466,95.993,95.993,0,0,0,182.2-33.422c48.906-11.75,83.034-32.379,84.517-33.286A8,8,0,0,0,496,352c0-49.708-15.692-94.81-44.187-127A143.766,143.766,0,0,0,383.537,181.5ZM280,112a64,64,0,1,1,64,64A64.072,64.072,0,0,1,280,112ZM104,144a64,64,0,1,1,64,64A64.072,64.072,0,0,1,104,144ZM219.7,410.408A252.5,252.5,0,0,1,168,416c-59.383,0-119.8-28.588-135.947-36.81.964-43.875,15.122-83.351,40.114-111.581C97.062,239.487,131.1,224,168,224c47.507,0,89.391,25.567,113.745,68.889A96.039,96.039,0,0,0,219.7,410.408ZM312,464a80,80,0,1,1,80-80A80.091,80.091,0,0,1,312,464Zm95.631-88.365a96.018,96.018,0,0,0-109.765-86.592c-12.1-22.946-28.535-41.682-47.973-55.335C274.629,206.747,307.719,192,344,192c36.9,0,70.938,15.487,95.833,43.609,25.029,28.273,39.192,67.82,40.119,111.776A319.106,319.106,0,0,1,407.631,375.635Z" />
            <path d="M352,376H320V344a8,8,0,0,0-16,0v32H272a8,8,0,0,0,0,16h32v32a8,8,0,0,0,16,0V392h32a8,8,0,0,0,0-16Z" />
        </g>
    </symbol>
    <symbol id="no-risk" viewBox="0 0 471.7 471.7">
        <g>
            <path d="M360.8,200.6v-74.7c0.2-33.8-13.3-66.3-37.4-90C300.1,12.7,269.6,0,237.3,0c-0.5,0-1.1,0-1.6,0
			c-68.9,0.1-124.9,56.5-124.9,125.9v74.7c-26,3.1-45,24.9-45,51.3v167.8c0,28.5,22.8,52,51.3,52h237.5c28.5,0,51.3-23.5,51.3-52
			V251.9C405.8,225.6,386.8,203.7,360.8,200.6z M130.7,125.9h0.1c0-58.4,47.1-106.2,105-106.2h0.1c27.5-0.1,53.9,10.8,73.4,30.2
			c20.3,20.1,31.6,47.5,31.4,76v74.8h-22v-74.8c0.2-22.7-8.8-44.5-24.9-60.5c-15.2-15.2-35.8-23.8-57.3-23.8h-0.6
			c-46,0-83.2,37.8-83.2,84.2v74.9h-22V125.9z M298.8,125.9v74.8h-126v-74.8c0-35.4,28.2-64.2,63.2-64.2h0.6
			c16.2,0,31.8,6.5,43.3,18C292.1,91.9,299,108.6,298.8,125.9z M386.8,420L386.8,420c0,17.5-14.2,31.7-31.7,31.7H117.5
			c-17.5,0-31.7-14.2-31.7-31.7V252.4c0-17.5,14.2-31.7,31.7-31.7h237.6c17.5,0,31.7,14.2,31.7,31.7V420z" />
        </g>
        <g>
            <path d="M270.4,330c-4.4-15.5-18.5-26.1-34.6-26.1c-19.9,0-36.1,16.1-36.1,36.1c0,16.1,10.6,30.2,26.1,34.6v28c0,5.5,4.5,10,10,10
			s10-4.5,10-10v-28C264.9,369.1,276,349.1,270.4,330z M235.8,356c-8.9,0-16.1-7.2-16.1-16.1c0-8.9,7.2-16.1,16.1-16.1
			c8.9,0,16.1,7.2,16.1,16.1C251.9,348.8,244.7,356,235.8,356z" />
        </g>
    </symbol>
    <symbol id="like" viewBox="0 0 512 512">
        <g>
            <path d="M503.153,288.622c0-12.709-5.48-24.237-14.253-32.253c13.736-7.368,23.1-21.872,23.1-38.521
			c0-24.085-19.595-43.68-43.68-43.68H343.914V93.996c0-32.341-9.31-55.665-27.67-69.327c-29.196-21.722-69.76-9.905-71.473-9.39
			c-3.508,1.052-5.911,4.281-5.911,7.943V135.36l-81.323,103.501c-2.541-11.683-12.957-20.46-25.39-20.46H25.987
			C11.658,218.402,0,230.059,0,244.389v26.54c0,4.58,3.712,8.294,8.294,8.294c4.581,0,8.294-3.713,8.294-8.294v-26.54
			c0-5.183,4.217-9.4,9.4-9.4h106.16c5.183,0,9.4,4.217,9.4,9.4v230.013c0,5.183-4.217,9.4-9.4,9.4H25.987
			c-5.183,0-9.4-4.216-9.4-9.4V306.315c0-4.58-3.712-8.294-8.294-8.294c-4.581,0-8.294,3.713-8.294,8.294v168.086
			c0,14.329,11.658,25.987,25.987,25.987h106.16c14.329,0,25.987-11.658,25.987-25.987v-21.967l41.077,20.539
			c1.152,0.576,2.422,0.876,3.709,0.876h159.24c4.581,0,8.294-3.713,8.294-8.294c0-4.58-3.712-8.294-8.294-8.294H204.878
			l-46.745-23.372V264.951l95.541-121.597c1.148-1.461,1.773-3.266,1.773-5.124V29.812c10.761-2.035,33.993-4.409,50.894,8.164
			c13.925,10.361,20.985,29.208,20.985,56.019v88.467c0,4.58,3.712,8.294,8.294,8.294h132.7c14.94,0,27.093,12.154,27.093,27.093
			c0,14.939-12.153,27.093-27.093,27.093c-1.663,0-70.773,0-70.773,0c-4.581,0-8.294,3.713-8.294,8.294
			c0,4.58,3.712,8.294,8.294,8.294c0,0,63.33,0.041,63.622,0.06c14.242,0.876,25.398,12.751,25.398,27.033
			c0,14.939-12.153,27.093-27.093,27.093c-1.087,0-61.927,0-61.927,0c-4.581,0-8.294,3.713-8.294,8.294
			c0,4.58,3.712,8.294,8.294,8.294h55.366c0.355,0.093,0.717,0.172,1.09,0.219c13.521,1.678,23.717,13.23,23.717,26.874
			c0,14.939-12.153,27.093-27.093,27.093c-0.571,0-53.08,0-53.08,0c-4.581,0-8.294,3.713-8.294,8.294
			c0,4.58,3.712,8.294,8.294,8.294h47.671c0.51,0.208,1.045,0.372,1.606,0.477c12.776,2.403,22.049,13.596,22.049,26.616
			c0,14.939-12.153,27.093-27.093,27.093h-44.233c-4.581,0-8.294,3.713-8.294,8.294c0,4.58,3.712,8.294,8.294,8.294h44.233
			c24.085,0,43.68-19.595,43.68-43.68c0-12.637-5.422-24.209-14.233-32.263c13.726-7.371,23.08-21.869,23.08-38.511
			c0-12.67-5.454-24.219-14.246-32.256C493.795,319.77,503.153,305.269,503.153,288.622z" />
        </g>
        <g>
            <path d="M96.76,413.028c-14.329,0-25.987,11.658-25.987,25.987c0,14.329,11.658,25.987,25.987,25.987s25.987-11.658,25.987-25.987
        			C122.747,424.686,111.09,413.028,96.76,413.028z M96.76,448.415c-5.183,0-9.4-4.216-9.4-9.4s4.216-9.4,9.4-9.4s9.4,4.217,9.4,9.4
        			S101.943,448.415,96.76,448.415z" />
        </g>
    </symbol>
    <symbol id="group-add" viewBox="0 0 69.28 68.73">
        <g>
            <path class="cls-1" d="M21.55,64.54V53.15l.26-.11,2.48,2.48a2.24,2.24,0,0,1,.66,1.58v8.34a1,1,0,0,0,1,1H26a1,1,0,0,0,1-1V57.1a4.27,4.27,0,0,0-1.25-3l-3.24-3.24a3.31,3.31,0,0,1,1-.73l5.8-2.58,4.3,4.3V67.77a1,1,0,0,0,1,1h.1a1,1,0,0,0,1-1V51.83l4.3-4.3,5.8,2.58a3.31,3.31,0,0,1,1,.73l-3.24,3.24a4.27,4.27,0,0,0-1.25,3v8.34a1,1,0,0,0,1,1h.1a1,1,0,0,0,1-1V57.1A2.24,2.24,0,0,1,45,55.51L47.7,52.8h0V64.54a1,1,0,0,0,1,1h.1a1,1,0,0,0,1-1V53.15a5.35,5.35,0,0,0-3.18-4.89l-5.9-2.62A1.15,1.15,0,0,1,40,44.58V43a8.59,8.59,0,0,0,3.25-6.73V33.95a2.1,2.1,0,0,0,1.08-1.84v-.22a8.61,8.61,0,0,0-8.61-8.61H33.55a8.61,8.61,0,0,0-8.61,8.61v2a2.13,2.13,0,0,0,.81,1.71,2,2,0,0,0,.28.18v.45A8.59,8.59,0,0,0,29.28,43v1.62a1.15,1.15,0,0,1-.69,1.06l-5.9,2.62a5.35,5.35,0,0,0-3.18,4.89v11.4a1,1,0,0,0,1,1h.1A1,1,0,0,0,21.55,64.54ZM34.64,50,30.87,46.2a3.18,3.18,0,0,0,.45-1.63v-.41a8.6,8.6,0,0,0,6.65,0v.41a3.18,3.18,0,0,0,.45,1.63ZM28.06,36.23v-.46a6,6,0,0,0,1.84-1.2,1,1,0,0,0-1.38-1.49A3.64,3.64,0,0,1,27,34h0a.2.2,0,0,1,0-.09v-2a6.58,6.58,0,0,1,6.58-6.58h2.17a6.58,6.58,0,0,1,6.58,6.58v.22a.07.07,0,0,1,0,.07c-6.08,1.2-9.12-1.06-10.15-2.09a1,1,0,1,0-1.43,1.43c3.15,3.15,7.75,3.21,10.55,2.87v1.83a6.58,6.58,0,0,1-13.16,0Z"></path>
            <path class="cls-1" d="M18.3,42.73V40.56a7.52,7.52,0,0,0-3.45-6.32,4.22,4.22,0,0,0-2.91-5.32,3.42,3.42,0,0,0-1.18-.22A4.27,4.27,0,0,0,6.7,34.25a7.52,7.52,0,0,0-3.45,6.32v2.17a7.52,7.52,0,0,0,3.25,6.19v2.23a1.16,1.16,0,0,1-.64,1L2.36,53.94A4.27,4.27,0,0,0,0,57.76v2.3a1,1,0,0,0,1,1H1a1,1,0,0,0,1-1V58.2l1.65,1.65a2.24,2.24,0,0,1,.66,1.58v.75a1,1,0,0,0,1,1h.1a1,1,0,0,0,1-1v-.75a4.27,4.27,0,0,0-1.25-3l-2.3-2.3,0,0a2.27,2.27,0,0,1,.48-.33L6.78,54a3.25,3.25,0,0,0,.5-.31l2.48,2.48v7a1,1,0,0,0,1,1h.1a1,1,0,0,0,1-1v-7l2.48-2.48a3.18,3.18,0,0,0,.5.31l1,.48a1,1,0,0,0,.91-1.82l-1-.48a1.16,1.16,0,0,1-.64-1V48.92A7.52,7.52,0,0,0,18.3,42.73Zm-7.52-12A2.24,2.24,0,0,1,13,33a2.31,2.31,0,0,1,0,.4,7.53,7.53,0,0,0-4.4,0,2.3,2.3,0,0,1,0-.4A2.24,2.24,0,0,1,10.78,30.73Zm0,4.34a5.5,5.5,0,0,1,5.49,5.49v.37a6.37,6.37,0,0,1-6.85-2.06,1,1,0,0,0-1.53-.11,6.64,6.64,0,0,1-2.6,1.66A5.5,5.5,0,0,1,10.78,35.07Zm0,19.24L8.43,52a3.24,3.24,0,0,0,.11-.81V49.92a7.53,7.53,0,0,0,4.48,0v1.24a3.22,3.22,0,0,0,.11.81Zm0-6.09a5.5,5.5,0,0,1-5.49-5.49v-.21A8.13,8.13,0,0,0,8.54,40.9a9.17,9.17,0,0,0,1.88,1.37,8.07,8.07,0,0,0,3.88,1,8.51,8.51,0,0,0,2-.23A5.5,5.5,0,0,1,10.78,48.23Z"></path>
            <path class="cls-1" d="M67.25,55.59v4.1a1,1,0,0,0,1,1h0a1,1,0,0,0,1-1v-4.1a4.27,4.27,0,0,0-2.36-3.82l-5.68-2.84a1.15,1.15,0,0,1-.64-1V46.46a6.42,6.42,0,0,0,2.17-4.81V40.49h.07a1,1,0,0,0,1-1V37.31a6.44,6.44,0,0,0-6.44-6.44H55.25a6.44,6.44,0,0,0-6.44,6.44v2.17a1,1,0,0,0,1,1h.07v1.16a6.42,6.42,0,0,0,2.17,4.81V47.9A1.22,1.22,0,0,1,51.39,49a1,1,0,0,0,.94,1.8,3.2,3.2,0,0,0,.5-.31l2.48,2.48V63.16a1,1,0,0,0,1,1h.1a1,1,0,0,0,1-1V52.92l2.48-2.48a3.25,3.25,0,0,0,.5.31l5.5,2.75-1.67,1.67a4.27,4.27,0,0,0-1.25,3v4a1,1,0,0,0,1,1H64a1,1,0,0,0,1-1v-4a2.24,2.24,0,0,1,.66-1.58L67.17,55A2.26,2.26,0,0,1,67.25,55.59ZM50.84,38.26v-.95a4.41,4.41,0,0,1,4.41-4.41h2.17a4.41,4.41,0,0,1,4.41,4.41v1.13a15.52,15.52,0,0,1-7.1-2,1,1,0,0,0-1.28.13A6.65,6.65,0,0,1,50.84,38.26Zm5.49,12.8L54,48.71a3.22,3.22,0,0,0,.11-.81v-.22a6.43,6.43,0,0,0,4.48,0v.22a3.2,3.2,0,0,0,.11.81Zm0-5a4.41,4.41,0,0,1-4.41-4.41V40a8.59,8.59,0,0,0,2.38-1.45,18,18,0,0,0,6.44,1.83v1.26A4.41,4.41,0,0,1,56.33,46.06Z"></path>
            <path class="cls-1" d="M43.59,10.42H26.74a1,1,0,0,1,0-2H43.59a1,1,0,0,1,0,2Z"></path>
            <path class="cls-1" d="M35.16,18.85a1,1,0,0,1-1-1V1a1,1,0,0,1,2,0V17.85A1,1,0,0,1,35.16,18.85Z"></path>
        </g>
    </symbol>

    <symbol id="startup" viewBox="0 0 65.88 63.39">
        <g>
            <path class="cls-1" d="M37.56,43.87V38.1L39,36.67C55.16,20.5,53.53,11.25,53.45,10.86a1.17,1.17,0,0,0-.92-.92c-.39-.08-9.64-1.71-25.81,14.47l-1.43,1.43H19.53A7.37,7.37,0,0,0,14.28,28L2.85,39.44a1.17,1.17,0,0,0,.83,2H15.57l2.37,2.37-5.36,5.36a1.17,1.17,0,1,0,1.65,1.65l5.36-5.36L22,47.83V59.72a1.17,1.17,0,0,0,2,.83L35.38,49.11A7.37,7.37,0,0,0,37.56,43.87ZM51.19,12.21a14.92,14.92,0,0,1-.83,4.13L47.06,13A15,15,0,0,1,51.19,12.21ZM31.91,31.48a1.17,1.17,0,0,0-1.65,0L19.59,42.15l-2.71-2.71h0a1.33,1.33,0,0,1,0-1.88l2.65-2.65a1.17,1.17,0,1,0-1.65-1.65L15.23,35.9a3.67,3.67,0,0,0-1,3.19H6.5l9.43-9.43a5,5,0,0,1,3.59-1.49H23l-1.54,1.54a1.17,1.17,0,1,0,1.65,1.65l5.3-5.3A73.64,73.64,0,0,1,38,17.86l3.79,3.79A1.17,1.17,0,0,0,43.41,20l-3.46-3.46A37.07,37.07,0,0,1,44.67,14l4.76,4.76a37.17,37.17,0,0,1-2.58,4.73,1.17,1.17,0,0,0-1.57,1.73l.25.25A73.64,73.64,0,0,1,37.33,35L25.84,46.51a1.33,1.33,0,0,1-1.88,0h0L21.24,43.8,31.91,33.14A1.17,1.17,0,0,0,31.91,31.48ZM24.3,56.89v-7.7a3.67,3.67,0,0,0,3.19-1l7.73-7.73v3.43a5,5,0,0,1-1.49,3.59Z"></path>
            <path class="cls-1" d="M19.53,52.7h0A1.07,1.07,0,0,0,18,52.53C18,52.61,11.22,59.26,2.38,61c1.75-8.84,8.41-15.6,8.48-15.67a1.07,1.07,0,0,0-.17-1.49,1.07,1.07,0,0,0-1.49-.17C8.88,44,1.25,51.75,0,62A1.26,1.26,0,0,0,.4,63a1.26,1.26,0,0,0,1,.39c10.23-1.24,18-8.87,18.29-9.2A1.07,1.07,0,0,0,19.53,52.7Z"></path>
            <path class="cls-1" d="M39.31,28.77a3.67,3.67,0,1,0-5.19,0A3.67,3.67,0,0,0,39.31,28.77Zm-3.54-1.65a1.33,1.33,0,1,1,1.88,0A1.33,1.33,0,0,1,35.78,27.12Z"></path>
            <path class="cls-1" d="M55.18,53a1,1,0,0,1-1-1c0-3.57-2-5.54-5.54-5.54a1,1,0,0,1,0-2c3.57,0,5.54-2,5.54-5.54a1,1,0,0,1,2,0c0,3.57,2,5.54,5.54,5.54a1,1,0,1,1,0,2c-3.57,0-5.54,2-5.54,5.54A1,1,0,0,1,55.18,53ZM52.8,45.44a6.27,6.27,0,0,1,2.37,2.37,6.28,6.28,0,0,1,2.37-2.37,6.27,6.27,0,0,1-2.37-2.37A6.26,6.26,0,0,1,52.8,45.44Z"></path>
            <path class="cls-1" d="M14.86,9.25a1,1,0,0,1-1-1,1.75,1.75,0,0,0-2-2,1,1,0,0,1,0-2,1.75,1.75,0,0,0,2-2,1,1,0,0,1,2,0,1.75,1.75,0,0,0,2,2,1,1,0,0,1,0,2,1.75,1.75,0,0,0-2,2A1,1,0,0,1,14.86,9.25Zm-.18-4,.18.18L15,5.26l-.18-.18Z"></path>
            <path class="cls-1" d="M32.75,4.09A2,2,0,1,1,34.48.95h0a2,2,0,0,1-1.72,3.15Zm-.39-1.8a.46.46,0,0,0,.28.2A.48.48,0,0,0,33,2.43a.45.45,0,0,0-.14-.83.44.44,0,0,0-.34.06.46.46,0,0,0-.2.29A.45.45,0,0,0,32.37,2.29Zm0,0h0Z"></path>
            <path class="cls-1" d="M8,22.17a2,2,0,0,1-1.1-3.77A2,2,0,1,1,8,22.17Zm0-2.5a.45.45,0,0,0-.44.35.45.45,0,0,0,.34.54.45.45,0,0,0,.34-.06A.45.45,0,0,0,8,19.67Z"></path>
            <path class="cls-1" d="M63.84,11.91a2.07,2.07,0,0,1-.45,0,2,2,0,1,1,2.17-3.1h0a2,2,0,0,1-1.72,3.15Zm-.39-1.8a.46.46,0,0,0,.29.2.44.44,0,0,0,.34-.06.45.45,0,1,0-.63-.14Zm0,0h0Z"></path>
        </g>
    </symbol>
    <symbol id="support" viewBox="0 0 68.91 68.91">
        <g>
            <path class="cls-2" d="M19,33.38a1.25,1.25,0,0,1-.88-.37L13,27.89a1.25,1.25,0,0,1,0-1.77l5.39-5.39a1.25,1.25,0,0,1,1.77,1.77L15.61,27l4.25,4.25A1.25,1.25,0,0,1,19,33.38Z"></path>
            <path class="cls-2" d="M36.17,33.88a1.25,1.25,0,0,1-.88-2.13l4.42-4.42-4.17-4.17a1.25,1.25,0,1,1,1.77-1.77l5.06,5.06a1.25,1.25,0,0,1,0,1.77l-5.31,5.31A1.25,1.25,0,0,1,36.17,33.88Z"></path>
            <path class="cls-2" d="M24.56,34.76A1.25,1.25,0,0,1,23.44,33L30.72,17.8A1.25,1.25,0,1,1,33,18.88L25.69,34.05A1.25,1.25,0,0,1,24.56,34.76Z"></path>
            <path class="cls-2" d="M5.51,53.55A1.25,1.25,0,0,1,4.26,52.3V16.1A6.45,6.45,0,0,1,10.7,9.66H46.21a6.45,6.45,0,0,1,6.45,6.45v20.2a6.45,6.45,0,0,1-6.45,6.45h-25a3.94,3.94,0,0,0-1.92.5l-13,10A1.24,1.24,0,0,1,5.51,53.55Zm5.2-41.39A4,4,0,0,0,6.76,16.1V49.76l11.06-8.54.13-.09a6.45,6.45,0,0,1,3.25-.88h25a4,4,0,0,0,3.95-3.95V16.1a4,4,0,0,0-3.95-3.95Z"></path>
            <path class="cls-2" d="M57.22,52.89a1.25,1.25,0,0,1-.88-2.13L58,49.12l-1.77-1.77A1.25,1.25,0,1,1,58,45.58l2.65,2.65a1.25,1.25,0,0,1,0,1.77L58.1,52.53A1.25,1.25,0,0,1,57.22,52.89Z"></path>
            <path class="cls-2" d="M44.82,52.89a1.25,1.25,0,0,1-.88-.37l-2.65-2.65a1.25,1.25,0,0,1,0-1.77l2.53-2.53a1.25,1.25,0,0,1,1.77,1.77L43.93,49l1.77,1.77a1.25,1.25,0,0,1-.88,2.13Z"></path>
            <path class="cls-2" d="M49.67,53.57a1.25,1.25,0,0,1-1.16-1.72l2.57-6.41a1.25,1.25,0,0,1,2.32.93l-2.57,6.41A1.25,1.25,0,0,1,49.67,53.57Z"></path>
            <path class="cls-2" d="M64.43,67.36a1.25,1.25,0,0,1-.78-.28L55.47,60.5a2,2,0,0,0-1-.24H38.71a4.54,4.54,0,0,1-4.53-4.53V45.94a1.25,1.25,0,0,1,2.5,0v9.79a2,2,0,0,0,2,2H54.52a4.54,4.54,0,0,1,2.29.62l.15.11,6.22,5V39.41a2,2,0,0,0-2-2H55.72a1.25,1.25,0,0,1,0-2.5h5.43a4.54,4.54,0,0,1,4.53,4.53v26.7a1.25,1.25,0,0,1-1.25,1.25Z"></path>
            <path class="cls-2" d="M17.32,60.88a1,1,0,0,1-1-1,1.75,1.75,0,0,0-2-2,1,1,0,0,1,0-2,1.75,1.75,0,0,0,2-2,1,1,0,0,1,2,0,1.75,1.75,0,0,0,2,2,1,1,0,1,1,0,2,1.75,1.75,0,0,0-2,2A1,1,0,0,1,17.32,60.88Zm-.18-4,.18.18.18-.18-.18-.18Z"></path>
        </g>
    </symbol>
    
    <symbol id="file" viewBox="0 0 477.389 477.389">
        <g>
            <path d="M451.209,68.647c-16.787-16.799-39.564-26.234-63.312-26.226v0c-23.739-0.056-46.516,9.376-63.266,26.197L209.056,184.194
        			c-22.867,22.903-31.609,56.356-22.869,87.518c2.559,9.072,11.988,14.352,21.06,11.793c9.072-2.559,14.352-11.988,11.793-21.06
        			c-5.388-19.271,0.018-39.95,14.148-54.118L348.763,92.768c21.608-21.613,56.646-21.617,78.259-0.008
        			c21.613,21.608,21.617,56.646,0.009,78.259L311.456,286.594c-7.574,7.584-17.193,12.797-27.682,15.002
        			c-9.228,1.921-15.151,10.959-13.23,20.187c1.652,7.935,8.657,13.613,16.762,13.588c1.193,0.001,2.383-0.125,3.55-0.375
        			c16.951-3.575,32.494-12.007,44.732-24.269l115.576-115.558C486.114,160.243,486.134,103.598,451.209,68.647z" />
        </g>
        <g>
            <path d="M290.702,206.142c-2.559-9.072-11.988-14.352-21.06-11.793s-14.352,11.988-11.793,21.06
        			c5.388,19.271-0.018,39.95-14.148,54.118L128.125,385.103c-21.608,21.613-56.646,21.617-78.259,0.008
        			c-21.613-21.608-21.617-56.646-0.009-78.259l115.576-115.593c7.562-7.582,17.17-12.795,27.648-15.002
        			c9.243-1.849,15.237-10.84,13.388-20.082s-10.84-15.237-20.082-13.388c-0.113,0.023-0.225,0.046-0.337,0.071
        			c-16.954,3.579-32.502,12.011-44.749,24.269L25.725,282.703c-34.676,35.211-34.242,91.865,0.969,126.541
        			c34.827,34.297,90.731,34.301,125.563,0.008l115.575-115.593C290.7,270.756,299.442,237.303,290.702,206.142z" />
        </g>
    </symbol>
    <symbol id="about-mission" viewBox="0 0 512 512">
        <g><path d="m306 172.302v-20.302h70c3.688 0 7.076-2.03 8.816-5.281 1.74-3.252 1.55-7.197-.496-10.266l-16.301-24.453 16.302-24.453c2.046-3.068 2.236-7.014.496-10.266-1.741-3.251-5.129-5.281-8.817-5.281h-70v-10c0-5.523-4.478-10-10-10s-10 4.477-10 10v110.302c-89.101 5.195-160 79.317-160 169.698 0 93.738 76.262 170 170 170s170-76.262 170-170c0-90.381-70.899-164.503-160-169.698zm51.315-80.302-9.635 14.453c-2.239 3.359-2.239 7.735 0 11.094l9.635 14.453h-51.315v-40zm81.16 296.921c-6.405-4.363-14.139-6.921-22.475-6.921-22.091 0-40 17.909-40 40 0 13.981 7.175 26.284 18.043 33.434-26.311 22.772-60.596 36.566-98.043 36.566-82.71 0-150-67.29-150-150 0-79.349 61.936-144.494 140-149.659v20.127c-12.787 1.249-25.11 4.899-35.167 10.97-4.729 2.854-6.248 9-3.395 13.729 2.851 4.727 8.997 6.249 13.728 3.394 18.883-11.396 50.783-11.396 69.666 0 1.616.976 3.397 1.44 5.157 1.44 3.388 0 6.693-1.722 8.571-4.834 2.854-4.729 1.334-10.875-3.395-13.729-10.057-6.07-22.38-9.721-35.167-10.97v-20.127c78.065 5.164 140 70.309 140 149.659.002 16.381-2.647 32.153-7.523 46.921z"/><circle cx="246" cy="292" r="30"/><circle cx="196" cy="342" r="20"/><circle cx="396" cy="302" r="10"/><circle cx="276" cy="362" r="10"/><path d="m203.071 37.071c2.859-2.86 3.716-7.161 2.168-10.898-1.548-3.736-5.194-6.173-9.239-6.173h-75.857l-17.072-17.071c-.237-.237-.484-.46-.741-.67-.202-.166-.413-.315-.625-.463-.055-.038-.107-.082-.163-.12-.256-.171-.519-.326-.786-.47-.017-.009-.033-.021-.05-.03-.271-.145-.549-.274-.83-.392-.018-.008-.035-.017-.054-.025-.268-.111-.541-.206-.816-.292-.035-.011-.07-.026-.106-.037-.258-.078-.519-.14-.781-.196-.058-.013-.114-.03-.171-.042-.257-.051-.517-.085-.777-.116-.064-.008-.128-.022-.192-.028-.327-.032-.656-.048-.984-.048h-59.995c-5.522 0-10 4.477-10 10v59.995c0 .328.016.657.048.984.006.063.02.125.027.188.031.262.065.523.117.782.011.054.027.106.039.159.057.266.12.531.199.792.01.034.025.067.036.102.087.277.183.552.294.821.007.017.016.033.023.05.118.283.248.561.394.834.007.013.016.026.023.04.146.271.303.537.477.797.033.05.073.096.107.146.151.217.305.434.475.641.21.257.433.504.67.741l17.071 17.071v75.857c0 4.044 2.437 7.691 6.173 9.239 1.237.513 2.537.762 3.825.762 2.603 0 5.16-1.017 7.073-2.929zm-31.214 2.929-15.857 15.857-15.857-15.857zm-75.857 75.858-45.858-45.858 45.858-45.857 45.857 45.857zm-24.143-95.858-25.857 25.857v-25.857zm-5.857 94.143 15.858 15.857-15.858 15.858z"/><path d="m153.929 172.071c1.953 1.952 4.511 2.929 7.071 2.929s5.118-.977 7.071-2.929c3.905-3.905 3.905-10.237 0-14.143l-25-25c-3.906-3.904-10.236-3.904-14.143 0-3.905 3.905-3.905 10.237 0 14.143z"/><path d="m158.929 102.929c-3.905 3.905-3.905 10.237 0 14.143l45 45c1.953 1.952 4.511 2.928 7.071 2.928s5.118-.976 7.071-2.929c3.905-3.905 3.905-10.237 0-14.143l-45-45c-3.906-3.905-10.236-3.905-14.142.001z"/><path d="m90 306c-16.542 0-30-13.458-30-30 0-5.523-4.478-10-10-10s-10 4.477-10 10c0 16.542-13.458 30-30 30-5.523 0-10 4.477-10 10s4.477 10 10 10c16.542 0 30 13.458 30 30 0 5.523 4.478 10 10 10s10-4.477 10-10c0-16.542 13.458-30 30-30 5.522 0 10-4.477 10-10s-4.478-10-10-10z"/><path d="m502 166c-16.542 0-30-13.458-30-30 0-5.523-4.478-10-10-10s-10 4.477-10 10c0 16.542-13.458 30-30 30-5.522 0-10 4.477-10 10s4.478 10 10 10c16.542 0 30 13.458 30 30 0 5.523 4.478 10 10 10s10-4.477 10-10c0-16.542 13.458-30 30-30 5.522 0 10-4.477 10-10s-4.478-10-10-10z"/><circle cx="316" cy="442" r="20"/></g>
    </symbol>
    <symbol id="about-purpose" viewBox="0 0 496 496">
        <g>
            <path d="m416 248h-16c0 13.230469-10.769531 24-24 24s-24-10.769531-24-24h-16c0 22.054688 17.945312 40 40 40s40-17.945312 40-40zm0 0"/><path d="m368 228.6875-18.34375-18.34375-11.3125 11.3125 37.65625 37.65625 37.65625-37.65625-11.3125-11.3125-18.34375 18.34375v-127.742188l32-16v-84.945312l-40 30-40-30v84.945312l32 16zm32-153.632812-16 8v-39.054688l16-12zm-48 0v-43.054688l16 12v39.054688zm0 0"/><path d="m354.71875 179.199219-4.71875-15.289063c-37.089844 11.457032-62 45.25-62 84.089844 0 48.519531 39.480469 88 88 88s88-39.480469 88-88c0-38.839844-24.910156-72.632812-62-84.089844l-4.71875 15.289063c30.335938 9.375 50.71875 37.015625 50.71875 68.800781 0 39.695312-32.304688 72-72 72s-72-32.304688-72-72c0-31.785156 20.382812-59.425781 50.71875-68.800781zm0 0"/><path d="m401.433594 130.753906-3.386719 15.636719c47.488281 10.265625 81.953125 52.992187 81.953125 101.609375 0 57.34375-46.65625 104-104 104s-104-46.65625-104-104c0-48.617188 34.464844-91.34375 81.953125-101.609375l-3.386719-15.636719c-52.167968 11.269532-90.636718 56.527344-94.214844 109.246094h-48.351562v-192h-80v-48h-128v112h128v-48h64v176h-64v-48h-128v112h128v-48h64v176h-64v-48h-128v112h128v-48h80v-192h48.40625c4.144531 62.441406 56.128906 112 119.59375 112 66.167969 0 120-53.832031 120-120 0-56.097656-39.777344-105.40625-94.566406-117.246094zm-289.433594-34.753906h-96v-80h96zm0 192h-96v-80h96zm0 192h-96v-80h96zm0 0"/><path d="m32 224h64v16h-64zm0 0"/><path d="m72 256h16v16h-16zm0 0"/><path d="m40 256h16v16h-16zm0 0"/><path d="m32 32h64v16h-64zm0 0"/><path d="m72 64h16v16h-16zm0 0"/><path d="m40 64h16v16h-16zm0 0"/><path d="m32 416h64v16h-64zm0 0"/><path d="m72 448h16v16h-16zm0 0"/><path d="m40 448h16v16h-16zm0 0"/>
        </g>
    </symbol>
    <symbol id="why-we-here" viewBox="0 0 512.004 512.004">
        <g>
            <path d="m511.815 489.154c-1.056-9.652-7.294-57.512-30.592-97.696-9.814-16.781-22.916-31.723-38.94-44.41-37.442-30.644-85.685-31.976-90.678-32.029-5.781-.364-12.131-.54-19.956-.552l-2.287-.002v-39.9c12.482-12.221 21.792-27.426 26.942-44.043h4.772c10.469 0 20.302-4.075 27.674-11.462 7.401-7.386 11.477-17.219 11.477-27.688 0-.054-.001-.11-.002-.169.001-.06.002-.116.002-.171 0-5.631-1.189-11.073-3.428-16.052-.521-88.168-29.744-111.798-41.233-117.679-7.219-11.153-35.001-46.754-95.465-46.754-1.171 0-7.134 0-8.241.01-36.182.15-69.572 14.538-94.021 40.511-23.994 25.491-37.208 59.691-37.208 96.3v19.254c-5.533 6.898-8.545 15.414-8.545 24.41v.34c0 10.483 4.078 20.319 11.463 27.675 7.386 7.4 17.219 11.476 27.688 11.476h4.444c5.159 16.628 14.474 31.836 26.96 44.057v39.801c-4.799-.004-9.598.257-14.391.499-3.684.026-27.926.53-54.421 8.987-5.261 1.68-8.165 7.306-6.485 12.567 1.679 5.261 7.308 8.169 12.567 6.485 24.283-7.751 46.208-8.034 48.63-8.041 4.924 0 9.845-.502 14.774-.498 3.742 27.332 23.314 50.749 49.384 59.583 7.479 2.534 15.405 3.825 23.301 3.825 27.589 0 53.988-16.336 65.941-41.303 3.33-6.956 5.667-14.369 6.726-22.019l2.958.002c7.52.011 13.552.18 18.982.529.202.013.423.02.626.021.45.002 45.389.465 78.437 27.554.046.037.091.074.137.109 14.094 11.148 25.584 24.229 34.132 38.843 16.691 28.79 23.897 63.039 26.621 79.935h-45.002v-20.11c0-5.522-4.478-10-10-10s-10 4.478-10 10v20.11h-332.663v-20.11c0-5.522-4.478-10-10-10s-10 4.478-10 10v20.11h-51.453c2.723-16.895 9.926-51.138 26.604-79.904 2.229-3.814 4.688-7.579 7.309-11.188 3.243-4.471 2.25-10.724-2.22-13.967-4.47-3.244-10.723-2.251-13.967 2.219-3.006 4.142-5.828 8.463-8.407 12.875-23.279 40.148-29.517 88.008-30.573 97.66-.132.938-.229 1.819-.171 2.829.295 5.262 4.671 9.474 10.004 9.474h491.98c5.344 0 9.708-4.229 9.986-9.506.056-.996-.042-1.869-.172-2.797zm-131.59-297.54c-.062 5.028-2.046 9.74-5.615 13.303-3.608 3.614-8.414 5.604-13.533 5.604-.236 0-.471 0-.707 0 .375-3.717 1.368-38.625.994-38.631 5.011.073 9.707 2.05 13.26 5.609 3.819 3.814 5.41 8.753 5.601 14.115zm-4.122-36.766c-4.64-1.926-9.656-2.947-14.831-2.972.093-10.463-6.522-19.883-16.896-22.377-3.535-.85-7.261-.66-10.857-1.087-5.735-.682-11.582-2.06-16.603-5.015-1.344-.798-2.517-1.654-3.542-2.547 12.442-5.034 30.106-16.06 40.362-39.676 7.93 8.864 19.422 29.176 22.367 73.674zm-235.471-7.481c0-31.493 11.283-60.825 31.771-82.592 20.651-21.938 48.899-34.092 79.585-34.219 1.128-.01 6.965-.005 8.113-.01 48.538 0 71.227 26.733 77.711 36.147-10.159 31.666-36.626 37.559-40.697 38.282-18.039.097-35.905 3.251-53.122 9.395-17.243 6.168-33.321 15.147-47.778 26.681-.564.449-1.14.884-1.726 1.305-8.801 6.319-20.126 9.52-33.737 9.52-6.737 0-13.557-.391-20.12 1.445zm-2.948 57.529c-3.609-3.596-5.598-8.398-5.598-13.525v-.34c0-5.126 1.988-9.929 5.617-13.545 3.452-3.452 8.164-5.46 13.04-5.585.02 12.851-.422 25.818.913 38.62-.14 0-.28 0-.419 0-5.119 0-9.925-1.99-13.553-5.625zm35.432 13.543c-.242-1.136-.458-2.273-.656-3.417-.789-4.739-1.141-9.624-1.486-14.797-.407-9.588-.233-19.239-.229-28.835 13.705-1.378 27.09-6.066 37.934-14.695 12.74-10.164 26.889-18.067 42.045-23.489 13.235-4.723 26.901-7.435 40.716-8.085 6.401 11.839 18.557 19.573 35.312 22.501 2.065.385 4.169.632 6.258.833 1.683.162 1.35.191 8.189.73.038.003.02 29.804-.024 38.78-.165 10.189-.005 20.383-2.285 30.384-3.893 17.195-13.234 32.917-26.46 44.685-47.286 42.048-125.285 17.236-139.314-44.595zm29.525 106.367v-.42-34.447c17.481 10.321 37.801 15.353 58.076 14.436 17.108-.749 33.901-5.732 48.645-14.449v34.531.289c-.176 29.247-24.113 53.041-53.36 53.041s-53.185-23.794-53.361-52.981z"/><path d="m233.458 194.145c5.522 0 10-4.478 10-10 0-3.997 1.61-7.701 4.535-10.431 2.921-2.728 6.741-4.086 10.762-3.798 7.037.485 12.71 6.158 13.195 13.195.44 6.383-3.438 12.334-9.432 14.474-8.851 3.158-14.797 11.61-14.797 21.033v6.322c0 5.522 4.478 10 10 10s10-4.478 10-10v-6.322c0-.99.61-1.873 1.52-2.197 14.396-5.138 23.716-19.401 22.662-34.686-1.169-16.944-14.828-30.604-31.772-31.772-9.618-.671-18.769 2.579-25.785 9.13-6.919 6.459-10.888 15.59-10.888 25.052 0 5.523 4.477 10 10 10z"/><path d="m266.971 252.731c-1.546-3.707-5.258-6.164-9.269-6.166-4.442-.002-8.406 3.065-9.597 7.329-2.441 8.739 7.645 15.978 15.176 10.978 3.935-2.612 5.476-7.783 3.69-12.141z"/><path d="m67.521 358.132c1.668 4.001 5.876 6.574 10.209 6.129 4.33-.445 7.966-3.727 8.821-7.999 1.742-8.704-8.328-15.172-15.552-10.129-3.804 2.655-5.227 7.728-3.478 11.999z"/>
        </g>
    </symbol>
    <symbol viewBox="0 0 100 100" id="ul-list">
        <path d="M50.2 1.9C23.5 1.9 1.7 23.7 1.7 50.4s21.8 48.5 48.5 48.5 48.4-21.8 48.5-48.5c0-26.7-21.8-48.5-48.5-48.5zm-7.3 71.4L22.7 53.2l4.2-4.3 15.8 15.7 32.1-35.4 4.4 4-36.3 40.1z"></path><path d="M50.2 1.9C23.5 1.9 1.7 23.7 1.7 50.4s21.8 48.5 48.5 48.5 48.4-21.8 48.5-48.5c0-26.7-21.8-48.5-48.5-48.5zm-7.3 71.4L22.7 53.2l4.2-4.3 15.8 15.7 32.1-35.4 4.4 4-36.3 40.1z"></path>
    </symbol>

    <symbol id="telegram" viewBox="0 0 24 24">
        <path d="m9.417 15.181-.397 5.584c.568 0 .814-.244 1.109-.537l2.663-2.545 5.518 4.041c1.012.564 1.725.267 1.998-.931l3.622-16.972.001-.001c.321-1.496-.541-2.081-1.527-1.714l-21.29 8.151c-1.453.564-1.431 1.374-.247 1.741l5.443 1.693 12.643-7.911c.595-.394 1.136-.176.691.218z" />
    </symbol>
    <symbol id="twitter" viewBox="0 0 512 512">
        <g>
            <path d="M512,97.248c-19.04,8.352-39.328,13.888-60.48,16.576c21.76-12.992,38.368-33.408,46.176-58.016
			c-20.288,12.096-42.688,20.64-66.56,25.408C411.872,60.704,384.416,48,354.464,48c-58.112,0-104.896,47.168-104.896,104.992
			c0,8.32,0.704,16.32,2.432,23.936c-87.264-4.256-164.48-46.08-216.352-109.792c-9.056,15.712-14.368,33.696-14.368,53.056
			c0,36.352,18.72,68.576,46.624,87.232c-16.864-0.32-33.408-5.216-47.424-12.928c0,0.32,0,0.736,0,1.152
			c0,51.008,36.384,93.376,84.096,103.136c-8.544,2.336-17.856,3.456-27.52,3.456c-6.72,0-13.504-0.384-19.872-1.792
			c13.6,41.568,52.192,72.128,98.08,73.12c-35.712,27.936-81.056,44.768-130.144,44.768c-8.608,0-16.864-0.384-25.12-1.44
			C46.496,446.88,101.6,464,161.024,464c193.152,0,298.752-160,298.752-298.688c0-4.64-0.16-9.12-0.384-13.568
			C480.224,136.96,497.728,118.496,512,97.248z" />
        </g>
    </symbol>
    <symbol id="vk" viewBox="0 0 24 24">
        <path d="m19.915 13.028c-.388-.49-.277-.708 0-1.146.005-.005 3.208-4.431 3.538-5.932l.002-.001c.164-.547 0-.949-.793-.949h-2.624c-.668 0-.976.345-1.141.731 0 0-1.336 3.198-3.226 5.271-.61.599-.892.791-1.225.791-.164 0-.419-.192-.419-.739v-5.105c0-.656-.187-.949-.74-.949h-4.126c-.419 0-.668.306-.668.591 0 .622.945.765 1.043 2.515v3.797c0 .832-.151.985-.486.985-.892 0-3.057-3.211-4.34-6.886-.259-.713-.512-1.001-1.185-1.001h-2.625c-.749 0-.9.345-.9.731 0 .682.892 4.073 4.148 8.553 2.17 3.058 5.226 4.715 8.006 4.715 1.671 0 1.875-.368 1.875-1.001 0-2.922-.151-3.198.686-3.198.388 0 1.056.192 2.616 1.667 1.783 1.749 2.076 2.532 3.074 2.532h2.624c.748 0 1.127-.368.909-1.094-.499-1.527-3.871-4.668-4.023-4.878z" />
    </symbol>
    
    <symbol id="insurance" viewBox="0 0 60 60">
<path d="M45.4,6.65 L30.4,0.084 C30.1449495,-0.027313148 29.8550505,-0.027313148 29.6,0.084 L14.6,6.65 C14.2357446,6.80897404 14.0002048,7.16856483 14,7.566 L14,23.266 C14.0054212,26.7943225 15.7009077,30.1064701 18.56,32.174 L28.927,39.651 C29.5672719,40.1144391 30.4327281,40.1144391 31.073,39.651 L41.44,32.175 C44.2990923,30.1074701 45.9945788,26.7953225 46,23.267 L46,7.566 C45.9997952,7.16856483 45.7642554,6.80897404 45.4,6.65 Z M44,23.267 C43.9954196,26.1529088 42.6085528,28.8619467 40.27,30.553 L30,37.96 L19.73,30.553 C17.3914472,28.8619467 16.0045804,26.1529088 16,23.267 L16,8.22 L30,2.092 L44,8.22 L44,23.267 Z" id="Shape"/><path d="M29.6,4.45 L18.6,9.266 C18.2357446,9.42497404 18.0002048,9.78456483 18,10.182 L18,23.267 C18.003086,25.5106532 19.0814764,27.6168612 20.9,28.931 L29.415,35.073 C29.7643066,35.3249556 30.2356934,35.3249556 30.585,35.073 L39.1,28.931 C40.9185236,27.6168612 41.996914,25.5106532 42,23.267 L42,10.182 C41.9997952,9.78456483 41.7642554,9.42497404 41.4,9.266 L30.4,4.45 C30.1449495,4.33868685 29.8550505,4.33868685 29.6,4.45 Z M40,10.835 L40,23.267 C39.9969382,24.8680418 39.2273464,26.3707907 37.93,27.309 L30,33.029 L22.07,27.309 C20.7726536,26.3707907 20.0030618,24.8680418 20,23.267 L20,10.835 L30,6.458 L40,10.835 Z" id="Shape"/><path d="M8.285,33.2 L6.122,28.146 C5.66202057,27.1040349 4.68110027,26.3866155 3.54874229,26.2639868 C2.4163843,26.1413582 1.30462076,26.6321504 0.632242236,27.5514868 C-0.0401362855,28.4708233 -0.170979487,29.6790349 0.289,30.721 L4.208,39.342 C4.7367119,40.509062 5.47222588,41.5708311 6.379,42.476 L12.542,48.64 C12.1949095,49.0078818 12.0010872,49.4942257 12,50 L12,58 C12,59.1045695 12.8954305,60 14,60 L25,60 C26.1045695,60 27,59.1045695 27,58 L27,50 C27,48.8954305 26.1045695,48 25,48 L25,46.139 C25.0306399,43.7706727 24.2579711,41.4618312 22.808,39.589 C21.9578989,38.470916 20.7993346,37.6258906 19.475,37.158 C17.3688382,36.273094 15.4318729,35.0300529 13.75,33.484 C12.1888463,32.1982345 9.97101938,32.0829806 8.285,33.2 Z M25,58 L14,58 L14,50 L25,50 L25,58 Z M21.247,40.838 C22.4126125,42.3566457 23.0304097,44.224839 23,46.139 L23,48 L14.731,48 L7.793,41.062 C7.05613326,40.3261769 6.45820511,39.463331 6.028,38.515 L2.109,29.894 C1.94175327,29.5260467 1.97287988,29.0983304 2.19163714,28.7584681 C2.41039441,28.4186059 2.78682049,28.2131465 3.191,28.213 C3.66664654,28.2126156 4.09651136,28.4964366 4.283,28.934 L6.52,34.151 C7.11402167,35.5429028 7.97024427,36.8075456 9.042,37.876 L13.61,42.445 C13.8610745,42.7049566 14.2328779,42.8092126 14.5825073,42.7176972 C14.9321368,42.6261817 15.2051817,42.3531368 15.2966972,42.0035073 C15.3882126,41.6538779 15.2839566,41.2820745 15.024,41.031 L10.456,36.462 C9.99666328,36.0037722 9.5836624,35.5013381 9.223,34.962 C10.1833362,34.2230209 11.5268309,34.2454194 12.462,35.016 C14.3313425,36.731555 16.4918904,38.0996763 18.842,39.056 C19.7995194,39.4041952 20.6351145,40.0233347 21.247,40.838 Z" id="Shape"/><path d="M22,53 L21,53 C20.4477153,53 20,53.4477153 20,54 C20,54.5522847 20.4477153,55 21,55 L22,55 C22.5522847,55 23,54.5522847 23,54 C23,53.4477153 22.5522847,53 22,53 Z" id="Shape"/><path d="M55.792,39.342 L59.711,30.721 C60.1928642,29.6755112 60.0736536,28.4514456 59.3991191,27.5185774 C58.7245846,26.5857091 57.5995134,26.0889571 56.4556875,26.2189655 C55.3118616,26.348974 54.3269714,27.0855465 53.879,28.146 L51.721,33.181 C50.0291245,32.0694769 47.8101972,32.1911509 46.25,33.481 C44.5681271,35.0270529 42.6311618,36.270094 40.525,37.155 C39.2006654,37.6228906 38.0421011,38.467916 37.192,39.586 C35.741385,41.4596396 34.9686796,43.7696481 35,46.139 L35,48 C33.8954305,48 33,48.8954305 33,50 L33,58 C33,59.1045695 33.8954305,60 35,60 L46,60 C47.1045695,60 48,59.1045695 48,58 L48,50 C47.9989128,49.4942257 47.8050905,49.0078818 47.458,48.64 L53.621,42.476 C54.5277741,41.5708311 55.2632881,40.509062 55.792,39.342 Z M46,58 L35,58 L35,50 L46,50 L46,58 Z M45.269,48 L37,48 L37,46.139 C36.9698168,44.2251802 37.587602,42.3573757 38.753,40.839 C39.3635264,40.0248642 40.1972635,39.4054671 41.153,39.056 C43.5035524,38.0999535 45.6644757,36.731809 47.534,35.016 C48.4681478,34.2395601 49.8154192,34.2134035 50.779,34.953 C50.4172837,35.4963142 50.0022252,36.0021563 49.54,36.463 L44.972,41.032 C44.5930278,41.4243789 44.5984476,42.0480848 44.9841814,42.4338186 C45.3699152,42.8195524 45.9936211,42.8249722 46.386,42.446 L50.954,37.877 C52.0257557,36.8085456 52.8819783,35.5439028 53.476,34.152 L55.713,28.934 C55.9000073,28.4970055 56.3296729,28.2137095 56.805,28.214 C57.2091795,28.2141465 57.5856056,28.4196059 57.8043629,28.7594681 C58.0231201,29.0993304 58.0542467,29.5270467 57.887,29.895 L53.968,38.516 C53.5377949,39.464331 52.9398667,40.3271769 52.203,41.063 L45.269,48 Z" id="Shape"/><path d="M39,53 L38,53 C37.4477153,53 37,53.4477153 37,54 C37,54.5522847 37.4477153,55 38,55 L39,55 C39.5522847,55 40,54.5522847 40,54 C40,53.4477153 39.5522847,53 39,53 Z" id="Shape"/><path d="M24.6,21.2 C24.1581722,20.8686292 23.5313709,20.9581722 23.2,21.4 C22.8686292,21.8418278 22.9581722,22.4686291 23.4,22.8 L27.4,25.8 C27.5730962,25.9298221 27.7836298,26 28,26 C28.056615,25.9998117 28.1131258,25.9951303 28.169,25.986 C28.4398302,25.9395277 28.6796036,25.783657 28.832,25.555 L36.832,13.555 C37.0302824,13.257755 37.0549246,12.8773069 36.8966441,12.5569669 C36.7383636,12.2366268 36.421207,12.025062 36.0646441,12.0019669 C35.7080812,11.9788718 35.3662824,12.147755 35.168,12.445 L27.754,23.566 L24.6,21.2 Z" id="Shape"/>
    </symbol>
    <symbol id="realty" viewBox="0 0 770.34 770.34" style="enable-background:new 0 0 770.34 770.34;">
        <path d="M385.226,226.764l-248.622,205.19v193.396v58.219v12.174h174.433V562.53v-49.834v-25.465c0-17.629,0-33.473,0-53.52
			c17.587,0,31.354,0,48.094,0H459.67v262.029h174.065v-11.424v-58.967V432.702L385.226,226.764L385.226,226.764z"/>
		<polygon points="327.67,695.743 419.67,695.743 419.67,495.618 327.67,451.618 		"/>
    </symbol>
    <symbol id="cars" viewBox="1 -172 575.96023 575" >
        <path d="M 567.761719 58.1875 L 502.550781 48.875 C 490.660156 41.570312 478.320312 35.03125 465.597656 29.292969 C 423.582031 10.261719 377.980469 0.441406 331.851562 0.492188 L 320.523438 0.492188 C 266.085938 0.53125 212.519531 14.191406 164.707031 40.226562 L 131.796875 58.179688 C 93.273438 58.613281 55.492188 68.859375 22.023438 87.9375 C 8.421875 95.738281 0.0234375 110.210938 0 125.886719 L 0 182.890625 C 0 188.195312 4.296875 192.492188 9.601562 192.492188 L 41.835938 192.492188 C 52.320312 222.402344 85.066406 238.152344 114.976562 227.667969 C 131.441406 221.898438 144.382812 208.953125 150.152344 192.492188 L 406.636719 192.492188 C 417.121094 222.402344 449.867188 238.152344 479.777344 227.667969 C 496.238281 221.898438 509.183594 208.953125 514.953125 192.492188 L 518.398438 192.492188 C 519.621094 192.492188 520.832031 192.261719 521.96875 191.808594 L 553.0625 179.332031 C 566.953125 173.832031 576.050781 160.386719 576 145.453125 L 576 67.691406 C 576 62.917969 572.488281 58.867188 567.761719 58.1875 Z M 133.621094 180.972656 C 129.375 201.75 109.089844 215.152344 88.3125 210.90625 C 67.53125 206.660156 54.128906 186.375 58.375 165.59375 C 62.625 144.816406 82.910156 131.414062 103.6875 135.660156 C 121.566406 139.3125 134.402344 155.042969 134.398438 173.292969 C 134.398438 175.871094 134.136719 178.445312 133.621094 180.972656 Z M 307.199219 173.292969 L 153.597656 173.292969 C 153.597656 141.480469 127.8125 115.691406 96 115.691406 C 64.1875 115.691406 38.398438 141.480469 38.398438 173.292969 L 19.199219 173.292969 L 19.199219 125.886719 C 19.210938 117.09375 23.921875 108.972656 31.554688 104.605469 C 62.882812 86.71875 98.328125 77.304688 134.398438 77.292969 L 307.199219 77.292969 Z M 307.199219 58.09375 L 172.050781 58.09375 L 173.902344 57.082031 C 214.945312 34.777344 260.535156 22.132812 307.199219 20.113281 Z M 326.398438 19.691406 L 331.832031 19.691406 C 370.519531 19.648438 408.855469 26.992188 444.789062 41.332031 L 428.027344 58.09375 L 326.398438 58.09375 Z M 498.421875 180.972656 C 494.175781 201.75 473.890625 215.152344 453.109375 210.90625 C 432.332031 206.660156 418.929688 186.375 423.175781 165.59375 C 427.421875 144.816406 447.710938 131.414062 468.488281 135.660156 C 486.367188 139.3125 499.203125 155.042969 499.199219 173.292969 C 499.199219 175.871094 498.9375 178.445312 498.421875 180.972656 Z M 556.800781 86.890625 L 528 86.890625 L 528 106.09375 L 556.800781 106.09375 L 556.800781 145.453125 C 556.824219 152.527344 552.511719 158.894531 545.933594 161.492188 L 518.398438 172.550781 C 518.398438 171.667969 518.285156 170.792969 518.226562 169.910156 C 518.167969 169.027344 518.148438 167.992188 518.054688 167.03125 C 517.957031 166.070312 517.765625 165.109375 517.613281 164.152344 C 517.457031 163.191406 517.34375 162.230469 517.152344 161.359375 C 516.960938 160.484375 516.679688 159.515625 516.429688 158.601562 C 516.179688 157.691406 515.988281 156.769531 515.699219 155.875 C 515.414062 154.984375 515.066406 154.128906 514.742188 153.253906 C 514.414062 152.382812 514.117188 151.480469 513.78125 150.613281 C 513.445312 149.75 512.992188 148.964844 512.589844 148.148438 C 512.1875 147.332031 511.792969 146.4375 511.34375 145.613281 C 510.890625 144.789062 510.382812 144.085938 509.949219 143.320312 C 509.519531 142.550781 508.992188 141.675781 508.445312 140.890625 C 507.894531 140.101562 507.386719 139.480469 506.859375 138.769531 C 506.332031 138.058594 505.734375 137.222656 505.121094 136.484375 C 504.507812 135.746094 503.933594 135.167969 503.335938 134.5625 C 502.742188 133.960938 502.078125 133.144531 501.417969 132.472656 C 500.753906 131.800781 500.101562 131.269531 499.441406 130.675781 C 498.777344 130.082031 498.066406 129.378906 497.335938 128.753906 C 496.609375 128.132812 495.867188 127.652344 495.140625 127.105469 C 494.410156 126.558594 493.679688 125.972656 492.914062 125.460938 C 492.144531 124.953125 491.28125 124.503906 490.457031 123.964844 C 489.628906 123.425781 488.957031 123.003906 488.179688 122.59375 C 487.402344 122.179688 486.433594 121.746094 485.550781 121.324219 C 484.667969 120.902344 483.976562 120.527344 483.160156 120.183594 C 482.34375 119.835938 481.238281 119.472656 480.28125 119.128906 C 479.320312 118.78125 478.695312 118.511719 477.878906 118.253906 C 476.785156 117.917969 475.664062 117.675781 474.546875 117.398438 C 473.816406 117.226562 473.117188 116.996094 472.378906 116.84375 C 471.199219 116.601562 469.988281 116.46875 468.789062 116.292969 C 468.078125 116.199219 467.398438 116.042969 466.6875 115.976562 C 464.765625 115.785156 462.847656 115.679688 460.832031 115.679688 C 429.03125 115.710938 403.261719 141.480469 403.230469 173.28125 L 326.402344 173.28125 L 326.402344 77.289062 L 432 77.289062 C 434.546875 77.289062 436.988281 76.277344 438.785156 74.476562 L 463.679688 49.582031 C 474.128906 54.554688 484.289062 60.113281 494.113281 66.230469 C 495.246094 66.9375 496.511719 67.402344 497.835938 67.59375 L 556.800781 76.011719 Z M 556.800781 86.890625 " />
    </symbol>
    <symbol id="management" viewBox="0 0 511.999 511.999">
        <g>
	<g>
		<path d="M241.227,378.889c-3.851-2.826-9.27-2.001-12.1,1.852l-1.069,1.455c-2.827,3.85-2.004,9.261,1.842,12.094
			c1.545,1.139,3.345,1.689,5.128,1.689c2.653,0,5.272-1.216,6.968-3.514l1.085-1.475
			C245.91,387.137,245.08,381.719,241.227,378.889z"/>
	</g>
</g>
<g>
	<g>
		<path d="M243.486,461.241l-22.263-40.482l20.786-28.31c2.831-3.853,2-9.271-1.854-12.101c-3.853-2.831-9.271-2-12.1,1.855
			l-24.058,32.765c-1.995,2.716-2.231,6.342-0.608,9.295l24.928,45.321v-0.001c1.577,2.865,4.538,4.486,7.593,4.486
			c1.411-0.001,2.841-0.346,4.164-1.073C244.262,470.693,245.79,465.43,243.486,461.241z"/>
	</g>
</g>
<g>
	<g>
		<path d="M308.004,414.969l-23.96-32.632c-1.987-2.705-5.354-4.02-8.648-3.368c-3.293,0.647-5.914,3.141-6.728,6.396
			c-0.625,2.5-0.104,5.146,1.421,7.223l20.684,28.172l-22.111,40.207c-0.702,1.277-1.071,2.717-1.071,4.176
			c0,3.951,2.676,7.401,6.503,8.384c0.717,0.185,1.44,0.274,2.154,0.274c3.099,0,6.036-1.672,7.585-4.485l24.778-45.05
			C310.236,421.311,309.998,417.685,308.004,414.969z"/>
	</g>
</g>
<g>
	<g>
		<path d="M321.721,278.932c-2.847-1.495-6.289-1.291-8.938,0.535c-5.149,3.547-9.927,7.305-14.201,11.168
			c-23.296,21.06-45.429,18.21-46.296,18.086c-0.522-0.082-1.053-0.12-1.578-0.103c-9.207,0.236-25.807-8.177-43.368-21.969
			c-2.686-2.109-5.44-4.119-8.19-5.975c-2.652-1.792-6.079-1.973-8.905-0.47c-2.827,1.502-4.594,4.442-4.594,7.644v29.696
			c0,2.626,1.195,5.108,3.243,6.752c0.242,0.195,0.494,0.375,0.754,0.541l61.381,41.016c0.01,0.006,0.019,0.014,0.029,0.021
			l0.162,0.108c1.445,0.956,3.11,1.439,4.781,1.439c1.406,0,2.812-0.341,4.097-1.028c0.271-0.145,0.531-0.304,0.781-0.474
			c0.029-0.019,0.058-0.038,0.088-0.058c0.034-0.022,0.068-0.045,0.102-0.068l61.236-40.919c0.246-0.156,0.486-0.324,0.717-0.504
			c2.101-1.64,3.329-4.157,3.329-6.823v-30.951C326.351,283.378,324.569,280.429,321.721,278.932z M309.037,312.914L256,348.354
			l-53.036-35.441v-7.873c12.914,9.385,31.911,20.896,47.396,20.895c0.032,0,0.068,0,0.101,0c5.199,0.575,31.712,2.138,58.578-21.43
			V312.914z"/>
	</g>
</g>
<g>
	<g>
		<path d="M264.539,357.343c-0.571-3.433-3.144-6.19-6.53-6.998c-3.388-0.803-6.926,0.492-8.986,3.298l-19.897,27.101
			c-2.83,3.854-2,9.272,1.855,12.101c1.543,1.134,3.337,1.68,5.116,1.68c2.662,0,5.288-1.225,6.986-3.536l19.793-26.958
			c1.126-1.472,1.782-3.304,1.782-5.262C264.657,358.293,264.617,357.813,264.539,357.343z"/>
	</g>
</g>
<g>
	<g>
		<path d="M387.881,78.272c-0.172-1.356-4.227-30.622-31.775-42.167c0.8-5.14,0.716-11.746-2.547-18.173
			c-4.386-8.638-13.041-14.267-25.726-16.733c-0.544-0.106-1.096-0.159-1.651-0.159H209.995c-47.178,0-85.561,38.382-85.561,85.562
			v45.591c0,11.878,4.049,23.461,11.399,32.613c3.644,4.538,8.132,12.463,8.809,24.445c0.264,4.678,4.18,8.293,8.887,8.163
			c4.684-0.132,8.412-3.968,8.412-8.653v-59.44c5.878-24.309,25.939-29.04,29.388-29.679h37.582c4.421,0,8.768-0.675,12.923-2.007
			c7.146-2.292,18.483-6.51,26.737-9.645c5.522-2.099,11.636-2.176,17.213-0.216l40.234,14.124
			c20.114,7.42,23.704,25.078,24.149,27.852v71.337c0,4.531,3.493,8.29,8.011,8.627c0.22,0.016,0.436,0.025,0.652,0.025
			c4.246-0.001,7.912-3.112,8.555-7.375c0.034-0.223,3.49-22.55,14.636-40.426c3.878-6.223,5.929-13.318,5.929-20.518V79.365
			C387.95,79,387.927,78.635,387.881,78.272z M370.636,141.416c0,3.867-1.091,7.703-3.157,11.114v-23.372
			c0-0.313-0.017-0.624-0.051-0.935c-0.136-1.257-3.713-30.923-35.498-42.599c-0.039-0.014-0.078-0.028-0.117-0.042l-40.295-14.146
			c-4.543-1.595-9.296-2.391-14.046-2.391c-5.108,0-10.213,0.921-15.05,2.761c-11.556,4.39-20.505,7.621-25.876,9.343
			c-2.443,0.783-5.012,1.181-7.636,1.181h-38.281c-0.371,0-0.743,0.024-1.112,0.071c-1.465,0.19-35.992,5.1-44.681,44.045
			c-0.138,0.619-0.208,1.251-0.208,1.885v17.816c-1.885-4.356-2.883-9.114-2.883-13.953v-45.59
			c0-37.632,30.617-68.249,68.248-68.249h115.315c4.774,1.017,10.576,3.104,12.777,7.35c2.695,5.197-0.375,12.353-0.378,12.359
			c-1.107,2.355-1.094,5.082,0.031,7.427c1.126,2.345,3.248,4.059,5.778,4.668c22.038,5.305,26.533,26.442,27.119,29.861V141.416z"
			/>
	</g>
</g>
<g>
	<g>
		<path d="M367.429,128.223c-0.136-1.257-3.713-30.923-35.498-42.599c-0.039-0.014-0.078-0.028-0.117-0.042l-40.295-14.146
			c-9.43-3.31-19.762-3.178-29.097,0.368c-11.556,4.39-20.505,7.621-25.876,9.344c-2.443,0.783-5.012,1.18-7.636,1.18h-38.281
			c-0.371,0-0.743,0.024-1.112,0.071c-1.465,0.19-35.992,5.1-44.681,44.045c-0.138,0.619-0.208,1.251-0.208,1.885v74.416
			c0,0.064,0.001,0.128,0.002,0.192c0.057,2.585,1.886,63.632,44.066,91.551l0.218,0.154c0.181,0.128,0.362,0.256,0.551,0.383
			c2.405,1.624,4.82,3.387,7.182,5.241c12.288,9.649,35.445,25.67,53.713,25.67c0.034,0,0.066,0,0.101,0
			c0.992,0.109,2.763,0.255,5.165,0.255c10.353,0,32.441-2.713,54.565-22.713c3.713-3.355,7.888-6.637,12.414-9.755l0.647-0.453
			c0.211-0.149,0.422-0.299,0.64-0.445c14.07-9.45,38.438-33.834,43.554-90.968c0.023-0.256,0.035-0.515,0.035-0.773v-71.926
			C367.48,128.846,367.462,128.535,367.429,128.223z M350.166,200.693c-4.717,51.562-26.686,71.551-35.928,77.758
			c-0.328,0.221-0.652,0.449-0.976,0.677l-0.48,0.338c-5.149,3.547-9.927,7.305-14.201,11.168
			c-23.209,20.982-45.27,18.23-46.352,18.078c-0.503-0.075-1.013-0.107-1.522-0.093c-9.207,0.236-25.807-8.177-43.368-21.969
			c-2.686-2.11-5.44-4.12-8.186-5.973l-0.213-0.15c-0.208-0.148-0.415-0.295-0.659-0.457c-34.038-22.529-36.265-75.25-36.34-77.45
			v-73.3c5.899-24.398,26.084-29.075,29.374-29.679h37.596c4.421,0,8.768-0.675,12.923-2.007c7.146-2.292,18.484-6.51,26.737-9.645
			c5.522-2.099,11.636-2.176,17.213-0.216l40.234,14.124c20.114,7.42,23.704,25.078,24.149,27.852V200.693z"/>
	</g>
</g>
<g>
	<g>
		<path d="M263.742,354.898c-1.349-2.698-4.005-4.499-7.01-4.755c-3-0.248-5.926,1.071-7.711,3.503l-20.736,28.242
			c-2.827,3.852-2.001,9.266,1.848,12.097c1.544,1.136,3.341,1.685,5.122,1.685c2.656,0,5.278-1.219,6.975-3.522l20.737-28.138
			c1.097-1.488,1.689-3.39,1.689-5.238C264.657,357.429,264.342,356.101,263.742,354.898z"/>
	</g>
</g>
<g>
	<g>
		<path d="M264.297,494.276c-3.252-3.401-8.625-3.582-12.097-0.405l-1.979,1.81c-2.963,2.709-3.674,7.101-1.716,10.607l0.061,0.109
			c1.322,2.369,3.68,3.981,6.367,4.354c0.398,0.055,0.796,0.082,1.192,0.082c2.279,0,4.486-0.901,6.121-2.536l1.917-1.919
			C267.49,503.051,267.55,497.675,264.297,494.276z"/>
	</g>
</g>
<g>
	<g>
		<path d="M261.779,495.681l-1.979-1.81c-3.472-3.176-8.846-2.995-12.098,0.405c-3.253,3.402-3.193,8.779,0.135,12.105l1.92,1.919
			c1.635,1.635,3.841,2.535,6.12,2.535c0.407,0,0.816-0.028,1.225-0.087c2.696-0.385,5.054-2.018,6.365-4.406l0.061-0.109
			C265.446,502.733,264.724,498.374,261.779,495.681z"/>
	</g>
</g>
<g>
	<g>
		<path d="M261.925,495.816l-0.011-0.01c-1.337-1.25-3.066-2.074-4.971-2.283c-2.551-0.278-5.036,0.586-6.843,2.269l-0.026,0.024
			c-1.75,1.596-2.769,3.841-2.82,6.209c-0.051,2.37,0.871,4.655,2.55,6.325l0.091,0.091c1.689,1.679,3.896,2.518,6.104,2.518
			c2.216,0,4.431-0.846,6.12-2.534l0.091-0.091c1.672-1.673,2.588-3.956,2.533-6.32C264.691,499.649,263.672,497.41,261.925,495.816
			z"/>
	</g>
</g>
<g>
	<g>
		<path d="M258.808,350.389c-3.585-1.148-7.519,0.183-9.702,3.253c-2.442,3.438-2.039,8.123,0.936,11.112
			c1.674,1.682,3.896,2.544,6.135,2.544c1.739,0,3.487-0.52,4.995-1.582c2.304-1.621,3.675-4.261,3.675-7.079v-0.021
			C264.847,354.849,262.397,351.534,258.808,350.389z"/>
	</g>
</g>
<g>
	<g>
		<path d="M263.034,353.571l-0.074-0.1c-2.221-3.006-6.121-4.244-9.67-3.075c-3.549,1.169-5.947,4.485-5.947,8.221v0.148
			c0,3.187,1.789,6.092,4.597,7.6c1.272,0.683,2.676,1.02,4.078,1.02c1.691,0,3.38-0.49,4.832-1.452
			c1.979-1.31,3.334-3.376,3.747-5.713C265.01,357.884,264.445,355.479,263.034,353.571z"/>
	</g>
</g>
<g>
	<g>
		<path d="M358.979,326.377c-0.897-2.371-2.788-4.229-5.174-5.083l-33.191-11.898c-0.269-0.096-0.548-0.182-0.826-0.25
			c-2.369-0.593-4.879-0.158-6.909,1.2l-61.498,41.094c-0.016,0.011-0.034,0.022-0.051,0.034l4.829,7.18l-4.937-7.107
			c-1.804,1.193-3.096,3.022-3.62,5.12c-0.288,1.152-0.335,2.355-0.14,3.526c0.223,1.338,0.757,2.606,1.561,3.701l45.025,61.321
			c1.636,2.23,4.232,3.534,6.976,3.534c0.188,0,0.377-0.007,0.566-0.02c2.949-0.194,5.596-1.876,7.02-4.467l49.857-90.648
			C359.69,331.392,359.877,328.746,358.979,326.377z M299.976,404.036l-31.645-43.1l50.542-33.773l19.533,7.003L299.976,404.036z"/>
	</g>
</g>
<g>
	<g>
		<path d="M264.529,357.274c-0.407-2.324-1.744-4.381-3.704-5.696l-61.703-41.231c-1.964-1.314-4.385-1.764-6.692-1.252
			c-0.354,0.078-0.702,0.18-1.043,0.302l-33.191,11.898c-2.386,0.855-4.277,2.713-5.174,5.083c-0.897,2.371-0.711,5.015,0.511,7.237
			l49.857,90.648c1.424,2.59,4.071,4.273,7.02,4.467c0.188,0.012,0.377,0.018,0.565,0.018c2.744,0,5.339-1.304,6.978-3.535
			l24.058-32.765c0.019-0.025,0.038-0.052,0.057-0.079l20.911-28.481C264.375,361.986,264.935,359.598,264.529,357.274z
			 M228.057,382.198c-0.021,0.028-0.041,0.056-0.062,0.084l-15.973,21.755l-38.43-69.871l19.534-7.002l50.541,33.773
			L228.057,382.198z"/>
	</g>
</g>
<g>
	<g>
		<path d="M511.571,474.155l-11.167-67.433c-3.519-21.251-18.288-39.006-38.544-46.332l-108.034-39.086
			c-3.331-1.204-7.054-0.26-9.408,2.382c-2.354,2.643-2.863,6.453-1.283,9.622l22.556,45.234l-22.133,0.341
			c-3.005,0.047-5.772,1.647-7.307,4.231c-1.536,2.584-1.622,5.778-0.228,8.441l9.078,17.333l-92.903,84.987
			c-0.095,0.087-0.188,0.175-0.279,0.266l-1.918,1.918c-2.717,2.718-3.318,6.902-1.473,10.274l0.068,0.123
			c1.519,2.775,4.431,4.502,7.595,4.502h224.171c9.313,0,18.107-4.073,24.128-11.175
			C510.512,492.681,513.093,483.339,511.571,474.155z M491.288,488.586c-2.728,3.216-6.71,5.06-10.925,5.06H278.097l83.611-76.484
			c2.9-2.651,3.65-6.922,1.826-10.403l-5.648-10.783l21.826-0.336c2.975-0.045,5.716-1.616,7.263-4.157
			c1.545-2.543,1.678-5.699,0.351-8.362l-19.037-38.176l87.686,31.723c14.375,5.2,24.856,17.8,27.353,32.881l11.167,67.433
			c0,0.001,0,0.001,0,0.001C495.183,481.142,494.015,485.37,491.288,488.586z"/>
	</g>
</g>
<g>
	<g>
		<path d="M262,495.885l-0.101-0.091c-3.426-3.102-8.688-2.964-11.948,0.314l-0.09,0.091c-2.465,2.48-3.196,6.2-1.854,9.428
			c1.343,3.229,4.497,5.332,7.993,5.332h0.19c3.579,0,6.79-2.204,8.076-5.543C265.555,502.075,264.654,498.287,262,495.885z"/>
	</g>
</g>
<g>
	<g>
		<path d="M261.728,495.635c-1.965-1.769-4.63-2.544-7.24-2.099c-2.607,0.441-4.869,2.052-6.141,4.37l-0.06,0.109
			c-1.825,3.327-1.27,7.455,1.369,10.183l0.031,0.032c1.696,1.753,3.956,2.637,6.222,2.637c2.085,0,4.176-0.75,5.832-2.263
			l0.091-0.082c0.786-0.716,1.434-1.574,1.91-2.526C265.485,502.513,264.623,498.239,261.728,495.635z"/>
	</g>
</g>
<g>
	<g>
		<path d="M262.102,496.164l-0.036-0.037c-0.023-0.023-0.047-0.047-0.069-0.069l-1.92-1.918c-0.09-0.091-0.183-0.18-0.277-0.265
			l-92.903-84.987l9.079-17.333c1.395-2.662,1.308-5.857-0.227-8.441c-1.536-2.583-4.302-4.184-7.307-4.231l-22.135-0.341
			l22.556-45.234c1.58-3.168,1.07-6.979-1.283-9.622s-6.081-3.588-9.408-2.382L50.139,360.39
			c-20.256,7.325-35.026,25.08-38.545,46.332L0.427,474.155c-1.521,9.188,1.061,18.528,7.083,25.629
			c6.023,7.101,14.818,11.174,24.128,11.174H256c3.506,0,6.665-2.115,8.001-5.355C265.338,502.363,264.588,498.635,262.102,496.164z
			 M31.639,493.646c-4.216,0-8.198-1.844-10.924-5.06c-2.726-3.215-3.894-7.444-3.206-11.604l11.167-67.433
			c2.497-15.083,12.978-27.681,27.353-32.881l87.685-31.723l-19.036,38.174c-1.328,2.663-1.196,5.819,0.351,8.362
			c1.545,2.542,4.288,4.112,7.263,4.157l21.826,0.337l-5.648,10.783c-1.823,3.48-1.073,7.752,1.825,10.403l83.611,76.485H31.639z"/>
	</g>
</g>
<g>
	<g>
		<path d="M285.464,389.557c0.625-2.5,0.104-5.147-1.421-7.224l-21.066-28.689c-2.214-3.016-6.118-4.215-9.672-3.049
			c-1.919,0.629-3.5,1.899-4.552,3.522l-20.681,28.061c-0.296,0.4-0.559,0.83-0.782,1.276c-1.417,2.835-1.172,6.217,0.638,8.818
			l8.807,12.647l-9.382,59.137c-0.301,1.899,0.039,3.843,0.965,5.528l20.098,36.541c1.521,2.767,4.429,4.485,7.585,4.485
			c3.157,0,6.064-1.718,7.585-4.485l20.248-36.812c0.702-1.278,1.071-2.713,1.071-4.171v-0.005c0-0.454-0.037-0.908-0.107-1.357
			l-9.339-58.86l8.712-12.508C284.769,391.546,285.21,390.577,285.464,389.557z M256.001,483.992l-11.085-20.153l9.464-59.649
			c0.351-2.21-0.168-4.468-1.446-6.303l-7.254-10.418l10.346-14.038l10.4,14.164l-7.167,10.292
			c-1.278,1.834-1.796,4.093-1.446,6.303l9.421,59.377L256.001,483.992z"/>
	</g>
</g>
    </symbol>
    <symbol id="design" viewBox="0 0 512 512">
<path d="m151 421c0-17.284-7.356-32.875-19.09-43.833l.006-.083c1.063-14.686 1.924-30.168 2.578-46.143 30.713 5.786 52.476 17.431 64.796 34.728 15.886 22.302 11.655 48.495 9.98 55.991-5.584 24.991 9.215 50.308 34.285 55.124 14.49 2.783 28.95 4.173 43.314 4.173 50.36 0 100.864-17.212 142.556-51.648 52.459-43.33 82.557-106.497 82.574-173.304.036-126.622-110.09-229.925-225.096-225.796-62.835 2.257-119.305 33.211-158.24 67.283-.498-4.643-1.019-9.164-1.564-13.548-2.856-22.982-6.23-41.2-10.028-54.149-2.614-8.916-8.738-29.795-26.071-29.795s-23.457 20.879-26.071 29.795c-3.798 12.949-7.171 31.167-10.028 54.149-5.74 46.185-8.901 107.289-8.901 172.056 0 42.314 1.412 84.184 4.084 121.083l.006.084c-11.734 10.958-19.09 26.549-19.09 43.833v31c0 16.262-14.196 30-31 30v30h61c49.55 0 90-41.067 90-91zm136.979-360.81c96.651-3.468 194.052 84.771 194.021 195.806-.016 57.831-26.142 112.57-71.679 150.183-45.002 37.17-103.726 52.165-161.106 41.144-8.352-1.604-12.552-10.684-10.666-19.121 3.023-13.532 7.632-48.412-14.823-79.938-17.618-24.735-47.273-40.72-88.256-47.619.348-14.693.527-45.763.527-46.323 5.845 6.811 13.587 11.714 22.444 14.087 24.021 6.437 48.706-7.907 55.114-31.82 6.422-23.968-7.853-48.691-31.82-55.113-18-4.823-35.97 1.971-46.646 15.164-.667-21.309-1.694-41.749-3.054-60.855 33.943-35.861 91.33-73.274 155.944-75.595zm-132.379 160.869c2.146-8.008 10.362-12.753 18.371-10.607 7.989 2.141 12.748 10.382 10.607 18.371-2.141 7.99-10.386 12.748-18.372 10.607-8.007-2.145-12.752-10.361-10.606-18.371zm-72.406-120.617c2.591-24.144 5.363-40.509 7.806-51.524 2.443 11.015 5.215 27.38 7.806 51.524 4.639 43.231 7.194 98.476 7.194 155.558 0 5.01-.021 10.012-.061 15h-29.878c-.04-4.988-.061-9.99-.061-15 0-57.082 2.555-112.327 7.194-155.558zm-6.649 200.548h28.91c-.514 21.183-1.389 41.784-2.604 61.191-3.833-.771-7.795-1.181-11.851-1.181s-8.018.41-11.851 1.181c-1.214-19.407-2.089-40.007-2.604-61.191zm-15.545 151.01v-31c0-16.542 13.458-30 30-30s30 13.458 30 30c0 33.635-26.916 61-60 61h-8.256c5.386-9.041 8.256-19.314 8.256-30z"/><path d="m402.673 202.967c17.586-17.585 17.59-46.051 0-63.64-17.544-17.545-46.094-17.546-63.64 0-17.586 17.585-17.59 46.051 0 63.64 17.545 17.545 46.094 17.546 63.64 0zm-42.427-42.426c5.849-5.848 15.364-5.849 21.214 0 5.863 5.863 5.863 15.35 0 21.213-5.851 5.849-15.365 5.848-21.214 0-5.862-5.863-5.863-15.351 0-21.213z"/><path d="m266.588 183.556c23.967-6.422 38.243-31.146 31.821-55.113-6.424-23.967-31.148-38.242-55.114-31.82-23.967 6.422-38.242 31.146-31.82 55.114 6.437 24.022 31.087 38.256 55.113 31.819zm-15.528-57.956c8.006-2.145 16.235 2.636 18.372 10.606 2.141 7.989-2.618 16.231-10.607 18.371-8.007 2.145-16.225-2.597-18.371-10.606-2.142-7.989 2.616-16.23 10.606-18.371z"/><path d="m273.591 383.559c6.414 23.932 31.112 38.251 55.115 31.819 23.967-6.422 38.241-31.146 31.819-55.113-6.437-24.019-31.082-38.258-55.114-31.82-23.967 6.422-38.242 31.146-31.82 55.114zm39.586-26.137c8.022-2.15 16.23 2.614 18.37 10.606 2.141 7.99-2.617 16.231-10.606 18.372-7.99 2.141-16.23-2.619-18.371-10.606-2.141-7.99 2.617-16.231 10.607-18.372z"/><path d="m358.444 275.412c-6.422 23.968 7.853 48.691 31.82 55.114 24.004 6.432 48.671-7.778 55.113-31.82 6.436-24.022-7.794-48.676-31.819-55.113-24.021-6.44-48.675 7.793-55.114 31.819zm57.955 15.529c-2.143 8.006-10.362 12.753-18.37 10.607-7.989-2.141-12.747-10.382-10.606-18.372 2.14-7.991 10.346-12.756 18.37-10.606 7.988 2.14 12.747 10.381 10.606 18.371z"/>
    </symbol>

    <symbol id="frontend" viewBox="0 0 512 512">
<g>
	<g>
		<path d="M467,0H45C20.187,0,0,20.187,0,45v422c0,24.813,20.187,45,45,45h422c24.813,0,45-20.187,45-45V45
			C512,20.187,491.813,0,467,0z M30,45c0-8.271,6.729-15,15-15h76v90H30V45z M482,467c0,8.271-6.729,15-15,15H45
			c-8.271,0-15-6.729-15-15V150h452V467z M482,120H151V30h316c8.271,0,15,6.729,15,15V120z"/>
	</g>
</g>
<g>
	<g>
		<path d="M437,60h-31c-8.284,0-15,6.716-15,15s6.716,15,15,15h31c8.284,0,15-6.716,15-15S445.284,60,437,60z"/>
	</g>
</g>
<g>
	<g>
		<path d="M346,60h-30c-8.284,0-15,6.716-15,15s6.716,15,15,15h30c8.284,0,15-6.716,15-15S354.284,60,346,60z"/>
	</g>
</g>
<g>
	<g>
		<path d="M256,60h-30c-8.284,0-15,6.716-15,15s6.716,15,15,15h30c8.284,0,15-6.716,15-15S264.284,60,256,60z"/>
	</g>
</g>
<g>
	<g>
		<path d="M391,364.58V346c0-24.813-20.187-45-45-45h-75v-32.58c17.459-6.192,30-22.865,30-42.42c0-24.813-20.187-45-45-45
			s-45,20.187-45,45c0,19.555,12.541,36.228,30,42.42V301h-75c-24.813,0-45,20.187-45,45v18.58c-17.459,6.192-30,22.865-30,42.42
			c0,24.813,20.187,45,45,45s45-20.187,45-45c0-19.555-12.541-36.228-30-42.42V346c0-8.271,6.729-15,15-15h75v33.58
			c-17.459,6.192-30,22.865-30,42.42c0,24.813,20.187,45,45,45s45-20.187,45-45c0-19.555-12.541-36.228-30-42.42V331h75
			c8.271,0,15,6.729,15,15v18.58c-17.459,6.192-30,22.865-30,42.42c0,24.813,20.187,45,45,45s45-20.187,45-45
			C421,387.445,408.459,370.772,391,364.58z M136,422c-8.271,0-15-6.729-15-15s6.729-15,15-15s15,6.729,15,15S144.271,422,136,422z
			 M256,422c-8.271,0-15-6.729-15-15s6.729-15,15-15s15,6.729,15,15S264.271,422,256,422z M256,241c-8.271,0-15-6.729-15-15
			s6.729-15,15-15s15,6.729,15,15S264.271,241,256,241z M376,422c-8.271,0-15-6.729-15-15s6.729-15,15-15s15,6.729,15,15
			S384.271,422,376,422z"/>
	</g>
</g>
    </symbol>
    <symbol id="timer" viewBox="0 0 368 368">
        <g>
			<path d="M184,60c4.4,0,8-3.6,8-8v-4c0-4.4-3.6-8-8-8c-4.4,0-8,3.6-8,8v4C176,56.4,179.6,60,184,60z"/>
			<path d="M184,308c-4.4,0-8,3.6-8,8v4c0,4.4,3.6,8,8,8c4.4,0,8-3.6,8-8v-4C192,311.6,188.4,308,184,308z"/>
			<path d="M52,176h-4c-4.4,0-8,3.6-8,8c0,4.4,3.6,8,8,8h4c4.4,0,8-3.6,8-8C60,179.6,56.4,176,52,176z"/>
			<path d="M320,176h-4c-4.4,0-8,3.6-8,8c0,4.4,3.6,8,8,8h4c4.4,0,8-3.6,8-8C328,179.6,324.4,176,320,176z"/>
			<path d="M93.6,82.4c-3.2-3.2-8-3.2-11.2,0c-3.2,3.2-3.2,8,0,11.2l2.8,2.8c1.6,1.6,3.6,2.4,5.6,2.4s4-0.8,5.6-2.4
				c3.2-3.2,3.2-8,0-11.2L93.6,82.4z"/>
			<path d="M85.2,271.6l-2.8,2.8c-3.2,3.2-3.2,8,0,11.2C84,287.2,86,288,88,288s4-0.8,5.6-2.4l2.8-2.8c3.2-3.2,3.2-8,0-11.2
				S88.4,268.4,85.2,271.6z"/>
			<path d="M274.4,82.4l-2.8,2.8c-3.2,3.2-3.2,8,0,11.2c1.6,1.6,3.6,2.4,5.6,2.4s4-0.8,5.6-2.4l2.8-2.8c3.2-3.2,3.2-8,0-11.2
				C282.4,79.2,277.6,79.2,274.4,82.4z"/>
			<path d="M192,180.8V108c0-4.4-3.6-8-8-8c-4.4,0-8,3.6-8,8v76c0,2,0.8,4,2.4,5.6l87.6,87.6c1.6,1.6,3.6,2.4,5.6,2.4s4-0.8,5.6-2.4
				c3.2-3.2,3.2-8,0-11.2L192,180.8z"/>
			<path d="M184,0C82.4,0,0,82.4,0,184s82.4,184,184,184s184-82.4,184-184S285.6,0,184,0z M184,352c-92.8,0-168-75.2-168-168
				S91.2,16,184,16s168,75.2,168,168S276.8,352,184,352z"/>
		</g>
    </symbol>
    <symbol id="working-place" viewBox="0 0 64 64">
<g id="Layer_15" data-name="Layer 15"><path d="M62,35H61V32a1,1,0,0,0-1-1H59V20a3,3,0,0,0-3-3H42a3,3,0,0,0-3,3V31H38a1,1,0,0,0-1,1v3H35V26a1,1,0,0,0-1-1H26a1,1,0,0,0-1,1v1H24a3,3,0,0,0,0,6h1v2H15V32a1,1,0,0,0-1-1H13V28a1,1,0,0,0-1-1H2a1,1,0,0,0-1,1v4a1,1,0,0,0,1,1H3v2H2a1,1,0,0,0-1,1v6a1,1,0,0,0,1,1H5V62a1,1,0,0,0,1,1h6a1,1,0,0,0,1-1V61H51v1a1,1,0,0,0,1,1h6a1,1,0,0,0,1-1V43h3a1,1,0,0,0,1-1V36A1,1,0,0,0,62,35ZM41,20a1,1,0,0,1,1-1H56a1,1,0,0,1,1,1V31H41ZM39,33H59v2H39ZM24,31a1,1,0,0,1,0-2h1v2Zm3-4h6v8H27ZM3,29h8v2H3Zm2,4h8v2H5ZM7,61V43h4V61Zm6-2V43H51V59Zm44,2H53V43h4Zm4-20H3V37H61Z"/><path d="M49,21a4,4,0,1,0,4,4A4,4,0,0,0,49,21Zm0,6a2,2,0,1,1,2-2A2,2,0,0,1,49,27Z"/><path d="M27.59,19a1.42,1.42,0,0,1,0,2l-1.3,1.29,1.42,1.42L29,22.41a3.4,3.4,0,0,0,0-4.82L28.41,17A1.43,1.43,0,0,1,28,16V15H26v1a3.36,3.36,0,0,0,1,2.41Z"/><path d="M31.59,19a1.42,1.42,0,0,1,0,2l-1.3,1.29,1.42,1.42L33,22.41a3.4,3.4,0,0,0,0-4.82L32.41,17A1.43,1.43,0,0,1,32,16V15H30v1a3.36,3.36,0,0,0,1,2.41Z"/><path d="M12,23A11,11,0,1,0,1,12,11,11,0,0,0,12,23ZM5,6.39,6.29,7.71,7.71,6.29,6.39,5A8.89,8.89,0,0,1,11,3.06V5h2V3.06A8.89,8.89,0,0,1,17.61,5L16.29,6.29l1.42,1.42L19,6.39A8.89,8.89,0,0,1,20.94,11H19v2h1.94A8.89,8.89,0,0,1,19,17.61l-1.31-1.32-1.42,1.42L17.61,19A8.89,8.89,0,0,1,13,20.94V19H11v1.94A8.89,8.89,0,0,1,6.39,19l1.32-1.31L6.29,16.29,5,17.61A8.89,8.89,0,0,1,3.06,13H5V11H3.06A8.89,8.89,0,0,1,5,6.39Z"/><path d="M15.29,16.71l1.42-1.42L13,11.59V7H11v5a1,1,0,0,0,.29.71Z"/></g>
    </symbol>
    <symbol id="office-building" viewBox="0 0 512 512">
<g><path d="M496,480h-8V328a8,8,0,0,0-4.85-7.35L376,274.72V240h64a40,40,0,0,0,0-80c-.77,0-1.54.02-2.31.07A55.957,55.957,0,0,0,376,120.58V24a7.992,7.992,0,0,0-10.2-7.69L202.14,63.07a56,56,0,0,0-96.73-6.14A48,48,0,1,0,96,152h40V480H80V415.12c10.23-2.23,19.55-8.73,26.79-18.87C115.31,384.33,120,368.61,120,352s-4.69-32.33-13.21-44.25C97.7,295.01,85.34,288,72,288s-25.7,7.01-34.79,19.75C28.69,319.67,24,335.39,24,352s4.69,32.33,13.21,44.25c7.24,10.14,16.56,16.64,26.79,18.87v19.94L43.58,424.84a8.005,8.005,0,0,0-7.16,14.32L64,452.94V480H16a8,8,0,0,0,0,16H496a8,8,0,0,0,0-16ZM376,136.81a39.406,39.406,0,0,1,8-.81,40.175,40.175,0,0,1,39.59,34.28,8,8,0,0,0,10.03,6.59A24,24,0,1,1,440,224H376ZM72,368a8,8,0,0,0-8,8v22.41C50.38,392.92,40,373.89,40,352c0-26.02,14.65-48,32-48s32,21.98,32,48c0,21.89-10.38,40.92-24,46.41V376A8,8,0,0,0,72,368ZM141.8,80.31A8,8,0,0,0,136,88v48H96a32,32,0,1,1,10.58-62.2,8,8,0,0,0,9.77-3.92,39.992,39.992,0,0,1,70.04-2.31ZM312,480H200v-8H312Zm-96-24V376h32v80Zm48,0V376h32v80Zm96,24H328V464a8,8,0,0,0-8-8h-8V368a8,8,0,0,0-8-8H208a8,8,0,0,0-8,8v88h-8a8,8,0,0,0-8,8v16H152V94.03L360,34.61Zm112-80H408V368h64Zm0-48H400a8,8,0,0,0-8,8v48a8,8,0,0,0,8,8h72v64H376V292.13l96,41.15Z"/><path d="M336,344a8,8,0,0,0,8-8V288a8,8,0,0,0-8-8H176a8,8,0,0,0-8,8v48a8,8,0,0,0,8,8ZM184,296H328v32H184Z"/><path d="M176,264H336a8,8,0,0,0,8-8V208a8,8,0,0,0-8-8H176a8,8,0,0,0-8,8v48A8,8,0,0,0,176,264Zm8-48H328v32H184Z"/><path d="M176,184H336a8,8,0,0,0,8-8V128a8,8,0,0,0-8-8H176a8,8,0,0,0-8,8v48A8,8,0,0,0,176,184Zm8-48H328v32H184Z"/></g>
    </symbol>
    <symbol id="">

    </symbol>
    <symbol id="">

    </symbol>
    <symbol id="">

    </symbol>
    <symbol id="">

    </symbol>
    <symbol id="">

    </symbol>
    <symbol id="">

    </symbol>
    <symbol id="">

    </symbol>
    <symbol id="">

    </symbol>
    <symbol id="">

    </symbol>
    <symbol id="">

    </symbol>
    <symbol id="">

    </symbol>
    <symbol id="">

    </symbol>

</svg>