<svg xmlns="http://www.w3.org/2000/svg" viewBox="0 0 28.44 29.53"><defs><style>.cls-1{fill:#4b21ff}</style></defs><g id="Слой_2" data-name="Слой 2"><g id="Слой_1-2" data-name="Слой 1"><path class="cls-1" d="M24.9 29.53H2.68A2.66 2.66 0 010 26.9V9.13a1 1 0 012 0V26.9a.66.66 0 00.68.63H24.9a.62.62 0 00.63-.63v-3.27a1 1 0 012 0v3.27a2.6 2.6 0 01-2.63 2.63z"/><path class="cls-1" d="M26.48 13.67a1 1 0 01-1-1V11c0-.34 0-1-.19-1.25a.7.7 0 00-.44-.11H4.11a1 1 0 010-2h20.74a2.51 2.51 0 011.87.71 3.58 3.58 0 01.77 2.65v1.65a1 1 0 01-1.01 1.02zM24 5.29a1 1 0 01-1-1V2.63a.61.61 0 00-.59-.63l-18.2.13a1 1 0 010-2L22.41 0A2.6 2.6 0 0125 2.63v1.66a1 1 0 01-1 1zM1 10.23a1 1 0 01-1-1V4.29a1 1 0 012 0v4.94a1 1 0 01-1 1zm20.53 7.63A1.5 1.5 0 0120 16.37a1.5 1.5 0 111.5 1.5zm0-2a.5.5 0 10.5.5.5.5 0 00-.5-.5z"/><path class="cls-1" d="M4.16 9.62A4.49 4.49 0 010 4.88 4.45 4.45 0 014.21.13a1 1 0 010 2A2.52 2.52 0 002 4.88a2.51 2.51 0 002.16 2.74 1 1 0 010 2zm22.75 11.44H18a1.53 1.53 0 01-1.53-1.53V13.2A1.53 1.53 0 0118 11.67h8.92a1.53 1.53 0 011.53 1.53v6.33a1.53 1.53 0 01-1.54 1.53zm-8.44-2h8v-5.39h-8z"/><path class="cls-1" d="M20.17 8.53a1 1 0 01-1-1V5.88H5.75a1 1 0 010-2h14.42a1 1 0 011 1v2.65a1 1 0 01-1 1z"/></g></g></svg>