<?xml version="1.0" encoding="UTF-8"?> <!-- Generator: Adobe Illustrator 21.1.0, SVG Export Plug-In . SVG Version: 6.00 Build 0) --> <svg xmlns="http://www.w3.org/2000/svg" xmlns:xlink="http://www.w3.org/1999/xlink" id="Layer_1" x="0px" y="0px" viewBox="0 0 100 100" style="enable-background:new 0 0 100 100;" xml:space="preserve"> <style type="text/css"> .st0{fill:#838893;} </style> <title>Untitled-2</title> <g id="Page-1"> <g id="gulp"> <g id="Gulp-Logo"> <path id="Cup" class="st0" d="M49.8,71c-3.4,0-6.7-0.4-10-1.1c-1-0.2-1.9-0.5-2.8-0.9l2.3,4l0.9,12.3c0,1.4,4.4,2.5,9.8,2.5 s9.8-1.1,9.8-2.5l0.7-12.5l2.1-3.9c-0.9,0.4-1.9,0.7-2.9,0.9C56.6,70.6,53.2,71,49.8,71z M62.8,30.8c-4.3,0.5-8.5,0.8-12.8,0.8 c-4.3,0-8.6-0.2-12.8-0.7c-1.4-0.2-2.7-0.4-4-0.8c-0.3-0.1-0.7-0.2-1-0.4l2.1,19.5c0.1-0.3,0.2-0.7,0.3-1c0.2-0.7,0.5-1.4,0.9-2 c0.3-0.6,0.7-1.3,1.1-1.9c0.4-0.6,0.8-1.1,1.2-1.6c0.4-0.5,0.9-0.9,1.3-1.3c0.4-0.3,0.9-0.6,1.4-0.8c0.4-0.2,0.9-0.3,1.4-0.3 c0.5,0,1.1,0.2,1.5,0.4c0.6,0.4,1,0.8,1.4,1.4c0.1,0.1,0.2,0.3,0.2,0.4c0,0.1,0,0.3,0,0.4c0,0.3-0.1,0.5-0.2,0.7 c-0.1,0.2-0.3,0.3-0.5,0.3c-0.2,0-0.4-0.1-0.5-0.3c-0.2-0.3-0.4-0.5-0.5-0.8c-0.1-0.3-0.4-0.5-0.6-0.7c-0.2-0.1-0.5-0.2-0.7-0.2 c-0.5,0-0.9,0.2-1.3,0.5c-0.5,0.4-1,0.8-1.4,1.3c-0.5,0.6-0.9,1.2-1.2,1.9c-0.4,0.7-0.8,1.4-1.1,2.2c-0.3,0.7-0.6,1.4-0.8,2.2 c-0.2,0.7-0.3,1.3-0.3,2c0,0.2,0,0.4,0,0.6c0,0.2,0.1,0.4,0.2,0.5c0.1,0.2,0.2,0.3,0.3,0.4c0.1,0.1,0.3,0.2,0.5,0.2 c0.3,0,0.5-0.1,0.7-0.2c0.3-0.2,0.6-0.4,0.8-0.6c0.3-0.2,0.6-0.5,0.9-0.8c0.3-0.3,0.6-0.6,0.8-0.9s0.5-0.6,0.7-0.9 c0.2-0.2,0.3-0.5,0.5-0.7l0.8-2.5c0.1-0.2,0.2-0.4,0.4-0.5c0.1-0.1,0.3-0.2,0.5-0.2c0.1,0,0.2,0,0.2,0c0.1,0,0.2,0.1,0.2,0.1 c0.1,0.1,0.1,0.1,0.2,0.2c0,0.1,0.1,0.2,0,0.3c0,0.3,0,0.6-0.1,0.9c-0.1,0.3-0.1,0.6-0.2,0.8c-0.1,0.3-0.2,0.5-0.3,0.8 s-0.2,0.6-0.3,0.9c0,0.1-0.1,0.2-0.1,0.3l-0.2,0.7c-0.1,0.3-0.2,0.6-0.3,0.9s-0.2,0.7-0.3,1s-0.2,0.7-0.3,1s-0.2,0.7-0.3,0.9 l-0.2,0.7c0,0.1-0.1,0.2-0.1,0.3c0,0.1-0.1,0.3-0.1,0.4c-0.1,0.1-0.1,0.3-0.2,0.4c-0.1,0.1-0.2,0.2-0.3,0.3 c-0.1,0.1-0.2,0.1-0.3,0.1c-0.2,0-0.3-0.1-0.4-0.2c-0.1-0.2-0.2-0.4-0.1-0.7v-0.2c0,0,0-0.1,0-0.2c0-0.2,0.1-0.4,0.1-0.6 c0.1-0.3,0.2-0.6,0.3-1s0.2-0.8,0.4-1.2s0.2-0.8,0.3-1.1c-0.3,0.3-0.6,0.7-1,1c-0.3,0.3-0.7,0.6-1.1,0.9 c-0.4,0.3-0.7,0.5-1.1,0.7c-0.3,0.2-0.7,0.3-1.1,0.3c-0.4,0-0.7-0.1-1-0.3L34.9,55l1.2,12.4c0.3,0.8,6.1,2.7,13.7,2.7 s13.4-1.9,13.7-2.7l1.7-14.7l-0.4,0.4c-0.4,0.4-0.9,0.8-1.4,1.2c-0.4,0.3-0.8,0.6-1.3,0.8c-0.4,0.2-0.9,0.3-1.3,0.3 c-0.4,0-0.7-0.1-1-0.3c-0.2-0.2-0.4-0.5-0.4-0.8v-0.1c0,0,0-0.1,0-0.1c0-0.3,0.1-0.5,0.3-0.7c0.2-0.3,0.4-0.6,0.6-0.8 c0.2-0.3,0.5-0.6,0.7-0.9s0.5-0.6,0.7-0.8c0.2-0.2,0.4-0.5,0.5-0.7c0.1-0.2,0.2-0.3,0.2-0.5c0-0.1,0-0.1-0.1-0.2 c-0.1-0.1-0.2-0.1-0.3-0.1c-0.3,0-0.5,0.1-0.7,0.2c-0.3,0.1-0.5,0.3-0.7,0.5c-0.3,0.2-0.5,0.4-0.7,0.7c-0.2,0.3-0.4,0.5-0.6,0.8 s-0.4,0.6-0.5,0.8s-0.3,0.5-0.4,0.8c0,0.1-0.1,0.2-0.2,0.3s-0.1,0.3-0.2,0.5l-0.2,0.5c-0.1,0.2-0.2,0.4-0.2,0.5l-0.2,0.4 c0,0.1-0.1,0.2-0.1,0.3l-0.1,0.3l-0.2,0.6c-0.1,0.2-0.2,0.5-0.3,0.7L56.3,58c-0.1,0.2-0.2,0.4-0.2,0.6L56,59 c0,0.2-0.1,0.3-0.2,0.5c-0.1,0.1-0.2,0.3-0.3,0.4c-0.1,0.1-0.2,0.2-0.3,0.3c-0.1,0.1-0.3,0.1-0.4,0.1c-0.2,0-0.4,0-0.5-0.2 C54.1,60,54,59.8,54,59.6c0-0.1,0-0.3,0-0.4c0-0.1,0.1-0.3,0.1-0.4s0.1-0.3,0.2-0.4s0.1-0.3,0.2-0.4c0.3-0.7,0.6-1.4,1-2.1 s0.6-1.4,0.9-2l0.2-0.4h-0.1c-0.3,0.4-0.7,0.7-1.1,1c-0.3,0.3-0.7,0.5-1.1,0.7c-0.3,0.2-0.7,0.2-1.1,0.2c-0.2,0-0.4,0-0.6-0.1 c-0.2-0.1-0.3-0.2-0.4-0.3c-0.1-0.1-0.2-0.3-0.2-0.5v-0.2c-0.1,0.1-0.2,0.2-0.3,0.2c-0.3,0.2-0.7,0.4-1.1,0.6 c-0.3,0.1-0.6,0.2-0.9,0.2c-0.3,0-0.5-0.1-0.7-0.3c-0.2-0.3-0.3-0.6-0.3-1c0-0.4,0.1-0.7,0.1-1.1c-0.2,0.3-0.3,0.6-0.6,0.8 c-0.2,0.3-0.5,0.5-0.8,0.8c-0.3,0.2-0.6,0.4-1,0.5c-0.4,0.2-0.8,0.2-1.2,0.2c-0.2,0-0.4,0-0.5-0.1c-0.2,0-0.3-0.1-0.5-0.2 c-0.1-0.1-0.2-0.3-0.3-0.5c-0.1-0.2-0.1-0.5-0.1-0.7v-0.3c0.1-0.3,0.1-0.7,0.2-1c0.1-0.4,0.3-1,0.6-1.7s0.6-1.5,1.1-2.5 c0.1-0.2,0.2-0.4,0.4-0.6c0.1-0.1,0.3-0.2,0.5-0.2H47c0.1,0,0.2,0.1,0.2,0.1c0.1,0,0.1,0.1,0.2,0.2c0,0.1,0.1,0.2,0.1,0.3 c0,0.1,0,0.1,0,0.2c0,0.2-0.1,0.3-0.2,0.5c-0.1,0.2-0.2,0.4-0.3,0.7s-0.3,0.5-0.4,0.8s-0.3,0.6-0.4,0.9c-0.1,0.3-0.2,0.6-0.3,0.9 c-0.1,0.3-0.1,0.6-0.1,0.9c0,0.1,0,0.2,0.1,0.3c0.1,0.1,0.2,0.2,0.3,0.2c0.4,0,0.8-0.1,1.1-0.4c0.4-0.3,0.7-0.6,0.9-0.9 c0.3-0.4,0.6-0.8,0.8-1.2c0.2-0.4,0.4-0.8,0.6-1.2c0.1-0.2,0.2-0.5,0.3-0.8c0.1-0.3,0.2-0.5,0.3-0.7c0.1-0.2,0.2-0.4,0.3-0.6 c0.1-0.1,0.3-0.2,0.5-0.2c0.2,0,0.4,0.1,0.5,0.2c0.1,0.2,0.2,0.4,0.2,0.6c0,0.2-0.1,0.3-0.1,0.5c-0.1,0.2-0.2,0.5-0.3,0.7 l-0.4,0.9c-0.1,0.3-0.3,0.6-0.4,1s-0.2,0.7-0.3,1C50,52.7,50,53,50,53.3c0,0.2,0.1,0.4,0.4,0.4c0.2,0,0.5-0.1,0.7-0.2 c0.3-0.1,0.6-0.3,0.8-0.5l0.2-0.2c0.1-0.3,0.2-0.6,0.3-0.9c0.2-0.5,0.4-1.1,0.6-1.6l0.6-1.5l2.6-6.6c0.1-0.2,0.2-0.4,0.4-0.6 c0.2-0.1,0.3-0.2,0.5-0.2c0.2,0,0.4,0.1,0.5,0.2c0.2,0.1,0.2,0.3,0.2,0.6c0,0.1,0,0.3-0.1,0.4c-0.1,0.1-0.1,0.3-0.2,0.5 c-0.2,0.3-0.3,0.7-0.5,1.2l-0.6,1.5c-0.2,0.5-0.5,1.1-0.7,1.7L55,49.2c-0.2,0.6-0.4,1.1-0.6,1.6s-0.4,0.9-0.5,1.3 c-0.1,0.2-0.1,0.4-0.2,0.5c-0.1,0.2-0.1,0.4-0.1,0.6c0,0.1,0,0.2,0,0.2c0,0.1,0.1,0.1,0.2,0.1c0.2,0,0.3-0.1,0.5-0.1 c0.2-0.1,0.4-0.2,0.6-0.3c0.2-0.1,0.4-0.3,0.7-0.5l0.7-0.6l0.7-0.6l0.5-0.5c0,0,0.1-0.1,0.1-0.1c0.1-0.3,0.2-0.6,0.3-0.9 c0-0.1,0.1-0.3,0.2-0.5s0.2-0.5,0.3-0.7c0.1-0.2,0.2-0.4,0.3-0.6c0.1-0.1,0.3-0.2,0.4-0.2c0.2,0,0.4,0,0.5,0.2 c0.1,0.1,0.2,0.3,0.2,0.5c0,0.1,0,0.1,0,0.2c0,0.1,0,0.2,0,0.3c0,0.1,0,0.2,0,0.3c0,0.1,0,0.1-0.1,0.2c0.2-0.2,0.5-0.5,0.7-0.7 c0.2-0.2,0.5-0.4,0.8-0.6c0.3-0.2,0.5-0.3,0.8-0.5c0.3-0.1,0.5-0.2,0.8-0.2c0.2,0,0.4,0,0.6,0.1c0.2,0,0.4,0.1,0.5,0.2 c0.1,0.1,0.3,0.2,0.4,0.4c0.1,0.2,0.1,0.4,0.1,0.6c0,0.3-0.1,0.6-0.2,0.9c-0.2,0.3-0.3,0.7-0.5,1c-0.2,0.3-0.5,0.6-0.7,0.9 s-0.5,0.6-0.7,0.8l-0.5,0.6c-0.1,0.1-0.2,0.2-0.2,0.3c0,0.1,0,0.1,0.1,0.2c0.1,0.1,0.2,0.1,0.3,0.1c0.2,0,0.3-0.1,0.4-0.2 c0.3-0.2,0.5-0.4,0.8-0.6c0.3-0.3,0.8-0.6,1.3-1.1c0.4-0.3,0.8-0.7,1.3-1.1l2.3-21.3c-0.3,0.2-0.7,0.3-1,0.4 C65.5,30.4,64.2,30.7,62.8,30.8L62.8,30.8z M50,25.8c-9.9,0-18,1.1-18,2.5s8,2.5,18,2.5s18-1.1,18-2.5S59.9,25.8,50,25.8z M57.2,29c0,0.3-1,0.6-2.1,0.6s-2.1-0.2-2.1-0.6s1-0.6,2.1-0.6S57.2,28.7,57.2,29z"></path> <path id="Straw" class="st0" d="M53.3,28.8C53.3,28.8,53.3,28.8,53.3,28.8c0,0.3,0.8,0.4,1.7,0.4s1.7-0.2,1.7-0.4l2.2-9.1 l8.9-9.4l0,0c0.2-0.2-0.2-0.9-0.8-1.4S65.8,8,65.6,8.2l0,0l-9.6,10L53.3,28.8z"></path> </g> </g> </g> </svg> 