<?xml version="1.0" encoding="UTF-8"?> <!-- Generator: Adobe Illustrator 21.1.0, SVG Export Plug-In . SVG Version: 6.00 Build 0) --> <svg xmlns="http://www.w3.org/2000/svg" xmlns:xlink="http://www.w3.org/1999/xlink" id="Layer_1" x="0px" y="0px" viewBox="0 0 100 100" style="enable-background:new 0 0 100 100;" xml:space="preserve"> <style type="text/css"> .st0{fill:#939DAD;} .st1{fill:#838893;} .st2{fill:url(#_Clipping_Path_2_1_);} .st3{clip-path:url(#SVGID_2_);} .st4{fill:none;} .st5{fill:url(#SVGID_3_);} .st6{fill:url(#SVGID_4_);} .st7{fill:url(#SVGID_5_);} .st8{fill:url(#SVGID_6_);} .st9{fill:url(#SVGID_7_);} .st10{fill:url(#SVGID_8_);} </style> <title>Untitled-2</title> <path class="st0" d="M49.5,78.2c-0.3,0-0.6-0.1-0.9-0.2l-2.8-1.6c-0.4-0.2-0.2-0.3-0.1-0.4c0.4-0.1,0.9-0.3,1.2-0.6 c0.1,0,0.1,0,0.2,0l2.1,1.3c0.1,0,0.2,0,0.3,0l8.3-4.8c0.1,0,0.1-0.1,0.1-0.2V62c0-0.1,0-0.2-0.1-0.2L49.6,57c-0.1,0-0.2,0-0.2,0 L41,61.8c-0.1,0.1-0.1,0.1-0.1,0.2v9.6c0,0.1,0,0.2,0.1,0.2l2.3,1.3c1.2,0.6,2-0.1,2-0.8v-9.5c0-0.1,0.1-0.2,0.2-0.2h0h1.1 c0.1,0,0.2,0.1,0.2,0.2c0,0,0,0,0,0v9.5c0.2,1.3-0.7,2.4-2,2.6c-0.2,0-0.3,0-0.5,0c-0.7,0-1.3-0.2-1.9-0.5l-2.2-1.3 c-0.5-0.3-0.9-0.9-0.9-1.5V62c0-0.6,0.3-1.2,0.9-1.5l8.3-4.8c0.5-0.3,1.2-0.3,1.8,0l8.3,4.8c0.5,0.3,0.9,0.9,0.9,1.5v9.6 c0,0.6-0.3,1.2-0.9,1.5l-8.3,4.8C50.1,78.1,49.8,78.2,49.5,78.2z"></path> <path class="st0" d="M52,71.6c-3.6,0-4.4-1.7-4.4-3.1c0-0.1,0.1-0.2,0.2-0.2H49c0.1,0,0.2,0.1,0.2,0.2c0.2,1.1,0.7,1.7,2.8,1.7 c1.8,0,2.5-0.4,2.5-1.3c0-0.5-0.2-0.9-2.9-1.2C49.4,67.4,48,66.9,48,65s1.4-2.7,3.8-2.7c2.7,0,4,0.9,4.1,2.9c0,0.1,0,0.1-0.1,0.2 c0,0.1-0.1,0.1-0.2,0.1h-1.1c-0.1,0-0.2-0.1-0.2-0.2c-0.3-1.2-0.9-1.5-2.6-1.5c-1.9,0-2.1,0.7-2.1,1.2s0.3,0.8,2.8,1.1 s3.8,0.8,3.8,2.6S54.7,71.6,52,71.6z"></path> <path class="st0" d="M64,61.5c0,0.9-0.7,1.6-1.6,1.6s-1.6-0.7-1.6-1.6s0.7-1.6,1.6-1.6h0C63.3,59.9,64,60.6,64,61.5z M61,61.5 c0,0.7,0.6,1.4,1.3,1.4c0.7,0,1.4-0.6,1.4-1.3c0-0.7-0.6-1.4-1.3-1.4c0,0,0,0,0,0C61.7,60.2,61.1,60.8,61,61.5L61,61.5z M61.8,60.6 h0.6c0.2,0,0.6,0,0.6,0.5c0,0.2-0.1,0.4-0.3,0.4c0.2,0,0.3,0.2,0.3,0.4c0,0.2,0,0.3,0.1,0.5h-0.4c0-0.1-0.1-0.5-0.1-0.6 c0-0.1-0.1-0.2-0.2-0.2c0,0,0,0,0,0h-0.3v0.7h-0.3V60.6z M62.1,61.4h0.3c0.1,0,0.3-0.1,0.3-0.2c0,0,0,0,0,0c0-0.2-0.2-0.2-0.3-0.2 h-0.3V61.4z"></path> <path class="st1" d="M23.7,40.7c0-0.4-0.2-0.7-0.5-0.9l-8.8-5.1c-0.1-0.1-0.3-0.1-0.5-0.1h-0.1c-0.2,0-0.3,0.1-0.5,0.1l-8.8,5.1 C4.2,39.9,4,40.3,4,40.7v13.7c0,0.2,0.1,0.4,0.3,0.5c0.2,0.1,0.4,0.1,0.5,0l5.2-3c0.3-0.2,0.5-0.5,0.5-0.9v-6.4 c0-0.4,0.2-0.7,0.5-0.9l2.2-1.3c0.2-0.1,0.3-0.2,0.5-0.2c0.2,0,0.4,0.1,0.5,0.2l2.2,1.3c0.3,0.2,0.5,0.5,0.5,0.9v6.4 c0,0.4,0.2,0.7,0.5,0.9l5.2,3c0.2,0.1,0.4,0.1,0.5,0c0.2-0.1,0.3-0.3,0.3-0.5L23.7,40.7z"></path> <path class="st1" d="M66.1,21.9c-0.2-0.1-0.4-0.1-0.5,0c-0.2,0.1-0.3,0.3-0.3,0.5v13.5c0,0.1-0.1,0.3-0.2,0.3 c-0.1,0.1-0.3,0.1-0.4,0l-2.2-1.3c-0.3-0.2-0.7-0.2-1.1,0L52.7,40c-0.3,0.2-0.5,0.5-0.5,0.9v10.2c0,0.4,0.2,0.7,0.5,0.9l8.8,5.1 c0.3,0.2,0.7,0.2,1.1,0l8.8-5.1c0.3-0.2,0.5-0.5,0.5-0.9V25.8c0-0.4-0.2-0.7-0.6-0.9L66.1,21.9z M65.3,47.8c0,0.1-0.1,0.2-0.1,0.2 l-3,1.7c-0.1,0.1-0.2,0.1-0.3,0l-3-1.7c-0.1-0.1-0.1-0.1-0.1-0.2v-3.5c0-0.1,0.1-0.2,0.1-0.2l3-1.7c0.1-0.1,0.2-0.1,0.3,0l3,1.7 c0.1,0.1,0.1,0.1,0.1,0.2V47.8z"></path> <path class="st1" d="M95.5,44.2c0.3-0.2,0.5-0.5,0.5-0.9v-2.5c0-0.4-0.2-0.7-0.5-0.9l-8.8-5.1c-0.3-0.2-0.7-0.2-1.1,0l-8.8,5.1 c-0.3,0.2-0.5,0.5-0.5,0.9V51c0,0.4,0.2,0.7,0.5,0.9l8.8,5c0.3,0.2,0.7,0.2,1,0l5.3-3c0.3-0.1,0.3-0.5,0.2-0.7 c0-0.1-0.1-0.1-0.2-0.2L83,47.9c-0.2-0.1-0.3-0.3-0.3-0.5v-3.2c0-0.2,0.1-0.4,0.3-0.5l2.8-1.6c0.2-0.1,0.4-0.1,0.5,0l2.8,1.6 c0.2,0.1,0.3,0.3,0.3,0.5v2.5c0,0.2,0.1,0.4,0.3,0.5c0.2,0.1,0.4,0.1,0.5,0L95.5,44.2z"></path> <path class="st0" d="M86.1,43.7c0.1,0,0.1,0,0.2,0l1.7,1c0.1,0,0.1,0.1,0.1,0.2v2c0,0,0,0.1-0.1,0.1l-1.7,1c-0.1,0-0.1,0-0.2,0 l-1.7-1c-0.1,0-0.1-0.1-0.1-0.2v-2c0-0.1,0-0.1,0.1-0.2L86.1,43.7z"></path> <linearGradient id="_Clipping_Path_2_1_" gradientUnits="userSpaceOnUse" x1="34.0123" y1="49.3386" x2="42.7225" y2="64.4251" gradientTransform="matrix(1 0 0 -1 0 102)"> <stop offset="9.000000e-02" style="stop-color:#C9D1E3"></stop> <stop offset="0.29" style="stop-color:#9FA5B3"></stop> <stop offset="0.6" style="stop-color:#87909E"></stop> <stop offset="0.86" style="stop-color:#838893"></stop> </linearGradient> <path id="_Clipping_Path_2" class="st2" d="M38.5,34.8c-0.3-0.2-0.7-0.2-1,0l-8.8,5.1c-0.3,0.2-0.5,0.5-0.5,0.9v10.1 c0,0.4,0.2,0.7,0.5,0.9l8.8,5.1c0.3,0.2,0.7,0.2,1,0l8.8-5.1c0.3-0.2,0.5-0.5,0.5-0.9V40.8c0-0.4-0.2-0.7-0.5-0.9L38.5,34.8z"></path> <g> <defs> <path id="SVGID_1_" d="M38.5,34.8c-0.3-0.2-0.7-0.2-1,0l-8.8,5.1c-0.3,0.2-0.5,0.5-0.5,0.9v10.1c0,0.4,0.2,0.7,0.5,0.9l8.8,5.1 c0.3,0.2,0.7,0.2,1,0l8.8-5.1c0.3-0.2,0.5-0.5,0.5-0.9V40.8c0-0.4-0.2-0.7-0.5-0.9L38.5,34.8z"></path> </defs> <clipPath id="SVGID_2_"> <use xlink:href="#SVGID_1_" style="overflow:visible;"></use> </clipPath> <g class="st3"> <path class="st4" d="M37.4,34.8l-8.8,5.1c-0.3,0.2-0.6,0.5-0.6,0.9v10.1c0,0.2,0.1,0.5,0.3,0.7l9.9-16.9 C37.9,34.7,37.7,34.7,37.4,34.8z"></path> <path class="st4" d="M38.2,57c0.1,0,0.2-0.1,0.2-0.1l8.8-5.1c0.3-0.2,0.5-0.5,0.5-0.9V40.8c0-0.3-0.1-0.5-0.3-0.7L38.2,57z"></path> <linearGradient id="SVGID_3_" gradientUnits="userSpaceOnUse" x1="37.915" y1="57.869" x2="37.915" y2="30.1962" gradientTransform="matrix(1 0 0 -1 0 102)"> <stop offset="9.000000e-02" style="stop-color:#C9D1E3"></stop> <stop offset="0.29" style="stop-color:#9FA5B3"></stop> <stop offset="0.6" style="stop-color:#87909E"></stop> <stop offset="0.86" style="stop-color:#838893"></stop> </linearGradient> <path class="st5" d="M47.3,39.9l-8.8-5.1c-0.1,0-0.2-0.1-0.3-0.1l-9.9,16.9c0.1,0.1,0.2,0.2,0.3,0.2l8.8,5.1 c0.3,0.1,0.5,0.2,0.8,0.1l9.2-16.9C47.4,40,47.3,39.9,47.3,39.9z"></path> <path class="st4" d="M47.8,50.9V40.8c0-0.4-0.2-0.7-0.6-0.9l-8.8-5.1c-0.1-0.1-0.2-0.1-0.3-0.1l9.6,16.5 C47.8,51.1,47.8,51,47.8,50.9z"></path> <path class="st4" d="M28.6,39.9c-0.3,0.2-0.6,0.5-0.6,0.9v10.1c0,0.4,0.2,0.7,0.6,0.9l8.8,5.1c0.2,0.1,0.4,0.2,0.7,0.1L28.6,39.9 L28.6,39.9z"></path> <linearGradient id="SVGID_4_" gradientUnits="userSpaceOnUse" x1="27.82" y1="68.98" x2="48.08" y2="68.98" gradientTransform="matrix(1 0 0 -1 0 102)"> <stop offset="9.000000e-02" style="stop-color:#6ABF4B"></stop> <stop offset="0.29" style="stop-color:#63B649"></stop> <stop offset="0.6" style="stop-color:#529F44"></stop> <stop offset="0.86" style="stop-color:#3F873F"></stop> </linearGradient> <polygon class="st6" points="37.1,33 37,33 37.2,33 "></polygon> <linearGradient id="SVGID_5_" gradientUnits="userSpaceOnUse" x1="27.5619" y1="62.2265" x2="47.9944" y2="50.4298" gradientTransform="matrix(1 0 0 -1 0 102)"> <stop offset="9.000000e-02" style="stop-color:#C9D1E3"></stop> <stop offset="0.29" style="stop-color:#B9C1D1"></stop> <stop offset="0.6" style="stop-color:#87909E"></stop> <stop offset="0.86" style="stop-color:#838893"></stop> </linearGradient> <path class="st7" d="M47.3,51.9c0.3-0.2,0.4-0.4,0.5-0.7l-9.6-16.5c-0.3-0.1-0.5,0-0.7,0.1l-8.7,5L38.1,57c0.1,0,0.3-0.1,0.4-0.1 L47.3,51.9z"></path> <linearGradient id="SVGID_6_" gradientUnits="userSpaceOnUse" x1="27.82" y1="50.34" x2="48.08" y2="50.34" gradientTransform="matrix(1 0 0 -1 0 102)"> <stop offset="9.000000e-02" style="stop-color:#6ABF4B"></stop> <stop offset="0.29" style="stop-color:#63B649"></stop> <stop offset="0.6" style="stop-color:#529F44"></stop> <stop offset="0.86" style="stop-color:#3F873F"></stop> </linearGradient> <polygon class="st8" points="48.1,51.7 48,51.6 48,51.7 "></polygon> <linearGradient id="SVGID_7_" gradientUnits="userSpaceOnUse" x1="27.82" y1="47.725" x2="48.08" y2="47.725" gradientTransform="matrix(1 0 0 -1 0 102)"> <stop offset="9.000000e-02" style="stop-color:#6ABF4B"></stop> <stop offset="0.29" style="stop-color:#63B649"></stop> <stop offset="0.6" style="stop-color:#529F44"></stop> <stop offset="0.86" style="stop-color:#3F873F"></stop> </linearGradient> <path class="st9" d="M47.3,51.9l-8.8,5.1C38.4,57,38.2,57,38.1,57l0.2,0.3l9.7-5.6v-0.1l-0.2-0.4C47.7,51.5,47.5,51.7,47.3,51.9z"></path> <linearGradient id="SVGID_8_" gradientUnits="userSpaceOnUse" x1="51.0309" y1="63.8745" x2="38.5309" y2="38.3845" gradientTransform="matrix(1 0 0 -1 0 102)"> <stop offset="0" style="stop-color:#3F873F"></stop> <stop offset="0.33" style="stop-color:#3F8B3D"></stop> <stop offset="0.64" style="stop-color:#3E9637"></stop> <stop offset="0.93" style="stop-color:#3DA92E"></stop> <stop offset="1" style="stop-color:#3DAE2B"></stop> </linearGradient> <path class="st10" d="M47.3,51.9l-8.8,5.1C38.4,57,38.2,57,38.1,57l0.2,0.3l9.7-5.6v-0.1l-0.2-0.4C47.7,51.5,47.5,51.7,47.3,51.9z "></path> </g> </g> </svg> 