<?xml version="1.0" encoding="UTF-8"?> <!-- Generator: Adobe Illustrator 21.1.0, SVG Export Plug-In . SVG Version: 6.00 Build 0) --> <svg xmlns="http://www.w3.org/2000/svg" xmlns:xlink="http://www.w3.org/1999/xlink" id="Layer_1" x="0px" y="0px" viewBox="0 0 100 100" style="enable-background:new 0 0 100 100;" xml:space="preserve"> <style type="text/css"> .st0{fill:#C1272D;} .st1{fill:#A0A5AF;} .st2{fill:#6D737C;} .st3{fill:#838893;} .st4{fill:#FFFFFF;} .st5{fill:#51555B;} .st6{fill:#60656D;} .st7{fill:#CCAC8D;} </style> <title>Untitled-2</title> <path class="st0" d="M65.4,70.4c-9.6,5.1-21.1,5.1-30.7,0c-1-0.7-1.6-2-1.6-3.2v-3.3c0-1.3,0.7-1.9,1.6-1.5c9.6,5.1,21.1,5.1,30.7,0 c0.9-0.5,1.6,0.2,1.6,1.5v3.3C67.1,68.5,66.5,69.7,65.4,70.4z"></path> <path class="st1" d="M75,41.8c-0.2-2.5,0.1-4.8-1-6.7c-2.7-4.8-9.7-7.5-23.7-7.5v0.1l0,0v-0.1c-13.6,0-21.1,2.8-23.9,7.6 c-1.1,1.9-1,4.2-1.1,6.7c-0.1,2-1,4.2-0.6,6.5c0.5,3,0.7,6,1.1,8.8c0.4,2.3,3.4,4.2,3.7,6.3c0.8,5.9,6.8,8.6,20.8,8.6v0.1l0,0v-0.1 c14.2,0,19.8-2.7,20.6-8.6c0.3-2.2,3.2-4,3.6-6.3c0.4-2.8,0.6-5.8,1.1-8.8C76,46,75.1,43.8,75,41.8z"></path> <path d="M65.4,73.4c-9.9,3.7-20.8,3.7-30.7,0c-0.9-0.4-1.6-1.3-1.6-2.3v-2.4c0-0.6,0.4-1.1,1-1.1c0.2,0,0.4,0,0.6,0.1 c9.9,3.7,20.8,3.7,30.7,0c0.9-0.3,1.6,0.1,1.6,1v2.4C67,72.1,66.4,73,65.4,73.4z"></path> <circle class="st2" cx="50.1" cy="74.6" r="1.4"></circle> <path class="st3" d="M50.1,43.8c2.5,0,4.2,1.7,5.9,3.1c1.9,1.7,5.2,2.9,6.5,4.3s3.1,2.9,3.7,5.2c0.5,1.9,0.8,3.9,0.8,5.9 c0,0.8,0.4,0.6,1.6,0c2.7-1.4,5.7-4.9,5.7-4.9c-0.4,2.3-3.3,4.1-3.6,6.3c-0.8,5.9-6.5,8.6-20.7,8.6h0.1"></path> <path class="st3" d="M59.3,39.4c0.5,1.8,2.4,7.9-1.2,5.8c0,0,1.5,0.9,2.4,4.2s3.4,3.7,3.4,3.7c2.4,0.4,4.8-0.2,6.8-1.7 c2.5-2.1,2.8-5.8,1.8-8.6s-2.9-3.7-5.6-4.2S58.7,37.4,59.3,39.4z"></path> <circle cx="66.2" cy="46" r="5.1"></circle> <circle class="st4" cx="64.9" cy="43.7" r="1.3"></circle> <path class="st3" d="M58.5,45.8c2.6,1.8,5,3.8,7.1,6.2c2.5,3.1,2.4,3.7,2.4,3.7l-1.8,0.8c0,0-2.5-4.8-5.7-6.6S57,46.5,57,46.5 L58.5,45.8z"></path> <circle class="st3" cx="50.1" cy="74.4" r="1.2"></circle> <circle class="st1" cx="50.4" cy="74.8" r="0.4"></circle> <circle class="st3" cx="50.1" cy="76.3" r="0.8"></circle> <circle class="st1" cx="50.3" cy="76.6" r="0.3"></circle> <path class="st3" d="M50.3,43.8c-2.5,0-4.3,1.7-6,3.1c-1.9,1.7-5.2,2.9-6.6,4.3s-3,2.9-3.7,5.2c-0.5,1.9-0.8,3.9-0.9,5.9 c0,0.8,0.1,0.8-1.6,0c-2.7-1.3-5.8-4.9-5.8-4.9c0.4,2.3,3.3,4.1,3.6,6.3c0.8,5.9,6.5,8.6,20.7,8.6h0.2"></path> <path class="st3" d="M63.8,53.7c-3.2-4.1-8.2-6.6-13.4-6.6l0,0c-5.2,0-10.2,2.4-13.4,6.6c-2.9,3.5-2.7,4.9-2.7,8.3 c0,12.2,4.3,8.6,7.1,10s5.9,0.8,9,0.8l0,0c3.1,0,6.1,0.5,9-0.9s7.1,2.2,7.1-9.9C66.5,58.6,66.7,57.2,63.8,53.7z"></path> <path class="st2" d="M50.1,50.1c0,0-0.4,5.6-1.2,6.7l1.5-0.4L50.1,50.1z"></path> <path class="st2" d="M50.5,50.1c0,0,0.4,5.6,1.2,6.7l-1.5-0.4L50.5,50.1z"></path> <path class="st2" d="M45.6,48.8c-0.6-1.3,1.5-3.5,4.8-3.5s5.4,2.2,4.8,3.5s-2.7,1.8-4.8,1.8S46.2,50.1,45.6,48.8z"></path> <path d="M50.5,50.1c0-0.2,2-0.3,3-1c0,0-2.2,0.7-2.6,0.4s-0.6-0.9-0.6-0.9s-0.2,0.7-0.5,0.9c-1,0-1.9-0.1-2.8-0.4 c1.1,0.2,2.2,0.6,3.2,1c0,0.2,0,0.7,0,1.1c0,1.8,0,3.6,0.2,5.3c0.4,0.5,0.2-3.9,0.2-5.3C50.5,50.8,50.5,50.3,50.5,50.1z"></path> <path d="M50.5,57.9c1.6,0.2,3,0.8,4.3,1.8c-1.5-1.7-3.3-2.8-4.3-2.8s-3.2,1.3-4.8,3.1C47.1,58.8,48.7,58.1,50.5,57.9z"></path> <path class="st2" d="M50.2,68.1c-2.1-0.1-4.3-0.5-6.3-1.2c-0.4-0.1-0.8,0.2-1.2,0.1c-3.3-0.9-6.2-2.9-8.4-5.6c0,0.2,0,0.4,0,0.6 c0,12.2,4.3,8.6,7.1,10s5.9,0.9,9,0.9h0.1c3.1,0,6.1,0.5,9-0.9s7.1,2.2,7.1-10c0-0.5,0-0.9,0-1.3c-2.1,3-5.1,5.2-8.5,6.2 c-0.4,0.1-1.1-0.2-1.5-0.1C54.4,67.5,52.3,67.9,50.2,68.1z"></path> <path class="st2" d="M44.6,61.5c0,0-1.5,4.3-0.5,6.2l-1.3-0.6C43.3,65.3,43.9,63.4,44.6,61.5z"></path> <path class="st2" d="M56.1,61.5c0,0,1.5,4.3,0.5,6.2l1.3-0.6C57.5,65.3,56.9,63.4,56.1,61.5z"></path> <path class="st3" d="M41,39.4c-0.5,1.8-2.4,7.9,1.2,5.8c0,0-1.5,0.9-2.4,4.2S36.3,53,36.3,53c-2.4,0.4-4.8-0.2-6.8-1.7 c-2.5-2.1-2.9-5.8-1.8-8.6s2.9-3.7,5.6-4.2S41.6,37.4,41,39.4z"></path> <path class="st2" d="M50.4,56.8c1.5,0,6.4,3.3,6.5,7.5c0-0.1,0-0.2,0-0.2c0-4.2-4-7.7-6.5-7.7s-6.5,3.4-6.5,7.7c0,0.1,0,0.2,0,0.2 C44,60.1,48.8,56.8,50.4,56.8z"></path> <ellipse transform="matrix(0.9683 -0.2497 0.2497 0.9683 -10.339 14.3604)" class="st5" cx="51.4" cy="47.9" rx="0.5" ry="0.9"></ellipse> <ellipse transform="matrix(0.2964 -0.9551 0.9551 0.2964 -11.3728 80.4484)" class="st5" cx="48.9" cy="47.9" rx="0.9" ry="0.5"></ellipse> <circle cx="34.4" cy="46" r="5.1"></circle> <circle class="st4" cx="35.7" cy="43.7" r="1.3"></circle> <path class="st6" d="M51.9,46c0,0-1.3,0.6-1.7,0.6S48.5,46,48.5,46c0.6,0,1.1,0,1.7,0C50.8,46,51.9,46,51.9,46z"></path> <path class="st3" d="M41.8,45.8c-2.6,1.8-5,3.8-7.1,6.2c-2.5,3.1-2.5,3.7-2.5,3.7l1.8,0.8c0,0,2.5-4.8,5.7-6.6s3.5-3.3,3.5-3.3 L41.8,45.8z"></path> <path class="st3" d="M31.8,36.5c0,0-1.5,4.3-5,6.1C26.8,42.6,32.2,42,31.8,36.5z"></path> <path class="st3" d="M68.2,36.5c0,0,1.5,4.3,5,6.1C73.3,42.6,67.8,42,68.2,36.5z"></path> <path class="st3" d="M58.3,44.5c0,0-3.4-3.6-8-3.7l0,0l0,0l0,0c-4.5,0.1-8,3.7-8,3.7c2.3-1.7,5.1-2.6,8-2.7l0,0 C53.2,41.8,56,42.8,58.3,44.5z"></path> <path class="st3" d="M54.3,37c0,0-1.7-2.4-4-2.5l0,0c-2,0.1-4,2.5-4,2.5c1.1-1.1,2.5-1.8,4-1.8l0,0C50.7,35.1,52.3,35.1,54.3,37z"></path> <path class="st3" d="M34.3,54.7c0,0-2.7,1.3-4.7,0.5h0.1c-2-1-2.7-3.9-2.7-3.9c0.9,2.9,4,4.4,6.9,3.5C34.1,54.8,34.2,54.8,34.3,54.7 z"></path> <path class="st3" d="M66.1,54.7c0,0,2.7,1.3,4.7,0.5H71c2-1,2.5-3.9,2.5-3.9c-1.1,3-4.3,4.5-7.3,3.4C66.2,54.8,66.1,54.8,66.1,54.7z "></path> <path class="st3" d="M37.5,36.2c2-0.4,4-0.3,5.9,0.3c2.5,0.9,0.5,4,1,4.2s1.2-2.2,5.8-2s5.2,2.3,5.9,2s-0.6-5.8,6.4-4.5 c0,0-7.3-2-7,3.4c0,0-4.2-3.3-10.1-0.3C45.4,39.2,46.9,34.3,37.5,36.2z"></path> <path class="st7" d="M63.1,36.2h0.3H63.1z"></path> <path class="st7" d="M63.1,36.2L63.1,36.2L63.1,36.2z"></path> <path class="st3" d="M35.5,29.1c0,0-6.2,7.9-7.2,10.9s-1.6,15.6-2.4,17.4L22.9,45l5.3-12.9L35.5,29.1z"></path> <path class="st3" d="M64.8,29.1c0,0,6.2,7.9,7.2,10.9s1.6,15.6,2.4,17.4L77.4,45L72,32.1L64.8,29.1z"></path> <path class="st3" d="M64.5,29.1c0,0,6.7,5.6,8.6,12.1s1.2,14.3,2.7,15.4c2.2,1.4,4.6-6.9,5.4-7.8c1.3-1.4,5.5-4.9,5.8-5.5 S78.4,33,74.6,31.1C69.9,28.8,64.2,28.6,64.5,29.1z"></path> <path class="st2" d="M70.3,32.6c0,0,7.9,10.1,7.8,22.7l3.2-6.5C78.8,42.7,75.1,37.1,70.3,32.6z"></path> <path class="st3" d="M35.5,29.1c0,0-6.7,5.6-8.6,12.1s-1.1,14.3-2.7,15.4c-2.2,1.4-4.6-6.9-5.4-7.8c-1.3-1.4-5.5-4.9-5.8-5.5 S21.6,33,25.5,31.1C30.1,28.8,35.8,28.6,35.5,29.1z"></path> <path class="st2" d="M29.7,32.6c0,0-7.9,10.1-7.7,22.7l-3.2-6.5C21.2,42.7,24.9,37.1,29.7,32.6z"></path> <path class="st3" d="M25.4,55.5c0,0,0.5,3.1,1.5,4.1s0.3-0.8,0.3-0.8s-1-0.5-0.8-4.5S25.4,55.5,25.4,55.5z"></path> <path class="st3" d="M74.8,55.5c0,0-0.6,3.1-1.5,4.1S73,58.9,73,58.9s1-0.5,0.8-4.5S74.8,55.5,74.8,55.5z"></path> <path class="st3" d="M53.9,79.5c0.5-0.2,0.8-0.7,0.9-1.2c0.2-0.9-0.4-1.7-1.3-1.9c-0.8-0.1-1.6,0.3-1.9,1.1 c-1.1-0.3-2.2-0.5-3.3-0.6c0-0.9-0.7-1.6-1.6-1.7c-0.8,0-1.4,0.5-1.6,1.3c-0.1,0.5,0,1,0.4,1.4c-0.5,0.2-0.8,0.7-0.9,1.2 c-0.1,0.9,0.5,1.7,1.4,1.9c0.8,0.1,1.5-0.3,1.8-1c1.1,0.3,2.2,0.5,3.3,0.6c0,0.9,0.7,1.7,1.6,1.7c0.9,0,1.7-0.7,1.7-1.6 C54.3,80.3,54.2,79.8,53.9,79.5L53.9,79.5z"></path> <path class="st2" d="M52.7,82.4c-0.1,0-0.2,0-0.3,0c-0.8-0.1-1.4-0.8-1.5-1.7c-1-0.1-2.1-0.3-3.1-0.6c-0.4,0.9-1.5,1.3-2.4,0.9 c-0.8-0.3-1.2-1.2-1.1-2c0.1-0.5,0.4-0.9,0.8-1.2c-0.3-0.4-0.4-0.9-0.3-1.4c0.1-0.5,0.4-0.9,0.8-1.2c0.8-0.6,1.9-0.4,2.5,0.5 c0.2,0.3,0.3,0.6,0.3,0.9c1,0.1,2.1,0.3,3.1,0.6c0.4-0.9,1.4-1.4,2.4-1c0.3,0.1,0.6,0.3,0.8,0.6c0.3,0.4,0.4,0.9,0.3,1.3 c-0.1,0.5-0.4,0.9-0.8,1.2c0.3,0.4,0.4,0.9,0.3,1.4c-0.1,0.5-0.3,0.9-0.8,1.2C53.4,82.3,53,82.4,52.7,82.4z M47.6,79.8h0.2 c1.1,0.3,2.2,0.5,3.3,0.6h0.2v0.2c0,0.7,0.5,1.3,1.2,1.5c0.4,0.1,0.8,0,1.1-0.2c0.3-0.2,0.5-0.6,0.6-1c0.1-0.5-0.1-0.9-0.4-1.3 l-0.2-0.2l0.2-0.1c0.7-0.4,1-1.2,0.7-2c0-0.1-0.1-0.1-0.1-0.2c-0.2-0.3-0.6-0.5-1-0.6c-0.7-0.1-1.4,0.3-1.7,1v0.2h-0.2 c-1.1-0.3-2.2-0.5-3.3-0.6h-0.2v-0.2c0-0.7-0.5-1.4-1.2-1.5c-0.4-0.1-0.8,0-1.1,0.2c-0.3,0.2-0.5,0.6-0.6,1c-0.1,0.5,0,0.9,0.4,1.3 l0.2,0.2l-0.2,0.1c-0.4,0.2-0.7,0.6-0.8,1.1c-0.1,0.8,0.4,1.6,1.2,1.7c0.7,0.1,1.4-0.3,1.7-1L47.6,79.8z"></path> <circle class="st1" cx="47" cy="76.4" r="0.6"></circle> <circle class="st1" cx="53" cy="80.9" r="0.6"></circle> <circle class="st1" cx="49.6" cy="78.7" r="0.4"></circle> <circle class="st1" cx="46.7" cy="78.3" r="0.4"></circle> <circle class="st1" cx="52.6" cy="79.3" r="0.4"></circle> <circle class="st6" cx="44.4" cy="53.1" r="0.5"></circle> <circle class="st6" cx="41.7" cy="56" r="0.5"></circle> <circle class="st6" cx="40.8" cy="53.1" r="0.5"></circle> <circle class="st6" cx="55.6" cy="53.1" r="0.5"></circle> <circle class="st6" cx="58.3" cy="56" r="0.5"></circle> <circle class="st6" cx="59.2" cy="53.1" r="0.5"></circle> </svg> 