<?xml version="1.0" encoding="UTF-8"?> <!-- Generator: Adobe Illustrator 21.1.0, SVG Export Plug-In . SVG Version: 6.00 Build 0) --> <svg xmlns="http://www.w3.org/2000/svg" xmlns:xlink="http://www.w3.org/1999/xlink" id="Layer_1" x="0px" y="0px" viewBox="0 0 100 100" style="enable-background:new 0 0 100 100;" xml:space="preserve"> <style type="text/css"> .st0{fill:#838893;} </style> <title>Untitled-2</title> <path class="st0" d="M38.9,46.6l1.7-3.9l-2.8-3.1l2.7-3.6l-10.4-11L25,32L38.9,46.6z M44.3,43.3l5.2-6.8l-6-3.6l-5.2,6.8L44.3,43.3z M29.8,24.9l-6-3.6l-5.1,6.8l6,3.6L29.8,24.9z M72.6,18.6l-11.7-6.9l-3.8-0.9l11.6,6.8L72.6,18.6z M51.2,37.4l10.6-23.2l-6.1-3.7 L45.3,33.4l4.7,2.8L51.2,37.4z M51.4,21.1l5.2,3.1l-4.2,9.2l-5.2-3.1L51.4,21.1z M73.8,19.5l-5-1.1L57.2,43.8l3.8,4L73.8,19.5z M51.5,37.8l5.4,5.7l11.5-25.4l-6.2-3.6L51.5,37.8z M59.1,37.3l-5.3-3.2L58,25l5.3,3.1L59.1,37.3z M38.7,47L24.6,32.2l-5.3-3 l18.6,19.5L38.7,47z M54.2,64.1l1.2,0.7l-1-1.1L54.2,64.1z M52.2,55l-15,33.2l5,1.2L55.9,59L52.2,55z M54.5,63.2l2,2.2l2.3-3.3 l-2.6-2.8L54.5,63.2z M39.2,40.8L70,73.4l5.1,2.9L44.4,43.8L39.2,40.8z M49.8,36.7l-5,6.8l31.4,33.3l5.1-6.8L49.8,36.7z M41,43.2 L24,80.7l6,3.5l16.1-35.6L41,43.2z M34.2,73.7l-5.1-3l4.2-9.3l5.1,3L34.2,73.7z M46.6,49.1L30.4,84.5l6.2,3.6l15.1-33.6L46.6,49.1z M40.8,77.6l-5.3-3.1l4.2-9.3l5.2,3.1L40.8,77.6z"></path> </svg> 