<?xml version="1.0" encoding="UTF-8"?> <!-- Generator: Adobe Illustrator 21.1.0, SVG Export Plug-In . SVG Version: 6.00 Build 0) --> <svg xmlns="http://www.w3.org/2000/svg" xmlns:xlink="http://www.w3.org/1999/xlink" id="Layer_1" x="0px" y="0px" viewBox="0 0 100 100" style="enable-background:new 0 0 100 100;" xml:space="preserve"> <style type="text/css"> .st0{fill:#838893;} .st1{fill:#6C717A;} .st2{fill:#FFFFFF;} </style> <title>Untitled-2</title> <polygon class="st0" points="50,18.1 50,18.1 50,18.1 18.4,29.3 23.2,71.1 50,85.9 50,85.9 50,85.9 76.8,71.1 81.6,29.3 "></polygon> <polygon class="st1" points="50,18.1 50,25.6 50,25.6 50,59.9 50,59.9 50,85.9 50,85.9 76.8,71.1 81.6,29.3 "></polygon> <path class="st2" d="M50,25.6L30.2,69.8h7.4l4-9.9h16.7l4,9.9h7.4L50,25.6z M55.8,53.8H44.2L50,40L55.8,53.8z"></path> </svg> 