<?xml version="1.0" encoding="UTF-8"?> <!-- Generator: Adobe Illustrator 21.1.0, SVG Export Plug-In . SVG Version: 6.00 Build 0) --> <svg xmlns="http://www.w3.org/2000/svg" xmlns:xlink="http://www.w3.org/1999/xlink" id="Layer_1" x="0px" y="0px" viewBox="0 0 100 100" style="enable-background:new 0 0 100 100;" xml:space="preserve"> <style type="text/css"> .st0{fill:#838893;} </style> <title>Untitled-2</title> <path class="st0" d="M14.9,30h16.4v4.8H14.9V30z M14.9,21h16.4v4.8H14.9V21z M44.3,38.9H14.9v4.8h28.4c3.1,0,10.4,0.1,13,4.4v-2.7 C55,41.2,51.1,38.9,44.3,38.9z M44.4,47.9H14.9v4.8h28.4c6.9,0,11.3,0.3,13,1.2v-2.2C54.9,48.4,49.1,47.9,44.4,47.9L44.4,47.9z M44.3,70.7H14.9v-4.9h28.4c3.1,0,10.4-0.1,13-4.4v2.7C55,68.4,51.1,70.6,44.3,70.7L44.3,70.7z M44.4,61.7H14.9v-4.8h28.4 c6.9,0,11.3-0.3,13-1.2v2.1C54.9,61.1,49.1,61.7,44.4,61.7z M63.5,79h21.7v-3H64.1c-1.9,0-6.3-0.1-7.9-2.6V75 C57,77.6,59.3,79,63.5,79z M63.4,73.6h21.7v-3h-21c-4.2,0-6.8-0.1-7.9-0.8v1.3C57,73.2,60.5,73.5,63.4,73.6L63.4,73.6z"></path> </svg> 