<?xml version="1.0" encoding="UTF-8"?> <!-- Generator: Adobe Illustrator 21.1.0, SVG Export Plug-In . SVG Version: 6.00 Build 0) --> <svg xmlns="http://www.w3.org/2000/svg" xmlns:xlink="http://www.w3.org/1999/xlink" id="Layer_1" x="0px" y="0px" viewBox="0 0 100 100" style="enable-background:new 0 0 100 100;" xml:space="preserve"> <style type="text/css"> .st0{fill:#838893;} </style> <title>Untitled-2</title> <path class="st0" d="M82.7,47L53,17.3c-1.7-1.7-4.5-1.7-6.2,0l-6.2,6.2l7.8,7.8c2.7-0.9,5.7,0.5,6.6,3.3c0.4,1.1,0.4,2.3,0,3.4 l7.5,7.5c2.7-0.9,5.7,0.5,6.6,3.2c0.9,2.7-0.5,5.7-3.2,6.6s-5.7-0.5-6.6-3.2c-0.4-1.2-0.4-2.5,0.1-3.7l-7-7v18.5 c0.5,0.3,1,0.6,1.4,1c2,2,2,5.3,0,7.4c-2,2-5.3,2-7.4,0c-2-2-2-5.3,0-7.4c0.5-0.5,1.1-0.9,1.7-1.1V41c-0.6-0.3-1.2-0.6-1.7-1.1 c-1.5-1.5-1.9-3.7-1.1-5.7l-7.7-7.7L17.3,46.8c-1.7,1.7-1.7,4.5,0,6.2L47,82.7c1.7,1.7,4.5,1.7,6.2,0l29.5-29.6 C84.4,51.5,84.4,48.7,82.7,47z"></path> </svg> 