<?xml version="1.0" encoding="UTF-8"?> <!-- Generator: Adobe Illustrator 21.1.0, SVG Export Plug-In . SVG Version: 6.00 Build 0) --> <svg xmlns="http://www.w3.org/2000/svg" xmlns:xlink="http://www.w3.org/1999/xlink" id="Layer_1" x="0px" y="0px" viewBox="0 0 100 100" style="enable-background:new 0 0 100 100;" xml:space="preserve"> <style type="text/css"> .st0{fill:#838893;} </style> <title>Untitled-2</title> <path class="st0" d="M78.2,54.3c-2.5,0-4.9,0.6-7.1,1.7c-0.7-1.1-1.2-2.4-1.6-3.7c-0.2-1-0.2-2.1-0.1-3.1c0.2-1.1,0.5-2.2,0.9-3.3 c0-0.1-0.2-0.8-1.7-0.8s-2.9,0.3-3.1,0.7c-0.3,0.8-0.5,1.5-0.7,2.3c-0.3,1.4-3.1,6.5-4.8,9.2c-0.5-0.8-0.8-1.8-1-2.7 c-0.2-1-0.2-2-0.1-3.1c0.2-1.1,0.5-2.2,0.9-3.3c0-0.1-0.2-0.8-1.7-0.8s-2.9,0.3-3.1,0.7s-0.3,1.4-0.7,2.3s-4.1,9.4-5.1,11.6 c-0.5,1.1-1,2-1.3,2.6s0,0,0,0.1l-0.4,0.8l0,0c-0.2,0.4-0.4,0.8-0.5,0.8c-0.2-0.8-0.2-1.6,0-2.4c0.6-2.9,1.9-7.5,1.9-7.7 s0.3-0.9-0.9-1.3c-0.5-0.3-1.2-0.2-1.6,0.3c-0.1,0-0.2,0.2-0.2,0.2s1.2-5.2-2.4-5.2c-2.2,0-5.4,2.5-6.9,4.7c-1,0.5-3,1.7-5.2,2.9 l-2.5,1.4L29,59.1c-4.4-4.7-12.4-7.9-12.1-14.2c0.1-2.3,0.9-8.2,15.5-15.5c11.9-5.9,21.5-4.3,23.1-0.7c2.4,5.2-5.1,14.8-17.5,16.2 c-4.7,0.5-7.2-1.3-7.8-2s-0.7-0.7-1-0.6s-0.1,0.9,0,1.2c1,1.7,2.6,3,4.5,3.5c2.3,0.7,7.8,1.2,14.5-1.4c7.5-2.9,13.4-11,11.7-17.7 s-13.2-9.1-23.9-5.3c-6.4,2.3-13.4,5.9-18.4,10.5c-5.9,5.5-6.9,10.4-6.5,12.4c1.4,7.2,11.3,11.8,15.2,15.3l-0.5,0.3 c-2,1-9.5,4.9-11.4,9.1c-2.1,4.7,0.3,8.1,2,8.6c5.1,1.4,10.3-1.1,13.1-5.3s2.5-9.6,1.2-12.1l0-0.1l1.5-0.9c1-0.6,2-1.1,2.9-1.6 c-0.6,1.7-0.9,3.4-1,5.2c-0.2,2.7,0.9,6.2,2.3,7.5c0.5,0.4,1.2,0.7,1.9,0.6c1.7,0,2.4-1.4,3.3-3c1-2,2-4.4,2-4.4s-1.2,6.2,2,6.2 c1.1,0,2.3-1.5,2.8-2.2l0,0l0.1-0.2c0.1-0.1,0.1-0.2,0.2-0.3l0,0c0.5-0.8,1.5-2.6,3-5.6c2-3.9,3.8-8.7,3.8-8.7 c0.2,1.1,0.4,2.1,0.8,3.1c0.5,1.3,1,2.5,1.6,3.7l-0.7,1l0,0c-0.4,0.5-0.8,1-1.2,1.5c-1.3,1.5-2.5,3-3.6,4.7 c-0.3,0.6-0.2,1.3,0.3,1.7c0.6,0.3,1.3,0.4,1.9,0.3c1-0.1,2-0.3,2.9-0.7c0.9-0.3,1.7-0.8,2.5-1.3c1.6-1.1,2.5-2.9,2.4-4.9 c-0.1-1.2-0.4-2.4-0.9-3.4c0.1-0.2,0.3-0.4,0.4-0.6c1.6-2.4,3-4.8,4.3-7.4c0.2,1.1,0.4,2.1,0.8,3.1C67,55.9,67.5,57,68,58 c-1.8,1.4-3.3,3.3-4.2,5.4c-0.9,2.6-0.2,3.8,1.1,4c0.7,0.1,1.4-0.1,2-0.4c0.9-0.3,1.8-0.8,2.6-1.4c1.5-1.1,3-2.7,2.9-4.8 c-0.1-1-0.3-1.9-0.7-2.8c2.4-0.9,5-1.2,7.6-0.9c6.8,0.8,8.1,5,7.9,6.8c-0.3,1.3-1,2.3-2.2,3c-0.5,0.3-0.6,0.4-0.6,0.6 s0.3,0.3,0.7,0.2c2.1-0.6,3.6-2.5,3.7-4.7C89.2,58.9,85.2,54.3,78.2,54.3L78.2,54.3z M25.9,72c-2.2,2.4-5.4,3.4-6.7,2.6 s-0.9-4.5,1.9-7.1c1.6-1.5,3.4-2.8,5.3-3.9l1.4-0.8l0.1-0.1l0.4-0.2C29.2,65.8,28.3,69.5,25.9,72z M42.2,60.8 c-0.8,1.9-2.4,6.8-3.4,6.5s-1.4-3.9-0.2-7.6c0.6-1.8,1.5-3.4,2.7-4.9c1.2-1.4,2.6-1.8,2.9-1.3C44.6,54.3,42.7,59.6,42.2,60.8z M55.8,67.3c-0.3,0.2-0.6,0.3-0.8,0.2s0.1-0.3,0.1-0.3s1.7-1.8,2.4-2.7c0.4-0.5,0.8-1,1.3-1.7V63C58.8,65.2,56.7,66.7,55.8,67.3z M66.2,64.9c-0.2-0.2-0.2-0.7,0.6-2.5c0.6-1.1,1.4-2.2,2.3-3c0.2,0.4,0.2,0.9,0.2,1.3C69.4,62.7,68.1,64.4,66.2,64.9z"></path> </svg> 