<?xml version="1.0" encoding="UTF-8"?> <svg xmlns="http://www.w3.org/2000/svg" viewBox="0 0 32.45 31.47"> <defs> <style>.cls-1{fill:#4b21ff;}</style> </defs> <title>Ресурс 59</title> <g id="Слой_2" data-name="Слой 2"> <g id="Слой_1-2" data-name="Слой 1"> <path class="cls-1" d="M31.45,31.47h0L9.06,31.35a1,1,0,0,1-1-1V25.78a9.6,9.6,0,0,1,9.59-9.59h5.19a9.57,9.57,0,0,1,9.53,8.52,1,1,0,1,1-2,.22,7.57,7.57,0,0,0-7.54-6.74H17.65a7.6,7.6,0,0,0-7.59,7.59v3.58l20.39.11V29a1,1,0,1,1,2,0v1.49a1,1,0,0,1-1,1Z"></path> <path class="cls-1" d="M22.5,16.89H19.13a5,5,0,0,1-4.95-4.95v-7A5,5,0,0,1,19.13,0h7.32a1,1,0,0,1,1,1V11.94A5,5,0,0,1,22.5,16.89ZM19.13,2a3,3,0,0,0-2.95,2.95v7a3,3,0,0,0,2.95,2.95H22.5a3,3,0,0,0,2.95-2.95V2Z"></path> <path class="cls-1" d="M22.26,8.24H15.18a1,1,0,0,1,0-2h7.08a3.19,3.19,0,0,0,3.19-3.19V1.52a1,1,0,0,1,2,0V3.05A5.19,5.19,0,0,1,22.26,8.24Z"></path> <path class="cls-1" d="M20.5,23.37a1,1,0,0,1-.74-.32l-4-4.34a1,1,0,0,1,1.47-1.36l3.21,3.48,1.1-1.39a1,1,0,1,1,1.57,1.24L21.28,23a1,1,0,0,1-.75.38Z"></path> <path class="cls-1" d="M10.13,15.29H1a1,1,0,0,1,0-2h9.13a1,1,0,0,1,0,2Z"></path> <path class="cls-1" d="M5.56,19.85a1,1,0,0,1-1-1V9.72a1,1,0,0,1,2,0v9.13A1,1,0,0,1,5.56,19.85Z"></path> </g> </g> </svg> 