<?xml version="1.0" encoding="UTF-8"?> <svg xmlns="http://www.w3.org/2000/svg" viewBox="0 0 23.46 32.58"> <defs> <style>.cls-1{fill:#4b21ff;}</style> </defs> <title>Ресурс 65</title> <g id="Слой_2" data-name="Слой 2"> <g id="Слой_1-2" data-name="Слой 1"> <path class="cls-1" d="M22.61,32.58H.85A.85.85,0,0,1,0,31.73V31a9.22,9.22,0,0,1,9.21-9.21h5A9.22,9.22,0,0,1,23,28a.85.85,0,0,1-1.61.56,7.51,7.51,0,0,0-7.09-5.05h-5a7.51,7.51,0,0,0-7.5,7.35H22.61a.85.85,0,0,1,0,1.7Z"></path> <path class="cls-1" d="M13.82,22.76H10.75A4.8,4.8,0,0,1,6,18V11.37a4.8,4.8,0,0,1,4.8-4.8h7a.85.85,0,0,1,.85.85V18A4.8,4.8,0,0,1,13.82,22.76ZM10.75,8.27a3.1,3.1,0,0,0-3.1,3.1V18a3.1,3.1,0,0,0,3.1,3.1h3.07a3.1,3.1,0,0,0,3.1-3.1V8.27Z"></path> <path class="cls-1" d="M13.69,14.34H6.8a.85.85,0,1,1,0-1.7h6.89a3.23,3.23,0,0,0,3.22-3.22V7.93a.85.85,0,1,1,1.7,0V9.42A4.93,4.93,0,0,1,13.69,14.34Z"></path> <path class="cls-1" d="M12,28.63a.85.85,0,0,1-.62-.27l-4-4.29a.85.85,0,0,1,1.25-1.15L12,26.51l1.51-1.72a.85.85,0,0,1,1.28,1.12l-2.13,2.44a.85.85,0,0,1-.63.29Z"></path> <path class="cls-1" d="M12.73,4.94c-2.94,0-5.9-.76-5.9-2.47S9.79,0,12.73,0s5.9.76,5.9,2.47S15.67,4.94,12.73,4.94ZM8.64,2.47a8.47,8.47,0,0,0,4.09.77,8.47,8.47,0,0,0,4.09-.77,8.47,8.47,0,0,0-4.09-.77A8.47,8.47,0,0,0,8.64,2.47ZM17,2.6h0Z"></path> </g> </g> </svg> 