<?xml version="1.0" encoding="UTF-8"?> <svg xmlns="http://www.w3.org/2000/svg" viewBox="0 0 25.87 36.11"> <defs> <style>.cls-1{fill:#4b21ff;}</style> </defs> <title>Ресурс 58</title> <g id="Слой_2" data-name="Слой 2"> <g id="Слой_1-2" data-name="Слой 1"> <path class="cls-1" d="M9.13,28a1,1,0,0,1-.71-1.71L16,18.66a1,1,0,0,1,1.41,1.41L9.84,27.69A1,1,0,0,1,9.13,28Z"></path> <path class="cls-1" d="M16.74,28a1,1,0,0,1-.71-.29L8.42,20.08a1,1,0,0,1,1.41-1.41l7.61,7.61A1,1,0,0,1,16.74,28Z"></path> <path class="cls-1" d="M12.94,36.11a12.94,12.94,0,1,1,3.85-25.29,1,1,0,1,1-.59,1.91,10.95,10.95,0,1,0,3.22,1.63,1,1,0,1,1,1.18-1.61,12.94,12.94,0,0,1-7.65,23.37Z"></path> <path class="cls-1" d="M16,12.24a1,1,0,0,1-1-1V8.91H10.86v2.33a1,1,0,0,1-2,0V7.91a1,1,0,0,1,1-1H16a1,1,0,0,1,1,1v3.33A1,1,0,0,1,16,12.24Z"></path> <path class="cls-1" d="M13.27,8.27h-.09a1,1,0,0,1-.91-1.09c0-.26,0-.36-.36-.75A3.37,3.37,0,0,1,11,3.89C11.12,1,12.83.17,13,.08a1,1,0,1,1,.8,1.83S13.05,2.35,13,4a1.42,1.42,0,0,0,.48,1.16,2.79,2.79,0,0,1,.82,2.21A1,1,0,0,1,13.27,8.27Z"></path> </g> </g> </svg> 