<?xml version="1.0" encoding="UTF-8"?> <svg xmlns="http://www.w3.org/2000/svg" viewBox="0 0 28.44 29.53"> <defs> <style>.cls-1{fill:#4b21ff;}</style> </defs> <title>Ресурс 60</title> <g id="Слой_2" data-name="Слой 2"> <g id="Слой_1-2" data-name="Слой 1"> <path class="cls-1" d="M24.9,29.53H2.68A2.66,2.66,0,0,1,0,26.9V9.13a1,1,0,0,1,2,0V26.9a.66.66,0,0,0,.68.63H24.9a.62.62,0,0,0,.63-.63V23.63a1,1,0,0,1,2,0V26.9A2.6,2.6,0,0,1,24.9,29.53Z"></path> <path class="cls-1" d="M26.48,13.67a1,1,0,0,1-1-1V11c0-.34,0-1-.19-1.25a.7.7,0,0,0-.44-.11H4.11a1,1,0,0,1,0-2H24.85a2.51,2.51,0,0,1,1.87.71A3.58,3.58,0,0,1,27.49,11v1.65A1,1,0,0,1,26.48,13.67Z"></path> <path class="cls-1" d="M24,5.29a1,1,0,0,1-1-1V2.63A.61.61,0,0,0,22.41,2l-18.2.13h0a1,1,0,0,1,0-2L22.41,0A2.6,2.6,0,0,1,25,2.63V4.29A1,1,0,0,1,24,5.29Z"></path> <path class="cls-1" d="M1,10.23a1,1,0,0,1-1-1V4.29a1,1,0,0,1,2,0V9.23A1,1,0,0,1,1,10.23Z"></path> <path class="cls-1" d="M21.53,17.86A1.5,1.5,0,0,1,20,16.37h0a1.5,1.5,0,1,1,1.5,1.5Zm0-2a.5.5,0,1,0,.5.5h0A.5.5,0,0,0,21.53,15.86Z"></path> <path class="cls-1" d="M4.16,9.62A4.49,4.49,0,0,1,0,4.88,4.45,4.45,0,0,1,4.21.13a1,1,0,0,1,0,2A2.52,2.52,0,0,0,2,4.88,2.51,2.51,0,0,0,4.16,7.62a1,1,0,0,1,0,2Z"></path> <path class="cls-1" d="M26.91,21.06H18a1.53,1.53,0,0,1-1.53-1.53V13.2A1.53,1.53,0,0,1,18,11.67h8.92a1.53,1.53,0,0,1,1.53,1.53v6.33A1.53,1.53,0,0,1,26.91,21.06Zm-8.44-2h8V13.67h-8Z"></path> <path class="cls-1" d="M20.17,8.53a1,1,0,0,1-1-1V5.88H5.75a1,1,0,0,1,0-2H20.17a1,1,0,0,1,1,1V7.53A1,1,0,0,1,20.17,8.53Z"></path> </g> </g> </svg> 