<svg width="200" height="28" viewBox="0 0 200 28" fill="black" xmlns="http://www.w3.org/2000/svg">
<path fill-rule="evenodd" clip-rule="evenodd" d="M0 27L25.6474 7L30.1734 11L44.7572 0L67.8902 17.5L71.4104 15L87 27H0Z" fill="url(#paint0_linear)"/>
<path fill-rule="evenodd" clip-rule="evenodd" d="M180 24.3076L182.831 20.4411C184.537 22.1481 187.187 23.611 190.526 23.611C193.394 23.611 194.737 22.3916 194.737 21.0335C194.737 16.9925 180.799 19.8141 180.799 11.071C180.799 7.20476 184.283 4 189.982 4C193.829 4 197.024 5.11493 199.419 7.23959L196.552 10.932C194.592 9.19045 191.978 8.389 189.51 8.389C187.332 8.389 186.098 9.29494 186.098 10.6882C186.098 14.3454 200 11.8724 200 20.5456C200 24.7952 196.806 28 190.308 28C185.626 28 182.287 26.5019 180 24.3076V24.3076ZM163 27V4H168.047V22.6896H178V27H163ZM144 27V4H149.047V22.6896H159V27H144ZM133 27H138V4H133V27ZM121.757 27V17.3106H110.206V27H105V4H110.206V13.0346H121.757V4H127V27H121.757Z" fill="black"/>
<defs>
<linearGradient id="paint0_linear" x1="88.1883" y1="27" x2="88.1883" y2="0.661464" gradientUnits="userSpaceOnUse">
<stop stop-color="black"/>
<stop offset="1" stop-color="black"/>
</linearGradient>
</defs>
</svg>
