<?xml version="1.0" encoding="UTF-8"?> <svg xmlns="http://www.w3.org/2000/svg" viewBox="0 0 446.84 452.03"> <defs> <style>.cls-1{fill:#fff;}.cls-15,.cls-2{fill:#4b21ff;}.cls-14,.cls-20,.cls-3,.cls-5,.cls-6,.cls-7,.cls-8{fill:none;}.cls-3{stroke:#fff;}.cls-14,.cls-15,.cls-16,.cls-20,.cls-3,.cls-5,.cls-6,.cls-7,.cls-8{stroke-miterlimit:10;}.cls-20,.cls-3,.cls-5,.cls-6,.cls-7,.cls-8{stroke-width:2.5px;}.cls-4{fill:#cfd5e2;}.cls-5{stroke:#8b9aaf;}.cls-6{stroke:#4b21ff;}.cls-7{stroke:#21219e;}.cls-14,.cls-15,.cls-20,.cls-7,.cls-8{stroke-linecap:round;}.cls-8{stroke:#ebf0f7;}.cls-9{fill:#2303a8;}.cls-10{fill:#a0bb5f;}.cls-11{fill:#b8d57c;}.cls-12,.cls-16{fill:#0e0362;}.cls-13{fill:#ebf0f7;}.cls-14,.cls-15,.cls-16{stroke:#2303a8;stroke-width:2.83px;}.cls-17{fill:#bac4d6;}.cls-18{fill:#6675ff;opacity:0.28;}.cls-19{fill:#8b9aaf;}.cls-20{stroke:#f0f3f7;}</style> </defs> <title>Ресурс 15</title> <g id="Слой_2" data-name="Слой 2"> <g id="Слой_1-2" data-name="Слой 1"> <path class="cls-1" d="M124.49,113.2C171.67,19.5,231.39,0,286.92,0c86,0,136.82,95.67,133.39,236.7-.72,29.77,12.51,90-54.49,154.64-77.47,74.71-156.52,61.21-194.16,56.95-61.4-7-162.65-125.11-139.6-242.71C39.21,169.12,109.4,143.16,124.49,113.2Z"></path> <path class="cls-2" d="M189.45,29.89H81.22c-4.93,0-8.92,4.77-8.92,10.65V88.6c0,5.88,4,10.65,8.92,10.65H189.45c4.93,0,8.92-4.77,8.92-10.65V40.53C198.38,34.65,194.38,29.89,189.45,29.89Z"></path> <polygon class="cls-2" points="198.38 113.54 198.38 88.34 177.18 88.34 198.38 113.54"></polygon> <circle class="cls-1" cx="92.21" cy="43.4" r="3.25"></circle> <circle class="cls-1" cx="92.21" cy="56.4" r="3.25"></circle> <circle class="cls-1" cx="92.21" cy="69.4" r="3.25"></circle> <circle class="cls-1" cx="92.21" cy="82.4" r="3.25"></circle> <line class="cls-3" x1="100.26" y1="43.4" x2="131.38" y2="43.4"></line> <line class="cls-3" x1="187.78" y1="53.15" x2="187.78" y2="43.4"></line> <line class="cls-3" x1="100.26" y1="56.4" x2="153.88" y2="56.4"></line> <line class="cls-3" x1="100.26" y1="69.4" x2="131.38" y2="69.4"></line> <line class="cls-3" x1="100.26" y1="82.4" x2="123.13" y2="82.4"></line> <rect class="cls-4" x="330.09" y="137" width="116.75" height="83.42" rx="5.1" ry="5.1"></rect> <rect class="cls-1" x="351.25" y="147.79" width="27.4" height="2.01"></rect> <rect class="cls-1" x="351.25" y="151.68" width="16.73" height="1.89"></rect> <rect class="cls-1" x="374.73" y="151.68" width="52.63" height="1.9"></rect> <rect class="cls-1" x="343.42" y="148.08" width="1.9" height="26.32"></rect> <rect class="cls-1" x="359.96" y="155.57" width="23" height="2"></rect> <rect class="cls-1" x="367.34" y="159.47" width="27.4" height="2.01"></rect> <rect class="cls-1" x="396.53" y="159.47" width="22.97" height="2.24"></rect> <rect class="cls-1" x="367.3" y="163.35" width="21.17" height="1.89"></rect> <rect class="cls-1" x="390.49" y="163.35" width="43.67" height="2.09"></rect> <rect class="cls-1" x="351.25" y="168.62" width="27.4" height="2.01"></rect> <rect class="cls-1" x="351.25" y="172.51" width="16.73" height="1.89"></rect> <rect class="cls-1" x="374.73" y="172.51" width="52.63" height="1.9"></rect> <rect class="cls-1" x="351.25" y="180.1" width="27.4" height="2.01"></rect> <rect class="cls-1" x="351.25" y="183.99" width="16.73" height="1.89"></rect> <rect class="cls-1" x="374.73" y="183.99" width="52.63" height="1.9"></rect> <rect class="cls-1" x="343.42" y="170.69" width="1.9" height="36.02"></rect> <rect class="cls-1" x="359.96" y="187.88" width="23" height="2"></rect> <rect class="cls-1" x="367.34" y="191.78" width="27.4" height="2.01"></rect> <rect class="cls-1" x="396.53" y="191.78" width="22.97" height="2.24"></rect> <rect class="cls-1" x="367.3" y="195.66" width="21.17" height="1.89"></rect> <rect class="cls-1" x="390.49" y="195.66" width="43.67" height="2.09"></rect> <rect class="cls-1" x="351.25" y="200.92" width="27.4" height="2.01"></rect> <rect class="cls-1" x="351.25" y="204.82" width="16.73" height="1.89"></rect> <rect class="cls-1" x="374.73" y="204.82" width="52.63" height="1.9"></rect> <polyline class="cls-5" points="81.14 321.07 72.88 329.33 80.75 337.2"></polyline> <polyline class="cls-5" points="105.16 337.2 113.42 328.94 105.55 321.07"></polyline> <line class="cls-5" x1="87.09" y1="343.25" x2="98.42" y2="314.96"></line> <path class="cls-6" d="M112,173.45c-10.41,0-16.52,6.11-16.52,16.52,0-10.41-6.11-16.52-16.52-16.52,10.41,0,16.52-6.11,16.52-16.52C95.46,167.34,101.57,173.45,112,173.45Z"></path> <path class="cls-6" d="M399.89,286.9c-7.2,0-11.42,4.22-11.42,11.42,0-7.2-4.22-11.42-11.42-11.42,7.2,0,11.42-4.22,11.42-11.42C388.47,282.68,392.69,286.9,399.89,286.9Z"></path> <path class="cls-7" d="M228.36,242"></path> <path class="cls-7" d="M224.64,286.9"></path> <path class="cls-7" d="M279.61,241.14"></path> <path class="cls-7" d="M283.44,282.63"></path> <path class="cls-7" d="M241.13,244.91"></path> <path class="cls-7" d="M239.19,284"></path> <path class="cls-7" d="M254.52,245.91"></path> <path class="cls-7" d="M253.72,285"></path> <path class="cls-7" d="M267.05,246"></path> <path class="cls-7" d="M269.69,284.25"></path> <path class="cls-2" d="M173.11,370c12.53,4.32,36.57,7.25,64.18,7.25S289,374.32,301.48,370Z"></path> <line class="cls-8" x1="148.56" y1="340.45" x2="133.8" y2="365.91"></line> <line class="cls-8" x1="160.91" y1="245.91" x2="160.91" y2="268.55"></line> <path class="cls-2" d="M317.71,364.06l-154,21.71-13.1-7.5s-.63-79.38-.63-98.9a62.59,62.59,0,0,1,62.59-62.59h64.55c34.57,0,67.33,24.51,62.47,58.74-1.21,8.54-17.73,56.74-17.73,56.74Z"></path> <path class="cls-9" d="M212.86,397l52.26-1.31c18.72-53.87,2.48-138.75,26.82-175.36,0-23.25-93-23.25-93,0C224.76,261.51,212.86,397,212.86,397Z"></path> <path class="cls-2" d="M355.53,165a39.77,39.77,0,0,0-23.65-1.44c-3.88.92-7.92,1.88-11.85,1.73-7.54-.28-21.62-.88-21.33-1-2.23-6.59-12.53-19.5-18-24.17l.08,0c-2.32-1.59-8-5.86-10.9-7.94l0-.08c-2.55-1.38-4.95-3.33-7.67-4-9.9-2.55-20-2.33-30-.94-3.85.53-7.65,1.48-10.74,4.06v0c-1.94,1.28-7.69,6.15-9.63,7.43l0,.08c-2,1.55-6.22,4.53-7.31,5.59-4.25,4.13-9.49,12.91-11.75,19.07a75,75,0,0,0-9.16.44c-9.06,1.47-18,2.15-27-.44-7.38-2.11-14.71-.92-21.82,1.67-.59.22-1,1-1.44,1.57l1.06.58,0,0c4.28,1.5,8.71,2.68,12.79,4.6,4.57,2.15,8.64,5.36,13.25,7.39a78,78,0,0,0,15.39,5.06c3.83.8,7.95.12,11.93.32a2.79,2.79,0,0,1,1.92,1.81,62.81,62.81,0,0,1,.62,6.63l.6,4.27,1.56,8.36c.45.74.9,1.49,1.34,2.24a39.5,39.5,0,0,0,3.12,5.28c5.39,6.57,11.14,12.85,16.32,19.58s11.34,12.13,19.83,13a120.34,120.34,0,0,0,24.26,0,23.57,23.57,0,0,0,15.94-8.56c5.16-6.18,10.44-12.26,15.59-18.45,3.3-4,7.1-7.63,8.51-12.86l2.12-8.07.65-4.81a67.13,67.13,0,0,1,.6-6.91,2.62,2.62,0,0,1,2.06-1.52c10.66,1.06,20.48-.8,29.46-7.08,7.52-5.26,16.17-8.26,24.92-10.86C356.6,166.06,356.17,165.26,355.53,165Z"></path> <path class="cls-8" d="M223.2,138.75c-9.53,2.75-21.1,13.56-24.89,25.61"></path> <path class="cls-2" d="M294.47,164l-4.14,1C291.17,163.23,292.7,163.7,294.47,164Z"></path> <path class="cls-9" d="M332.2,177.46c-9,6.27-18.8,8.14-29.46,7.08a2.62,2.62,0,0,0-2.06,1.52,34.94,34.94,0,0,0-.42,4,64.4,64.4,0,0,1-.82,7.68l-2.12,8.07A66.57,66.57,0,0,0,323,197c13.52-7.7,23.16-19.83,34.14-30.43C348.37,169.21,339.73,172.21,332.2,177.46Zm-26.55,12.38"></path> <path class="cls-9" d="M190.24,193h0a62.88,62.88,0,0,0-.62-6.63,2.79,2.79,0,0,0-1.92-1.81c-4-.2-8.1.48-11.93-.32a78,78,0,0,1-15.39-5.06c-4.61-2-8.68-5.24-13.25-7.39-4.08-1.92-8.51-3.09-12.79-4.6.34.56-.45.54,0,1,6.31,6.08,13.68,12.81,20,18.86a71.65,71.65,0,0,0,30.94,17.47,63.51,63.51,0,0,0,7.08,1.14C192,203.26,190.88,196.68,190.24,193Z"></path> <path class="cls-10" d="M201.07,165l.23.12-.23-.12Z"></path> <path class="cls-10" d="M290.32,165l-.12.23.12-.22Z"></path> <path class="cls-11" d="M224.13,194.5l.62-.45Z"></path> <circle class="cls-12" cx="217.6" cy="189.82" r="6.85"></circle> <circle class="cls-12" cx="268.76" cy="189.82" r="6.85"></circle> <circle class="cls-13" cx="215.21" cy="192.56" r="2.07"></circle> <circle class="cls-13" cx="265.2" cy="192.56" r="2.07"></circle> <path class="cls-14" d="M224.43,218.45s10.3,6.55,20.81,6.55c13.17,0,21.17-6.14,21.17-6.14"></path> <path class="cls-14" d="M220.7,229.74s5.43-29.36,24.16-29.36,23.58,22,24.22,29"></path> <path class="cls-14" d="M200.71,207.35c1.12,2.65,9.68,8.54,17.41,5.1"></path> <path class="cls-14" d="M288.21,207.86c-1.25,2.59-10.1,8-17.64,4.21"></path> <path class="cls-9" d="M245.41,183.81a3.74,3.74,0,0,0-3.59,2.31c-1.49,4.19-4.51,12.76-4.79,14.49-.38,2.31,3.1,4.57,8,4.57s9.64-2.26,8.84-5.29c-.59-2.25-3.46-10-4.92-13.82a3.75,3.75,0,0,0-3.57-2.26Z"></path> <line class="cls-14" x1="210.93" y1="162.08" x2="278.77" y2="161.85"></line> <line class="cls-14" x1="220.59" y1="151.49" x2="269.04" y2="151.49"></line> <path class="cls-8" d="M159.77,168.58c-4.1-2.86-12.19-3.94-18.38-1.55"></path> <path class="cls-8" d="M349.2,166.68c-4.48-2.23-12.63-2.11-18.4,1.16"></path> <path class="cls-9" d="M210.37,187.17h-8.56c2.18-9.31,9.92-15,18.49-14.1,8.15.9,16.11,7.64,16,14H226.27Z"></path> <path class="cls-9" d="M265.09,187.06H254.64c.78-7.81,10.07-14.28,19.68-14,7,.17,14,7.33,14.8,14h-24Z"></path> <path class="cls-9" d="M234.79,191.31c-8.93,4.69-26.57,2.4-31.42-.83,0,0,5.09,9.9,14.36,9.9C230.48,200.38,234.79,191.31,234.79,191.31Z"></path> <path class="cls-9" d="M256.17,191.31c8.93,4.69,26.57,2.4,31.42-.83,0,0-5.09,9.9-14.36,9.9C260.48,200.38,256.17,191.31,256.17,191.31Z"></path> <path class="cls-8" d="M215.82,178.26a10.23,10.23,0,0,0-7.92,3.58"></path> <path class="cls-8" d="M269.07,177.72a10.23,10.23,0,0,0-7.92,3.58"></path> <path class="cls-15" d="M299.06,279.57c-13.28,25-31.46,11-31.46,11s5,24.69-16.53,71.25c74.27,5.23,80.59-85.19,80.59-85.19"></path> <path class="cls-15" d="M194.2,278.86c4.11,69.57,21.33,99.42,21.33,99.42S178,372,178,377.48"></path> <path class="cls-16" d="M270,300c0,21.81-13.67,62-20.43,62s-15.18-37.93-15.18-59.73c0-12.68,7.94-17.15,16.39-17.15C257.56,285.14,270,288.54,270,300Z"></path> <path class="cls-2" d="M227.82,295.73c2.08,19.57,11.38,26.45,20.06,26.45,13.81,0,21.26-16.09,17.52-27.7-3.41-10.56-15.87-14.7-24.56-14.7C240.55,293.87,233.41,300,227.82,295.73Z"></path> <ellipse class="cls-12" cx="242.6" cy="261.1" rx="2.39" ry="4.15"></ellipse> <path class="cls-12" d="M269.78,266.3c-1.54,2.56-2.19,5.59-1.45,6.76s2.59.06,4.13-2.5,2.19-5.59,1.45-6.76S271.32,263.75,269.78,266.3Z"></path> <path class="cls-12" d="M220.08,286.47c-2-1.42-3.86-1.39-4.24.05s.9,3.76,2.86,5.18,3.86,1.39,4.24-.05S222,287.89,220.08,286.47Z"></path> <path class="cls-2" d="M254.58,302.17h0c2.73,2.2,6.34,1.15,8.06-2.33l10.31-20.89c1.72-3.49.9-8.1-1.83-10.3h0c-2.73-2.2-6.34-1.15-8.06,2.33l-10.31,20.89C251,295.36,251.85,300,254.58,302.17Z"></path> <path class="cls-2" d="M245,301h0c3.22-.28,5.65-3.84,5.44-8l-1.31-24.64c-.22-4.11-3-7.22-6.23-6.94h0c-3.22.28-5.65,3.84-5.44,8L238.8,294C239,298.13,241.81,301.24,245,301Z"></path> <path class="cls-2" d="M247.8,315.55l-1.5,2.71a9,9,0,0,0,1-10.51l-16.64-17.88a6.59,6.59,0,0,0-9.76-1h0a9,9,0,0,0-1,10.51l18.92,17.23C243.17,318.26,245.24,318.23,247.8,315.55Z"></path> <path class="cls-15" d="M236,293.75s6.77,3.09,7.8,12.14"></path> <path class="cls-15" d="M297.57,229.74c0,5.71-15.65,29.23-15.65,58.32"></path> <path class="cls-15" d="M304.32,239.18c-1.68,9.94-9.1,14.29-9.1,21.68"></path> <path class="cls-15" d="M193.27,229.74c0,5.71,15.65,29.23,15.65,58.32"></path> <path class="cls-15" d="M186.52,239.18c1.68,9.94,9.1,14.29,9.1,21.68"></path> <path class="cls-4" d="M134.71,405.81c30.09-4,21.12,20.91,82.48,21.08C256.56,427,281,393,334.52,393.13c18.85.05,34.54-4.38,48.48-22.59l-303.09-.84C92,388.48,100.36,410.33,134.71,405.81Z"></path> <path class="cls-17" d="M322.7,391.83c-30.59-4-26.28,34.92-75.56,35.06-36.91.1-38.64-37-93.15-30.64-48.71,5.72-62.7-2.61-77.22-25.69l308.13-.85C372.57,388.48,357.62,396.35,322.7,391.83Z"></path> <polyline class="cls-5" points="16.17 228.28 11.02 233.44 15.93 238.34"></polyline> <polyline class="cls-5" points="31.16 238.34 36.31 233.19 31.41 228.28"></polyline> <line class="cls-5" x1="19.89" y1="242.12" x2="26.96" y2="224.47"></line> <rect class="cls-5" x="55.84" y="215.63" width="31.15" height="31.15"></rect> <polygon class="cls-5" points="77.41 230.44 67.06 236.41 67.06 224.47 77.41 230.44"></polygon> <rect class="cls-5" x="98.6" y="215.63" width="31.15" height="31.15"></rect> <rect class="cls-5" x="108.06" y="225.1" width="12.23" height="12.23"></rect> <rect class="cls-5" x="1.25" y="215.63" width="42.99" height="73.86"></rect> <rect class="cls-5" x="69.64" y="258.34" width="61.75" height="31.15"></rect> <line class="cls-5" x1="87" y1="231.21" x2="98.6" y2="231.21"></line> <line class="cls-5" x1="44.24" y1="231.21" x2="55.84" y2="231.21"></line> <line class="cls-5" x1="115.64" y1="258.34" x2="115.64" y2="246.79"></line> <line class="cls-5" x1="77.41" y1="267.28" x2="106.14" y2="267.28"></line> <line class="cls-5" x1="77.41" y1="275.19" x2="86.67" y2="275.19"></line> <line class="cls-5" x1="9.06" y1="250.43" x2="33.17" y2="250.43"></line> <line class="cls-5" x1="9.06" y1="267.28" x2="25.04" y2="267.28"></line> <line class="cls-5" x1="9.06" y1="258.34" x2="38.35" y2="258.34"></line> <line class="cls-5" x1="122.59" y1="267.28" x2="125.97" y2="267.28"></line> <line class="cls-5" x1="122.59" y1="274.75" x2="125.97" y2="274.75"></line> <line class="cls-5" x1="122.59" y1="282.22" x2="125.97" y2="282.22"></line> <rect class="cls-4" x="251.8" y="45.8" width="45.83" height="45.83" rx="10.19" ry="10.19"></rect> <polyline class="cls-5" points="265.32 62.42 259.09 68.65 265.02 74.59"></polyline> <polyline class="cls-5" points="283.44 74.59 289.67 68.36 283.74 62.42"></polyline> <line class="cls-5" x1="269.81" y1="79.16" x2="278.36" y2="57.81"></line> <rect class="cls-2" x="282.3" y="5.61" width="52.02" height="52.02" rx="10.19" ry="10.19"></rect> <polyline class="cls-3" points="297.64 24.48 290.57 31.55 297.3 38.29"></polyline> <polyline class="cls-3" points="318.21 38.29 325.28 31.22 318.54 24.48"></polyline> <line class="cls-3" x1="302.74" y1="43.48" x2="312.44" y2="19.25"></line> <path class="cls-18" d="M186.67,241l65,59.84A8,8,0,0,1,250.38,315l-55.61,1.49Z"></path> <path class="cls-19" d="M206.87,314.87l-28.29.6a11.35,11.35,0,0,1-10.34-7.22l-20.84-61.49a3.54,3.54,0,0,1,3.46-5l31.76-.76A11.35,11.35,0,0,1,193,248.27l17.37,61.65A3.54,3.54,0,0,1,206.87,314.87Z"></path> <path class="cls-4" d="M203.87,316l-26.92.57a11.49,11.49,0,0,1-10.47-7.32l-20.18-59.55a3.8,3.8,0,0,1,3.72-5.32l30.38-.73a11.49,11.49,0,0,1,10.47,7.32l16.71,59.71A3.8,3.8,0,0,1,203.87,316Z"></path> <path class="cls-2" d="M178.74,265.59a4,4,0,0,1-4,5.18,6.91,6.91,0,0,1-6.41-5.18,4,4,0,0,1,4-5.18A6.91,6.91,0,0,1,178.74,265.59Z"></path> <rect class="cls-4" x="308.31" y="36.55" width="74.48" height="74.48" rx="10.19" ry="10.19"></rect> <path class="cls-2" d="M362.8,70.75a9.77,9.77,0,0,0-2.18-3.28,9.2,9.2,0,0,0-3.24-2.17,9.91,9.91,0,0,0-3.86-.76c-4.19,0-7.16,3-9.85,6.43l-.05.08a2,2,0,0,1-.14.16L341,74.5a29.1,29.1,0,0,1-3.48,4,6.32,6.32,0,0,1-3.89,1.93,6,6,0,0,1-2.23-.43,5.9,5.9,0,0,1-1.88-1.28,5.2,5.2,0,0,1-1.22-1.87,6.32,6.32,0,0,1-.44-2.2,5.74,5.74,0,0,1,1.71-4.13,5.88,5.88,0,0,1,4.14-1.71h0a6.92,6.92,0,0,1,2.26.38l-.47.56a3.2,3.2,0,0,0,.42,4.55l.63.52,5.35-6.5a10.2,10.2,0,0,0-8.9-3.8,10.21,10.21,0,0,0-6.56,3.15,10.06,10.06,0,0,0-2.78,6.68,10.33,10.33,0,0,0,.73,3.86,9.77,9.77,0,0,0,2.18,3.28,9.19,9.19,0,0,0,3.24,2.17,9.91,9.91,0,0,0,3.86.76c4.19,0,7.16-3,9.82-6.43l.05-.08a2,2,0,0,1,.14-.16l2.53-3.28a29.1,29.1,0,0,1,3.48-4,6.32,6.32,0,0,1,3.89-1.93,6,6,0,0,1,2.23.43,5.9,5.9,0,0,1,1.88,1.28,5.2,5.2,0,0,1,1.22,1.87,6.32,6.32,0,0,1,.44,2.2,5.74,5.74,0,0,1-1.71,4.13,5.86,5.86,0,0,1-3.07,1.63,7.46,7.46,0,0,1-1.36.14,7.12,7.12,0,0,1-5.47-2.52l-2.37,2.88a10.21,10.21,0,0,0,8.93,3.8,10,10,0,0,0,5.12-1.9A2.67,2.67,0,0,0,362,84.38h1.65v-9.6A13.88,13.88,0,0,0,362.8,70.75Z"></path> <path class="cls-4" d="M392.37,371h-109a6.5,6.5,0,0,1-6.45-7.34L283,316.81a8.57,8.57,0,0,1,8.57-8.57H401.85a8.57,8.57,0,0,1,8.47,7.25,6,6,0,0,1-.13,2.29L398.69,366A6.5,6.5,0,0,1,392.37,371Z"></path> <rect class="cls-4" x="257.96" y="364.14" width="27.06" height="6.33" rx="3.16" ry="3.16"></rect> <path class="cls-2" d="M354.53,338.6a4.47,4.47,0,0,0-.82-2,3.93,3.93,0,0,0-1.62-1.32,5.05,5.05,0,0,0-2.2-.46c-2.5,0-4.71,1.85-6.81,3.92l0,0-.1.1-2,2a25.14,25.14,0,0,1-2.66,2.43,4.87,4.87,0,0,1-2.6,1.18,3.09,3.09,0,0,1-1.27-.26,2.51,2.51,0,0,1-.94-.78,2.39,2.39,0,0,1-.46-1.14,3.73,3.73,0,0,1,.06-1.34,4.67,4.67,0,0,1,1.62-2.52,4.39,4.39,0,0,1,2.72-1h0a3.59,3.59,0,0,1,1.29.23l-.36.34a2,2,0,0,0-.41,2.77l.3.32,4.13-4a4.49,4.49,0,0,0-1.24-1.42,5.28,5.28,0,0,0-3.52-.89,7.85,7.85,0,0,0-4.37,1.92,8.21,8.21,0,0,0-2.62,4.07,6.12,6.12,0,0,0-.12,2.35,4.47,4.47,0,0,0,.82,2,3.92,3.92,0,0,0,1.62,1.32,5.05,5.05,0,0,0,2.2.46c2.5,0,4.71-1.85,6.8-3.92l0,0,.1-.1,2-2a25.14,25.14,0,0,1,2.66-2.43,4.87,4.87,0,0,1,2.6-1.18,3.09,3.09,0,0,1,1.27.26,2.51,2.51,0,0,1,.94.78,2.39,2.39,0,0,1,.46,1.14,3.73,3.73,0,0,1-.06,1.34,4.67,4.67,0,0,1-1.62,2.52,4.6,4.6,0,0,1-2.07,1,4.68,4.68,0,0,1-.83.08,3.24,3.24,0,0,1-2.9-1.54l-1.83,1.75a4.49,4.49,0,0,0,1.24,1.42,5.32,5.32,0,0,0,3.54.89,7.35,7.35,0,0,0,3.33-1.16,1.19,1.19,0,0,0,1.25,1.18h1l1.39-5.85A8.17,8.17,0,0,0,354.53,338.6Z"></path> <path class="cls-20" d="M287.53,320a8.57,8.57,0,0,1,8.57-8.57"></path> </g> </g> </svg> 