<svg xmlns="http://www.w3.org/2000/svg" viewBox="0 0 425.95 414.28"><defs><style>.cls-1,.cls-14{fill:#4b21ff}.cls-16,.cls-19,.cls-2,.cls-7,.cls-8{fill:none}.cls-2{stroke:#8b9aaf}.cls-14,.cls-16,.cls-19,.cls-2,.cls-7,.cls-8{stroke-miterlimit:10}.cls-2,.cls-7,.cls-8{stroke-width:2.5px}.cls-3{fill:#fff}.cls-4{fill:#cfd5e2}.cls-7{stroke-linecap:round;stroke:#ebf0f7}.cls-8{stroke:#4b21ff}.cls-11{fill:#0e0362}.cls-14,.cls-16,.cls-19{stroke:#2303a8}.cls-15{fill:#2303a8}.cls-19{stroke-width:2.83px}</style></defs><g id="Слой_2" data-name="Слой 2"><g id="Слой_1-2" data-name="Слой 1"><ellipse class="cls-1" cx="307.13" cy="184.48" rx="7.07" ry="4.6" transform="rotate(-66.52 307.122 184.48)"/><path class="cls-2" d="M98.73 130.24l-7.17 7.17 6.83 6.84m21.2 0l7.18-7.18-6.84-6.83M103.9 149.5l9.84-24.57"/><path class="cls-3" d="M396.67 93.42C396.67 34.25 381.16 0 339.31 0c-36 0-72.94 60.86-127.82 52.21-91.16-14.36-175.18 60.29-179 161.53-1 26.62 18.13 70.43 35.65 124.26 24.16 74.22 103.36 76.28 135.24 76.28 133.34 0 177.74-103.44 177.74-166 .01-33.2 15.55-120.05 15.55-154.86z"/><path class="cls-4" d="M192.33 93.73v-25.2h-21.19l21.19 25.2z"/><rect class="cls-4" x="103.77" y="36.26" width="88.42" height="40.98" rx="7.25" ry="7.25"/><rect class="cls-4" x="301.03" y="223.35" width="113.89" height="52.52" rx="8.06" ry="8.06"/><path d="M311.23 235.7h28.08v2.06h-28.08zm0 3.99h17.14v1.93h-17.14zm24.06 0h53.93v1.95h-53.93zm-15.14 3.99h23.57v2.04h-23.57zm7.56 3.99h28.08v2.06h-28.08zm29.92 0h23.54v2.29h-23.54zm-29.96 3.98h21.69v1.93h-21.69zm23.76 0h44.74v2.14h-44.74zm-40.2 5.39h28.08v2.06h-28.08zm0 3.99h17.14v1.93h-17.14zm24.06 0h53.93v1.95h-53.93z" fill="#8b9aaf"/><path class="cls-7" d="M129.26 230.1v22.64"/><path class="cls-8" d="M270.64 43.68c-10.63 0-16.87 6.24-16.87 16.87 0-10.63-6.24-16.87-16.87-16.87 10.63 0 16.87-6.24 16.87-16.87 0 10.63 6.23 16.87 16.87 16.87z"/><text transform="translate(111.39 63.07)" font-size="20.75" font-family="GothamPro-Medium,Gotham Pro" fill="#4b21ff">¥&amp;#$?!</text><path class="cls-4" d="M326.19 366c0 10-60.66 10.82-121.88 22.93-74.14 14.66-112.9-7-112.9-17s52-18.17 116.17-18.17S326.19 356 326.19 366z"/><ellipse cx="218.9" cy="363.21" rx="72.54" ry="9.47" fill="#bac4d6"/><ellipse class="cls-1" cx="172.39" cy="366.77" rx="7.91" ry="4.58" transform="rotate(-65.76 172.39 366.77)"/><path class="cls-11" d="M177.61 359.92a.35.35 0 01.14-.38 3.31 3.31 0 013.29-.4l1.08.49c.37.17.65-.46.28-.62-1-.46-2.8-1.55-5 0a.21.21 0 01-.3 0 2.57 2.57 0 00-2.38-1.07.21.21 0 01-.23-.2c-.27-2.51-2-3.13-3.3-3.7-.37-.17-.65.46-.28.62l1.08.49c1.71.77 2.12 2.87 1.69 3.08a3.63 3.63 0 00-1.79 2 4.87 4.87 0 015.37 2.42 3.62 3.62 0 00.35-2.73z"/><path class="cls-11" d="M170.09 360.93c-.91-2.49-.68-2.28-3.94-2.51-.61 0-.75 1-.14 1l2 .14a.84.84 0 01.73.56c1 2.72.63 1.57-.4 3.53a.6.6 0 01-.76.31l-2.43-1.09c-.55-.25-1 .69-.42.94 3.83 1.72 2.73.8 2.26 3.56a.21.21 0 01-.32.16c-1.39-1-2.56.43-4.22 1.84-.5.43 0 1.2.54.77l2-1.7c.8-.68 1.82.24 1.91 1.26.07.78.43 3 1.1 3.74a.56.56 0 00.93-.21l4.76-10.57a1.28 1.28 0 00-1.14-1.91c-1.55.14-2.15 1.04-2.46.18zm12.34 4.83c-2.22-2.18-1.92-2.29-4.49-1.29a.54.54 0 01-.73-.37c-.8-2.88-2.49-2.22-3-1.19l-4.76 10.57c-.3.66.42 1.24 1.78.48a18.62 18.62 0 002.2-1.31c.84-.62 2.19-.43 2.21.59v2.62c0 .66.94.56.93-.11v-2.62a1.78 1.78 0 00-1.37-1.76.21.21 0 01-.09-.34c1.74-2.16.44-2.34 4.16-.67a.52.52 0 00.42-.94l-2.43-1.1a.6.6 0 01-.28-.76c.46-1.28.23-1.8 1-2.1 2.28-.89 1.67-1 3.75 1.05.47.49 1.13-.33.7-.75z"/><ellipse class="cls-1" cx="80.81" cy="191.41" rx="3.1" ry="5.36" transform="rotate(-43.6 80.817 191.412)"/><path class="cls-11" d="M77.85 186.39a.24.24 0 01-.2-.18 2.24 2.24 0 01.59-2.17l.58-.55c.2-.19-.12-.52-.32-.34a3 3 0 00-1.28 3.11.14.14 0 01-.1.18 1.74 1.74 0 00-1.28 1.22.14.14 0 01-.18.09c-1.64-.47-2.48.47-3.17 1.12-.2.19.12.52.32.34l.58-.55c.92-.87 2.34-.6 2.36-.27a2.46 2.46 0 00.8 1.64 3.3 3.3 0 012.89-2.75 2.45 2.45 0 00-1.59-.89z"/><path class="cls-11" d="M76.57 191.37c-1.79-.06-1.61-.15-2.58 1.83-.18.37.42.71.59.35l.61-1.24a.57.57 0 01.54-.31c2 .07 1.14 0 2.11 1.15a.41.41 0 010 .56l-1.31 1.24c-.3.28.18.79.48.5 2.06-2 1.2-1.51 2.81-.51a.14.14 0 010 .24c-1 .6-.38 1.72.08 3.12.14.43.76.29.62-.14l-.52-1.69c-.22-.67.62-1.08 1.28-.88a6 6 0 002.63.27.38.38 0 00.1-.64l-5.42-5.69a.86.86 0 00-1.49.23c-.33 1.02.08 1.63-.53 1.61zm6.17-6.51c-1.94.84-1.93.62-2 2.49a.36.36 0 01-.42.36c-2-.24-2 1-1.5 1.55l5.42 5.69c.34.36.89.06.76-1a12.61 12.61 0 00-.26-1.71c-.18-.69.29-1.48.94-1.24l1.65.64c.42.16.59-.45.17-.61l-1.65-.64a1.21 1.21 0 00-1.45.41.14.14 0 01-.24 0c-.91-1.64-1.35-.88.64-2.78a.35.35 0 00-.48-.5l-1.31 1.25a.41.41 0 01-.55 0c-.68-.61-1.07-.6-1.07-1.16 0-1.66-.2-1.3 1.62-2.08.43-.22.12-.84-.27-.67z"/><rect class="cls-1" y="148.94" width="116.75" height="54.82" rx="5.1" ry="5.1"/><path class="cls-3" d="M21.16 159.73h27.4v2.01h-27.4zm0 3.89h16.73v1.89H21.16zm23.48 0h52.63v1.9H44.64zm-14.77 3.89h23v2h-23zm7.37 3.9h27.4v2.01h-27.4zm29.2 0h22.97v2.24H66.44zm-29.23 3.88h21.17v1.89H37.21zm23.18 0h43.67v2.09H60.39zm-39.23 5.26h27.4v2.01h-27.4zm0 3.9h16.73v1.89H21.16zm23.48 0h52.63v1.9H44.64z"/><ellipse class="cls-1" cx="292.01" cy="102.19" rx="8.11" ry="4.7" transform="rotate(-87.95 292.001 102.191)"/><path class="cls-11" d="M294.31 93.67a.36.36 0 010-.41 3.39 3.39 0 013-1.65h1.21c.41 0 .44-.69 0-.7-1.16 0-3.25-.39-4.71 1.91a.22.22 0 01-.3.08 2.63 2.63 0 00-2.68-.1.22.22 0 01-.29-.1c-1.23-2.28-3.14-2.19-4.56-2.24-.41 0-.44.69 0 .7h1.21c1.92.07 3.13 1.9 2.79 2.27a3.72 3.72 0 00-.93 2.6 5 5 0 016 .22 3.71 3.71 0 00-.74-2.58z"/><path class="cls-11" d="M287.57 97.54c-1.83-2-1.53-1.9-4.71-.86-.6.2-.33 1.21.26 1l2-.65a.86.86 0 01.91.25c2 2.2 1.2 1.25 1 3.5a.61.61 0 01-.6.59l-2.73-.1c-.62 0-.66 1 0 1.05 4.3.15 2.9-.3 3.52 2.5a.21.21 0 01-.24.27c-1.72-.45-2.27 1.4-3.29 3.38-.31.6.5 1.13.81.52l1.23-2.38c.49-1 1.82-.48 2.3.46.37.71 1.56 2.66 2.49 3.13a.57.57 0 00.8-.56l.43-11.88a1.31 1.31 0 00-1.82-1.37c-1.52.75-1.74 1.84-2.36 1.15zm13.58-.2c-3-1.21-2.71-1.43-4.76.52a.55.55 0 01-.83-.07c-1.87-2.43-3.22-1.14-3.27 0l-.43 11.88c0 .74.88 1 1.88-.23a19.09 19.09 0 001.58-2.09c.56-.92 1.92-1.25 2.33-.29l1.06 2.46c.27.62 1.11.17.84-.46l-1.06-2.46a1.83 1.83 0 00-2-1.14.21.21 0 01-.22-.29c.82-2.73-.49-2.39 3.69-2.24a.53.53 0 000-1.05l-2.74-.1a.61.61 0 01-.56-.62c-.06-1.39-.48-1.8.13-2.38 1.82-1.73 1.2-1.59 4-.45.61.24.94-.75.36-.99z"/><path class="cls-2" d="M72.83 270.26l-8.2 8.2 7.81 7.81m24.23 0l8.2-8.2-7.81-7.81m-18.32 22.02l11.25-28.09"/><path class="cls-8" d="M321.22 306.52l-4.93 4.92 4.69 4.7m14.56 0l4.92-4.93-4.69-4.69m-11 13.23l6.75-16.87M127.27 119.91c-5.81 0-9.22 3.41-9.22 9.22 0-5.81-3.41-9.22-9.22-9.22 5.81 0 9.22-3.41 9.22-9.22-.05 5.81 3.41 9.22 9.22 9.22z"/><path class="cls-1" d="M419.41 179.46l-100.33 6.48c-5.17.33-9.43-4-9.43-9.72V35.41c0-5.71 4.25-9.55 9.43-8.61l100.33 18.33c3.63.66 6.54 5 6.54 9.69v115.73c0 4.69-2.95 8.68-6.54 8.91z"/><path class="cls-3" d="M322.55 36a1.2 1.2 0 01-1.38 1.29 1.8 1.8 0 01-1.39-1.76 1.2 1.2 0 011.39-1.29 1.8 1.8 0 011.38 1.76zm5.6 1a1.18 1.18 0 01-1.36 1.28 1.77 1.77 0 01-1.36-1.74 1.18 1.18 0 011.36-1.28 1.77 1.77 0 011.36 1.74zm5.5.9a1.17 1.17 0 01-1.33 1.27 1.75 1.75 0 01-1.32-1.72 1.17 1.17 0 011.34-1.27 1.75 1.75 0 011.31 1.72z"/><path d="M318.11 42.82l101.98 16.07m-100.57-5.87l36.24 5.15m-29.24 102.28l19.51-.49m51.8-1.31l9.49-.24m-9.49 5.58l3.45-.12m-74.49-9.72l6.86-.11m30.58-.47l6.08-.09m27.52-.43l5.41-.08m12.38-86.3l4.09.58m-7.48 4.13l7.48.99m-99.41 38.7l7.61.4m7.72.4l7.25.37m7.36.38l6.92.36m7.03.37l6.61.34m-41.78-34.58l24.02 2.47m-24.02 5.04l10.26.93m68.98.8l5.68.57m-23.68 25.78l6.05.31m6.15.32l5.8.3m5.9.31l5.55.28M319.52 59.09l69.96 9.27" stroke-width="1.7" stroke="#ebf0f7" stroke-miterlimit="10" fill="none"/><path d="M351.46 171.06l-30.83 1.35v-25.3l30.83-.13v24.08zm45.22-35.99l-76.05-1.25v-10.53l76.05 2.5v9.28zm-9.9 34.45l-27.28 1.19v-23.77l27.28-.11v22.69zm33.31-1.45l-26.16 1.14v-22.42l26.16-.11v21.39zm-.38-59.54l-97.66-6.45v-32.2l97.66 11.36v27.29z" stroke-width="1.7" stroke="#ebf0f7" stroke-linecap="round" stroke-miterlimit="10" fill="none"/><ellipse class="cls-1" cx="413.83" cy="135.71" rx="4.77" ry="8.23" transform="rotate(-45.26 413.797 135.715)"/><path class="cls-11" d="M409.06 128.13a.37.37 0 01-.32-.27 3.44 3.44 0 01.81-3.35l.87-.88c.29-.3-.21-.8-.51-.5-.83.84-2.53 2.16-1.82 4.83a.22.22 0 01-.15.28 2.67 2.67 0 00-1.91 1.93.22.22 0 01-.28.15c-2.54-.65-3.79.84-4.81 1.86-.29.3.21.8.51.5l.87-.88c1.37-1.38 3.57-1 3.62-.52a3.78 3.78 0 001.31 2.48 5.07 5.07 0 014.32-4.36 3.76 3.76 0 00-2.51-1.27z"/><path class="cls-11" d="M407.31 135.83c-2.76 0-2.47-.17-3.88 2.93-.26.58.67 1.08.93.5l.88-1.93a.87.87 0 01.81-.5c3 0 1.76 0 3.3 1.68a.62.62 0 010 .85l-2 2c-.44.45.32 1.2.76.75 3.08-3.1 1.77-2.37 4.29-.9a.22.22 0 010 .37c-1.52 1-.51 2.66.26 4.78.24.65 1.18.41.95-.24l-.93-2.56c-.37-1 .9-1.69 1.93-1.4.79.22 3.06.67 4 .29a.58.58 0 00.13-1l-8.58-8.5a1.33 1.33 0 00-2.27.42c-.29 1.55.36 2.46-.58 2.46zm9.2-10.28c-2.94 1.37-2.94 1-2.89 3.91a.56.56 0 01-.63.58c-3.1-.27-3.07 1.62-2.24 2.45l8.58 8.5c.54.53 1.36 0 1.12-1.56a19.38 19.38 0 00-.47-2.62c-.3-1 .38-2.29 1.38-1.94l2.57.91c.65.23.89-.72.23-.95l-2.57-.91a1.85 1.85 0 00-2.22.69.22.22 0 01-.37 0c-1.47-2.48-2.12-1.28.87-4.3a.54.54 0 00-.76-.75l-2 2a.62.62 0 01-.84 0c-1.08-.91-1.67-.88-1.69-1.74 0-2.55-.36-2 2.39-3.27.63-.34.12-1.26-.46-1z"/><path class="cls-14" d="M268.62 174.91l.14-8.52c0-4.62-26.41-8.37-59-8.37s-59 3.75-59 8.37v7"/><path class="cls-15" d="M303.59 355.52c-.43 0-17-38.05-17-38.05l-.26-34.36-23-.81-34.21 68.39zM275.87 192c0-10.79-5.19-22.1-10.74-22.1a73 73 0 0116.29 2.56c5.34 1.48 10 8.75 10 19.54v33.26l-4.83 11.76H271l4.83-11.76z"/><path class="cls-1" d="M265.83 169.93c5.54 0 10 11.3 10 22.1v33.26L271 237.05h-6.8l-1.56-63.57c1.03-.64 2.09-3.55 3.19-3.55zm44.42 196.15l2.21-7.86-39.19 2.09.25 7.9 36.73-2.13zm-82.35-14.89l45.37 9.12.25 7.9-43.27-8.5-2.35-8.52z"/><path class="cls-15" d="M239.79 314.41a9.07 9.07 0 00-9 7.59l-.05 20.23a8.94 8.94 0 004.5 7.78l25.94 5.52.54-36.68z"/><path class="cls-15" transform="rotate(-180 273.8 270.63)" d="M264.87 237.05h17.86v67.16h-17.86z"/><path class="cls-1" d="M290.93 324.4l21.53 33.82-39.19 2.1-1.17-2s7.14-.64 7.89-4.9-7.36-29-7.36-29l8.85.36 11.4 30.69 6.08-.57-12.56-30.5zm-26.32-13.56a3.73 3.73 0 013.51-3.91 3.17 3.17 0 01.74.09l19.44.73-.63 7.82-20.23-.89a3.83 3.83 0 01-2.83-3.84z"/><ellipse class="cls-11" cx="288.31" cy="311.66" rx="3.51" ry="3.91"/><path class="cls-15" d="M227.9 351.19l9.45-3.82 35.28-22.98 10.98 28.14-1.38 5.69-8.96 2.09-45.37-9.12z"/><path class="cls-1" d="M263.49 318.2a9.07 9.07 0 019.07 9l.18 19.22a8.94 8.94 0 01-9 9h-.37a8.94 8.94 0 01-8.87-9l.05-20.7a9.07 9.07 0 018.94-7.52zM150.66 173.22c0-4.58 26.41-8.29 59-8.29s55.53 2.7 59 7.79V299H150.8z"/><path class="cls-14" d="M150.81 298.98h117.81l-12.79 19.22h-92.24l-12.78-19.22z"/><path class="cls-1" d="M268.62 157.15a58.91 58.91 0 00-117.81 0v9.31c0-4.62 26.41-8.37 59-8.37s59 3.75 59 8.37z"/><path class="cls-16" d="M268.76 214.34c0-2.39-26.41-4.33-59-4.33s-59 1.94-59 4.33"/><circle class="cls-15" cx="203.5" cy="139.87" r="7.91"/><circle class="cls-11" cx="205.18" cy="137.63" r="5.68"/><circle class="cls-15" cx="180" cy="141.34" r="5.26"/><path class="cls-15" d="M215.39 105c0 .3.81 20.19.81 24.72 10.06-.35 23.52 1.15 33.41 5-3.36-14.6-9.21-22.56-15-26.94-6.94-1.66-19.22-2.78-19.22-2.78z"/><path class="cls-16" d="M268.62 278.23H150.66m117.96 20.76H150.66m117.96-35.3H150.66m99.2 35.01l-8.24 19.5m-18.16-19.69l-1.95 19.5m-29.49-18.9l3.24 18.97m-33.94-19.1l12.79 19.22"/><path class="cls-15" d="M249.61 211.15v52.54c-6-.12-13.25-.21-21.21-.27v-53.18c7.96.19 15.17.51 21.21.91zm-2.68 69.7v15.51c-4.52-.09-9.86 0-15.81 0v-15.51z"/><rect class="cls-11" x="230.79" y="213.21" width="15.77" height="22.31" rx="5.42" ry="5.42" transform="rotate(180 238.68 224.36)"/><rect class="cls-11" x="230.79" y="238.13" width="15.77" height="22.31" rx="4.61" ry="4.61" transform="rotate(180 238.68 249.285)"/><circle class="cls-15" cx="211.13" cy="235.52" r="5.61"/><path class="cls-15" d="M180.18 281.32l-3.32 4.27v6.05l3.32 4.27h4.68l3.32-4.27v-6.05l-3.32-4.27h-4.68zm24.4-87.15l15-1L233 195.7v-2.82c10 .47 18.59 1.23 24.83 2.19a16.69 16.69 0 005.54 3.33v5.17a8.38 8.38 0 00-5.54 1.3c-6.25-.64-14.82-1.15-24.83-1.47v-2.58l-13.54 1.44-15.15-1.26zm11.88-17.82c10.89.13 20.87.59 29.13 1.29v1.92L255 179l8.32 3.41v4.84l-8.39.65-9.38-2.2v1.55c-8.26-.69-18.25-1.15-29.13-1.29a41.16 41.16 0 00-11.8-2.29v-5.9a76.08 76.08 0 0011.84-1.42z"/><path class="cls-15" transform="rotate(-180 258.42 271.485)" d="M254.48 267.29h7.89v8.38h-7.89z"/><path class="cls-15" transform="rotate(-180 208.25 271.485)" d="M197.7 267.29h21.1v8.38h-21.1z"/><path class="cls-15" d="M209.78 165.87c24.38 0 45.05 1.77 54.29 4.75V174c-9-2.16-29.91-3.67-54.29-3.67h-5.36v-4.46zm52.67-11.61l-.59-6.9-7.11-2.27.79 7.5 6.91 1.67zm-1.01-8.23l-1.62-7.23-6.05-2.15.98 7.11 6.69 2.27z"/><ellipse class="cls-11" cx="229.14" cy="117.62" rx="8.67" ry="11.76" transform="rotate(-45 229.142 117.626)"/><circle class="cls-3" cx="234.77" cy="117.59" r="2.73" transform="rotate(-.24 233.712 117.469)"/><circle class="cls-3" cx="207.18" cy="136.23" r="2.44" transform="rotate(-.24 205.025 136.507)"/><path class="cls-16" d="M268.76 159.44c0-4.62-26.41-8.37-59-8.37s-59 3.75-59 8.37v7c0-4.62 26.41-8.37 59-8.37s59 3.75 59 8.37zM266.37 141c-5.89-4.23-26.13-11.38-57-11.38s-48.82 4.27-55.91 10.61"/><path class="cls-15" d="M191.82 364.92l-35.64-36.93-11.5 1.13 3.16 45.83 43.98-10.03z"/><path class="cls-15" d="M169.56 318.2a9.44 9.44 0 00-9.31 7.89l.7 20.41a9.3 9.3 0 004.68 8.09l21.58.57-1.59-36.67z"/><path class="cls-15" transform="rotate(-180 154.185 257.79)" d="M146.94 236.62h14.49v42.34h-14.49z"/><path class="cls-15" d="M146.94 311.31H160a5.42 5.42 0 005.42-5.42v-27.66l-18.49-.09z"/><path class="cls-1" transform="rotate(-180 144.025 257.79)" d="M141.11 236.62h5.83v42.34h-5.83z"/><path class="cls-1" transform="rotate(-180 137.855 257.79)" d="M134.59 236.62h6.52v42.34h-6.52z"/><path class="cls-15" d="M146.94 311.31c-6.14-11.28-15.87-17.63-18.34-15.16-.72.72-1 6.1 4.44 13.13z"/><path class="cls-1" d="M128.34 296.15v-12.43a4.76 4.76 0 014.76-4.72h13.84v32.35c-6.23-11.35-16.1-17.67-18.6-15.2z"/><path class="cls-15" transform="rotate(-180 153.9 320.265)" d="M146.36 311.31h15.07v17.91h-15.07z"/><path class="cls-15" d="M135.76 328.63l10.6.59v-17.91l-13.32-2.03 2.72 19.35z"/><path class="cls-1" d="M189.05 376.68l3.44-9.21-49.03 2.66 1.22 9.21 44.37-2.66zm-82.86-15.42l37.27 8.87 1.22 9.21-36.04-9.21-2.45-8.87z"/><path class="cls-15" d="M125.44 327.99l19.84 1.23-1.82 40.91-37.27-8.87 19.25-33.27z"/><path class="cls-1" d="M123.69 314.26a3.88 3.88 0 013.65-4.07 3.3 3.3 0 01.77.1l19.48 2.4-.66 8.14-20.3-2.58a4 4 0 01-2.94-3.99z"/><ellipse class="cls-11" cx="147.6" cy="316.76" rx="3.65" ry="4.07"/><path class="cls-15" d="M136.49 162.38H156c5.77 0 10.45 9.1 10.45 20.34v41.67l-5 12.24h-23.31z"/><path class="cls-1" d="M146.94 182.71c0-11.23-4.68-20.34-10.44-20.34s-10.5 9.11-10.5 20.34l-.67 45.37 6 8.54h10.54l5-12.24z"/><ellipse class="cls-15" cx="136.01" cy="188.2" rx="5.1" ry="10.9"/><path class="cls-15" d="M134.35 219.25l8.65 4.06v-19.18h-8.87l.22 15.12z"/><path class="cls-1" d="M126 204.13h8.13l.22 15.12h-6.65l-1.7-15.12z"/><path class="cls-11" d="M143 223.31l-12.83-.57-2.47-3.49h6.65l8.65 4.06z"/><path class="cls-1" d="M143.46 370.13l1.82-40.92h4.84l7.9 35.55 6.49-.56-8.33-35H168s9.82 30.77 13.42 34.37 10.43 1.33 10.43 1.33l.67 2.55-33.52 1.84v.08z"/><path class="cls-1" d="M186.19 318.52a8.94 8.94 0 018.94 8.9l.18 18.89a8.81 8.81 0 01-8.88 8.86h-.37a8.81 8.81 0 01-8.74-8.82l.05-20.34a8.94 8.94 0 018.82-7.49z"/><path class="cls-7" d="M128.34 332.48l-14.76 25.46"/><path class="cls-16" d="M268.74 167.93l-.12 110.3"/><path class="cls-7" d="M205.35 105.79c-21.7 2.13-40.25 16-45.67 36.55m-23.19 24.55c-3.72 0-7.11 6.85-7.45 12M230.25 111c-2.74-1.1-5.55-.85-7.31.9a5.51 5.51 0 00-1.55 3.67"/><rect class="cls-15" x="233.77" y="241.61" width="10.48" height="15.99" rx="3.66" ry="3.66" transform="rotate(180 239.005 249.605)"/><rect class="cls-15" x="233.77" y="216.37" width="10.48" height="15.99" rx="3.66" ry="3.66" transform="rotate(180 239.005 224.36)"/><path class="cls-7" d="M172.14 165.28v5.83m0 8.35v5.83m0 9.15v5.83m0 83.55v5.83m0-74.39v39.06m-32.44 12.39v-24.79"/><path stroke-width="5.67" stroke="#2303a8" stroke-miterlimit="10" fill="none" d="M261.44 184.54l25.63-29.35"/><path class="cls-19" d="M288.29 145.01l1.81-16.68"/><path class="cls-15" transform="rotate(2.97 288.135 148.283)" d="M285.8 143.69h5.26v9.65h-5.26z"/><path class="cls-19" d="M289.19 122.12l-5.71-12.93 4.57-3.56m3.07 16.86l8.58-11.33-4.7-4.85"/><path class="cls-1" transform="rotate(2.97 290.2 123.718)" d="M287.56 119.05h5.84v9.65h-5.84z"/><circle class="cls-1" cx="290.48" cy="128.23" r="4.35" transform="rotate(-14.37 290.428 128.198)"/><circle class="cls-1" cx="287.28" cy="154.26" r="4.35"/></g></g></svg>