<?xml version="1.0" encoding="UTF-8"?> <svg xmlns="http://www.w3.org/2000/svg" viewBox="0 0 425.95 414.28"> <defs> <style>.cls-1,.cls-14,.cls-9{fill:#4b21ff;}.cls-12,.cls-13,.cls-16,.cls-17,.cls-18,.cls-19,.cls-2,.cls-6,.cls-7,.cls-8{fill:none;}.cls-2{stroke:#8b9aaf;}.cls-12,.cls-13,.cls-14,.cls-16,.cls-17,.cls-18,.cls-19,.cls-2,.cls-6,.cls-7,.cls-8{stroke-miterlimit:10;}.cls-2,.cls-6,.cls-7,.cls-8{stroke-width:2.5px;}.cls-3{fill:#fff;}.cls-4{fill:#cfd5e2;}.cls-5{fill:#8b9aaf;}.cls-6{stroke:#21219e;}.cls-13,.cls-6,.cls-7{stroke-linecap:round;}.cls-12,.cls-13,.cls-7{stroke:#ebf0f7;}.cls-8{stroke:#4b21ff;}.cls-9{font-size:20.75px;font-family:GothamPro-Medium, Gotham Pro;}.cls-10{fill:#bac4d6;}.cls-11{fill:#0e0362;}.cls-12,.cls-13{stroke-width:1.7px;}.cls-14,.cls-16,.cls-18,.cls-19{stroke:#2303a8;}.cls-15{fill:#2303a8;}.cls-17{stroke:#e61b72;}.cls-18{stroke-width:5.67px;}.cls-19{stroke-width:2.83px;}</style> </defs> <title>Ресурс 16</title> <g id="Слой_2" data-name="Слой 2"> <g id="Слой_1-2" data-name="Слой 1"> <ellipse class="cls-1" cx="307.13" cy="184.48" rx="7.07" ry="4.6" transform="translate(15.55 392.67) rotate(-66.52)"></ellipse> <polyline class="cls-2" points="98.73 130.24 91.56 137.41 98.39 144.25"></polyline> <polyline class="cls-2" points="119.59 144.25 126.77 137.07 119.93 130.24"></polyline> <line class="cls-2" x1="103.9" y1="149.5" x2="113.74" y2="124.93"></line> <path class="cls-3" d="M396.67,93.42C396.67,34.25,381.16,0,339.31,0c-36,0-72.94,60.86-127.82,52.21-91.16-14.36-175.18,60.29-179,161.53-1,26.62,18.13,70.43,35.65,124.26,24.16,74.22,103.36,76.28,135.24,76.28,133.34,0,177.74-103.44,177.74-166C381.13,215.08,396.67,128.23,396.67,93.42Z"></path> <polygon class="cls-4" points="192.33 93.73 192.33 68.53 171.14 68.53 192.33 93.73"></polygon> <rect class="cls-4" x="103.77" y="36.26" width="88.42" height="40.98" rx="7.25" ry="7.25"></rect> <rect class="cls-4" x="301.03" y="223.35" width="113.89" height="52.52" rx="8.06" ry="8.06"></rect> <rect class="cls-5" x="311.23" y="235.7" width="28.08" height="2.06"></rect> <rect class="cls-5" x="311.23" y="239.69" width="17.14" height="1.93"></rect> <rect class="cls-5" x="335.29" y="239.69" width="53.93" height="1.95"></rect> <rect class="cls-5" x="320.15" y="243.68" width="23.57" height="2.04"></rect> <rect class="cls-5" x="327.71" y="247.67" width="28.08" height="2.06"></rect> <rect class="cls-5" x="357.63" y="247.67" width="23.54" height="2.29"></rect> <rect class="cls-5" x="327.67" y="251.65" width="21.69" height="1.93"></rect> <rect class="cls-5" x="351.43" y="251.65" width="44.74" height="2.14"></rect> <rect class="cls-5" x="311.23" y="257.04" width="28.08" height="2.06"></rect> <rect class="cls-5" x="311.23" y="261.03" width="17.14" height="1.93"></rect> <rect class="cls-5" x="335.29" y="261.03" width="53.93" height="1.95"></rect> <path class="cls-6" d="M196.72,226.23"></path> <path class="cls-6" d="M193,271.1"></path> <path class="cls-6" d="M248,225.34"></path> <path class="cls-6" d="M251.8,266.82"></path> <path class="cls-6" d="M209.48,229.1"></path> <path class="cls-6" d="M207.55,268.19"></path> <path class="cls-6" d="M222.88,230.1"></path> <path class="cls-6" d="M222.08,269.19"></path> <path class="cls-6" d="M235.41,230.17"></path> <path class="cls-6" d="M238.05,268.44"></path> <line class="cls-7" x1="129.26" y1="230.1" x2="129.26" y2="252.74"></line> <path class="cls-8" d="M270.64,43.68c-10.63,0-16.87,6.24-16.87,16.87,0-10.63-6.24-16.87-16.87-16.87,10.63,0,16.87-6.24,16.87-16.87C253.77,37.44,260,43.68,270.64,43.68Z"></path> <text class="cls-9" transform="translate(111.39 63.07)">¥&amp;#$?!</text> <text></text> <path class="cls-4" d="M326.19,366c0,10-60.66,10.82-121.88,22.93-74.14,14.66-112.9-7-112.9-17s52-18.17,116.17-18.17S326.19,356,326.19,366Z"></path> <ellipse class="cls-10" cx="218.9" cy="363.21" rx="72.54" ry="9.47"></ellipse> <ellipse class="cls-1" cx="172.39" cy="366.77" rx="7.91" ry="4.58" transform="translate(-232.82 373.38) rotate(-65.76)"></ellipse> <path class="cls-11" d="M177.61,359.92a.35.35,0,0,1,.14-.38,3.31,3.31,0,0,1,3.29-.4l1.08.49c.37.17.65-.46.28-.62-1-.46-2.8-1.55-5,0a.21.21,0,0,1-.3,0,2.57,2.57,0,0,0-2.38-1.07.21.21,0,0,1-.23-.2c-.27-2.51-2-3.13-3.3-3.7-.37-.17-.65.46-.28.62l1.08.49c1.71.77,2.12,2.87,1.69,3.08a3.63,3.63,0,0,0-1.79,2,4.87,4.87,0,0,1,5.37,2.42A3.62,3.62,0,0,0,177.61,359.92Z"></path> <path class="cls-11" d="M170.09,360.93c-.91-2.49-.68-2.28-3.94-2.51-.61,0-.75,1-.14,1l2,.14a.84.84,0,0,1,.73.56c1,2.72.63,1.57-.4,3.53a.6.6,0,0,1-.76.31l-2.43-1.09c-.55-.25-1,.69-.42.94,3.83,1.72,2.73.8,2.26,3.56a.21.21,0,0,1-.32.16c-1.39-1-2.56.43-4.22,1.84-.5.43,0,1.2.54.77l2-1.7c.8-.68,1.82.24,1.91,1.26.07.78.43,3,1.1,3.74a.56.56,0,0,0,.93-.21l4.76-10.57a1.28,1.28,0,0,0-1.14-1.91C171,360.89,170.4,361.79,170.09,360.93Z"></path> <path class="cls-11" d="M182.43,365.76c-2.22-2.18-1.92-2.29-4.49-1.29a.54.54,0,0,1-.73-.37c-.8-2.88-2.49-2.22-3-1.19l-4.76,10.57c-.3.66.42,1.24,1.78.48a18.62,18.62,0,0,0,2.2-1.31c.84-.62,2.19-.43,2.21.59l0,2.62c0,.66.94.56.93-.11l0-2.62a1.78,1.78,0,0,0-1.37-1.76.21.21,0,0,1-.09-.34c1.74-2.16.44-2.34,4.16-.67a.52.52,0,0,0,.42-.94l-2.43-1.1a.6.6,0,0,1-.28-.76c.46-1.28.23-1.8,1-2.1,2.28-.89,1.67-1,3.75,1.05C182.2,367,182.86,366.18,182.43,365.76Z"></path> <ellipse class="cls-1" cx="80.81" cy="191.41" rx="3.1" ry="5.36" transform="translate(-109.71 108.53) rotate(-43.6)"></ellipse> <path class="cls-11" d="M77.85,186.39a.24.24,0,0,1-.2-.18,2.24,2.24,0,0,1,.59-2.17l.58-.55c.2-.19-.12-.52-.32-.34a3,3,0,0,0-1.28,3.11.14.14,0,0,1-.1.18,1.74,1.74,0,0,0-1.28,1.22.14.14,0,0,1-.18.09c-1.64-.47-2.48.47-3.17,1.12-.2.19.12.52.32.34l.58-.55c.92-.87,2.34-.6,2.36-.27a2.46,2.46,0,0,0,.8,1.64,3.3,3.3,0,0,1,2.89-2.75A2.45,2.45,0,0,0,77.85,186.39Z"></path> <path class="cls-11" d="M76.57,191.37c-1.79-.06-1.61-.15-2.58,1.83-.18.37.42.71.59.35l.61-1.24a.57.57,0,0,1,.54-.31c2,.07,1.14,0,2.11,1.15a.41.41,0,0,1,0,.56l-1.31,1.24c-.3.28.18.79.48.5,2.06-2,1.2-1.51,2.81-.51a.14.14,0,0,1,0,.24c-1,.6-.38,1.72.08,3.12.14.43.76.29.62-.14L80,196.47c-.22-.67.62-1.08,1.28-.88a6,6,0,0,0,2.63.27.38.38,0,0,0,.1-.64l-5.42-5.69a.86.86,0,0,0-1.49.23C76.77,190.78,77.18,191.39,76.57,191.37Z"></path> <path class="cls-11" d="M82.74,184.86c-1.94.84-1.93.62-2,2.49a.36.36,0,0,1-.42.36c-2-.24-2,1-1.5,1.55l5.42,5.69c.34.36.89.06.76-1a12.61,12.61,0,0,0-.26-1.71c-.18-.69.29-1.48.94-1.24l1.65.64c.42.16.59-.45.17-.61l-1.65-.64a1.21,1.21,0,0,0-1.45.41.14.14,0,0,1-.24,0c-.91-1.64-1.35-.88.64-2.78a.35.35,0,0,0-.48-.5l-1.31,1.25a.41.41,0,0,1-.55,0c-.68-.61-1.07-.6-1.07-1.16,0-1.66-.2-1.3,1.62-2.08C83.44,185.31,83.13,184.69,82.74,184.86Z"></path> <rect class="cls-1" y="148.94" width="116.75" height="54.82" rx="5.1" ry="5.1"></rect> <rect class="cls-3" x="21.16" y="159.73" width="27.4" height="2.01"></rect> <rect class="cls-3" x="21.16" y="163.62" width="16.73" height="1.89"></rect> <rect class="cls-3" x="44.64" y="163.62" width="52.63" height="1.9"></rect> <rect class="cls-3" x="29.87" y="167.51" width="23" height="2"></rect> <rect class="cls-3" x="37.24" y="171.41" width="27.4" height="2.01"></rect> <rect class="cls-3" x="66.44" y="171.41" width="22.97" height="2.24"></rect> <rect class="cls-3" x="37.21" y="175.29" width="21.17" height="1.89"></rect> <rect class="cls-3" x="60.39" y="175.29" width="43.67" height="2.09"></rect> <rect class="cls-3" x="21.16" y="180.55" width="27.4" height="2.01"></rect> <rect class="cls-3" x="21.16" y="184.45" width="16.73" height="1.89"></rect> <rect class="cls-3" x="44.64" y="184.45" width="52.63" height="1.9"></rect> <ellipse class="cls-1" cx="292.01" cy="102.19" rx="8.11" ry="4.7" transform="translate(179.43 390.35) rotate(-87.95)"></ellipse> <path class="cls-11" d="M294.31,93.67a.36.36,0,0,1,0-.41,3.39,3.39,0,0,1,3-1.65l1.21,0c.41,0,.44-.69,0-.7-1.16,0-3.25-.39-4.71,1.91a.22.22,0,0,1-.3.08,2.63,2.63,0,0,0-2.68-.1.22.22,0,0,1-.29-.1c-1.23-2.28-3.14-2.19-4.56-2.24-.41,0-.44.69,0,.7l1.21,0c1.92.07,3.13,1.9,2.79,2.27a3.72,3.72,0,0,0-.93,2.6,5,5,0,0,1,6,.22A3.71,3.71,0,0,0,294.31,93.67Z"></path> <path class="cls-11" d="M287.57,97.54c-1.83-2-1.53-1.9-4.71-.86-.6.2-.33,1.21.26,1l2-.65a.86.86,0,0,1,.91.25c2,2.2,1.2,1.25,1,3.5a.61.61,0,0,1-.6.59l-2.73-.1c-.62,0-.66,1,0,1.05,4.3.15,2.9-.3,3.52,2.5a.21.21,0,0,1-.24.27c-1.72-.45-2.27,1.4-3.29,3.38-.31.6.5,1.13.81.52l1.23-2.38c.49-1,1.82-.48,2.3.46.37.71,1.56,2.66,2.49,3.13a.57.57,0,0,0,.8-.56l.43-11.88a1.31,1.31,0,0,0-1.82-1.37C288.41,97.14,288.19,98.23,287.57,97.54Z"></path> <path class="cls-11" d="M301.15,97.34c-3-1.21-2.71-1.43-4.76.52a.55.55,0,0,1-.83-.07c-1.87-2.43-3.22-1.14-3.27,0l-.43,11.88c0,.74.88,1,1.88-.23a19.09,19.09,0,0,0,1.58-2.09c.56-.92,1.92-1.25,2.33-.29l1.06,2.46c.27.62,1.11.17.84-.46l-1.06-2.46a1.83,1.83,0,0,0-2-1.14.21.21,0,0,1-.22-.29c.82-2.73-.49-2.39,3.69-2.24a.53.53,0,0,0,0-1.05l-2.74-.1a.61.61,0,0,1-.56-.62c-.06-1.39-.48-1.8.13-2.38,1.82-1.73,1.2-1.59,4-.45C301.4,98.57,301.73,97.58,301.15,97.34Z"></path> <polyline class="cls-2" points="72.83 270.26 64.63 278.46 72.44 286.27"></polyline> <polyline class="cls-2" points="96.67 286.27 104.87 278.07 97.06 270.26"></polyline> <line class="cls-2" x1="78.74" y1="292.28" x2="89.99" y2="264.19"></line> <polyline class="cls-8" points="321.22 306.52 316.29 311.44 320.98 316.14"></polyline> <polyline class="cls-8" points="335.54 316.14 340.46 311.21 335.77 306.52"></polyline> <line class="cls-8" x1="324.77" y1="319.75" x2="331.52" y2="302.88"></line> <path class="cls-8" d="M127.27,119.91c-5.81,0-9.22,3.41-9.22,9.22,0-5.81-3.41-9.22-9.22-9.22,5.81,0,9.22-3.41,9.22-9.22C118,116.5,121.46,119.91,127.27,119.91Z"></path> <path class="cls-1" d="M419.41,179.46l-100.33,6.48c-5.17.33-9.43-4-9.43-9.72V35.41c0-5.71,4.25-9.55,9.43-8.61L419.41,45.13c3.63.66,6.54,5,6.54,9.69V170.55C425.95,175.24,423,179.23,419.41,179.46Z"></path> <path class="cls-3" d="M322.55,36a1.2,1.2,0,0,1-1.38,1.29,1.8,1.8,0,0,1-1.39-1.76,1.2,1.2,0,0,1,1.39-1.29A1.8,1.8,0,0,1,322.55,36Z"></path> <path class="cls-3" d="M328.15,37a1.18,1.18,0,0,1-1.36,1.28,1.77,1.77,0,0,1-1.36-1.74,1.18,1.18,0,0,1,1.36-1.28A1.77,1.77,0,0,1,328.15,37Z"></path> <path class="cls-3" d="M333.65,37.9a1.17,1.17,0,0,1-1.33,1.27A1.75,1.75,0,0,1,331,37.45a1.17,1.17,0,0,1,1.34-1.27A1.75,1.75,0,0,1,333.65,37.9Z"></path> <line class="cls-12" x1="318.11" y1="42.82" x2="420.09" y2="58.89"></line> <line class="cls-12" x1="319.52" y1="53.02" x2="355.76" y2="58.17"></line> <line class="cls-12" x1="326.52" y1="160.45" x2="346.03" y2="159.96"></line> <line class="cls-12" x1="397.83" y1="158.65" x2="407.32" y2="158.41"></line> <line class="cls-12" x1="397.83" y1="163.99" x2="401.28" y2="163.87"></line> <line class="cls-12" x1="326.79" y1="154.15" x2="333.65" y2="154.04"></line> <line class="cls-12" x1="364.23" y1="153.57" x2="370.31" y2="153.48"></line> <line class="cls-12" x1="397.83" y1="153.05" x2="403.24" y2="152.97"></line> <line class="cls-12" x1="415.62" y1="66.67" x2="419.71" y2="67.25"></line> <line class="cls-12" x1="412.23" y1="71.38" x2="419.71" y2="72.37"></line> <line class="cls-12" x1="320.3" y1="111.07" x2="327.91" y2="111.47"></line> <line class="cls-12" x1="335.63" y1="111.87" x2="342.88" y2="112.24"></line> <line class="cls-12" x1="350.24" y1="112.62" x2="357.16" y2="112.98"></line> <line class="cls-12" x1="364.19" y1="113.35" x2="370.8" y2="113.69"></line> <line class="cls-12" x1="329.02" y1="79.11" x2="353.04" y2="81.58"></line> <line class="cls-12" x1="329.02" y1="86.62" x2="339.28" y2="87.55"></line> <line class="cls-12" x1="408.26" y1="88.35" x2="413.94" y2="88.92"></line> <line class="cls-12" x1="390.26" y1="114.7" x2="396.31" y2="115.01"></line> <line class="cls-12" x1="402.46" y1="115.33" x2="408.26" y2="115.63"></line> <line class="cls-12" x1="414.16" y1="115.94" x2="419.71" y2="116.22"></line> <line class="cls-12" x1="319.52" y1="59.09" x2="389.48" y2="68.36"></line> <polygon class="cls-13" points="351.46 171.06 320.63 172.41 320.63 147.11 351.46 146.98 351.46 171.06"></polygon> <polygon class="cls-13" points="396.68 135.07 320.63 133.82 320.63 123.29 396.68 125.79 396.68 135.07"></polygon> <polygon class="cls-13" points="386.78 169.52 359.5 170.71 359.5 146.94 386.78 146.83 386.78 169.52"></polygon> <polygon class="cls-13" points="420.09 168.07 393.93 169.21 393.93 146.79 420.09 146.68 420.09 168.07"></polygon> <polygon class="cls-13" points="419.71 108.53 322.05 102.08 322.05 69.88 419.71 81.24 419.71 108.53"></polygon> <ellipse class="cls-1" cx="413.83" cy="135.71" rx="4.77" ry="8.23" transform="translate(26.13 334.11) rotate(-45.26)"></ellipse> <path class="cls-11" d="M409.06,128.13a.37.37,0,0,1-.32-.27,3.44,3.44,0,0,1,.81-3.35l.87-.88c.29-.3-.21-.8-.51-.5-.83.84-2.53,2.16-1.82,4.83a.22.22,0,0,1-.15.28,2.67,2.67,0,0,0-1.91,1.93.22.22,0,0,1-.28.15c-2.54-.65-3.79.84-4.81,1.86-.29.3.21.8.51.5l.87-.88c1.37-1.38,3.57-1,3.62-.52a3.78,3.78,0,0,0,1.31,2.48,5.07,5.07,0,0,1,4.32-4.36A3.76,3.76,0,0,0,409.06,128.13Z"></path> <path class="cls-11" d="M407.31,135.83c-2.76,0-2.47-.17-3.88,2.93-.26.58.67,1.08.93.5l.88-1.93a.87.87,0,0,1,.81-.5c3,0,1.76,0,3.3,1.68a.62.62,0,0,1,0,.85l-2,2c-.44.45.32,1.2.76.75,3.08-3.1,1.77-2.37,4.29-.9a.22.22,0,0,1,0,.37c-1.52,1-.51,2.66.26,4.78.24.65,1.18.41.95-.24l-.93-2.56c-.37-1,.9-1.69,1.93-1.4.79.22,3.06.67,4,.29a.58.58,0,0,0,.13-1l-8.58-8.5a1.33,1.33,0,0,0-2.27.42C407.6,134.92,408.25,135.83,407.31,135.83Z"></path> <path class="cls-11" d="M416.51,125.55c-2.94,1.37-2.94,1-2.89,3.91a.56.56,0,0,1-.63.58c-3.1-.27-3.07,1.62-2.24,2.45l8.58,8.5c.54.53,1.36,0,1.12-1.56a19.38,19.38,0,0,0-.47-2.62c-.3-1,.38-2.29,1.38-1.94l2.57.91c.65.23.89-.72.23-.95l-2.57-.91a1.85,1.85,0,0,0-2.22.69.22.22,0,0,1-.37,0c-1.47-2.48-2.12-1.28.87-4.3a.54.54,0,0,0-.76-.75l-2,2a.62.62,0,0,1-.84,0c-1.08-.91-1.67-.88-1.69-1.74,0-2.55-.36-2,2.39-3.27C417.6,126.21,417.09,125.29,416.51,125.55Z"></path> <path class="cls-14" d="M268.62,174.91l.14-8.52c0-4.62-26.41-8.37-59-8.37s-59,3.75-59,8.37v7"></path> <path class="cls-15" d="M303.59,355.52c-.43,0-17-38.05-17-38.05l-.26-34.36-23-.81-34.21,68.39Z"></path> <path class="cls-15" d="M275.87,192c0-10.79-5.19-22.1-10.74-22.1a73,73,0,0,1,16.29,2.56c5.34,1.48,10,8.75,10,19.54v33.26l-4.83,11.76H271l4.83-11.76Z"></path> <path class="cls-1" d="M265.83,169.93c5.54,0,10,11.3,10,22.1v33.26L271,237.05h-6.8l-1.56-63.57C263.67,172.84,264.73,169.93,265.83,169.93Z"></path> <polygon class="cls-1" points="310.25 366.08 312.46 358.22 273.27 360.31 273.52 368.21 310.25 366.08"></polygon> <polygon class="cls-1" points="227.9 351.19 273.27 360.31 273.52 368.21 230.25 359.71 227.9 351.19"></polygon> <path class="cls-15" d="M239.79,314.41h0a9.07,9.07,0,0,0-9,7.59l-.05,20.23a8.94,8.94,0,0,0,4.5,7.78l25.94,5.52.54-36.68Z"></path> <rect class="cls-15" x="264.87" y="237.05" width="17.86" height="67.16" transform="translate(547.6 541.26) rotate(-180)"></rect> <path class="cls-1" d="M290.93,324.4l21.53,33.82-39.19,2.1-1.17-2s7.14-.64,7.89-4.9-7.36-29-7.36-29l8.85.36,11.4,30.69,6.08-.57L286.4,324.4Z"></path> <path class="cls-1" d="M264.61,310.84a3.73,3.73,0,0,1,3.51-3.91,3.17,3.17,0,0,1,.74.09l19.44.73-.63,7.82-20.23-.89h0A3.83,3.83,0,0,1,264.61,310.84Z"></path> <ellipse class="cls-11" cx="288.31" cy="311.66" rx="3.51" ry="3.91"></ellipse> <polygon class="cls-15" points="227.9 351.19 237.35 347.37 272.63 324.39 283.61 352.53 282.23 358.22 273.27 360.31 227.9 351.19"></polygon> <path class="cls-1" d="M263.49,318.2h0a9.07,9.07,0,0,1,9.07,9l.18,19.22a8.94,8.94,0,0,1-9,9h-.37a8.94,8.94,0,0,1-8.87-9l.05-20.7A9.07,9.07,0,0,1,263.49,318.2Z"></path> <path class="cls-1" d="M150.66,173.22c0-4.58,26.41-8.29,59-8.29s55.53,2.7,59,7.79V299H150.8Z"></path> <polygon class="cls-14" points="150.81 298.98 268.62 298.98 255.83 318.2 163.59 318.2 150.81 298.98"></polygon> <path class="cls-1" d="M268.62,157.15a58.91,58.91,0,0,0-117.81,0v9.31c0-4.62,26.41-8.37,59-8.37s59,3.75,59,8.37Z"></path> <path class="cls-16" d="M268.76,214.34c0-2.39-26.41-4.33-59-4.33s-59,1.94-59,4.33"></path> <circle class="cls-15" cx="203.5" cy="139.87" r="7.91"></circle> <circle class="cls-11" cx="205.18" cy="137.63" r="5.68"></circle> <circle class="cls-15" cx="180" cy="141.34" r="5.26"></circle> <path class="cls-15" d="M215.39,105c0,.3.81,20.19.81,24.72,10.06-.35,23.52,1.15,33.41,5-3.36-14.6-9.21-22.56-15-26.94C227.67,106.12,215.39,105,215.39,105Z"></path> <path class="cls-17" d="M150.8,172.07"></path> <line class="cls-16" x1="268.62" y1="278.23" x2="150.66" y2="278.23"></line> <line class="cls-16" x1="268.62" y1="298.99" x2="150.66" y2="298.99"></line> <line class="cls-16" x1="268.62" y1="263.69" x2="150.66" y2="263.69"></line> <line class="cls-16" x1="249.86" y1="298.7" x2="241.62" y2="318.2"></line> <line class="cls-16" x1="223.46" y1="298.51" x2="221.51" y2="318.01"></line> <line class="cls-16" x1="192.02" y1="299.11" x2="195.26" y2="318.08"></line> <line class="cls-16" x1="161.32" y1="298.98" x2="174.11" y2="318.2"></line> <path class="cls-15" d="M249.61,211.15v52.54c-6-.12-13.25-.21-21.21-.27V210.24C236.36,210.43,243.57,210.75,249.61,211.15Z"></path> <path class="cls-15" d="M246.93,280.85v15.51c-4.52-.09-9.86,0-15.81,0l0-15.51Z"></path> <rect class="cls-11" x="230.79" y="213.21" width="15.77" height="22.31" rx="5.42" ry="5.42" transform="translate(477.36 448.72) rotate(180)"></rect> <rect class="cls-11" x="230.79" y="238.13" width="15.77" height="22.31" rx="4.61" ry="4.61" transform="translate(477.36 498.57) rotate(180)"></rect> <circle class="cls-15" cx="211.13" cy="235.52" r="5.61"></circle> <polygon class="cls-15" points="180.18 281.32 176.86 285.59 176.86 291.64 180.18 295.91 184.86 295.91 188.18 291.64 188.18 285.59 184.86 281.32 180.18 281.32"></polygon> <path class="cls-15" d="M204.58,194.17l15-1L233,195.7v-2.82c10,.47,18.59,1.23,24.83,2.19a16.69,16.69,0,0,0,5.54,3.33v5.17a8.38,8.38,0,0,0-5.54,1.3c-6.25-.64-14.82-1.15-24.83-1.47v-2.58l-13.54,1.44L204.31,201Z"></path> <path class="cls-15" d="M216.46,176.35c10.89.13,20.87.59,29.13,1.29v1.92L255,179l8.32,3.41v4.84l-8.39.65-9.38-2.2v1.55c-8.26-.69-18.25-1.15-29.13-1.29a41.16,41.16,0,0,0-11.8-2.29v-5.9A76.08,76.08,0,0,0,216.46,176.35Z"></path> <rect class="cls-15" x="254.48" y="267.29" width="7.89" height="8.38" transform="translate(516.84 542.97) rotate(-180)"></rect> <rect class="cls-15" x="197.7" y="267.29" width="21.1" height="8.38" transform="translate(416.5 542.97) rotate(-180)"></rect> <path class="cls-15" d="M209.78,165.87c24.38,0,45.05,1.77,54.29,4.75V174c-9-2.16-29.91-3.67-54.29-3.67l-5.36,0v-4.46Z"></path> <polygon class="cls-15" points="262.45 154.26 261.86 147.36 254.75 145.09 255.54 152.59 262.45 154.26"></polygon> <polygon class="cls-15" points="261.44 146.03 259.82 138.8 253.77 136.65 254.75 143.76 261.44 146.03"></polygon> <ellipse class="cls-11" cx="229.14" cy="117.62" rx="8.67" ry="11.76" transform="translate(-16.06 196.48) rotate(-45)"></ellipse> <circle class="cls-3" cx="234.77" cy="117.59" r="2.73" transform="translate(-0.49 0.98) rotate(-0.24)"></circle> <circle class="cls-3" cx="207.18" cy="136.23" r="2.44" transform="translate(-0.57 0.86) rotate(-0.24)"></circle> <path class="cls-16" d="M268.76,159.44c0-4.62-26.41-8.37-59-8.37s-59,3.75-59,8.37v7c0-4.62,26.41-8.37,59-8.37s59,3.75,59,8.37Z"></path> <path class="cls-16" d="M209.36,138.47"></path> <path class="cls-16" d="M266.37,141c-5.89-4.23-26.13-11.38-57-11.38s-48.82,4.27-55.91,10.61"></path> <polygon class="cls-15" points="191.82 364.92 156.18 327.99 144.68 329.12 147.84 374.95 191.82 364.92"></polygon> <path class="cls-15" d="M169.56,318.2h0a9.44,9.44,0,0,0-9.31,7.89l.7,20.41a9.3,9.3,0,0,0,4.68,8.09l21.58.57-1.59-36.67Z"></path> <rect class="cls-15" x="146.94" y="236.62" width="14.49" height="42.34" transform="translate(308.37 515.58) rotate(-180)"></rect> <path class="cls-15" d="M146.94,311.31H160a5.42,5.42,0,0,0,5.42-5.42V278.23l-18.49-.09Z"></path> <rect class="cls-1" x="141.11" y="236.62" width="5.83" height="42.34" transform="translate(288.05 515.58) rotate(-180)"></rect> <rect class="cls-1" x="134.59" y="236.62" width="6.52" height="42.34" transform="translate(275.71 515.58) rotate(-180)"></rect> <path class="cls-15" d="M146.94,311.31c-6.14-11.28-15.87-17.63-18.34-15.16-.72.72-1,6.1,4.44,13.13Z"></path> <path class="cls-1" d="M128.34,296.15V283.72A4.76,4.76,0,0,1,133.1,279h13.84v32.35C140.71,300,130.84,293.68,128.34,296.15Z"></path> <rect class="cls-15" x="146.36" y="311.31" width="15.07" height="17.91" transform="translate(307.8 640.53) rotate(-180)"></rect> <polygon class="cls-15" points="135.76 328.63 146.36 329.22 146.36 311.31 133.04 309.28 135.76 328.63"></polygon> <polygon class="cls-1" points="189.05 376.68 192.49 367.47 143.46 370.13 144.68 379.34 189.05 376.68"></polygon> <polygon class="cls-1" points="106.19 361.26 143.46 370.13 144.68 379.34 108.64 370.13 106.19 361.26"></polygon> <polygon class="cls-15" points="125.44 327.99 145.28 329.22 143.46 370.13 106.19 361.26 125.44 327.99"></polygon> <path class="cls-1" d="M123.69,314.26a3.88,3.88,0,0,1,3.65-4.07,3.3,3.3,0,0,1,.77.1l19.48,2.4-.66,8.14-20.3-2.58h0A4,4,0,0,1,123.69,314.26Z"></path> <ellipse class="cls-11" cx="147.6" cy="316.76" rx="3.65" ry="4.07"></ellipse> <path class="cls-15" d="M136.49,162.38H156c5.77,0,10.45,9.1,10.45,20.34v41.67l-5,12.24H138.14Z"></path> <path class="cls-1" d="M146.94,182.71c0-11.23-4.68-20.34-10.44-20.34S126,171.48,126,182.71l-.67,45.37,6,8.54h10.54l5-12.24Z"></path> <ellipse class="cls-15" cx="136.01" cy="188.2" rx="5.1" ry="10.9"></ellipse> <polygon class="cls-15" points="134.35 219.25 143 223.31 143 204.13 134.13 204.13 134.35 219.25"></polygon> <polygon class="cls-1" points="126 204.13 134.13 204.13 134.35 219.25 127.7 219.25 126 204.13"></polygon> <polygon class="cls-11" points="143 223.31 130.17 222.74 127.7 219.25 134.35 219.25 143 223.31"></polygon> <path class="cls-1" d="M143.46,370.13l1.82-40.92h4.84l7.9,35.55,6.49-.56-8.33-35H168s9.82,30.77,13.42,34.37,10.43,1.33,10.43,1.33l.67,2.55L159,369.29l0,.08Z"></path> <path class="cls-1" d="M186.19,318.52h0a8.94,8.94,0,0,1,8.94,8.9l.18,18.89a8.81,8.81,0,0,1-8.88,8.86h-.37a8.81,8.81,0,0,1-8.74-8.82l.05-20.34A8.94,8.94,0,0,1,186.19,318.52Z"></path> <line class="cls-7" x1="128.34" y1="332.48" x2="113.58" y2="357.94"></line> <line class="cls-16" x1="268.74" y1="167.93" x2="268.62" y2="278.23"></line> <path class="cls-7" d="M205.35,105.79c-21.7,2.13-40.25,16-45.67,36.55"></path> <path class="cls-7" d="M136.49,166.89c-3.72,0-7.11,6.85-7.45,12"></path> <path class="cls-7" d="M230.25,111c-2.74-1.1-5.55-.85-7.31.9a5.51,5.51,0,0,0-1.55,3.67"></path> <rect class="cls-15" x="233.77" y="241.61" width="10.48" height="15.99" rx="3.66" ry="3.66" transform="translate(478.01 499.21) rotate(180)"></rect> <rect class="cls-15" x="233.77" y="216.37" width="10.48" height="15.99" rx="3.66" ry="3.66" transform="translate(478.01 448.72) rotate(180)"></rect> <path class="cls-7" d="M138.36,276.11"></path> <path class="cls-7" d="M138.36,241"></path> <line class="cls-7" x1="172.14" y1="165.28" x2="172.14" y2="171.11"></line> <line class="cls-7" x1="172.14" y1="179.46" x2="172.14" y2="185.29"></line> <line class="cls-7" x1="172.14" y1="194.44" x2="172.14" y2="200.27"></line> <line class="cls-7" x1="172.14" y1="283.82" x2="172.14" y2="289.65"></line> <line class="cls-7" x1="172.14" y1="215.26" x2="172.14" y2="254.32"></line> <line class="cls-7" x1="139.7" y1="266.71" x2="139.7" y2="241.92"></line> <line class="cls-18" x1="261.44" y1="184.54" x2="287.07" y2="155.19"></line> <line class="cls-19" x1="288.29" y1="145.01" x2="290.1" y2="128.33"></line> <rect class="cls-15" x="285.8" y="143.69" width="5.26" height="9.65" transform="translate(8.07 -14.73) rotate(2.97)"></rect> <polyline class="cls-19" points="289.19 122.12 283.48 109.19 288.05 105.63"></polyline> <polyline class="cls-19" points="291.12 122.49 299.7 111.16 295 106.31"></polyline> <rect class="cls-1" x="287.56" y="119.05" width="5.84" height="9.65" transform="translate(6.8 -14.87) rotate(2.97)"></rect> <circle class="cls-1" cx="290.48" cy="128.23" r="4.35" transform="translate(-22.73 76.09) rotate(-14.37)"></circle> <circle class="cls-1" cx="287.28" cy="154.26" r="4.35"></circle> </g> </g> </svg> 