<?xml version="1.0" encoding="UTF-8"?> <svg xmlns="http://www.w3.org/2000/svg" viewBox="0 0 466.42 465.59"> <defs> <style>.cls-1{fill:#fff;}.cls-2{fill:#cfd5e2;}.cls-3{fill:#8b9aaf;}.cls-4{fill:#4b21ff;}.cls-10,.cls-11,.cls-14,.cls-15,.cls-17,.cls-18,.cls-5,.cls-6,.cls-8,.cls-9{fill:none;stroke-miterlimit:10;}.cls-5{stroke:#8b9aaf;}.cls-11,.cls-14,.cls-15,.cls-5,.cls-6,.cls-8,.cls-9{stroke-width:2.5px;}.cls-6{stroke:#4b21ff;}.cls-7{fill:#bac4d6;}.cls-8{stroke:#f0f3f7;}.cls-10,.cls-11,.cls-14,.cls-15,.cls-18,.cls-8,.cls-9{stroke-linecap:round;}.cls-9{stroke:#21219e;}.cls-10,.cls-11{stroke:#2303a8;}.cls-10{stroke-width:5.67px;}.cls-12{fill:#0e0362;}.cls-13{fill:#2303a8;}.cls-14{stroke:#0e0362;}.cls-15,.cls-17,.cls-18{stroke:#ebf0f7;}.cls-16{fill:#6675ff;opacity:0.28;}.cls-17,.cls-18{stroke-width:1.7px;}.cls-19{fill:#6b8099;}</style> </defs> <title>Ресурс 9</title> <g id="Слой_2" data-name="Слой 2"> <g id="Слой_1-2" data-name="Слой 1"> <path class="cls-1" d="M59.28,68.81C75.35,32.49,93-4.24,151.58.4,194.23,3.78,210.85,48.5,265.39,59,373.13,79.65,452.61,171.77,430.83,282.9c-5.73,29.22-24.3,42.3-37.66,73.13-8,18.51-9.06,42.93-26.24,62.67-58.1,66.79-151.41,45.52-188.05,35.93C64.41,424.7-12.67,318.11,10.37,200.51,17.52,164,55.85,76.54,59.28,68.81Z"></path> <path class="cls-2" d="M171.8,26.55H43.31A10.62,10.62,0,0,0,32.71,37.19V85.26A10.62,10.62,0,0,0,43.31,95.91H171.8a10.62,10.62,0,0,0,10.59-10.65V37.19A10.62,10.62,0,0,0,171.8,26.55Z"></path> <rect class="cls-3" x="66.4" y="38.45" width="30.26" height="2.23"></rect> <rect class="cls-3" x="66.4" y="42.77" width="18.47" height="2.09"></rect> <rect class="cls-3" x="92.32" y="42.77" width="58.11" height="2.11"></rect> <rect class="cls-3" x="76.01" y="47.09" width="25.4" height="2.21"></rect> <rect class="cls-3" x="84.16" y="51.41" width="30.26" height="2.23"></rect> <rect class="cls-3" x="116.39" y="51.41" width="25.36" height="2.48"></rect> <rect class="cls-3" x="51.24" y="36.46" width="2.08" height="49.54"></rect> <rect class="cls-3" x="66.4" y="61.56" width="30.26" height="2.23"></rect> <rect class="cls-3" x="66.4" y="65.89" width="18.47" height="2.09"></rect> <rect class="cls-3" x="92.32" y="65.89" width="58.11" height="2.11"></rect> <rect class="cls-3" x="66.4" y="73.17" width="39.38" height="2.11"></rect> <rect class="cls-3" x="66.33" y="81.61" width="23.06" height="2.11"></rect> <polygon class="cls-2" points="182.39 110.2 182.39 85 161.19 85 182.39 110.2"></polygon> <rect class="cls-2" x="340.85" y="203.03" width="113.89" height="52.52" rx="8.06" ry="8.06"></rect> <rect class="cls-3" x="351.06" y="215.38" width="28.08" height="2.06"></rect> <rect class="cls-3" x="351.06" y="219.37" width="17.14" height="1.93"></rect> <rect class="cls-3" x="375.12" y="219.37" width="53.93" height="1.95"></rect> <rect class="cls-3" x="359.98" y="223.36" width="23.57" height="2.04"></rect> <rect class="cls-3" x="367.54" y="227.35" width="28.08" height="2.06"></rect> <rect class="cls-3" x="397.46" y="227.35" width="23.54" height="2.29"></rect> <rect class="cls-3" x="367.5" y="231.33" width="21.69" height="1.93"></rect> <rect class="cls-3" x="391.26" y="231.33" width="44.74" height="2.14"></rect> <rect class="cls-3" x="351.06" y="236.72" width="28.08" height="2.06"></rect> <rect class="cls-3" x="351.06" y="240.71" width="17.14" height="1.93"></rect> <rect class="cls-3" x="375.12" y="240.71" width="53.93" height="1.95"></rect> <rect class="cls-4" y="215.18" width="116.75" height="54.82" rx="5.1" ry="5.1"></rect> <rect class="cls-1" x="21.16" y="225.97" width="27.4" height="2.01"></rect> <rect class="cls-1" x="21.16" y="229.86" width="16.73" height="1.89"></rect> <rect class="cls-1" x="44.64" y="229.86" width="52.63" height="1.9"></rect> <rect class="cls-1" x="29.87" y="233.76" width="23" height="2"></rect> <rect class="cls-1" x="37.24" y="237.65" width="27.4" height="2.01"></rect> <rect class="cls-1" x="66.44" y="237.65" width="22.97" height="2.24"></rect> <rect class="cls-1" x="37.21" y="241.53" width="21.17" height="1.89"></rect> <rect class="cls-1" x="60.39" y="241.53" width="43.67" height="2.09"></rect> <rect class="cls-1" x="21.16" y="246.8" width="27.4" height="2.01"></rect> <rect class="cls-1" x="21.16" y="250.69" width="16.73" height="1.89"></rect> <rect class="cls-1" x="44.64" y="250.69" width="52.63" height="1.9"></rect> <polyline class="cls-5" points="72.93 321.61 63.19 331.35 72.47 340.62"></polyline> <polyline class="cls-5" points="101.25 340.62 110.98 330.88 101.71 321.61"></polyline> <line class="cls-5" x1="79.95" y1="347.76" x2="93.3" y2="314.4"></line> <polyline class="cls-5" points="261.21 23.81 253.89 31.13 260.87 38.11"></polyline> <polyline class="cls-5" points="282.51 38.11 289.83 30.79 282.86 23.81"></polyline> <line class="cls-5" x1="266.49" y1="43.48" x2="276.54" y2="18.39"></line> <path class="cls-6" d="M128.53,179.4c-11.62,0-18.45,6.82-18.45,18.45,0-11.62-6.82-18.45-18.45-18.45,11.62,0,18.45-6.82,18.45-18.45C110.08,172.58,116.9,179.4,128.53,179.4Z"></path> <path class="cls-6" d="M397.8,291.39c-7.2,0-11.42,4.22-11.42,11.42,0-7.2-4.22-11.42-11.42-11.42,7.2,0,11.42-4.22,11.42-11.42C386.38,287.16,390.6,291.39,397.8,291.39Z"></path> <path class="cls-2" d="M134.46,423.15c30.09-4,21.12,20.91,82.48,21.08,39.37.11,63.81-33.9,117.33-33.75,18.85.05,34.54-4.38,48.48-22.59l-303.09-.84C91.78,405.82,100.11,427.67,134.46,423.15Z"></path> <path class="cls-7" d="M127.25,409.13c30.59-4,26.28,34.92,75.56,35.06,36.91.1,38.64-37,93.15-30.64,48.71,5.72,62.7-2.61,77.22-25.69L65.05,387C77.38,405.78,92.33,413.65,127.25,409.13Z"></path> <path class="cls-8" d="M207.62,174a15,15,0,0,1,14.52-11.22"></path> <path class="cls-8" d="M251.92,169.59a10.51,10.51,0,0,1,10.17-7.86"></path> <line class="cls-8" x1="219.06" y1="217.46" x2="234" y2="195.88"></line> <path class="cls-9" d="M214.85,259.34"></path> <path class="cls-9" d="M211.13,304.2"></path> <path class="cls-9" d="M266.1,258.44"></path> <path class="cls-9" d="M269.93,299.92"></path> <path class="cls-9" d="M227.61,262.2"></path> <path class="cls-9" d="M225.68,301.3"></path> <path class="cls-9" d="M241,263.21"></path> <path class="cls-9" d="M240.21,302.29"></path> <path class="cls-9" d="M253.54,263.27"></path> <path class="cls-9" d="M256.18,301.55"></path> <path class="cls-8" d="M215.88,313.2a12.62,12.62,0,0,1,12.63-12.62"></path> <line class="cls-10" x1="239.48" y1="125.46" x2="239.48" y2="94.27"></line> <line class="cls-11" x1="239.61" y1="125.88" x2="239.61" y2="55.52"></line> <line class="cls-11" x1="216.97" y1="126.83" x2="216.97" y2="107.75"></line> <circle class="cls-4" cx="225.42" cy="291.97" r="96.71"></circle> <path class="cls-4" d="M297.22,183.73c.14-33.26-31.62-60.36-70.92-60.52S155,149.88,154.87,183.14a51.32,51.32,0,0,0,1,10.09L170,207.11l113.44.47L296,194.37A51.31,51.31,0,0,0,297.22,183.73Z"></path> <circle class="cls-12" cx="240.03" cy="159.88" r="19.52" transform="translate(79.16 399.24) rotate(-89.76)"></circle> <circle class="cls-12" cx="270.08" cy="177.78" r="5.52" transform="translate(91.18 447.13) rotate(-89.76)"></circle> <circle class="cls-12" cx="240.03" cy="186.31" r="3.01" transform="translate(52.72 425.57) rotate(-89.76)"></circle> <circle class="cls-13" cx="254.76" cy="284.41" r="5.52" transform="matrix(0, -1, 1, 0, -30.71, 537.99)"></circle> <circle class="cls-13" cx="161.51" cy="300.77" r="5.52" transform="matrix(0, -1, 1, 0, -139.93, 461.02)"></circle> <path class="cls-14" d="M276.14,373.7"></path> <line class="cls-14" x1="198.21" y1="277.02" x2="203.83" y2="314.95"></line> <line class="cls-14" x1="302.11" y1="310.38" x2="271.27" y2="338.05"></line> <line class="cls-14" x1="282.8" y1="238.66" x2="247.41" y2="228.99"></line> <circle class="cls-1" cx="249.73" cy="156.24" r="3.59" transform="translate(92.45 405.32) rotate(-89.76)"></circle> <path class="cls-15" d="M262.4,176.94a7.12,7.12,0,0,1,7.15-7.09"></path> <path class="cls-15" d="M224.91,159.88a14.51,14.51,0,0,1,14.57-14.45"></path> <line class="cls-11" x1="157.57" y1="193.23" x2="294.32" y2="193.23"></line> <line class="cls-11" x1="188.08" y1="134.08" x2="264.27" y2="134.08"></line> <line class="cls-11" x1="169.99" y1="206.35" x2="283.49" y2="206.35"></line> <polygon class="cls-12" points="225.6 334.1 215.8 334.1 214.53 314.97 226.87 314.97 225.6 334.1"></polygon> <polygon class="cls-12" points="215.8 378.44 225.6 378.44 226.87 387.63 214.53 387.63 215.8 378.44"></polygon> <polygon class="cls-12" points="190.61 352.66 190.61 359.88 164.65 360.81 164.65 351.72 190.61 352.66"></polygon> <polygon class="cls-12" points="250.79 359.88 250.79 352.66 276.74 351.72 276.74 360.81 250.79 359.88"></polygon> <path class="cls-13" d="M220.7,314.37c-31.4,0-56.85,18.76-56.85,41.89a31.84,31.84,0,0,0,2.46,12.21,96.62,96.62,0,0,0,102.79,9.77c5.36-6.39,8.46-13.92,8.46-22C277.55,333.13,252.1,314.37,220.7,314.37Zm0,72.51c-22.94,0-41.54-13.71-41.54-30.61s18.6-30.61,41.54-30.61,41.54,13.71,41.54,30.61S243.64,386.88,220.7,386.88Z"></path> <ellipse class="cls-13" cx="220.7" cy="356.27" rx="19.71" ry="14.52"></ellipse> <path class="cls-13" d="M255.07,365.12l-9.34-2.41c-2.59,5.55-8.44,10-15.86,12.06l3.4,6.85C243.47,378.79,251.5,372.72,255.07,365.12Z"></path> <path class="cls-12" d="M189.29,208.82c-2.2.14-4.42.29-6.61.21l.91,2.4,7.1-2.71Z"></path> <polygon class="cls-12" points="197.22 255.37 205.97 252.03 212.98 270.54 201.97 274.75 197.22 255.37"></polygon> <polygon class="cls-12" points="166.82 238.43 169.04 245.58 146.17 255.37 143.37 246.36 166.82 238.43"></polygon> <polygon class="cls-12" points="222.74 225.04 220.52 217.88 243.39 208.09 246.18 217.1 222.74 225.04"></polygon> <path class="cls-13" d="M212.37,225c2.47,7.95-3.41,17.4-13.12,21.12s-19.59.29-22.05-7.66,3.41-17.4,13.12-21.12S209.9,217.06,212.37,225Z"></path> <path class="cls-13" d="M228.17,228.76l-9.08.81c-.61,6.38-4.46,12.77-10.44,17.36l5.14,5.63C222,246.28,227.33,237.52,228.17,228.76Z"></path> <path class="cls-13" d="M243.3,206.89c-6.08-.15-12.16-.26-18.24-.2a25.16,25.16,0,0,1,6.79,10.87c5.2,16.75-7.18,36.68-27.66,44.51s-37.61-1.42-47.61-10.86c-5-4.71-9.24-12.18-9-16.52-2.67,4.25-6,8-9.45,15.67.05,3.46,26.05,37.07,69.56,22.88,28.52-9.3,45-38,37.85-60.92A34.65,34.65,0,0,0,243.3,206.89Z"></path> <path class="cls-13" d="M319.77,313.34c-9.33-5.12-17.65-20.35-23-41.78-4.91-19.69-6.2-34.58-2.38-47.37-3.34-2.51-5.82-6.41-9.48-8.46-3.19,17.11-1.84,36.77,3.94,60,6.28,25.21,14.94,44,25.87,53.44A126.36,126.36,0,0,0,319.77,313.34Z"></path> <polygon class="cls-12" points="301.1 262.03 304.3 274.86 291.29 283.57 287.26 267.42 301.1 262.03"></polygon> <path class="cls-13" d="M307.53,240.84c-2.11,6-1.9,15,.54,24.78,3.3,13.23,10.43,21.39,13.92,21C322,274.14,316.57,254.64,307.53,240.84Z"></path> <path class="cls-13" d="M320.8,308.05c.79-3.44,1.26-12.45,1.26-12.45-4.74-1.35-9.92-7.55-13.8-16.5l-3.7,7C309.52,297.54,314.7,305.51,320.8,308.05Z"></path> <path class="cls-15" d="M134.66,292a88.06,88.06,0,0,1,26.85-63.42"></path> <path class="cls-15" d="M204.6,134.08c-21.39,7.46-36.47,25.23-36.56,46"></path> <polygon class="cls-16" points="264.81 176.28 308.5 58.07 466.42 146.42 271.12 183.23 264.81 176.28"></polygon> <circle class="cls-12" cx="270.08" cy="177.78" r="5.52" transform="translate(91.18 447.13) rotate(-89.76)"></circle> <path class="cls-4" d="M229.29,354.69a4.37,4.37,0,0,0-.93-1.56,4,4,0,0,0-1.45-1,4.35,4.35,0,0,0-1.77-.36c-1.93,0-3.37,1.44-4.68,3.05l0,0-.07.08-1.24,1.56a14.64,14.64,0,0,1-1.69,1.89,3,3,0,0,1-1.84.91,2.66,2.66,0,0,1-1-.21,2.56,2.56,0,0,1-.84-.6,2.33,2.33,0,0,1-.53-.89,3,3,0,0,1-.15-1,2.89,2.89,0,0,1,.88-2,2.8,2.8,0,0,1,1.95-.81h0a3,3,0,0,1,1,.18l-.23.27a1.53,1.53,0,0,0,.1,2.16l.28.25,2.61-3.08a4.44,4.44,0,0,0-4-1.8,4.91,4.91,0,0,0-3.09,1.49,5.07,5.07,0,0,0-1.42,3.17,4.91,4.91,0,0,0,.26,1.83,4.37,4.37,0,0,0,.93,1.56,4,4,0,0,0,1.45,1,4.35,4.35,0,0,0,1.77.36c1.93,0,3.37-1.44,4.67-3.05l0,0,.07-.08,1.24-1.56a14.64,14.64,0,0,1,1.69-1.89,3,3,0,0,1,1.84-.91,2.66,2.66,0,0,1,1,.21,2.56,2.56,0,0,1,.84.6,2.33,2.33,0,0,1,.53.89,3,3,0,0,1,.15,1,2.89,2.89,0,0,1-.88,2,2.83,2.83,0,0,1-1.45.77,3.4,3.4,0,0,1-.63.06,3.1,3.1,0,0,1-2.47-1.2L221,359.34a4.45,4.45,0,0,0,4,1.8,4.74,4.74,0,0,0,2.4-.9,1.17,1.17,0,0,0,1.14.91h.76l.2-4.55A6.59,6.59,0,0,0,229.29,354.69Z"></path> <rect class="cls-4" x="306.11" y="57.23" width="153.69" height="89.65" rx="10.39" ry="10.39"></rect> <circle class="cls-1" cx="318.86" cy="66.04" r="1.56"></circle> <circle class="cls-1" cx="325.24" cy="66.04" r="1.56"></circle> <circle class="cls-1" cx="331.62" cy="66.04" r="1.56"></circle> <line class="cls-17" x1="315.43" y1="73.73" x2="450.49" y2="73.73"></line> <line class="cls-17" x1="317" y1="83.92" x2="360" y2="83.92"></line> <line class="cls-17" x1="324.92" y1="113.82" x2="347.96" y2="113.82"></line> <line class="cls-17" x1="416.84" y1="113.82" x2="430.85" y2="113.82"></line> <line class="cls-17" x1="416.84" y1="120.03" x2="421.89" y2="120.03"></line> <line class="cls-17" x1="325.24" y1="107.32" x2="333.18" y2="107.32"></line> <line class="cls-17" x1="370.8" y1="107.32" x2="378.74" y2="107.32"></line> <line class="cls-17" x1="416.84" y1="107.32" x2="424.78" y2="107.32"></line> <line class="cls-17" x1="443.51" y1="83.92" x2="449.9" y2="83.92"></line> <line class="cls-17" x1="438.3" y1="90.11" x2="449.9" y2="90.11"></line> <line class="cls-17" x1="317.88" y1="137.52" x2="326.05" y2="137.52"></line> <line class="cls-17" x1="334.42" y1="137.52" x2="342.59" y2="137.52"></line> <line class="cls-17" x1="350.96" y1="137.52" x2="359.12" y2="137.52"></line> <line class="cls-17" x1="367.5" y1="137.52" x2="375.66" y2="137.52"></line> <line class="cls-17" x1="384.04" y1="137.52" x2="392.2" y2="137.52"></line> <line class="cls-17" x1="400.57" y1="137.52" x2="408.74" y2="137.52"></line> <line class="cls-17" x1="417.11" y1="137.52" x2="425.28" y2="137.52"></line> <line class="cls-17" x1="317" y1="90.11" x2="404.9" y2="90.11"></line> <rect class="cls-18" x="318.25" y="100.02" width="36.38" height="25.88"></rect> <rect class="cls-18" x="364.74" y="100.02" width="36.38" height="25.88"></rect> <rect class="cls-18" x="411.22" y="100.02" width="39.27" height="25.88"></rect> <path class="cls-4" d="M159.6,387.3c12.53,4.32,36.57,7.25,64.18,7.25s51.66-2.93,64.18-7.25Z"></path> <g id="Page-1"> <g id="_003---Aloe" data-name="003---Aloe"> <path id="Shape" class="cls-4" d="M371.21,372.48l-.56-3.37-.41-2.33-.42-2.33-.42-2.33-.62-3.5h1.87v-2.33a2.33,2.33,0,0,0-2.33-2.33H328.65a2.33,2.33,0,0,0-2.33,2.33v2.33h1.91l-.62,3.5-.42,2.33-.42,2.33-.45,2.33-.61,3.39a14,14,0,0,0,13.82,16.44h17.89a14,14,0,0,0,13.78-16.46Z"></path> <path id="Shape-2" data-name="Shape" class="cls-4" d="M328.65,353.94h39.66a2.33,2.33,0,0,1,2.33,2.33v2.33H326.32v-2.33A2.33,2.33,0,0,1,328.65,353.94Z"></path> <path id="Shape-3" data-name="Shape" class="cls-2" d="M342.74,330.53a28.09,28.09,0,0,1,5.74-9.25,28.09,28.09,0,0,1,5.74,9.25l-3.41,23.41h-4.67Z"></path> <path id="Shape-4" data-name="Shape" class="cls-3" d="M337.76,353.94c-4.74-12.83,0-29.16,0-29.16a20.05,20.05,0,0,1,5,5.75c5.74,9.58,5.74,23.41,5.74,23.41Z"></path> <path id="Shape-5" data-name="Shape" class="cls-19" d="M342.65,353.94a27.34,27.34,0,0,0-14.11-22.16s-3.5,11.66,2.33,22.16Z"></path> <path id="Shape-6" data-name="Shape" class="cls-3" d="M359.2,353.94c4.74-12.83,0-29.16,0-29.16a20.05,20.05,0,0,0-5,5.75c-5.74,9.58-5.74,23.41-5.74,23.41Z"></path> <path id="Shape-7" data-name="Shape" class="cls-19" d="M354.32,353.94a27.34,27.34,0,0,1,14.11-22.16s3.5,11.66-2.33,22.16Z"></path> </g> </g> </g> </g> </svg> 