<?xml version="1.0" encoding="UTF-8"?> <svg xmlns="http://www.w3.org/2000/svg" viewBox="0 0 486.33 502.17"> <defs> <style>.cls-1{fill:#fff;}.cls-2{fill:#4b21ff;}.cls-11,.cls-12,.cls-15,.cls-3,.cls-4,.cls-7{fill:none;stroke-miterlimit:10;}.cls-15,.cls-3{stroke:#8b9aaf;}.cls-3{stroke-width:2px;}.cls-4{stroke:#fff;stroke-width:1.5px;}.cls-5{fill:#cfd5e2;}.cls-6{fill:#8b9aaf;}.cls-7{stroke:#4b21ff;}.cls-11,.cls-12,.cls-15,.cls-7{stroke-width:2.5px;}.cls-8{fill:#0e0362;}.cls-9{fill:#21219e;}.cls-10{fill:#2303a8;}.cls-11{stroke:#f0f3f7;}.cls-11,.cls-12{stroke-linecap:round;}.cls-12{stroke:#21219e;}.cls-13{fill:#bac4d6;}.cls-14{fill:#f0f3f7;}</style> </defs> <title>Ресурс 10</title> <g id="Слой_2" data-name="Слой 2"> <g id="Слой_1-2" data-name="Слой 1"> <path class="cls-1" d="M439.48,102.7C439.48,43.17,396.9,0,338.11,0,287.61,0,264.4,32,232,39.88,125.37,65.85,26.57,139,26.57,252.23c0,29.78-.93,105.65,17.48,148.85C83.43,493.5,164.53,465,294.35,499,398,526.14,474.18,373.48,465.64,256,462.94,218.93,439.48,151.72,439.48,102.7Z"></path> <rect class="cls-2" x="305.92" y="17.61" width="180.41" height="83.19" rx="12.77" ry="12.77"></rect> <rect class="cls-1" x="345.84" y="32.94" width="35.06" height="2.57"></rect> <rect class="cls-1" x="345.84" y="37.93" width="21.41" height="2.41"></rect> <rect class="cls-1" x="375.87" y="37.93" width="67.34" height="2.43"></rect> <rect class="cls-1" x="356.97" y="42.91" width="29.43" height="2.55"></rect> <rect class="cls-1" x="366.41" y="47.89" width="35.06" height="2.57"></rect> <rect class="cls-1" x="403.77" y="47.89" width="29.39" height="2.86"></rect> <rect class="cls-1" x="328.26" y="30.64" width="2.41" height="57.12"></rect> <rect class="cls-1" x="345.84" y="59.59" width="35.06" height="2.57"></rect> <rect class="cls-1" x="345.84" y="64.58" width="21.41" height="2.41"></rect> <rect class="cls-1" x="375.87" y="64.58" width="67.34" height="2.43"></rect> <rect class="cls-1" x="345.84" y="72.97" width="45.63" height="2.43"></rect> <rect class="cls-1" x="345.76" y="82.7" width="26.72" height="2.43"></rect> <polygon class="cls-2" points="305.92 117.94 305.92 87.72 331.47 87.72 305.92 117.94"></polygon> <polyline class="cls-3" points="462.71 230.02 467.14 225.67 462.92 221.53"></polyline> <polyline class="cls-3" points="449.82 221.53 445.39 225.88 449.61 230.02"></polyline> <line class="cls-3" x1="459.52" y1="218.35" x2="453.44" y2="233.24"></line> <rect class="cls-3" x="436.99" y="200.53" width="36.99" height="50.82" transform="translate(910.96 451.88) rotate(180)"></rect> <rect class="cls-3" x="436.99" y="174.62" width="36.99" height="15.03" transform="translate(910.96 364.26) rotate(180)"></rect> <rect class="cls-3" x="396.46" y="202.25" width="20.35" height="20.55" transform="translate(813.27 425.05) rotate(180)"></rect> <rect class="cls-3" x="396.46" y="173.28" width="20.35" height="20.55" transform="translate(813.27 367.11) rotate(180)"></rect> <line class="cls-3" x1="426.22" y1="212.53" x2="416.81" y2="212.53"></line> <line class="cls-3" x1="426.22" y1="182.86" x2="416.81" y2="182.86"></line> <line class="cls-3" x1="436.31" y1="182.86" x2="426.9" y2="182.86"></line> <polyline class="cls-3" points="426.22 182.86 426.22 241.06 436.99 241.06"></polyline> <line class="cls-3" x1="410.42" y1="215.22" x2="402.85" y2="215.22"></line> <line class="cls-3" x1="410.42" y1="209.4" x2="406.56" y2="209.4"></line> <line class="cls-3" x1="410.42" y1="186.9" x2="402.85" y2="186.9"></line> <line class="cls-3" x1="465.8" y1="182.13" x2="458.22" y2="182.13"></line> <line class="cls-3" x1="410.42" y1="181.08" x2="406.56" y2="181.08"></line> <rect class="cls-2" y="129.92" width="153.69" height="89.65" rx="10.39" ry="10.39"></rect> <polyline class="cls-4" points="26.1 165.35 23.08 168.3 25.95 171.12"></polyline> <polyline class="cls-4" points="34.87 171.12 37.88 168.16 35.01 165.35"></polyline> <line class="cls-4" x1="28.27" y1="173.29" x2="32.41" y2="163.16"></line> <rect class="cls-4" x="18.44" y="150.84" width="25.16" height="34.57"></rect> <rect class="cls-4" x="18.44" y="192.81" width="25.16" height="10.22"></rect> <rect class="cls-4" x="57.32" y="170.26" width="13.84" height="13.98"></rect> <rect class="cls-4" x="115.3" y="189.96" width="13.84" height="13.98"></rect> <rect class="cls-4" x="57.32" y="150.61" width="13.84" height="13.98"></rect> <line class="cls-4" x1="43.6" y1="157.83" x2="50.92" y2="157.83"></line> <line class="cls-4" x1="50.92" y1="177.24" x2="57.32" y2="177.24"></line> <line class="cls-4" x1="71.89" y1="177.24" x2="80.35" y2="177.24"></line> <line class="cls-4" x1="94.19" y1="157.83" x2="102.14" y2="157.83"></line> <line class="cls-4" x1="50.92" y1="157.83" x2="57.32" y2="157.83"></line> <line class="cls-4" x1="50.46" y1="197.42" x2="115.3" y2="197.42"></line> <line class="cls-4" x1="44.05" y1="197.42" x2="50.46" y2="197.42"></line> <line class="cls-4" x1="50.92" y1="197.42" x2="50.92" y2="157.83"></line> <line class="cls-4" x1="61.67" y1="155.33" x2="66.82" y2="155.33"></line> <line class="cls-4" x1="61.67" y1="159.29" x2="64.29" y2="159.29"></line> <rect class="cls-4" x="79.09" y="150.61" width="13.84" height="13.98"></rect> <line class="cls-4" x1="83.43" y1="155.33" x2="88.58" y2="155.33"></line> <line class="cls-4" x1="83.43" y1="159.29" x2="86.06" y2="159.29"></line> <rect class="cls-4" x="102.14" y="150.61" width="27.04" height="25.78"></rect> <line class="cls-4" x1="106.56" y1="155.33" x2="125.25" y2="155.33"></line> <line class="cls-4" x1="106.56" y1="159.29" x2="121.51" y2="159.29"></line> <line class="cls-4" x1="106.56" y1="163.5" x2="112.41" y2="163.5"></line> <line class="cls-4" x1="61.67" y1="175.41" x2="66.82" y2="175.41"></line> <line class="cls-4" x1="61.67" y1="179.37" x2="64.29" y2="179.37"></line> <rect class="cls-4" x="80.35" y="170.26" width="13.84" height="13.98"></rect> <line class="cls-4" x1="84.7" y1="175.41" x2="89.85" y2="175.41"></line> <line class="cls-4" x1="84.7" y1="179.37" x2="87.32" y2="179.37"></line> <line class="cls-4" x1="119.64" y1="194.68" x2="124.79" y2="194.68"></line> <line class="cls-4" x1="24" y1="197.92" x2="29.15" y2="197.92"></line> <line class="cls-4" x1="119.64" y1="198.64" x2="122.27" y2="198.64"></line> <rect class="cls-5" x="127.96" y="47.98" width="100.79" height="46.48" rx="7.13" ry="7.13"></rect> <polygon class="cls-5" points="228.75 104.03 228.75 87.14 214.47 87.14 228.75 104.03"></polygon> <rect class="cls-6" x="136.99" y="58.9" width="24.85" height="1.82"></rect> <rect class="cls-6" x="136.99" y="62.44" width="15.17" height="1.71"></rect> <rect class="cls-6" x="158.28" y="62.44" width="47.73" height="1.72"></rect> <rect class="cls-6" x="144.88" y="65.97" width="20.86" height="1.81"></rect> <rect class="cls-6" x="151.57" y="69.5" width="24.85" height="1.82"></rect> <rect class="cls-6" x="178.05" y="69.5" width="20.83" height="2.03"></rect> <rect class="cls-6" x="151.54" y="73.02" width="19.19" height="1.71"></rect> <rect class="cls-6" x="172.57" y="73.02" width="39.6" height="1.9"></rect> <rect class="cls-6" x="136.99" y="77.79" width="24.85" height="1.82"></rect> <rect class="cls-6" x="136.99" y="81.32" width="15.17" height="1.71"></rect> <rect class="cls-6" x="158.28" y="81.32" width="47.73" height="1.72"></rect> <rect class="cls-5" x="43.69" y="244.57" width="116.75" height="54.82" rx="5.1" ry="5.1"></rect> <rect class="cls-6" x="64.85" y="255.35" width="27.4" height="2.01"></rect> <rect class="cls-6" x="64.85" y="259.25" width="16.73" height="1.89"></rect> <rect class="cls-6" x="88.32" y="259.25" width="52.63" height="1.9"></rect> <rect class="cls-6" x="73.55" y="263.14" width="23" height="2"></rect> <rect class="cls-6" x="80.93" y="267.04" width="27.4" height="2.01"></rect> <rect class="cls-6" x="110.13" y="267.04" width="22.97" height="2.24"></rect> <rect class="cls-6" x="80.89" y="270.92" width="21.17" height="1.89"></rect> <rect class="cls-6" x="104.08" y="270.92" width="43.67" height="2.09"></rect> <rect class="cls-6" x="64.85" y="276.18" width="27.4" height="2.01"></rect> <rect class="cls-6" x="64.85" y="280.08" width="16.73" height="1.89"></rect> <rect class="cls-6" x="88.32" y="280.08" width="52.63" height="1.9"></rect> <polyline class="cls-7" points="348.9 144.62 338.11 155.4 348.39 165.68"></polyline> <polyline class="cls-7" points="380.27 165.68 391.05 154.89 380.78 144.62"></polyline> <line class="cls-7" x1="356.67" y1="173.58" x2="371.47" y2="136.63"></line> <path class="cls-2" d="M336.77,268.29,252,246.06l-84.74,22.22a45.31,45.31,0,0,0-33.82,43.83v100.5c11.75.83,237.13.92,237.13.92V312.12A45.31,45.31,0,0,0,336.77,268.29Z"></path> <path class="cls-8" d="M272.56,384.79s-9.29,20.26-22.12,20.26c-12.64,0-21-20.26-21-20.26L215,256.52h72.56Z"></path> <path class="cls-9" d="M276.42,284.23a64.4,64.4,0,0,1-27,5.84c-15.43,0-25.68-5.84-25.68-5.84l-11.19-27.7h75Z"></path> <path class="cls-2" d="M169.47,251.89c1.45-4,2.89-8,4.36-12q4.7-12.75,9.42-25.49L193.4,187c.74-2,1.51-4,2.19-6a6.92,6.92,0,0,0,.34-2.1c.07-4.39-.15-8.8.17-13.17a49,49,0,0,1,31.76-42.19A50,50,0,0,1,242,120.63a2.3,2.3,0,0,0,1.29-.51,6.87,6.87,0,0,1,4.83-1.84c1.44,0,2.89,0,4.33,0A6.9,6.9,0,0,1,257,120a2.71,2.71,0,0,0,1.45.6A48.88,48.88,0,0,1,302,154.49,49.44,49.44,0,0,1,304.38,170c0,2.07.12,4.14,0,6.19a18.92,18.92,0,0,0,1.53,8.19c3.33,8.81,6.56,17.66,9.83,26.5q5.26,14.22,10.52,28.44c1.68,4.54,3.32,9.09,5,13.63-.36.19-.72.53-1.08.54-2.23.05-4.46,0-6.69,0a1.49,1.49,0,0,1-1.62-1.09c-1.46-3.68-2.95-7.36-4.44-11q-3.72-9.2-7.46-18.4-3.22-8-6.43-15.95c-1.37-3.4-2.78-6.78-4.12-10.2-2.23-5.69-4.68-11.25-8.84-15.87a24,24,0,0,0-9.42-6.57,27.75,27.75,0,0,0-12-1.72,22,22,0,0,0-5.44,1.15,22.66,22.66,0,0,0-8.3,5.64,2.81,2.81,0,0,1-1.67.8c-2.42.09-4.85.05-7.28,0a2,2,0,0,1-1.15-.39c-.85-.71-1.62-1.53-2.46-2.26A20.3,20.3,0,0,0,234,173a25.15,25.15,0,0,0-8.41-.16A24.12,24.12,0,0,0,210,180.71a43.83,43.83,0,0,0-8,13.45c-1.9,4.64-3.73,9.3-5.61,13.95-3.15,7.77-6.34,15.52-9.49,23.29q-4.26,10.52-8.46,21.06a1.35,1.35,0,0,1-1.45,1c-2.26,0-4.52,0-6.79,0a8.4,8.4,0,0,1-.94-.11Z"></path> <path class="cls-8" d="M168.75,253.7l.72-1.81-.23,1.47a8.4,8.4,0,0,0,.94.11c2.26,0,4.52,0,6.79,0a1.35,1.35,0,0,0,1.45-1q4.2-10.54,8.46-21.06c3.15-7.77,6.33-15.52,9.49-23.29,1.88-4.64,3.71-9.31,5.61-13.95a43.83,43.83,0,0,1,8-13.45,24.12,24.12,0,0,1,15.62-7.86A25.15,25.15,0,0,1,234,173a20.3,20.3,0,0,1,8.88,4.62c.84.73,1.6,1.55,2.46,2.26a2,2,0,0,0,1.15.39c2.43,0,4.85.07,7.28,0a2.81,2.81,0,0,0,1.67-.8,22.66,22.66,0,0,1,8.3-5.64,22,22,0,0,1,5.44-1.15,27.75,27.75,0,0,1,12,1.72,24,24,0,0,1,9.42,6.57c4.17,4.62,6.61,10.18,8.84,15.87,1.34,3.41,2.75,6.8,4.12,10.2q3.22,8,6.43,15.95,3.72,9.2,7.46,18.4c1.49,3.67,3,7.34,4.44,11a1.49,1.49,0,0,0,1.62,1.09c2.23,0,4.46,0,6.69,0,.36,0,.72-.35,1.08-.54.44.76,0,.81-.62.81h-7.77"></path> <path class="cls-2" d="M245.57,209.82a9.07,9.07,0,0,1,16.15,0,9.78,9.78,0,0,1,1,4.76,3.58,3.58,0,0,0,.8,2.45c1.87,2.6,3.71,5.24,5.55,7.86l10.79,15.34c.25.36.56.67.94,1.14l3.75-6.63q4.6-8.17,9.19-16.35c1.55-2.77,3.07-5.55,4.61-8.33.09.28.29.57.25.83-.44,2.95-.92,5.89-1.4,8.83-.95,5.88-1.88,11.77-2.84,17.64-.69,4.23-1.4,8.46-2.17,12.68a2.53,2.53,0,0,0,.95,2.8,16.2,16.2,0,0,1,2.29,3c.12.15.25.29.38.44a9.26,9.26,0,0,1-3.57,11.61,8.94,8.94,0,0,1-11.91-2.37,1.82,1.82,0,0,0-1.7-.85q-25,0-50,0a1.83,1.83,0,0,0-1.7.87,9,9,0,0,1-9.59,3.36,9.16,9.16,0,0,1-6.6-7.76,8.23,8.23,0,0,1,.75-4.86,10.88,10.88,0,0,1,3.43-4.18,1.49,1.49,0,0,0,.21-1.16c-.71-4.49-1.46-9-2.19-13.45q-2-12.07-3.93-24.14c-.16-1-.33-1.94-.47-2.91,0-.11.14-.25.21-.37,1.58,2.76,3.17,5.5,4.73,8.27q6.32,11.21,12.61,22.43a3.65,3.65,0,0,0,.49.54c.25-.32.46-.56.65-.82q8.31-11.81,16.62-23.61a3.39,3.39,0,0,0,.7-2.27A8.87,8.87,0,0,1,245.57,209.82Zm3.54,31.79q0,6.2,0,12.39c0,1.45,0,1.46,1.5,1.46h6.1c1.37,0,1.46-.09,1.46-1.44q0-12.39,0-24.79c0-1.28-.18-1.47-1.48-1.48-2.1,0-4.2,0-6.3,0-1.22,0-1.28.06-1.29,1.28Q249.1,235.31,249.11,241.61Zm13.77-10-.21.12c-.05,1.13-.14,2.27-.14,3.4q0,8.9,0,17.8c0,.49.07,1,0,1.47,0,.85.32,1.14,1.16,1.12,2.29,0,4.59,0,6.88,0,.85,0,1.16-.29,1.15-1.14,0-3.21,0-6.42,0-9.64a3.1,3.1,0,0,0-.54-1.62c-2.05-3-4.15-5.88-6.25-8.81C264.26,233.34,263.56,232.46,262.87,231.56Zm-18.32.21-.34-.21a2.33,2.33,0,0,1-.2.46c-2.7,3.75-5.42,7.48-8.1,11.25a2.37,2.37,0,0,0-.36,1.29c0,3.25,0,6.49,0,9.74,0,.92.39,1.19,1.25,1.18,2.07,0,4.13,0,6.2,0,1.58,0,1.62,0,1.62-1.58q0-10.57,0-21.15C244.59,232.41,244.57,232.09,244.55,231.77Zm9-13c1.31,0,2.62,0,3.93,0,.54,0,.76-.19.75-.75,0-1.37,0-2.75,0-4.12a4.58,4.58,0,0,0-4.82-4.4,4.52,4.52,0,0,0-4.29,4.6c0,1.31,0,2.62,0,3.93,0,.55.18.76.74.74C251.05,218.71,252.29,218.73,253.54,218.73Zm-29.25,41.18a4.52,4.52,0,0,0-4.5-4.59,4.65,4.65,0,0,0-4.64,4.62,4.72,4.72,0,0,0,4.62,4.66A4.58,4.58,0,0,0,224.29,259.91Zm67.76,0a4.55,4.55,0,1,0-9.11.07,4.56,4.56,0,1,0,9.11-.07Z"></path> <path class="cls-2" d="M275.85,206c-4.16,0-8.32,0-12.48,0a7.53,7.53,0,0,1-4.2-1.17,2.09,2.09,0,0,1-1-1.89c0-2.95-.18-5.91.05-8.84a10.26,10.26,0,0,1,6.4-9.18c8-3.39,15.64-2.22,22.84,2.34,4.56,2.89,6.36,7.43,6.88,12.54a5.74,5.74,0,0,1-5.79,6.2C284.31,206,280.08,206,275.85,206Z"></path> <path class="cls-2" d="M231.28,206H219.09c-4,0-6.63-2.88-6.13-6.81a16.11,16.11,0,0,1,10.19-13.84A24.65,24.65,0,0,1,234.2,183a18.38,18.38,0,0,1,9.94,2.66,10.57,10.57,0,0,1,4.94,8.53c.17,2.87,0,5.77,0,8.65a2.09,2.09,0,0,1-1.07,2,7.92,7.92,0,0,1-4.2,1.19H231.28Z"></path> <path class="cls-10" d="M245.57,209.82a8.87,8.87,0,0,0-1,4.75,3.39,3.39,0,0,1-.7,2.27q-8.34,11.79-16.62,23.61c-.18.26-.4.5-.65.82a3.65,3.65,0,0,1-.49-.54q-6.31-11.21-12.61-22.43c-1.56-2.77-3.15-5.51-4.73-8.27.15-.76.76-.59,1.26-.6h15.52c6.19,0,12.38,0,18.57,0A6.12,6.12,0,0,1,245.57,209.82Z"></path> <path class="cls-10" d="M298.32,210c-1.53,2.78-3.06,5.56-4.61,8.33q-4.58,8.18-9.19,16.35l-3.75,6.63c-.39-.46-.69-.78-.94-1.14L269,224.88c-1.84-2.62-3.68-5.26-5.55-7.86a3.58,3.58,0,0,1-.8-2.45,9.78,9.78,0,0,0-1-4.76,3.46,3.46,0,0,1,1-.36q17.33,0,34.65,0C297.79,209.44,298.45,209.2,298.32,210Z"></path> <path class="cls-8" d="M249.11,241.61q0-6.3,0-12.59c0-1.22.06-1.27,1.29-1.28,2.1,0,4.2,0,6.3,0,1.3,0,1.48.2,1.48,1.48q0,12.39,0,24.79c0,1.36-.09,1.44-1.46,1.44h-6.1c-1.49,0-1.5,0-1.5-1.46Q249.1,247.8,249.11,241.61Z"></path> <path class="cls-8" d="M262.87,231.56c.68.9,1.39,1.78,2,2.7,2.1,2.93,4.2,5.85,6.25,8.81a3.1,3.1,0,0,1,.54,1.62c0,3.21,0,6.42,0,9.64,0,.86-.3,1.16-1.15,1.14-2.29,0-4.59,0-6.88,0-.85,0-1.21-.28-1.16-1.12,0-.49,0-1,0-1.47q0-8.9,0-17.8c0-1.13.09-2.27.14-3.4Z"></path> <path class="cls-8" d="M244.55,231.77c0,.32,0,.64,0,1q0,10.57,0,21.15c0,1.54,0,1.58-1.62,1.58-2.07,0-4.13,0-6.2,0-.86,0-1.26-.26-1.25-1.18,0-3.25,0-6.49,0-9.74a2.37,2.37,0,0,1,.36-1.29c2.68-3.76,5.4-7.5,8.1-11.25a2.33,2.33,0,0,0,.2-.46Z"></path> <path class="cls-8" d="M253.54,218.73c-1.24,0-2.49,0-3.73,0-.55,0-.75-.19-.74-.74,0-1.31,0-2.62,0-3.93a4.52,4.52,0,0,1,4.29-4.6,4.58,4.58,0,0,1,4.82,4.4c.06,1.37,0,2.75,0,4.12,0,.56-.21.76-.75.75C256.16,218.72,254.85,218.73,253.54,218.73Z"></path> <path class="cls-8" d="M224.29,259.91a4.58,4.58,0,0,1-4.52,4.69,4.72,4.72,0,0,1-4.62-4.66,4.65,4.65,0,0,1,4.64-4.62A4.52,4.52,0,0,1,224.29,259.91Z"></path> <path class="cls-8" d="M292,259.89a4.56,4.56,0,1,1-9.11.07,4.55,4.55,0,1,1,9.11-.07Z"></path> <path class="cls-11" d="M212.91,259.6a6.19,6.19,0,0,1,6.19-6.15"></path> <path class="cls-11" d="M280.72,259.6a6.19,6.19,0,0,1,6.19-6.15"></path> <line class="cls-12" x1="221.45" y1="307.76" x2="224.39" y2="285.35"></line> <line class="cls-12" x1="279.77" y1="308.76" x2="275.63" y2="284.45"></line> <line class="cls-12" x1="235.22" y1="327.31" x2="237.15" y2="288.22"></line> <line class="cls-12" x1="249.74" y1="328.3" x2="250.55" y2="289.22"></line> <line class="cls-12" x1="265.72" y1="327.56" x2="263.08" y2="289.28"></line> <path class="cls-8" d="M240.06,367l-53.87,4.49a12.43,12.43,0,0,1-14.07-12.32l.77-24S173.23,351,184,360.62C195.53,370.92,240.06,367,240.06,367Z"></path> <path class="cls-5" d="M388.47,413.45H209.37l10.37-79.87a12.63,12.63,0,0,1,12.63-12.62h162.5a12.62,12.62,0,0,1,12.63,12.63Z"></path> <rect class="cls-5" x="182.9" y="403.29" width="39.86" height="9.32" rx="4.66" ry="4.66"></rect> <path class="cls-2" d="M325.16,365.66a6.59,6.59,0,0,0-1.21-3,5.78,5.78,0,0,0-2.38-2,7.44,7.44,0,0,0-3.24-.68c-3.69,0-6.94,2.73-10,5.78l-.07.07-.15.15-2.93,3a37,37,0,0,1-3.91,3.58,7.18,7.18,0,0,1-3.83,1.73,4.55,4.55,0,0,1-1.87-.39,3.7,3.7,0,0,1-1.38-1.15,3.52,3.52,0,0,1-.68-1.68,5.5,5.5,0,0,1,.09-2,6.88,6.88,0,0,1,2.39-3.71,6.47,6.47,0,0,1,4-1.54h0a5.29,5.29,0,0,1,1.91.34l-.54.5c-1.31,1.23-1.58,3.07-.6,4.08l.45.47,6.09-5.83a6.61,6.61,0,0,0-1.82-2.1,7.77,7.77,0,0,0-5.19-1.32,11.57,11.57,0,0,0-6.44,2.83,12.09,12.09,0,0,0-3.87,6,9,9,0,0,0-.18,3.46,6.59,6.59,0,0,0,1.21,3,5.78,5.78,0,0,0,2.38,2,7.44,7.44,0,0,0,3.24.68c3.69,0,6.94-2.73,10-5.78l.07-.07.15-.15,2.93-3a37,37,0,0,1,3.91-3.58,7.18,7.18,0,0,1,3.83-1.73,4.55,4.55,0,0,1,1.87.39,3.7,3.7,0,0,1,1.38,1.15,3.52,3.52,0,0,1,.68,1.68,5.5,5.5,0,0,1-.09,2,6.88,6.88,0,0,1-2.39,3.71,6.77,6.77,0,0,1-3.05,1.46,6.9,6.9,0,0,1-1.23.12,4.77,4.77,0,0,1-4.27-2.27l-2.7,2.58a6.61,6.61,0,0,0,1.82,2.1,7.84,7.84,0,0,0,5.22,1.32,10.83,10.83,0,0,0,4.9-1.71,1.76,1.76,0,0,0,1.84,1.73H323l2-8.62A12,12,0,0,0,325.16,365.66Z"></path> <path class="cls-7" d="M414.52,287.85c-10.1,0-16,5.93-16,16,0-10.1-5.93-16-16-16,10.1,0,16-5.93,16-16C398.5,281.92,404.43,287.85,414.52,287.85Z"></path> <path class="cls-7" d="M77.57,327.41c-7.2,0-11.42,4.22-11.42,11.42,0-7.2-4.22-11.42-11.42-11.42,7.2,0,11.42-4.22,11.42-11.42C66.15,323.18,70.37,327.41,77.57,327.41Z"></path> <path class="cls-5" d="M121.38,448.57c37.27-4,26.24,20.85,102.27,20.85,48.78,0,79-34.08,145.27-34.08,23.35,0,42.78-4.47,60-22.72H53.35C68.44,431.35,78.83,453.18,121.38,448.57Z"></path> <path class="cls-13" d="M129.23,434.57c37.27-4,32.15,34.85,92.22,34.85,45,0,47-37.15,113.43-30.9,59.39,5.59,76.42-2.79,94-25.9H53.35C68.44,431.35,86.68,439.18,129.23,434.57Z"></path> <path class="cls-11" d="M207.3,157.63a41.54,41.54,0,0,1,26.3-27.15"></path> <path class="cls-11" d="M218.21,199.14a15,15,0,0,1,14.52-11.22"></path> <path class="cls-11" d="M141.34,304.09c3.55-16.13,16-28,30.79-28"></path> <path class="cls-11" d="M262.51,194.71a10.51,10.51,0,0,1,10.17-7.86"></path> <line class="cls-11" x1="229.65" y1="242.58" x2="244.6" y2="221"></line> <line class="cls-11" x1="176.77" y1="239.83" x2="195.13" y2="193.96"></line> <path class="cls-12" d="M225.44,284.45"></path> <path class="cls-12" d="M221.72,329.32"></path> <path class="cls-12" d="M276.69,283.56"></path> <path class="cls-12" d="M280.52,325"></path> <path class="cls-12" d="M238.21,287.32"></path> <path class="cls-12" d="M236.27,326.41"></path> <path class="cls-12" d="M251.61,288.32"></path> <path class="cls-12" d="M250.8,327.41"></path> <path class="cls-12" d="M264.13,288.39"></path> <path class="cls-12" d="M266.77,326.66"></path> <path class="cls-11" d="M226.47,338.31a12.62,12.62,0,0,1,12.63-12.62"></path> <path class="cls-2" d="M75.4,412.56h26.89c12-4.9,13.69-17,13.79-28.36a1.14,1.14,0,0,0-1.14-1.14H62.75a1.14,1.14,0,0,0-1.14,1.14c.1,11.39,1.81,23.46,13.79,28.36Z"></path> <path class="cls-5" d="M88.84,375.13a1.13,1.13,0,0,1-.81-.34,7.73,7.73,0,0,1-2.6-5.5,7.38,7.38,0,0,1,2.62-5.2A5.16,5.16,0,0,0,90,360.47a5.41,5.41,0,0,0-2-3.82A1.14,1.14,0,0,1,89.64,355a7.56,7.56,0,0,1,2.64,5.47,7.29,7.29,0,0,1-2.66,5.25,5.23,5.23,0,0,0-1.91,3.58,5.6,5.6,0,0,0,1.94,3.87,1.13,1.13,0,0,1-.81,1.93"></path> <path class="cls-5" d="M101.3,375.13a1.13,1.13,0,0,1-.81-.34,7.73,7.73,0,0,1-2.6-5.5,7.38,7.38,0,0,1,2.62-5.2,5.19,5.19,0,0,0,2-3.64,5.38,5.38,0,0,0-1.94-3.8,1.14,1.14,0,0,1,1.59-1.63,7.53,7.53,0,0,1,2.62,5.46,7.32,7.32,0,0,1-2.67,5.27,5.23,5.23,0,0,0-1.91,3.58,5.6,5.6,0,0,0,1.94,3.87,1.13,1.13,0,0,1-.81,1.93"></path> <path class="cls-5" d="M77.47,375.13a1.13,1.13,0,0,1-.81-.34,7.73,7.73,0,0,1-2.6-5.5,7.38,7.38,0,0,1,2.62-5.2,5.19,5.19,0,0,0,2-3.64,5.38,5.38,0,0,0-1.94-3.8A1.14,1.14,0,0,1,78.29,355a7.53,7.53,0,0,1,2.62,5.46,7.32,7.32,0,0,1-2.67,5.27,5.23,5.23,0,0,0-1.91,3.58,5.6,5.6,0,0,0,1.94,3.87,1.13,1.13,0,0,1-.81,1.93"></path> <path class="cls-14" d="M82,410.3l-.19,0c-9-1.53-13.84-6.71-15.68-16.8a1.13,1.13,0,0,1,2.23-.41c1.66,9.13,5.8,13.61,13.83,15A1.13,1.13,0,0,1,82,410.3"></path> <path class="cls-5" d="M104.73,391a1.13,1.13,0,0,1-1.13-1.13v-6.79a1.13,1.13,0,1,1,2.27,0v6.79a1.13,1.13,0,0,1-1.13,1.13"></path> <polygon class="cls-5" points="108.12 398.99 101.31 398.99 101.31 389.91 104.73 387.62 108.13 389.91 108.12 398.99"></polygon> <path class="cls-2" d="M116.06,385.34c-.14,7.26-1,14.7-4.94,20.29a13.6,13.6,0,0,0,11.77-13.48v-2.92a3.89,3.89,0,0,0-3.89-3.89h-2.94Z"></path> <polyline class="cls-15" points="420.61 344.31 414.52 350.39 420.32 356.19"></polyline> <polyline class="cls-15" points="438.32 356.19 444.41 350.11 438.61 344.31"></polyline> <line class="cls-15" x1="425" y1="360.66" x2="433.35" y2="339.8"></line> </g> </g> </svg> 