<svg xmlns="http://www.w3.org/2000/svg" viewBox="0 0 466.42 465.59"><defs><style>.cls-1{fill:#fff}.cls-2{fill:#cfd5e2}.cls-3{fill:#8b9aaf}.cls-4{fill:#4b21ff}.cls-11,.cls-15{fill:none;stroke-miterlimit:10;stroke-width:2.5px;stroke-linecap:round}.cls-11{stroke:#2303a8}.cls-12{fill:#0e0362}.cls-13{fill:#2303a8}.cls-15{stroke:#ebf0f7}.cls-19{fill:#6b8099}</style></defs><g id="Слой_2" data-name="Слой 2"><g id="Слой_1-2" data-name="Слой 1"><path class="cls-1" d="M59.28 68.81C75.35 32.49 93-4.24 151.58.4c42.65 3.38 59.27 48.1 113.81 58.6 107.74 20.65 187.22 112.77 165.44 223.9-5.73 29.22-24.3 42.3-37.66 73.13-8 18.51-9.06 42.93-26.24 62.67-58.1 66.79-151.41 45.52-188.05 35.93C64.41 424.7-12.67 318.11 10.37 200.51 17.52 164 55.85 76.54 59.28 68.81z"/><path class="cls-2" d="M171.8 26.55H43.31a10.62 10.62 0 00-10.6 10.64v48.07a10.62 10.62 0 0010.6 10.65H171.8a10.62 10.62 0 0010.59-10.65V37.19a10.62 10.62 0 00-10.59-10.64z"/><path class="cls-3" d="M66.4 38.45h30.26v2.23H66.4zm0 4.32h18.47v2.09H66.4zm25.92 0h58.11v2.11H92.32zm-16.31 4.32h25.4v2.21h-25.4zm8.15 4.32h30.26v2.23H84.16zm32.23 0h25.36v2.48h-25.36zM51.24 36.46h2.08V86h-2.08zm15.16 25.1h30.26v2.23H66.4zm0 4.33h18.47v2.09H66.4zm25.92 0h58.11V68H92.32zM66.4 73.17h39.38v2.11H66.4zm-.07 8.44h23.06v2.11H66.33z"/><path class="cls-2" d="M182.39 110.2V85h-21.2l21.2 25.2z"/><rect class="cls-2" x="340.85" y="203.03" width="113.89" height="52.52" rx="8.06" ry="8.06"/><path class="cls-3" d="M351.06 215.38h28.08v2.06h-28.08zm0 3.99h17.14v1.93h-17.14zm24.06 0h53.93v1.95h-53.93zm-15.14 3.99h23.57v2.04h-23.57zm7.56 3.99h28.08v2.06h-28.08zm29.92 0H421v2.29h-23.54zm-29.96 3.98h21.69v1.93H367.5zm23.76 0H436v2.14h-44.74zm-40.2 5.39h28.08v2.06h-28.08zm0 3.99h17.14v1.93h-17.14zm24.06 0h53.93v1.95h-53.93z"/><rect class="cls-4" y="215.18" width="116.75" height="54.82" rx="5.1" ry="5.1"/><path class="cls-1" d="M21.16 225.97h27.4v2.01h-27.4zm0 3.89h16.73v1.89H21.16zm23.48 0h52.63v1.9H44.64zm-14.77 3.9h23v2h-23zm7.37 3.89h27.4v2.01h-27.4zm29.2 0h22.97v2.24H66.44zm-29.23 3.88h21.17v1.89H37.21zm23.18 0h43.67v2.09H60.39zm-39.23 5.27h27.4v2.01h-27.4zm0 3.89h16.73v1.89H21.16zm23.48 0h52.63v1.9H44.64z"/><path d="M72.93 321.61l-9.74 9.74 9.28 9.27m28.78 0l9.73-9.74-9.27-9.27m-21.76 26.15L93.3 314.4M261.21 23.81l-7.32 7.32 6.98 6.98m21.64 0l7.32-7.32-6.97-6.98m-16.37 19.67l10.05-25.09" stroke-width="2.5" stroke="#8b9aaf" fill="none" stroke-miterlimit="10"/><path d="M128.53 179.4c-11.62 0-18.45 6.82-18.45 18.45 0-11.62-6.82-18.45-18.45-18.45 11.62 0 18.45-6.82 18.45-18.45 0 11.63 6.82 18.45 18.45 18.45zM397.8 291.39c-7.2 0-11.42 4.22-11.42 11.42 0-7.2-4.22-11.42-11.42-11.42 7.2 0 11.42-4.22 11.42-11.42 0 7.19 4.22 11.42 11.42 11.42z" stroke="#4b21ff" stroke-width="2.5" fill="none" stroke-miterlimit="10"/><path class="cls-2" d="M134.46 423.15c30.09-4 21.12 20.91 82.48 21.08 39.37.11 63.81-33.9 117.33-33.75 18.85.05 34.54-4.38 48.48-22.59l-303.09-.84c12.12 18.77 20.45 40.62 54.8 36.1z"/><path d="M127.25 409.13c30.59-4 26.28 34.92 75.56 35.06 36.91.1 38.64-37 93.15-30.64 48.71 5.72 62.7-2.61 77.22-25.69L65.05 387c12.33 18.78 27.28 26.65 62.2 22.13z" fill="#bac4d6"/><path d="M207.62 174a15 15 0 0114.52-11.22m29.78 6.81a10.51 10.51 0 0110.17-7.86m-43.03 55.73L234 195.88M215.88 313.2a12.62 12.62 0 0112.63-12.62" stroke-linecap="round" stroke="#f0f3f7" stroke-width="2.5" fill="none" stroke-miterlimit="10"/><path stroke-width="5.67" stroke="#2303a8" stroke-linecap="round" fill="none" stroke-miterlimit="10" d="M239.48 125.46V94.27"/><path class="cls-11" d="M239.61 125.88V55.52m-22.64 71.31v-19.08"/><circle class="cls-4" cx="225.42" cy="291.97" r="96.71"/><path class="cls-4" d="M297.22 183.73c.14-33.26-31.62-60.36-70.92-60.52s-71.3 26.67-71.43 59.93a51.32 51.32 0 001 10.09L170 207.11l113.44.47L296 194.37a51.31 51.31 0 001.22-10.64z"/><circle class="cls-12" cx="240.03" cy="159.88" r="19.52" transform="rotate(-89.76 240.038 159.874)"/><circle class="cls-12" cx="270.08" cy="177.78" r="5.52" transform="rotate(-89.76 270.093 177.784)"/><circle class="cls-12" cx="240.03" cy="186.31" r="3.01" transform="rotate(-89.76 240.038 186.314)"/><circle class="cls-13" cx="254.76" cy="284.41" r="5.52" transform="rotate(-90 253.64 284.35)"/><circle class="cls-13" cx="161.51" cy="300.77" r="5.52" transform="rotate(-90 160.545 300.475)"/><path d="M198.21 277.02l5.62 37.93m98.28-4.57l-30.84 27.67m11.53-99.39l-35.39-9.67" stroke="#0e0362" stroke-linecap="round" stroke-width="2.5" fill="none" stroke-miterlimit="10"/><circle class="cls-1" cx="249.73" cy="156.24" r="3.59" transform="rotate(-89.76 249.736 156.241)"/><path class="cls-15" d="M262.4 176.94a7.12 7.12 0 017.15-7.09m-44.64-9.97a14.51 14.51 0 0114.57-14.45"/><path class="cls-11" d="M157.57 193.23h136.75m-106.24-59.15h76.19m-94.28 72.27h113.5"/><path class="cls-12" d="M225.6 334.1h-9.8l-1.27-19.13h12.34l-1.27 19.13zm-9.8 44.34h9.8l1.27 9.19h-12.34l1.27-9.19zm-25.19-25.78v7.22l-25.96.93v-9.09l25.96.94zm60.18 7.22v-7.22l25.95-.94v9.09l-25.95-.93z"/><path class="cls-13" d="M220.7 314.37c-31.4 0-56.85 18.76-56.85 41.89a31.84 31.84 0 002.46 12.21 96.62 96.62 0 00102.79 9.77c5.36-6.39 8.46-13.92 8.46-22-.01-23.11-25.46-41.87-56.86-41.87zm0 72.51c-22.94 0-41.54-13.71-41.54-30.61s18.6-30.61 41.54-30.61 41.54 13.71 41.54 30.61-18.6 30.61-41.54 30.61z"/><ellipse class="cls-13" cx="220.7" cy="356.27" rx="19.71" ry="14.52"/><path class="cls-13" d="M255.07 365.12l-9.34-2.41c-2.59 5.55-8.44 10-15.86 12.06l3.4 6.85c10.2-2.83 18.23-8.9 21.8-16.5z"/><path class="cls-12" d="M189.29 208.82c-2.2.14-4.42.29-6.61.21l.91 2.4 7.1-2.71zm7.93 46.55l8.75-3.34 7.01 18.51-11.01 4.21-4.75-19.38zm-30.4-16.94l2.22 7.15-22.87 9.79-2.8-9.01 23.45-7.93zm55.92-13.39l-2.22-7.16 22.87-9.79 2.79 9.01-23.44 7.94z"/><path class="cls-13" d="M212.37 225c2.47 7.95-3.41 17.4-13.12 21.12s-19.59.29-22.05-7.66 3.41-17.4 13.12-21.12 19.58-.28 22.05 7.66zm15.8 3.76l-9.08.81c-.61 6.38-4.46 12.77-10.44 17.36l5.14 5.63c8.21-6.28 13.54-15.04 14.38-23.8z"/><path class="cls-13" d="M243.3 206.89c-6.08-.15-12.16-.26-18.24-.2a25.16 25.16 0 016.79 10.87c5.2 16.75-7.18 36.68-27.66 44.51s-37.61-1.42-47.61-10.86c-5-4.71-9.24-12.18-9-16.52-2.67 4.25-6 8-9.45 15.67.05 3.46 26.05 37.07 69.56 22.88 28.52-9.3 45-38 37.85-60.92a34.65 34.65 0 00-2.24-5.43zm76.47 106.45c-9.33-5.12-17.65-20.35-23-41.78-4.91-19.69-6.2-34.58-2.38-47.37-3.34-2.51-5.82-6.41-9.48-8.46-3.19 17.11-1.84 36.77 3.94 60 6.28 25.21 14.94 44 25.87 53.44a126.36 126.36 0 005.05-15.83z"/><path class="cls-12" d="M301.1 262.03l3.2 12.83-13.01 8.71-4.03-16.15 13.84-5.39z"/><path class="cls-13" d="M307.53 240.84c-2.11 6-1.9 15 .54 24.78 3.3 13.23 10.43 21.39 13.92 21 .01-12.48-5.42-31.98-14.46-45.78zm13.27 67.21c.79-3.44 1.26-12.45 1.26-12.45-4.74-1.35-9.92-7.55-13.8-16.5l-3.7 7c4.96 11.44 10.14 19.41 16.24 21.95z"/><path class="cls-15" d="M134.66 292a88.06 88.06 0 0126.85-63.42m43.09-94.5c-21.39 7.46-36.47 25.23-36.56 46"/><path fill="#6675ff" opacity=".28" d="M264.81 176.28L308.5 58.07l157.92 88.35-195.3 36.81-6.31-6.95z"/><circle class="cls-12" cx="270.08" cy="177.78" r="5.52" transform="rotate(-89.76 270.093 177.784)"/><path class="cls-4" d="M229.29 354.69a4.37 4.37 0 00-.93-1.56 4 4 0 00-1.45-1 4.35 4.35 0 00-1.77-.36c-1.93 0-3.37 1.44-4.68 3.05l-.07.08-1.24 1.56a14.64 14.64 0 01-1.69 1.89 3 3 0 01-1.84.91 2.66 2.66 0 01-1-.21 2.56 2.56 0 01-.84-.6 2.33 2.33 0 01-.53-.89 3 3 0 01-.15-1 2.89 2.89 0 01.88-2 2.8 2.8 0 011.95-.81 3 3 0 011 .18l-.23.27a1.53 1.53 0 00.1 2.16l.28.25 2.61-3.08a4.44 4.44 0 00-4-1.8 4.91 4.91 0 00-3.09 1.49 5.07 5.07 0 00-1.42 3.17 4.91 4.91 0 00.26 1.83 4.37 4.37 0 00.93 1.56 4 4 0 001.45 1 4.35 4.35 0 001.77.36c1.93 0 3.37-1.44 4.67-3.05l.07-.08 1.24-1.56a14.64 14.64 0 011.69-1.89 3 3 0 011.84-.91 2.66 2.66 0 011 .21 2.56 2.56 0 01.84.6 2.33 2.33 0 01.53.89 3 3 0 01.15 1 2.89 2.89 0 01-.88 2 2.83 2.83 0 01-1.45.77 3.4 3.4 0 01-.63.06 3.1 3.1 0 01-2.47-1.2l-1.19 1.36a4.45 4.45 0 004 1.8 4.74 4.74 0 002.4-.9 1.17 1.17 0 001.14.91h.76l.2-4.55a6.59 6.59 0 00-.21-1.91z"/><rect class="cls-4" x="306.11" y="57.23" width="153.69" height="89.65" rx="10.39" ry="10.39"/><circle class="cls-1" cx="318.86" cy="66.04" r="1.56"/><circle class="cls-1" cx="325.24" cy="66.04" r="1.56"/><circle class="cls-1" cx="331.62" cy="66.04" r="1.56"/><path d="M315.43 73.73h135.06M317 83.92h43m-35.08 29.9h23.04m68.88 0h14.01m-14.01 6.21h5.05m-96.65-12.71h7.94m37.62 0h7.94m38.1 0h7.94m18.73-23.4h6.39m-11.6 6.19h11.6m-132.02 47.41h8.17m8.37 0h8.17m8.37 0h8.16m8.38 0h8.16m8.38 0h8.16m8.37 0h8.17m8.37 0h8.17M317 90.11h87.9" stroke-width="1.7" stroke="#ebf0f7" fill="none" stroke-miterlimit="10"/><path d="M318.25 100.02h36.38v25.88h-36.38zm46.49 0h36.38v25.88h-36.38zm46.48 0h39.27v25.88h-39.27z" stroke-width="1.7" stroke="#ebf0f7" stroke-linecap="round" fill="none" stroke-miterlimit="10"/><path class="cls-4" d="M159.6 387.3c12.53 4.32 36.57 7.25 64.18 7.25s51.66-2.93 64.18-7.25z"/><g id="Page-1"><g id="_003---Aloe" data-name="003---Aloe"><path id="Shape" class="cls-4" d="M371.21 372.48l-.56-3.37-.41-2.33-.42-2.33-.42-2.33-.62-3.5h1.87v-2.33a2.33 2.33 0 00-2.33-2.33h-39.67a2.33 2.33 0 00-2.33 2.33v2.33h1.91l-.62 3.5-.42 2.33-.42 2.33-.45 2.33-.61 3.39a14 14 0 0013.82 16.44h17.89a14 14 0 0013.78-16.46z"/><path id="Shape-2" data-name="Shape" class="cls-4" d="M328.65 353.94h39.66a2.33 2.33 0 012.33 2.33v2.33h-44.32v-2.33a2.33 2.33 0 012.33-2.33z"/><path id="Shape-3" data-name="Shape" class="cls-2" d="M342.74 330.53a28.09 28.09 0 015.74-9.25 28.09 28.09 0 015.74 9.25l-3.41 23.41h-4.67z"/><path id="Shape-4" data-name="Shape" class="cls-3" d="M337.76 353.94c-4.74-12.83 0-29.16 0-29.16a20.05 20.05 0 015 5.75c5.74 9.58 5.74 23.41 5.74 23.41z"/><path id="Shape-5" data-name="Shape" class="cls-19" d="M342.65 353.94a27.34 27.34 0 00-14.11-22.16s-3.5 11.66 2.33 22.16z"/><path id="Shape-6" data-name="Shape" class="cls-3" d="M359.2 353.94c4.74-12.83 0-29.16 0-29.16a20.05 20.05 0 00-5 5.75c-5.74 9.58-5.74 23.41-5.74 23.41z"/><path id="Shape-7" data-name="Shape" class="cls-19" d="M354.32 353.94a27.34 27.34 0 0114.11-22.16s3.5 11.66-2.33 22.16z"/></g></g></g></g></svg>