<svg xmlns="http://www.w3.org/2000/svg" viewBox="0 0 446.84 452.03"><defs><style>.cls-1{fill:#fff}.cls-15,.cls-2{fill:#4b21ff}.cls-14,.cls-3,.cls-5,.cls-8{fill:none}.cls-3{stroke:#fff}.cls-14,.cls-15,.cls-3,.cls-5,.cls-8{stroke-miterlimit:10}.cls-3,.cls-5,.cls-8{stroke-width:2.5px}.cls-4{fill:#cfd5e2}.cls-5{stroke:#8b9aaf}.cls-14,.cls-15,.cls-8{stroke-linecap:round}.cls-8{stroke:#ebf0f7}.cls-9{fill:#2303a8}.cls-12{fill:#0e0362}.cls-13{fill:#ebf0f7}.cls-14,.cls-15{stroke:#2303a8;stroke-width:2.83px}</style></defs><g id="Слой_2" data-name="Слой 2"><g id="Слой_1-2" data-name="Слой 1"><path class="cls-1" d="M124.49 113.2C171.67 19.5 231.39 0 286.92 0c86 0 136.82 95.67 133.39 236.7-.72 29.77 12.51 90-54.49 154.64-77.47 74.71-156.52 61.21-194.16 56.95-61.4-7-162.65-125.11-139.6-242.71 7.15-36.46 77.34-62.42 92.43-92.38z"/><path class="cls-2" d="M189.45 29.89H81.22c-4.93 0-8.92 4.77-8.92 10.65V88.6c0 5.88 4 10.65 8.92 10.65h108.23c4.93 0 8.92-4.77 8.92-10.65V40.53c.01-5.88-3.99-10.64-8.92-10.64z"/><path class="cls-2" d="M198.38 113.54v-25.2h-21.2l21.2 25.2z"/><circle class="cls-1" cx="92.21" cy="43.4" r="3.25"/><circle class="cls-1" cx="92.21" cy="56.4" r="3.25"/><circle class="cls-1" cx="92.21" cy="69.4" r="3.25"/><circle class="cls-1" cx="92.21" cy="82.4" r="3.25"/><path class="cls-3" d="M100.26 43.4h31.12m56.4 9.75V43.4m-87.52 13h53.62m-53.62 13h31.12m-31.12 13h22.87"/><rect class="cls-4" x="330.09" y="137" width="116.75" height="83.42" rx="5.1" ry="5.1"/><path class="cls-1" d="M351.25 147.79h27.4v2.01h-27.4zm0 3.89h16.73v1.89h-16.73zm23.48 0h52.63v1.9h-52.63zm-31.31-3.6h1.9v26.32h-1.9zm16.54 7.49h23v2h-23zm7.38 3.9h27.4v2.01h-27.4zm29.19 0h22.97v2.24h-22.97zm-29.23 3.88h21.17v1.89H367.3zm23.19 0h43.67v2.09h-43.67zm-39.24 5.27h27.4v2.01h-27.4zm0 3.89h16.73v1.89h-16.73zm23.48 0h52.63v1.9h-52.63zm-23.48 7.59h27.4v2.01h-27.4zm0 3.89h16.73v1.89h-16.73zm23.48 0h52.63v1.9h-52.63z"/><path class="cls-1" d="M343.42 170.69h1.9v36.02h-1.9zm16.54 17.19h23v2h-23zm7.38 3.9h27.4v2.01h-27.4zm29.19 0h22.97v2.24h-22.97zm-29.23 3.88h21.17v1.89H367.3zm23.19 0h43.67v2.09h-43.67zm-39.24 5.26h27.4v2.01h-27.4zm0 3.9h16.73v1.89h-16.73zm23.48 0h52.63v1.9h-52.63z"/><path class="cls-5" d="M81.14 321.07l-8.26 8.26 7.87 7.87m24.41 0l8.26-8.26-7.87-7.87m-18.46 22.18l11.33-28.29"/><path d="M112 173.45c-10.41 0-16.52 6.11-16.52 16.52 0-10.41-6.11-16.52-16.52-16.52 10.41 0 16.52-6.11 16.52-16.52-.02 10.41 6.09 16.52 16.52 16.52zM399.89 286.9c-7.2 0-11.42 4.22-11.42 11.42 0-7.2-4.22-11.42-11.42-11.42 7.2 0 11.42-4.22 11.42-11.42 0 7.2 4.22 11.42 11.42 11.42z" stroke="#4b21ff" stroke-width="2.5" stroke-miterlimit="10" fill="none"/><path class="cls-2" d="M173.11 370c12.53 4.32 36.57 7.25 64.18 7.25s51.71-2.93 64.19-7.25z"/><path class="cls-8" d="M148.56 340.45l-14.76 25.46m27.11-120v22.64"/><path class="cls-2" d="M317.71 364.06l-154 21.71-13.1-7.5s-.63-79.38-.63-98.9a62.59 62.59 0 0162.59-62.59h64.55c34.57 0 67.33 24.51 62.47 58.74-1.21 8.54-17.73 56.74-17.73 56.74z"/><path class="cls-9" d="M212.86 397l52.26-1.31c18.72-53.87 2.48-138.75 26.82-175.36 0-23.25-93-23.25-93 0C224.76 261.51 212.86 397 212.86 397z"/><path class="cls-2" d="M355.53 165a39.77 39.77 0 00-23.65-1.44c-3.88.92-7.92 1.88-11.85 1.73-7.54-.28-21.62-.88-21.33-1-2.23-6.59-12.53-19.5-18-24.17h.08c-2.32-1.59-8-5.86-10.9-7.94v-.08c-2.55-1.38-4.95-3.33-7.67-4-9.9-2.55-20-2.33-30-.94-3.85.53-7.65 1.48-10.74 4.06-1.94 1.28-7.69 6.15-9.63 7.43v.08c-2 1.55-6.22 4.53-7.31 5.59-4.25 4.13-9.49 12.91-11.75 19.07a75 75 0 00-9.16.44c-9.06 1.47-18 2.15-27-.44-7.38-2.11-14.71-.92-21.82 1.67-.59.22-1 1-1.44 1.57l1.06.58c4.28 1.5 8.71 2.68 12.79 4.6 4.57 2.15 8.64 5.36 13.25 7.39a78 78 0 0015.39 5.06c3.83.8 7.95.12 11.93.32a2.79 2.79 0 011.92 1.81 62.81 62.81 0 01.62 6.63l.6 4.27 1.56 8.36c.45.74.9 1.49 1.34 2.24a39.5 39.5 0 003.12 5.28c5.39 6.57 11.14 12.85 16.32 19.58s11.34 12.13 19.83 13a120.34 120.34 0 0024.26 0 23.57 23.57 0 0015.94-8.56c5.16-6.18 10.44-12.26 15.59-18.45 3.3-4 7.1-7.63 8.51-12.86l2.12-8.07.65-4.81a67.13 67.13 0 01.6-6.91 2.62 2.62 0 012.06-1.52c10.66 1.06 20.48-.8 29.46-7.08 7.52-5.26 16.17-8.26 24.92-10.86-.6-.57-1.03-1.37-1.67-1.63z"/><path class="cls-8" d="M223.2 138.75c-9.53 2.75-21.1 13.56-24.89 25.61"/><path class="cls-2" d="M294.47 164l-4.14 1c.84-1.77 2.37-1.3 4.14-1z"/><path class="cls-9" d="M332.2 177.46c-9 6.27-18.8 8.14-29.46 7.08a2.62 2.62 0 00-2.06 1.52 34.94 34.94 0 00-.42 4 64.4 64.4 0 01-.82 7.68l-2.12 8.07A66.57 66.57 0 00323 197c13.52-7.7 23.16-19.83 34.14-30.43-8.77 2.64-17.41 5.64-24.94 10.89zM190.24 193a62.88 62.88 0 00-.62-6.63 2.79 2.79 0 00-1.92-1.81c-4-.2-8.1.48-11.93-.32a78 78 0 01-15.39-5.06c-4.61-2-8.68-5.24-13.25-7.39-4.08-1.92-8.51-3.09-12.79-4.6.34.56-.45.54 0 1 6.31 6.08 13.68 12.81 20 18.86a71.65 71.65 0 0030.94 17.47 63.51 63.51 0 007.08 1.14c-.36-2.4-1.48-8.98-2.12-12.66z"/><path d="M201.07 165l.23.12-.23-.12zm89.25 0l-.12.23.12-.22z" fill="#a0bb5f"/><path d="M224.13 194.5l.62-.45z" fill="#b8d57c"/><circle class="cls-12" cx="217.6" cy="189.82" r="6.85"/><circle class="cls-12" cx="268.76" cy="189.82" r="6.85"/><circle class="cls-13" cx="215.21" cy="192.56" r="2.07"/><circle class="cls-13" cx="265.2" cy="192.56" r="2.07"/><path class="cls-14" d="M224.43 218.45s10.3 6.55 20.81 6.55c13.17 0 21.17-6.14 21.17-6.14"/><path class="cls-14" d="M220.7 229.74s5.43-29.36 24.16-29.36 23.58 22 24.22 29m-68.37-22.03c1.12 2.65 9.68 8.54 17.41 5.1m70.09-4.59c-1.25 2.59-10.1 8-17.64 4.21"/><path class="cls-9" d="M245.41 183.81a3.74 3.74 0 00-3.59 2.31c-1.49 4.19-4.51 12.76-4.79 14.49-.38 2.31 3.1 4.57 8 4.57s9.64-2.26 8.84-5.29c-.59-2.25-3.46-10-4.92-13.82a3.75 3.75 0 00-3.57-2.26z"/><path class="cls-14" d="M210.93 162.08l67.84-.23m-58.18-10.36h48.45"/><path class="cls-8" d="M159.77 168.58c-4.1-2.86-12.19-3.94-18.38-1.55m207.81-.35c-4.48-2.23-12.63-2.11-18.4 1.16"/><path class="cls-9" d="M210.37 187.17h-8.56c2.18-9.31 9.92-15 18.49-14.1 8.15.9 16.11 7.64 16 14h-10.03zm54.72-.11h-10.45c.78-7.81 10.07-14.28 19.68-14 7 .17 14 7.33 14.8 14h-24zm-30.3 4.25c-8.93 4.69-26.57 2.4-31.42-.83 0 0 5.09 9.9 14.36 9.9 12.75 0 17.06-9.07 17.06-9.07zm21.38 0c8.93 4.69 26.57 2.4 31.42-.83 0 0-5.09 9.9-14.36 9.9-12.75 0-17.06-9.07-17.06-9.07z"/><path class="cls-8" d="M215.82 178.26a10.23 10.23 0 00-7.92 3.58m61.17-4.12a10.23 10.23 0 00-7.92 3.58"/><path class="cls-15" d="M299.06 279.57c-13.28 25-31.46 11-31.46 11s5 24.69-16.53 71.25c74.27 5.23 80.59-85.19 80.59-85.19m-137.46 2.23c4.11 69.57 21.33 99.42 21.33 99.42S178 372 178 377.48"/><path d="M270 300c0 21.81-13.67 62-20.43 62s-15.18-37.93-15.18-59.73c0-12.68 7.94-17.15 16.39-17.15 6.78.02 19.22 3.42 19.22 14.88z" stroke="#2303a8" stroke-width="2.83" fill="#0e0362" stroke-miterlimit="10"/><path class="cls-2" d="M227.82 295.73c2.08 19.57 11.38 26.45 20.06 26.45 13.81 0 21.26-16.09 17.52-27.7-3.41-10.56-15.87-14.7-24.56-14.7-.29 14.09-7.43 20.22-13.02 15.95z"/><ellipse class="cls-12" cx="242.6" cy="261.1" rx="2.39" ry="4.15"/><path class="cls-12" d="M269.78 266.3c-1.54 2.56-2.19 5.59-1.45 6.76s2.59.06 4.13-2.5 2.19-5.59 1.45-6.76-2.59-.05-4.13 2.5zm-49.7 20.17c-2-1.42-3.86-1.39-4.24.05s.9 3.76 2.86 5.18 3.86 1.39 4.24-.05-.94-3.76-2.86-5.18z"/><path class="cls-2" d="M254.58 302.17c2.73 2.2 6.34 1.15 8.06-2.33l10.31-20.89c1.72-3.49.9-8.1-1.83-10.3-2.73-2.2-6.34-1.15-8.06 2.33l-10.31 20.89c-1.75 3.49-.9 8.13 1.83 10.3zM245 301c3.22-.28 5.65-3.84 5.44-8l-1.31-24.64c-.22-4.11-3-7.22-6.23-6.94-3.22.28-5.65 3.84-5.44 8L238.8 294c.2 4.13 3.01 7.24 6.2 7zm2.8 14.55l-1.5 2.71a9 9 0 001-10.51l-16.64-17.88a6.59 6.59 0 00-9.76-1 9 9 0 00-1 10.51l18.92 17.23c4.35 1.65 6.42 1.62 8.98-1.06z"/><path class="cls-15" d="M236 293.75s6.77 3.09 7.8 12.14m53.77-76.15c0 5.71-15.65 29.23-15.65 58.32m22.4-48.88c-1.68 9.94-9.1 14.29-9.1 21.68m-101.95-31.12c0 5.71 15.65 29.23 15.65 58.32m-22.4-48.88c1.68 9.94 9.1 14.29 9.1 21.68"/><path class="cls-4" d="M134.71 405.81c30.09-4 21.12 20.91 82.48 21.08C256.56 427 281 393 334.52 393.13c18.85.05 34.54-4.38 48.48-22.59l-303.09-.84c12.09 18.78 20.45 40.63 54.8 36.11z"/><path d="M322.7 391.83c-30.59-4-26.28 34.92-75.56 35.06-36.91.1-38.64-37-93.15-30.64-48.71 5.72-62.7-2.61-77.22-25.69l308.13-.85c-12.33 18.77-27.28 26.64-62.2 22.12z" fill="#bac4d6"/><path class="cls-5" d="M16.17 228.28l-5.15 5.16 4.91 4.9m15.23 0l5.15-5.15-4.9-4.91m-11.52 13.84l7.07-17.65m28.88-8.84h31.15v31.15H55.84z"/><path class="cls-5" d="M77.41 230.44l-10.35 5.97v-11.94l10.35 5.97zm21.19-14.81h31.15v31.15H98.6z"/><path class="cls-5" d="M108.06 225.1h12.23v12.23h-12.23zM1.25 215.63h42.99v73.86H1.25zm68.39 42.71h61.75v31.15H69.64zM87 231.21h11.6m-54.36 0h11.6m59.8 27.13v-11.55m-38.23 20.49h28.73m-28.73 7.91h9.26M9.06 250.43h24.11M9.06 267.28h15.98m-15.98-8.94h29.29m84.24 8.94h3.38m-3.38 7.47h3.38m-3.38 7.47h3.38"/><rect class="cls-4" x="251.8" y="45.8" width="45.83" height="45.83" rx="10.19" ry="10.19"/><path class="cls-5" d="M265.32 62.42l-6.23 6.23 5.93 5.94m18.42 0l6.23-6.23-5.93-5.94m-13.93 16.74l8.55-21.35"/><rect class="cls-2" x="282.3" y="5.61" width="52.02" height="52.02" rx="10.19" ry="10.19"/><path class="cls-3" d="M297.64 24.48l-7.07 7.07 6.73 6.74m20.91 0l7.07-7.07-6.74-6.74m-15.8 19l9.7-24.23"/><path d="M186.67 241l65 59.84a8 8 0 01-1.29 14.16l-55.61 1.49z" fill="#6675ff" opacity=".28"/><path d="M206.87 314.87l-28.29.6a11.35 11.35 0 01-10.34-7.22l-20.84-61.49a3.54 3.54 0 013.46-5l31.76-.76a11.35 11.35 0 0110.38 7.27l17.37 61.65a3.54 3.54 0 01-3.5 4.95z" fill="#8b9aaf"/><path class="cls-4" d="M203.87 316l-26.92.57a11.49 11.49 0 01-10.47-7.32L146.3 249.7a3.8 3.8 0 013.72-5.32l30.38-.73a11.49 11.49 0 0110.47 7.32l16.71 59.71a3.8 3.8 0 01-3.71 5.32z"/><path class="cls-2" d="M178.74 265.59a4 4 0 01-4 5.18 6.91 6.91 0 01-6.41-5.18 4 4 0 014-5.18 6.91 6.91 0 016.41 5.18z"/><rect class="cls-4" x="308.31" y="36.55" width="74.48" height="74.48" rx="10.19" ry="10.19"/><path class="cls-2" d="M362.8 70.75a9.77 9.77 0 00-2.18-3.28 9.2 9.2 0 00-3.24-2.17 9.91 9.91 0 00-3.86-.76c-4.19 0-7.16 3-9.85 6.43l-.05.08a2 2 0 01-.14.16L341 74.5a29.1 29.1 0 01-3.48 4 6.32 6.32 0 01-3.89 1.93 6 6 0 01-2.23-.43 5.9 5.9 0 01-1.88-1.28 5.2 5.2 0 01-1.22-1.87 6.32 6.32 0 01-.44-2.2 5.74 5.74 0 011.71-4.13 5.88 5.88 0 014.14-1.71 6.92 6.92 0 012.26.38l-.47.56a3.2 3.2 0 00.42 4.55l.63.52 5.35-6.5a10.2 10.2 0 00-8.9-3.8 10.21 10.21 0 00-6.56 3.15 10.06 10.06 0 00-2.78 6.68 10.33 10.33 0 00.73 3.86 9.77 9.77 0 002.18 3.28 9.19 9.19 0 003.24 2.17 9.91 9.91 0 003.86.76c4.19 0 7.16-3 9.82-6.43l.05-.08a2 2 0 01.14-.16l2.53-3.28a29.1 29.1 0 013.48-4 6.32 6.32 0 013.89-1.93 6 6 0 012.23.43 5.9 5.9 0 011.88 1.28 5.2 5.2 0 011.22 1.87 6.32 6.32 0 01.44 2.2 5.74 5.74 0 01-1.71 4.13 5.86 5.86 0 01-3.07 1.63 7.46 7.46 0 01-1.36.14 7.12 7.12 0 01-5.47-2.52l-2.37 2.88a10.21 10.21 0 008.93 3.8 10 10 0 005.12-1.9 2.67 2.67 0 002.58 1.9h1.65v-9.6a13.88 13.88 0 00-.85-4.03z"/><path class="cls-4" d="M392.37 371h-109a6.5 6.5 0 01-6.45-7.34l6.08-46.85a8.57 8.57 0 018.57-8.57h110.28a8.57 8.57 0 018.47 7.25 6 6 0 01-.13 2.29L398.69 366a6.5 6.5 0 01-6.32 5z"/><rect class="cls-4" x="257.96" y="364.14" width="27.06" height="6.33" rx="3.16" ry="3.16"/><path class="cls-2" d="M354.53 338.6a4.47 4.47 0 00-.82-2 3.93 3.93 0 00-1.62-1.32 5.05 5.05 0 00-2.2-.46c-2.5 0-4.71 1.85-6.81 3.92l-.1.1-2 2a25.14 25.14 0 01-2.66 2.43 4.87 4.87 0 01-2.6 1.18 3.09 3.09 0 01-1.27-.26 2.51 2.51 0 01-.94-.78 2.39 2.39 0 01-.46-1.14 3.73 3.73 0 01.06-1.34 4.67 4.67 0 011.62-2.52 4.39 4.39 0 012.72-1 3.59 3.59 0 011.29.23l-.36.34a2 2 0 00-.41 2.77l.3.32 4.13-4a4.49 4.49 0 00-1.24-1.42 5.28 5.28 0 00-3.52-.89 7.85 7.85 0 00-4.37 1.92 8.21 8.21 0 00-2.62 4.07 6.12 6.12 0 00-.12 2.35 4.47 4.47 0 00.82 2 3.92 3.92 0 001.62 1.32 5.05 5.05 0 002.2.46c2.5 0 4.71-1.85 6.8-3.92l.1-.1 2-2a25.14 25.14 0 012.66-2.43 4.87 4.87 0 012.6-1.18 3.09 3.09 0 011.27.26 2.51 2.51 0 01.94.78 2.39 2.39 0 01.46 1.14 3.73 3.73 0 01-.06 1.34 4.67 4.67 0 01-1.62 2.52 4.6 4.6 0 01-2.07 1 4.68 4.68 0 01-.83.08 3.24 3.24 0 01-2.9-1.54l-1.83 1.75a4.49 4.49 0 001.24 1.42 5.32 5.32 0 003.54.89 7.35 7.35 0 003.33-1.16 1.19 1.19 0 001.25 1.18h1l1.39-5.85a8.17 8.17 0 00.09-2.46z"/><path d="M287.53 320a8.57 8.57 0 018.57-8.57" stroke="#f0f3f7" stroke-linecap="round" stroke-width="2.5" stroke-miterlimit="10" fill="none"/></g></g></svg>