<svg xmlns="http://www.w3.org/2000/svg" viewBox="0 0 486.33 502.17"><defs><style>.cls-1{fill:#fff}.cls-2{fill:#4b21ff}.cls-11,.cls-3,.cls-4,.cls-7{fill:none;stroke-miterlimit:10}.cls-3{stroke:#8b9aaf;stroke-width:2px}.cls-4{stroke:#fff;stroke-width:1.5px}.cls-5{fill:#cfd5e2}.cls-6{fill:#8b9aaf}.cls-7{stroke:#4b21ff}.cls-11,.cls-7{stroke-width:2.5px}.cls-8{fill:#0e0362}.cls-11{stroke:#f0f3f7;stroke-linecap:round}</style></defs><g id="Слой_2" data-name="Слой 2"><g id="Слой_1-2" data-name="Слой 1"><path class="cls-1" d="M439.48 102.7C439.48 43.17 396.9 0 338.11 0 287.61 0 264.4 32 232 39.88 125.37 65.85 26.57 139 26.57 252.23c0 29.78-.93 105.65 17.48 148.85C83.43 493.5 164.53 465 294.35 499 398 526.14 474.18 373.48 465.64 256c-2.7-37.07-26.16-104.28-26.16-153.3z"/><rect class="cls-2" x="305.92" y="17.61" width="180.41" height="83.19" rx="12.77" ry="12.77"/><path class="cls-1" d="M345.84 32.94h35.06v2.57h-35.06zm0 4.99h21.41v2.41h-21.41zm30.03 0h67.34v2.43h-67.34zm-18.9 4.98h29.43v2.55h-29.43zm9.44 4.98h35.06v2.57h-35.06zm37.36 0h29.39v2.86h-29.39zm-75.51-17.25h2.41v57.12h-2.41zm17.58 28.95h35.06v2.57h-35.06zm0 4.99h21.41v2.41h-21.41zm30.03 0h67.34v2.43h-67.34zm-30.03 8.39h45.63v2.43h-45.63zm-.08 9.73h26.72v2.43h-26.72z"/><path class="cls-2" d="M305.92 117.94V87.72h25.55l-25.55 30.22z"/><path class="cls-3" d="M462.71 230.02l4.43-4.35-4.22-4.14m-13.1 0l-4.43 4.35 4.22 4.14m9.91-11.67l-6.08 14.89"/><path class="cls-3" transform="rotate(180 455.48 225.94)" d="M436.99 200.53h36.99v50.82h-36.99z"/><path class="cls-3" transform="rotate(180 455.48 182.13)" d="M436.99 174.62h36.99v15.03h-36.99z"/><path class="cls-3" transform="rotate(180 406.635 212.525)" d="M396.46 202.25h20.35v20.55h-20.35z"/><path class="cls-3" transform="rotate(180 406.635 183.555)" d="M396.46 173.28h20.35v20.55h-20.35z"/><path class="cls-3" d="M426.22 212.53h-9.41m9.41-29.67h-9.41m19.5 0h-9.41m-.68 0v58.2h10.77m-26.57-25.84h-7.57m7.57-5.82h-3.86m3.86-22.5h-7.57m62.95-4.77h-7.58m-47.8-1.05h-3.86"/><rect class="cls-2" y="129.92" width="153.69" height="89.65" rx="10.39" ry="10.39"/><path class="cls-4" d="M26.1 165.35l-3.02 2.95 2.87 2.82m8.92 0l3.01-2.96-2.87-2.81m-6.74 7.94l4.14-10.13"/><path class="cls-4" d="M18.44 150.84H43.6v34.57H18.44zm0 41.97H43.6v10.22H18.44zm38.88-22.55h13.84v13.98H57.32zm57.98 19.7h13.84v13.98H115.3zm-57.98-39.35h13.84v13.98H57.32zm-13.72 7.22h7.32m0 19.41h6.4m14.57 0h8.46m13.84-19.41h7.95m-51.22 0h6.4m-6.86 39.59h64.84m-71.25 0h6.41m.46 0v-39.59m10.75-2.5h5.15m-5.15 3.96h2.62m14.8-8.68h13.84v13.98H79.09zm4.34 4.72h5.15m-5.15 3.96h2.63m16.08-8.68h27.04v25.78h-27.04zm4.42 4.72h18.69m-18.69 3.96h14.95m-14.95 4.21h5.85m-50.74 11.91h5.15m-5.15 3.96h2.62m16.06-9.11h13.84v13.98H80.35zm4.35 5.15h5.15m-5.15 3.96h2.62m32.32 15.31h5.15M24 197.92h5.15m90.49.72h2.63"/><rect class="cls-5" x="127.96" y="47.98" width="100.79" height="46.48" rx="7.13" ry="7.13"/><path class="cls-5" d="M228.75 104.03V87.14h-14.28l14.28 16.89z"/><path class="cls-6" d="M136.99 58.9h24.85v1.82h-24.85zm0 3.54h15.17v1.71h-15.17zm21.29 0h47.73v1.72h-47.73zm-13.4 3.53h20.86v1.81h-20.86zm6.69 3.53h24.85v1.82h-24.85zm26.48 0h20.83v2.03h-20.83zm-26.51 3.52h19.19v1.71h-19.19zm21.03 0h39.6v1.9h-39.6zm-35.58 4.77h24.85v1.82h-24.85zm0 3.53h15.17v1.71h-15.17zm21.29 0h47.73v1.72h-47.73z"/><rect class="cls-5" x="43.69" y="244.57" width="116.75" height="54.82" rx="5.1" ry="5.1"/><path class="cls-6" d="M64.85 255.35h27.4v2.01h-27.4zm0 3.9h16.73v1.89H64.85zm23.47 0h52.63v1.9H88.32zm-14.77 3.89h23v2h-23zm7.38 3.9h27.4v2.01h-27.4zm29.2 0h22.97v2.24h-22.97zm-29.24 3.88h21.17v1.89H80.89zm23.19 0h43.67v2.09h-43.67zm-39.23 5.26h27.4v2.01h-27.4zm0 3.9h16.73v1.89H64.85zm23.47 0h52.63v1.9H88.32z"/><path class="cls-7" d="M348.9 144.62l-10.79 10.78 10.28 10.28m31.88 0l10.78-10.79-10.27-10.27m-24.11 28.96l14.8-36.95"/><path class="cls-2" d="M336.77 268.29L252 246.06l-84.74 22.22a45.31 45.31 0 00-33.82 43.83v100.5c11.75.83 237.13.92 237.13.92V312.12a45.31 45.31 0 00-33.8-43.83z"/><path class="cls-8" d="M272.56 384.79s-9.29 20.26-22.12 20.26c-12.64 0-21-20.26-21-20.26L215 256.52h72.56z"/><path d="M276.42 284.23a64.4 64.4 0 01-27 5.84c-15.43 0-25.68-5.84-25.68-5.84l-11.19-27.7h75z" fill="#21219e"/><path class="cls-2" d="M169.47 251.89c1.45-4 2.89-8 4.36-12q4.7-12.75 9.42-25.49L193.4 187c.74-2 1.51-4 2.19-6a6.92 6.92 0 00.34-2.1c.07-4.39-.15-8.8.17-13.17a49 49 0 0131.76-42.19 50 50 0 0114.14-2.91 2.3 2.3 0 001.29-.51 6.87 6.87 0 014.83-1.84h4.33A6.9 6.9 0 01257 120a2.71 2.71 0 001.45.6A48.88 48.88 0 01302 154.49a49.44 49.44 0 012.38 15.51c0 2.07.12 4.14 0 6.19a18.92 18.92 0 001.53 8.19c3.33 8.81 6.56 17.66 9.83 26.5l10.52 28.44c1.68 4.54 3.32 9.09 5 13.63-.36.19-.72.53-1.08.54-2.23.05-4.46 0-6.69 0a1.49 1.49 0 01-1.62-1.09c-1.46-3.68-2.95-7.36-4.44-11q-3.72-9.2-7.46-18.4-3.22-8-6.43-15.95c-1.37-3.4-2.78-6.78-4.12-10.2-2.23-5.69-4.68-11.25-8.84-15.87a24 24 0 00-9.42-6.57 27.75 27.75 0 00-12-1.72 22 22 0 00-5.44 1.15 22.66 22.66 0 00-8.3 5.64 2.81 2.81 0 01-1.67.8c-2.42.09-4.85.05-7.28 0a2 2 0 01-1.15-.39c-.85-.71-1.62-1.53-2.46-2.26A20.3 20.3 0 00234 173a25.15 25.15 0 00-8.41-.16 24.12 24.12 0 00-15.59 7.87 43.83 43.83 0 00-8 13.45c-1.9 4.64-3.73 9.3-5.61 13.95-3.15 7.77-6.34 15.52-9.49 23.29q-4.26 10.52-8.46 21.06a1.35 1.35 0 01-1.45 1h-6.79a8.4 8.4 0 01-.94-.11z"/><path class="cls-8" d="M168.75 253.7l.72-1.81-.23 1.47a8.4 8.4 0 00.94.11h6.79a1.35 1.35 0 001.45-1q4.2-10.54 8.46-21.06c3.15-7.77 6.33-15.52 9.49-23.29 1.88-4.64 3.71-9.31 5.61-13.95a43.83 43.83 0 018-13.45 24.12 24.12 0 0115.62-7.86 25.15 25.15 0 018.4.14 20.3 20.3 0 018.88 4.62c.84.73 1.6 1.55 2.46 2.26a2 2 0 001.15.39c2.43 0 4.85.07 7.28 0a2.81 2.81 0 001.67-.8 22.66 22.66 0 018.3-5.64 22 22 0 015.44-1.15 27.75 27.75 0 0112 1.72 24 24 0 019.42 6.57c4.17 4.62 6.61 10.18 8.84 15.87 1.34 3.41 2.75 6.8 4.12 10.2q3.22 8 6.43 15.95 3.72 9.2 7.46 18.4c1.49 3.67 3 7.34 4.44 11a1.49 1.49 0 001.62 1.09h6.69c.36 0 .72-.35 1.08-.54.44.76 0 .81-.62.81h-7.77"/><path class="cls-2" d="M245.57 209.82a9.07 9.07 0 0116.15 0 9.78 9.78 0 011 4.76 3.58 3.58 0 00.8 2.45c1.87 2.6 3.71 5.24 5.55 7.86l10.79 15.34c.25.36.56.67.94 1.14l3.75-6.63q4.6-8.17 9.19-16.35c1.55-2.77 3.07-5.55 4.61-8.33.09.28.29.57.25.83-.44 2.95-.92 5.89-1.4 8.83-.95 5.88-1.88 11.77-2.84 17.64-.69 4.23-1.4 8.46-2.17 12.68a2.53 2.53 0 00.95 2.8 16.2 16.2 0 012.29 3c.12.15.25.29.38.44a9.26 9.26 0 01-3.57 11.61 8.94 8.94 0 01-11.91-2.37 1.82 1.82 0 00-1.7-.85h-50a1.83 1.83 0 00-1.7.87 9 9 0 01-9.59 3.36 9.16 9.16 0 01-6.6-7.76 8.23 8.23 0 01.75-4.86 10.88 10.88 0 013.43-4.18 1.49 1.49 0 00.21-1.16c-.71-4.49-1.46-9-2.19-13.45q-2-12.07-3.93-24.14c-.16-1-.33-1.94-.47-2.91 0-.11.14-.25.21-.37 1.58 2.76 3.17 5.5 4.73 8.27q6.32 11.21 12.61 22.43a3.65 3.65 0 00.49.54c.25-.32.46-.56.65-.82q8.31-11.81 16.62-23.61a3.39 3.39 0 00.7-2.27 8.87 8.87 0 011.02-4.79zm3.54 31.79V254c0 1.45 0 1.46 1.5 1.46h6.1c1.37 0 1.46-.09 1.46-1.44v-24.79c0-1.28-.18-1.47-1.48-1.48h-6.3c-1.22 0-1.28.06-1.29 1.28q0 6.28.01 12.58zm13.77-10l-.21.12c-.05 1.13-.14 2.27-.14 3.4v17.8c0 .49.07 1 0 1.47 0 .85.32 1.14 1.16 1.12h6.88c.85 0 1.16-.29 1.15-1.14v-9.64a3.1 3.1 0 00-.54-1.62c-2.05-3-4.15-5.88-6.25-8.81-.67-.97-1.37-1.85-2.06-2.75zm-18.32.21l-.34-.21a2.33 2.33 0 01-.2.46c-2.7 3.75-5.42 7.48-8.1 11.25a2.37 2.37 0 00-.36 1.29v9.74c0 .92.39 1.19 1.25 1.18h6.2c1.58 0 1.62 0 1.62-1.58V232.8c-.04-.39-.06-.71-.08-1.03zm9-13h3.93c.54 0 .76-.19.75-.75v-4.12a4.58 4.58 0 00-4.82-4.4 4.52 4.52 0 00-4.29 4.6v3.93c0 .55.18.76.74.74 1.18-.11 2.42-.09 3.67-.09zM224.31 260a4.52 4.52 0 00-4.5-4.59 4.65 4.65 0 00-4.64 4.62 4.72 4.72 0 004.62 4.66 4.58 4.58 0 004.5-4.78zm67.76 0a4.55 4.55 0 10-9.11.07 4.56 4.56 0 109.11-.07z"/><path class="cls-2" d="M275.85 206h-12.48a7.53 7.53 0 01-4.2-1.17 2.09 2.09 0 01-1-1.89c0-2.95-.18-5.91.05-8.84a10.26 10.26 0 016.4-9.18c8-3.39 15.64-2.22 22.84 2.34 4.56 2.89 6.36 7.43 6.88 12.54a5.74 5.74 0 01-5.79 6.2h-12.7zm-44.57 0h-12.19c-4 0-6.63-2.88-6.13-6.81a16.11 16.11 0 0110.19-13.84A24.65 24.65 0 01234.2 183a18.38 18.38 0 019.94 2.66 10.57 10.57 0 014.94 8.53c.17 2.87 0 5.77 0 8.65a2.09 2.09 0 01-1.07 2 7.92 7.92 0 01-4.2 1.19h-12.53z"/><path d="M245.57 209.82a8.87 8.87 0 00-1 4.75 3.39 3.39 0 01-.7 2.27q-8.34 11.79-16.62 23.61c-.18.26-.4.5-.65.82a3.65 3.65 0 01-.49-.54q-6.31-11.21-12.61-22.43c-1.56-2.77-3.15-5.51-4.73-8.27.15-.76.76-.59 1.26-.6h34.09a6.12 6.12 0 011.45.39zm52.75.18c-1.53 2.78-3.06 5.56-4.61 8.33q-4.58 8.18-9.19 16.35l-3.75 6.63c-.39-.46-.69-.78-.94-1.14L269 224.88c-1.84-2.62-3.68-5.26-5.55-7.86a3.58 3.58 0 01-.8-2.45 9.78 9.78 0 00-1-4.76 3.46 3.46 0 011-.36h34.65c.49-.01 1.15-.25 1.02.55z" fill="#2303a8"/><path class="cls-8" d="M249.11 241.61v-12.59c0-1.22.06-1.27 1.29-1.28h6.3c1.3 0 1.48.2 1.48 1.48v24.79c0 1.36-.09 1.44-1.46 1.44h-6.1c-1.49 0-1.5 0-1.5-1.46q-.02-6.19-.01-12.38zm13.76-10.05c.68.9 1.39 1.78 2 2.7 2.1 2.93 4.2 5.85 6.25 8.81a3.1 3.1 0 01.54 1.62v9.64c0 .86-.3 1.16-1.15 1.14h-6.88c-.85 0-1.21-.28-1.16-1.12v-19.27c0-1.13.09-2.27.14-3.4zm-18.32.21v22.15c0 1.54 0 1.58-1.62 1.58h-6.2c-.86 0-1.26-.26-1.25-1.18v-9.74a2.37 2.37 0 01.36-1.29c2.68-3.76 5.4-7.5 8.1-11.25a2.33 2.33 0 00.2-.46zm8.99-13.04h-3.73c-.55 0-.75-.19-.74-.74v-3.93a4.52 4.52 0 014.29-4.6 4.58 4.58 0 014.82 4.4c.06 1.37 0 2.75 0 4.12 0 .56-.21.76-.75.75-1.27-.01-2.58 0-3.89 0zm-29.25 41.18a4.58 4.58 0 01-4.52 4.69 4.72 4.72 0 01-4.62-4.66 4.65 4.65 0 014.64-4.62 4.52 4.52 0 014.5 4.59zm67.71-.02a4.56 4.56 0 11-9.11.07 4.55 4.55 0 119.11-.07z"/><path class="cls-11" d="M212.91 259.6a6.19 6.19 0 016.19-6.15m61.62 6.15a6.19 6.19 0 016.19-6.15"/><path d="M221.45 307.76l2.94-22.41m55.38 23.41l-4.14-24.31m-40.41 42.86l1.93-39.09m12.59 40.08l.81-39.08m15.17 38.34l-2.64-38.28" stroke="#21219e" stroke-linecap="round" stroke-width="2.5" fill="none" stroke-miterlimit="10"/><path class="cls-8" d="M240.06 367l-53.87 4.49a12.43 12.43 0 01-14.07-12.32l.77-24s.34 15.83 11.11 25.45c11.53 10.3 56.06 6.38 56.06 6.38z"/><path class="cls-5" d="M388.47 413.45h-179.1l10.37-79.87a12.63 12.63 0 0112.63-12.62h162.5a12.62 12.62 0 0112.63 12.63z"/><rect class="cls-5" x="182.9" y="403.29" width="39.86" height="9.32" rx="4.66" ry="4.66"/><path class="cls-2" d="M325.16 365.66a6.59 6.59 0 00-1.21-3 5.78 5.78 0 00-2.38-2 7.44 7.44 0 00-3.24-.68c-3.69 0-6.94 2.73-10 5.78l-.07.07-.15.15-2.93 3a37 37 0 01-3.91 3.58 7.18 7.18 0 01-3.83 1.73 4.55 4.55 0 01-1.87-.39 3.7 3.7 0 01-1.38-1.15 3.52 3.52 0 01-.68-1.68 5.5 5.5 0 01.09-2 6.88 6.88 0 012.39-3.71 6.47 6.47 0 014-1.54 5.29 5.29 0 011.91.34l-.54.5c-1.31 1.23-1.58 3.07-.6 4.08l.45.47 6.09-5.83a6.61 6.61 0 00-1.82-2.1 7.77 7.77 0 00-5.19-1.32 11.57 11.57 0 00-6.44 2.83 12.09 12.09 0 00-3.87 6 9 9 0 00-.18 3.46 6.59 6.59 0 001.21 3 5.78 5.78 0 002.38 2 7.44 7.44 0 003.24.68c3.69 0 6.94-2.73 10-5.78l.07-.07.15-.15 2.93-3a37 37 0 013.91-3.58 7.18 7.18 0 013.83-1.73 4.55 4.55 0 011.87.39 3.7 3.7 0 011.38 1.15 3.52 3.52 0 01.68 1.68 5.5 5.5 0 01-.09 2 6.88 6.88 0 01-2.39 3.71 6.77 6.77 0 01-3.05 1.46 6.9 6.9 0 01-1.23.12 4.77 4.77 0 01-4.27-2.27l-2.7 2.58a6.61 6.61 0 001.82 2.1 7.84 7.84 0 005.22 1.32 10.83 10.83 0 004.9-1.71 1.76 1.76 0 001.84 1.73h1.5l2-8.62a12 12 0 00.16-3.6z"/><path class="cls-7" d="M414.52 287.85c-10.1 0-16 5.93-16 16 0-10.1-5.93-16-16-16 10.1 0 16-5.93 16-16-.02 10.07 5.91 16 16 16zM77.57 327.41c-7.2 0-11.42 4.22-11.42 11.42 0-7.2-4.22-11.42-11.42-11.42 7.2 0 11.42-4.22 11.42-11.42 0 7.19 4.22 11.42 11.42 11.42z"/><path class="cls-5" d="M121.38 448.57c37.27-4 26.24 20.85 102.27 20.85 48.78 0 79-34.08 145.27-34.08 23.35 0 42.78-4.47 60-22.72H53.35c15.09 18.73 25.48 40.56 68.03 35.95z"/><path d="M129.23 434.57c37.27-4 32.15 34.85 92.22 34.85 45 0 47-37.15 113.43-30.9 59.39 5.59 76.42-2.79 94-25.9H53.35c15.09 18.73 33.33 26.56 75.88 21.95z" fill="#bac4d6"/><path class="cls-11" d="M207.3 157.63a41.54 41.54 0 0126.3-27.15m-15.39 68.66a15 15 0 0114.52-11.22m-91.39 116.17c3.55-16.13 16-28 30.79-28m90.38-81.38a10.51 10.51 0 0110.17-7.86m-43.03 55.73L244.6 221m-67.83 18.83l18.36-45.87m31.34 144.35a12.62 12.62 0 0112.63-12.62"/><path class="cls-2" d="M75.4 412.56h26.89c12-4.9 13.69-17 13.79-28.36a1.14 1.14 0 00-1.14-1.14H62.75a1.14 1.14 0 00-1.14 1.14c.1 11.39 1.81 23.46 13.79 28.36z"/><path class="cls-5" d="M88.84 375.13a1.13 1.13 0 01-.81-.34 7.73 7.73 0 01-2.6-5.5 7.38 7.38 0 012.62-5.2 5.16 5.16 0 001.95-3.62 5.41 5.41 0 00-2-3.82 1.14 1.14 0 011.64-1.65 7.56 7.56 0 012.64 5.47 7.29 7.29 0 01-2.66 5.25 5.23 5.23 0 00-1.91 3.58 5.6 5.6 0 001.94 3.87 1.13 1.13 0 01-.81 1.93m12.46.03a1.13 1.13 0 01-.81-.34 7.73 7.73 0 01-2.6-5.5 7.38 7.38 0 012.62-5.2 5.19 5.19 0 002-3.64 5.38 5.38 0 00-1.94-3.8 1.14 1.14 0 011.59-1.63 7.53 7.53 0 012.62 5.46 7.32 7.32 0 01-2.67 5.27 5.23 5.23 0 00-1.91 3.58 5.6 5.6 0 001.94 3.87 1.13 1.13 0 01-.81 1.93m-23.86 0a1.13 1.13 0 01-.81-.34 7.73 7.73 0 01-2.6-5.5 7.38 7.38 0 012.62-5.2 5.19 5.19 0 002-3.64 5.38 5.38 0 00-1.94-3.8 1.14 1.14 0 011.55-1.65 7.53 7.53 0 012.62 5.46 7.32 7.32 0 01-2.67 5.27 5.23 5.23 0 00-1.91 3.58 5.6 5.6 0 001.94 3.87 1.13 1.13 0 01-.81 1.93"/><path d="M82 410.3h-.19c-9-1.53-13.84-6.71-15.68-16.8a1.13 1.13 0 012.23-.41c1.66 9.13 5.8 13.61 13.83 15a1.13 1.13 0 01-.19 2.21" fill="#f0f3f7"/><path class="cls-5" d="M104.73 391a1.13 1.13 0 01-1.13-1.13v-6.79a1.13 1.13 0 112.27 0v6.79a1.13 1.13 0 01-1.13 1.13"/><path class="cls-5" d="M108.12 398.99h-6.81v-9.08l3.42-2.29 3.4 2.29-.01 9.08z"/><path class="cls-2" d="M116.06 385.34c-.14 7.26-1 14.7-4.94 20.29a13.6 13.6 0 0011.77-13.48v-2.92a3.89 3.89 0 00-3.89-3.89h-2.94z"/><path d="M420.61 344.31l-6.09 6.08 5.8 5.8m18 0l6.09-6.08-5.8-5.8M425 360.66l8.35-20.86" stroke-width="2.5" stroke="#8b9aaf" fill="none" stroke-miterlimit="10"/></g></g></svg>