<svg version="1.1" id="Capa_1" xmlns="http://www.w3.org/2000/svg" x="0" y="0" viewBox="0 0 512 512" xml:space="preserve"><path d="M437.02 74.98C388.667 26.628 324.38 0 256 0S123.333 26.628 74.98 74.98 0 187.62 0 256s26.628 132.667 74.98 181.02S187.62 512 256 512s132.667-26.628 181.02-74.98S512 324.38 512 256s-26.628-132.667-74.98-181.02zm-11.314 350.726C380.376 471.036 320.106 496 256 496s-124.376-24.964-169.706-70.294C40.964 380.376 16 320.106 16 256S40.964 131.624 86.294 86.294C131.624 40.964 191.894 16 256 16s124.376 24.964 169.706 70.294C471.036 131.624 496 191.894 496 256s-24.964 124.376-70.294 169.706z"/><path d="M48 256c0-114.691 93.309-208 208-208 41.368 0 81.326 12.111 115.555 35.024a8 8 0 0011.098-2.198 8 8 0 00-2.198-11.098C343.584 45.046 300.548 32 256 32c-59.833 0-116.084 23.3-158.392 65.608C55.3 139.916 32 196.167 32 256c0 55.2 20.254 108.232 57.032 149.328a7.98 7.98 0 005.964 2.665 7.966 7.966 0 005.332-2.039 8 8 0 00.626-11.296C66.807 356.5 48 307.257 48 256zm394.273-124.453a8 8 0 00-13.296 8.9C451.889 174.675 464 214.633 464 256c0 114.691-93.309 208-208 208-47.583 0-94.096-16.479-130.969-46.401a8 8 0 10-10.082 12.424C154.664 462.251 204.757 480 256 480c59.833 0 116.084-23.3 158.392-65.608C456.7 372.084 480 315.833 480 256c0-44.547-13.046-87.583-37.727-124.453zm-47.615-30.592a209.82 209.82 0 0115.414 15.308 7.98 7.98 0 005.927 2.624 8.002 8.002 0 005.922-13.377 226.283 226.283 0 00-16.593-16.478 8 8 0 00-10.67 11.923z"/><path d="M256 104a8 8 0 008-8V72a8 8 0 00-16 0v24a8 8 0 008 8zm-8 312v24a8 8 0 0016 0v-24a8 8 0 00-16 0zM104 256a8 8 0 00-8-8H72a8 8 0 000 16h24a8 8 0 008-8zm304 0a8 8 0 008 8h24a8 8 0 000-16h-24a8 8 0 00-8 8zM182.928 113.436l-12-20.785a8 8 0 00-13.856 8l12 20.785a7.998 7.998 0 0010.929 2.928 8 8 0 002.927-10.928zm160 277.128a8 8 0 00-13.856 8l12 20.785a7.998 7.998 0 0010.929 2.928 8 8 0 002.928-10.928l-12.001-20.785zM96.659 356.001a7.97 7.97 0 003.993-1.073l20.785-12a8 8 0 00-8-13.856l-20.785 12a8 8 0 004.007 14.929zm297.912-172a7.97 7.97 0 003.993-1.073l20.785-12a8 8 0 00-8-13.856l-20.785 12a8 8 0 004.007 14.929zM352 89.723a7.998 7.998 0 00-10.928 2.928l-12 20.785a8 8 0 0013.857 8l12-20.785A8.001 8.001 0 00352 89.723zM180 387.636a8 8 0 00-10.928 2.928l-12 20.785a8 8 0 0013.857 8l12-20.785A8.001 8.001 0 00180 387.636zm210.564-44.708l20.785 12A7.998 7.998 0 00422.278 352a8 8 0 00-2.928-10.928l-20.785-12A8 8 0 00387.637 332a7.999 7.999 0 002.927 10.928zM121.436 169.072l-20.785-12a8 8 0 00-8 13.856l20.785 12A7.998 7.998 0 00124.365 180a8.001 8.001 0 00-2.929-10.928zm190.256 191.379a8 8 0 006.921-12.001l-44.38-76.869C277.824 267.384 280 261.943 280 256c0-10.429-6.689-19.322-16-22.624V128a8 8 0 00-16 0v105.376c-9.311 3.302-16 12.195-16 22.624 0 13.234 10.766 24 24 24 1.497 0 2.961-.145 4.383-.408l44.374 76.858a7.998 7.998 0 006.935 4.001zM248 256c0-4.411 3.589-8 8-8s8 3.589 8 8-3.589 8-8 8-8-3.589-8-8z"/></svg>