<svg xmlns="http://www.w3.org/2000/svg" viewBox="0 0 44.53 60.02"><defs><style>.cls-1{fill:#fff}</style></defs><g id="Слой_2" data-name="Слой 2"><g id="Слой_1-2" data-name="Слой 1"><path class="cls-1" d="M15.61 51.39a1 1 0 01-.7-.29l-4.35-4.35a1 1 0 010-1.4l4.57-4.57a1 1 0 011.4 1.4L12.66 46l3.65 3.65a1 1 0 01-.7 1.69zm13.09 0a1 1 0 01-.7-1.69l3.87-3.87-3.65-3.65a1 1 0 011.4-1.4L34 45.13a1 1 0 010 1.4l-4.6 4.57a1 1 0 01-.7.29zm-9.2 1.78a1 1 0 01-.91-1.39l5.53-12.56a1 1 0 011.82.8l-5.53 12.56a1 1 0 01-.91.59zM16.85 31a5 5 0 115-5 5 5 0 01-5 5zm0-7.92a3 3 0 103 3 3 3 0 00-3-2.98zm-7.1 6.86a6.11 6.11 0 01-6.22-6c0-3 1.54-5.19 4-5.72A1 1 0 118 20.19c-1.59.33-2.48 1.71-2.48 3.81a4.12 4.12 0 004.23 4 1 1 0 010 2zm25.39.68a1 1 0 010-2c1.7 0 3.75-2.33 4.16-4.71.43-2.57-.53-4.29-1.4-4.54a1 1 0 01.56-1.9c1.82.54 3.42 3.09 2.79 6.77-.57 3.4-3.43 6.38-6.11 6.38zm-6.49.38a5 5 0 115-5 5 5 0 01-5 5zm0-7.92a3 3 0 103 3 3 3 0 00-3-2.98z"/><path class="cls-1" d="M35.14 22.84c-1.42 0-2.16-1.38-2.87-2.72-.86-1.6-1.55-2.73-2.67-2.73H19.15c-2.68 0-4.52-1.94-5.62-3.1l-.21-.22c-.17.62-.37 1.49-.52 2.19-.8 3.52-1.36 5.74-2.5 6.37a1.47 1.47 0 01-1.18.14C6.39 21.92 5.35 13 5.35 11.56a8 8 0 012.58-5.29 1 1 0 011.32 1.48 6.06 6.06 0 00-1.91 3.81c0 2.59 1.19 7.82 2.15 9.09a27.22 27.22 0 001.38-4.83c.66-2.93.88-3.79 1.64-4.11.94-.4 1.65.35 2.47 1.21 1 1 2.36 2.48 4.18 2.48H29.6c2.39 0 3.57 2.18 4.42 3.78.32.6.86 1.6 1.13 1.67.77 0 2.84-4.13 2.84-8.47C38 8.91 31 2 21.86 2c-5.73 0-6.7 1.08-6.86 1.29a.22.22 0 000 .22 1 1 0 01.1.79 1 1 0 01-.55.6l-2.72 1.24a1 1 0 01-.83-1.8l2-.91a2.19 2.19 0 01.28-1.08C14.15.77 17 0 21.86 0 31.86 0 40 7.49 40 12.38c0 3.69-1.86 10.46-4.86 10.46z"/><path class="cls-1" d="M11.16 34.21a1 1 0 01-.95-.69C9 29.71 8.77 22.95 8.76 22.66a1 1 0 012-.07c0 .07.24 6.77 1.37 10.33a1 1 0 01-.95 1.29zm23.29.35h-.18a1 1 0 01-.79-1.16c.85-4.51 1.37-11.54 1.38-11.61a1 1 0 011.06-.92 1 1 0 01.92 1.06c0 .29-.54 7.21-1.41 11.83a1 1 0 01-.98.8z"/><path class="cls-1" d="M37.88 60H6.65a3.37 3.37 0 01-3.34-2.84L0 37a3.38 3.38 0 013.34-3.92h37.81A3.38 3.38 0 0144.49 37l-3.27 20.18A3.37 3.37 0 0137.88 60zM3.38 35A1.4 1.4 0 002 36.67l3.27 20.19A1.39 1.39 0 006.65 58h31.23a1.39 1.39 0 001.38-1.17l3.27-20.19A1.4 1.4 0 0041.15 35zm21.31-7.95h-3.88a1 1 0 010-2h3.88a1 1 0 010 2z"/></g></g></svg>