<svg xmlns="http://www.w3.org/2000/svg" viewBox="0 0 57.74 61.69"><defs><style>.cls-1{fill:#fff}</style></defs><g id="Слой_2" data-name="Слой 2"><g id="Слой_1-2" data-name="Слой 1"><path class="cls-1" d="M24.86 18.21a1.1 1.1 0 001.56 0l2.45-2.45 2.45 2.45a1.1 1.1 0 001.56-1.56l-2.46-2.45 2.45-2.45a1.1 1.1 0 10-1.56-1.56l-2.45 2.45-2.45-2.45a1.1 1.1 0 00-1.56 1.56l2.45 2.45-2.45 2.45a1.1 1.1 0 00.01 1.56z"/><path class="cls-1" d="M51.75 27.28l5.86-11.13a1.1 1.1 0 00-.79-1.6l-2.65-.46A16.16 16.16 0 0143.8 7.62 18.25 18.25 0 0028.87 0a18.25 18.25 0 00-14.94 7.62 16.16 16.16 0 01-10.36 6.47l-2.65.46a1.1 1.1 0 00-.79 1.6L6 27.28a7 7 0 001.85 2.24 23 23 0 1044 9.21 22.76 22.76 0 00-1.93-9.21 7 7 0 001.83-2.24zm-47.81-11a18.35 18.35 0 0011.78-7.37 16.24 16.24 0 0126.3 0 18.35 18.35 0 0011.77 7.35l1.17.2-1.12 2.12-1.26-.25a20.35 20.35 0 01-12.36-7.69l-.15-.2a13.73 13.73 0 00-22.36 0l-.09.12-.07.09a20.35 20.35 0 01-12.36 7.68l-1.29.26-1.12-2.13zm1 4.36l.65-.13A22.55 22.55 0 0019.31 12l.09-.12.08-.1a11.53 11.53 0 0118.82 0l.16.21a22.54 22.54 0 0013.69 8.53l.62.12-3 5.64a4.71 4.71 0 01-6 2.17 38.86 38.86 0 00-29.85 0 4.71 4.71 0 01-6-2.17zm38.47 12.92A14.54 14.54 0 0141.36 41l-1.69-4.1a5.74 5.74 0 002.42-6.78l.86.34.14.05a14.65 14.65 0 01.32 3.05zm-28.76-3.05l.13-.05a36.48 36.48 0 0114.08-2.81 36.9 36.9 0 013.83.2 5.74 5.74 0 004.9 9.82l2.24 5.43a14.5 14.5 0 01-3.68 3 3.54 3.54 0 01-3 .25 12.35 12.35 0 00-8.5 0 3.55 3.55 0 01-3-.25 14.55 14.55 0 01-6.92-15.63zm22 5A3.54 3.54 0 1140.21 32a3.55 3.55 0 01-3.55 3.54zm13 3.19a20.75 20.75 0 01-41.51 0 20.57 20.57 0 011.66-8.14 6.88 6.88 0 002.55.4A16.75 16.75 0 0020.46 48a5.78 5.78 0 002.9.78 5.65 5.65 0 002.05-.38 10.16 10.16 0 016.9 0 5.76 5.76 0 005-.39A16.75 16.75 0 0045.41 31h.22a6.88 6.88 0 002.37-.41 20.57 20.57 0 011.62 8.14z"/><path class="cls-1" d="M22.11 40.13a3.07 3.07 0 00-.11 2.52 3.08 3.08 0 003.63 1.84 12.94 12.94 0 016.46 0 3.08 3.08 0 003.63-1.84 3.08 3.08 0 00-2.1-4.12 19.15 19.15 0 00-9.55 0 3.1 3.1 0 00-1.96 1.6zm2.54.54a16.94 16.94 0 018.45 0 .88.88 0 01.57.46.86.86 0 010 .71.88.88 0 01-1 .52 15.15 15.15 0 00-7.56 0 .88.88 0 01-1-.52.86.86 0 010-.72.88.88 0 01.53-.45zm-3.36-9.17l.73.42-.21.15a1.76 1.76 0 102.86 1.69 1.71 1.71 0 000-.38h.21a1.1 1.1 0 00.55-2.06l-3.08-1.76a1.1 1.1 0 00-1.09 1.91z"/></g></g></svg>