<svg xmlns="http://www.w3.org/2000/svg" viewBox="0 0 53.67 53.67"><defs><style>.cls-1{fill:#fff}</style></defs><g id="Слой_2" data-name="Слой 2"><g id="Слой_1-2" data-name="Слой 1"><path class="cls-1" d="M26.83 53.67a26.83 26.83 0 1126.84-26.84 26.87 26.87 0 01-26.84 26.84zm0-51.67a24.85 24.85 0 1024.85 24.83A24.88 24.88 0 0026.83 2z"/><path class="cls-1" d="M26.83 31A4.13 4.13 0 1131 26.83 4.14 4.14 0 0126.83 31zm0-6.28A2.15 2.15 0 1029 26.83a2.15 2.15 0 00-2.17-2.14z"/><path class="cls-1" d="M24.6 25.56a1 1 0 01-.76-.36L16.15 16a1 1 0 011.52-1.27l7.68 9.18a1 1 0 01-.76 1.63zM27 7.47a1 1 0 01-1-1V5a1 1 0 012 0v1.48a1 1 0 01-1 .99zm0 42.2a1 1 0 01-1-1v-1.48a1 1 0 012 0v1.49a1 1 0 01-1 .99zM16.8 10.2a1 1 0 01-.86-.5l-.75-1.29a1 1 0 111.72-1l.75 1.29a1 1 0 01-.86 1.49zm21.1 36.55a1 1 0 01-.86-.5L36.3 45a1 1 0 111.7-1l.75 1.29a1 1 0 01-.86 1.49zM9.35 17.65a1 1 0 01-.5-.13l-1.29-.75a1 1 0 011-1.72l1.29.75a1 1 0 01-.5 1.85zm36.55 21.1a1 1 0 01-.5-.13l-1.29-.75a1 1 0 111-1.72l1.29.75a1 1 0 01-.5 1.85zM6.62 27.83H5.13a1 1 0 010-2h1.49a1 1 0 110 2zm42.21 0h-1.5a1 1 0 010-2h1.49a1 1 0 010 2zM8.06 38.75a1 1 0 01-.5-1.85l1.29-.75a1 1 0 011 1.72l-1.29.75a1 1 0 01-.5.13zm36.55-21.1a1 1 0 01-.5-1.85l1.29-.75a1 1 0 111 1.72l-1.29.75a1 1 0 01-.5.13zm-28.56 29.1a1 1 0 01-.86-1.49l.75-1.26a1 1 0 111.72 1l-.75 1.29a1 1 0 01-.86.46zm21.1-36.55a1 1 0 01-.86-1.49L37 7.42a1 1 0 111.72 1L38 9.7a1 1 0 01-.85.5zm-8.07 15.32a1 1 0 01-.7-1.69l5.33-5.33a1 1 0 011.4 1.4l-5.33 5.33a1 1 0 01-.7.29z"/></g></g></svg>