<svg xmlns="http://www.w3.org/2000/svg" viewBox="0 0 65.88 63.39"><defs><style>.cls-1{fill:#4b21ff}</style></defs><g id="Слой_2" data-name="Слой 2"><g id="Слой_1-2" data-name="Слой 1"><path class="cls-1" d="M37.56 43.87V38.1L39 36.67C55.16 20.5 53.53 11.25 53.45 10.86a1.17 1.17 0 00-.92-.92c-.39-.08-9.64-1.71-25.81 14.47l-1.43 1.43h-5.76A7.37 7.37 0 0014.28 28L2.85 39.44a1.17 1.17 0 00.83 2h11.89l2.37 2.37-5.36 5.36a1.17 1.17 0 101.65 1.65l5.36-5.36L22 47.83v11.89a1.17 1.17 0 002 .83l11.38-11.44a7.37 7.37 0 002.18-5.24zm13.63-31.66a14.92 14.92 0 01-.83 4.13L47.06 13a15 15 0 014.13-.79zM31.91 31.48a1.17 1.17 0 00-1.65 0L19.59 42.15l-2.71-2.71a1.33 1.33 0 010-1.88l2.65-2.65a1.17 1.17 0 10-1.65-1.65l-2.65 2.64a3.67 3.67 0 00-1 3.19H6.5l9.43-9.43a5 5 0 013.59-1.49H23l-1.54 1.54a1.17 1.17 0 101.65 1.65l5.3-5.3a73.64 73.64 0 019.59-8.2l3.79 3.79A1.17 1.17 0 0043.41 20l-3.46-3.46A37.07 37.07 0 0144.67 14l4.76 4.76a37.17 37.17 0 01-2.58 4.73 1.17 1.17 0 00-1.57 1.73l.25.25a73.64 73.64 0 01-8.2 9.53L25.84 46.51a1.33 1.33 0 01-1.88 0l-2.72-2.71 10.67-10.66a1.17 1.17 0 000-1.66zM24.3 56.89v-7.7a3.67 3.67 0 003.19-1l7.73-7.73v3.43a5 5 0 01-1.49 3.59z"/><path class="cls-1" d="M19.53 52.7a1.07 1.07 0 00-1.53-.17c0 .08-6.78 6.73-15.62 8.47 1.75-8.84 8.41-15.6 8.48-15.67a1.07 1.07 0 00-.17-1.49 1.07 1.07 0 00-1.49-.17C8.88 44 1.25 51.75 0 62a1.26 1.26 0 00.4 1 1.26 1.26 0 001 .39c10.23-1.24 18-8.87 18.29-9.2a1.07 1.07 0 00-.16-1.49zm19.78-23.93a3.67 3.67 0 10-5.19 0 3.67 3.67 0 005.19 0zm-3.54-1.65a1.33 1.33 0 111.88 0 1.33 1.33 0 01-1.87 0zM55.18 53a1 1 0 01-1-1c0-3.57-2-5.54-5.54-5.54a1 1 0 010-2c3.57 0 5.54-2 5.54-5.54a1 1 0 012 0c0 3.57 2 5.54 5.54 5.54a1 1 0 110 2c-3.57 0-5.54 2-5.54 5.54a1 1 0 01-1 1zm-2.38-7.56a6.27 6.27 0 012.37 2.37 6.28 6.28 0 012.37-2.37 6.27 6.27 0 01-2.37-2.37 6.26 6.26 0 01-2.37 2.37zM14.86 9.25a1 1 0 01-1-1 1.75 1.75 0 00-2-2 1 1 0 010-2 1.75 1.75 0 002-2 1 1 0 012 0 1.75 1.75 0 002 2 1 1 0 010 2 1.75 1.75 0 00-2 2 1 1 0 01-1 1zm-.18-4l.18.18.14-.17-.18-.18zm18.07-1.16A2 2 0 1134.48.95a2 2 0 01-1.72 3.15zm-.39-1.8a.46.46 0 00.28.2.48.48 0 00.36-.06.45.45 0 00-.14-.83.44.44 0 00-.34.06.46.46 0 00-.2.29.45.45 0 00.05.34zm0 0zM8 22.17a2 2 0 01-1.1-3.77A2 2 0 118 22.17zm0-2.5a.45.45 0 00-.44.35.45.45 0 00.34.54.45.45 0 00.34-.06.45.45 0 00-.24-.83zm55.84-7.76a2.07 2.07 0 01-.45 0 2 2 0 112.17-3.1 2 2 0 01-1.72 3.15zm-.39-1.8a.46.46 0 00.29.2.44.44 0 00.34-.06.45.45 0 10-.63-.14zm0 0z"/></g></g></svg>