<svg xmlns="http://www.w3.org/2000/svg" viewBox="0 0 69.28 68.73"><defs><style>.cls-1{fill:#4b21ff}</style></defs><g id="Слой_2" data-name="Слой 2"><g id="Слой_1-2" data-name="Слой 1"><path class="cls-1" d="M21.55 64.54V53.15l.26-.11 2.48 2.48a2.24 2.24 0 01.66 1.58v8.34a1 1 0 001 1H26a1 1 0 001-1V57.1a4.27 4.27 0 00-1.25-3l-3.24-3.24a3.31 3.31 0 011-.73l5.8-2.58 4.3 4.3v15.92a1 1 0 001 1h.1a1 1 0 001-1V51.83l4.3-4.3 5.8 2.58a3.31 3.31 0 011 .73l-3.24 3.24a4.27 4.27 0 00-1.25 3v8.34a1 1 0 001 1h.1a1 1 0 001-1V57.1a2.24 2.24 0 01.58-1.59l2.7-2.71v11.74a1 1 0 001 1h.1a1 1 0 001-1V53.15a5.35 5.35 0 00-3.18-4.89l-5.9-2.62a1.15 1.15 0 01-.72-1.06V43a8.59 8.59 0 003.25-6.73v-2.32a2.1 2.1 0 001.08-1.84v-.22a8.61 8.61 0 00-8.61-8.61h-2.17a8.61 8.61 0 00-8.61 8.61v2a2.13 2.13 0 00.81 1.71 2 2 0 00.28.18v.45A8.59 8.59 0 0029.28 43v1.62a1.15 1.15 0 01-.69 1.06l-5.9 2.62a5.35 5.35 0 00-3.18 4.89v11.4a1 1 0 001 1h.1a1 1 0 00.94-1.05zM34.64 50l-3.77-3.8a3.18 3.18 0 00.45-1.63v-.41a8.6 8.6 0 006.65 0v.41a3.18 3.18 0 00.45 1.63zm-6.58-13.77v-.46a6 6 0 001.84-1.2 1 1 0 00-1.38-1.49A3.64 3.64 0 0127 34a.2.2 0 010-.09v-2a6.58 6.58 0 016.58-6.58h2.17a6.58 6.58 0 016.58 6.58v.22a.07.07 0 010 .07c-6.08 1.2-9.12-1.06-10.15-2.09a1 1 0 10-1.43 1.43c3.15 3.15 7.75 3.21 10.55 2.87v1.83a6.58 6.58 0 01-13.16 0zm-9.76 6.5v-2.17a7.52 7.52 0 00-3.45-6.32 4.22 4.22 0 00-2.91-5.32 3.42 3.42 0 00-1.18-.22 4.27 4.27 0 00-4.06 5.55 7.52 7.52 0 00-3.45 6.32v2.17a7.52 7.52 0 003.25 6.19v2.23a1.16 1.16 0 01-.64 1l-3.5 1.78A4.27 4.27 0 000 57.76v2.3a1 1 0 001 1 1 1 0 001-1V58.2l1.65 1.65a2.24 2.24 0 01.66 1.58v.75a1 1 0 001 1h.1a1 1 0 001-1v-.75a4.27 4.27 0 00-1.25-3l-2.3-2.3a2.27 2.27 0 01.48-.33L6.78 54a3.25 3.25 0 00.5-.31l2.48 2.48v7a1 1 0 001 1h.1a1 1 0 001-1v-7l2.48-2.48a3.18 3.18 0 00.5.31l1 .48a1 1 0 00.91-1.82l-1-.48a1.16 1.16 0 01-.64-1v-2.26a7.52 7.52 0 003.19-6.19zm-7.52-12A2.24 2.24 0 0113 33a2.31 2.31 0 010 .4 7.53 7.53 0 00-4.4 0 2.3 2.3 0 010-.4 2.24 2.24 0 012.18-2.27zm0 4.34a5.5 5.5 0 015.49 5.49v.37a6.37 6.37 0 01-6.85-2.06 1 1 0 00-1.53-.11 6.64 6.64 0 01-2.6 1.66 5.5 5.5 0 015.49-5.35zm0 19.24L8.43 52a3.24 3.24 0 00.11-.81v-1.27a7.53 7.53 0 004.48 0v1.24a3.22 3.22 0 00.11.81zm0-6.09a5.5 5.5 0 01-5.49-5.49v-.21a8.13 8.13 0 003.25-1.62 9.17 9.17 0 001.88 1.37 8.07 8.07 0 003.88 1 8.51 8.51 0 002-.23 5.5 5.5 0 01-5.52 5.19zm56.47 7.37v4.1a1 1 0 001 1 1 1 0 001-1v-4.1a4.27 4.27 0 00-2.36-3.82l-5.68-2.84a1.15 1.15 0 01-.64-1v-1.47a6.42 6.42 0 002.17-4.81v-1.16h.07a1 1 0 001-1v-2.18a6.44 6.44 0 00-6.44-6.44h-2.12a6.44 6.44 0 00-6.44 6.44v2.17a1 1 0 001 1h.07v1.16a6.42 6.42 0 002.17 4.81v1.45a1.22 1.22 0 01-.66 1.1 1 1 0 00.94 1.8 3.2 3.2 0 00.5-.31l2.48 2.48v10.19a1 1 0 001 1h.1a1 1 0 001-1V52.92l2.48-2.48a3.25 3.25 0 00.5.31l5.5 2.75-1.67 1.67a4.27 4.27 0 00-1.25 3v4a1 1 0 001 1H64a1 1 0 001-1v-4a2.24 2.24 0 01.66-1.58L67.17 55a2.26 2.26 0 01.08.59zM50.84 38.26v-.95a4.41 4.41 0 014.41-4.41h2.17a4.41 4.41 0 014.41 4.41v1.13a15.52 15.52 0 01-7.1-2 1 1 0 00-1.28.13 6.65 6.65 0 01-2.61 1.69zm5.49 12.8L54 48.71a3.22 3.22 0 00.11-.81v-.22a6.43 6.43 0 004.48 0v.22a3.2 3.2 0 00.11.81zm0-5a4.41 4.41 0 01-4.41-4.41V40a8.59 8.59 0 002.38-1.45 18 18 0 006.44 1.83v1.26a4.41 4.41 0 01-4.41 4.42zM43.59 10.42H26.74a1 1 0 010-2h16.85a1 1 0 010 2z"/><path class="cls-1" d="M35.16 18.85a1 1 0 01-1-1V1a1 1 0 012 0v16.85a1 1 0 01-1 1z"/></g></g></svg>