<svg xmlns="http://www.w3.org/2000/svg" viewBox="0 0 68.91 68.91"><defs><style>.cls-2{fill:#4b21ff}</style></defs><g id="Слой_2" data-name="Слой 2"><g id="Слой_1-2" data-name="Слой 1"><path fill="none" d="M0 0h68.91v68.91H0z"/><path class="cls-2" d="M19 33.38a1.25 1.25 0 01-.88-.37L13 27.89a1.25 1.25 0 010-1.77l5.39-5.39a1.25 1.25 0 011.77 1.77L15.61 27l4.25 4.25a1.25 1.25 0 01-.86 2.13zm17.17.5a1.25 1.25 0 01-.88-2.13l4.42-4.42-4.17-4.17a1.25 1.25 0 111.77-1.77l5.06 5.06a1.25 1.25 0 010 1.77l-5.31 5.31a1.25 1.25 0 01-.89.35zm-11.61.88A1.25 1.25 0 0123.44 33l7.28-15.2A1.25 1.25 0 1133 18.88l-7.31 15.17a1.25 1.25 0 01-1.13.71z"/><path class="cls-2" d="M5.51 53.55a1.25 1.25 0 01-1.25-1.25V16.1a6.45 6.45 0 016.44-6.44h35.51a6.45 6.45 0 016.45 6.45v20.2a6.45 6.45 0 01-6.45 6.45h-25a3.94 3.94 0 00-1.92.5l-13 10a1.24 1.24 0 01-.78.29zm5.2-41.39a4 4 0 00-3.95 3.94v33.66l11.06-8.54.13-.09a6.45 6.45 0 013.25-.88h25a4 4 0 003.95-3.95V16.1a4 4 0 00-3.95-3.95zm46.51 40.73a1.25 1.25 0 01-.88-2.13L58 49.12l-1.77-1.77A1.25 1.25 0 1158 45.58l2.65 2.65a1.25 1.25 0 010 1.77l-2.55 2.53a1.25 1.25 0 01-.88.36zm-12.4 0a1.25 1.25 0 01-.88-.37l-2.65-2.65a1.25 1.25 0 010-1.77l2.53-2.53a1.25 1.25 0 011.77 1.77L43.93 49l1.77 1.77a1.25 1.25 0 01-.88 2.13zm4.85.68a1.25 1.25 0 01-1.16-1.72l2.57-6.41a1.25 1.25 0 012.32.93l-2.57 6.41a1.25 1.25 0 01-1.16.79z"/><path class="cls-2" d="M64.43 67.36a1.25 1.25 0 01-.78-.28l-8.18-6.58a2 2 0 00-1-.24H38.71a4.54 4.54 0 01-4.53-4.53v-9.79a1.25 1.25 0 012.5 0v9.79a2 2 0 002 2h15.84a4.54 4.54 0 012.29.62l.15.11 6.22 5V39.41a2 2 0 00-2-2h-5.46a1.25 1.25 0 010-2.5h5.43a4.54 4.54 0 014.53 4.53v26.7a1.25 1.25 0 01-1.25 1.25zm-47.11-6.48a1 1 0 01-1-1 1.75 1.75 0 00-2-2 1 1 0 010-2 1.75 1.75 0 002-2 1 1 0 012 0 1.75 1.75 0 002 2 1 1 0 110 2 1.75 1.75 0 00-2 2 1 1 0 01-1 1zm-.18-4l.18.18.18-.18-.18-.18z"/></g></g></svg>